# MagicaVoxel @ Ephtracy

# group
o 

# material
mtllib navesluzes-30.mtl
usemtl palette

# normals
vn -1 0 0
vn 1 0 0
vn 0 0 1
vn 0 0 -1
vn 0 -1 0
vn 0 1 0

# texcoords
vt 0.0371094 0.5
vt 0.0527344 0.5
vt 0.0605469 0.5

# verts
v 2.5 0.2 -2.2
v 2.5 0.2 -2.4
v 2.5 0.2 -2.5
v 2.5 0.2 -2.6
v 2.5 0.2 -2.7
v 2.5 0.2 -2.8
v 2.5 0.2 -2.9
v 2.5 0.2 -3
v 2.5 0.3 -2.2
v 2.5 0.3 -2.4
v 2.5 0.3 -2.5
v 2.5 0.3 -2.6
v 2.5 0.3 -2.7
v 2.5 0.3 -2.8
v 2.5 0.5 -2.9
v 2.5 0.5 -3
v 2.6 0.1 -2.2
v 2.6 0.1 -2.4
v 2.6 0.1 -2.5
v 2.6 0.1 -2.6
v 2.6 0.1 -2.7
v 2.6 0.2 -2.1
v 2.6 0.2 -2.2
v 2.6 0.2 -2.4
v 2.6 0.2 -2.5
v 2.6 0.2 -2.6
v 2.6 0.2 -2.7
v 2.6 0.2 -2.8
v 2.6 0.2 -2.9
v 2.6 0.3 -2.1
v 2.6 0.3 -2.2
v 2.6 0.3 -2.3
v 2.6 0.3 -2.4
v 2.6 0.3 -2.5
v 2.6 0.3 -2.6
v 2.6 0.3 -2.7
v 2.6 0.3 -2.8
v 2.6 0.3 -2.9
v 2.6 0.4 -2.3
v 2.6 0.4 -2.4
v 2.6 0.4 -2.5
v 2.6 0.4 -2.6
v 2.6 0.4 -2.7
v 2.7 0.1 -2.1
v 2.7 0.1 -2.2
v 2.7 0.1 -2.7
v 2.7 0.1 -2.9
v 2.7 0.2 -2.1
v 2.7 0.2 -2.2
v 2.7 0.2 -2.7
v 2.7 0.2 -2.9
v 2.7 0.3 -2.2
v 2.7 0.3 -2.3
v 2.7 0.3 -2.7
v 2.7 0.3 -2.8
v 2.7 0.3 -2.9
v 2.7 0.4 -2.2
v 2.7 0.4 -2.3
v 2.7 0.4 -2.7
v 2.7 0.4 -2.8
v 2.7 0.4 -2.9
v 2.9 0.2 -2.3
v 2.9 0.2 -2.4
v 2.9 0.2 -2.5
v 2.9 0.2 -2.6
v 2.9 0.2 -2.7
v 2.9 0.4 -2.3
v 2.9 0.4 -2.4
v 2.9 0.4 -2.5
v 2.9 0.4 -2.6
v 2.9 0.4 -2.7
v 3 0.3 -2.9
v 3 0.3 -3
v 3 0.5 -2.9
v 3 0.5 -3
v 2.6 0.3 -2.9
v 2.6 0.3 -3
v 2.6 0.5 -2.9
v 2.6 0.5 -3
v 2.7 0.2 -2.3
v 2.7 0.2 -2.4
v 2.7 0.2 -2.5
v 2.7 0.2 -2.6
v 2.7 0.2 -2.7
v 2.7 0.4 -2.3
v 2.7 0.4 -2.4
v 2.7 0.4 -2.5
v 2.7 0.4 -2.6
v 2.7 0.4 -2.7
v 2.9 0.1 -2.1
v 2.9 0.1 -2.2
v 2.9 0.1 -2.7
v 2.9 0.1 -2.9
v 2.9 0.2 -2.1
v 2.9 0.2 -2.2
v 2.9 0.2 -2.7
v 2.9 0.2 -2.9
v 2.9 0.3 -2.2
v 2.9 0.3 -2.3
v 2.9 0.3 -2.7
v 2.9 0.3 -2.8
v 2.9 0.3 -2.9
v 2.9 0.4 -2.2
v 2.9 0.4 -2.3
v 2.9 0.4 -2.7
v 2.9 0.4 -2.8
v 2.9 0.4 -2.9
v 3 0.1 -2.2
v 3 0.1 -2.4
v 3 0.1 -2.5
v 3 0.1 -2.6
v 3 0.1 -2.7
v 3 0.2 -2.1
v 3 0.2 -2.2
v 3 0.2 -2.4
v 3 0.2 -2.5
v 3 0.2 -2.6
v 3 0.2 -2.7
v 3 0.2 -2.8
v 3 0.2 -2.9
v 3 0.3 -2.1
v 3 0.3 -2.2
v 3 0.3 -2.3
v 3 0.3 -2.4
v 3 0.3 -2.5
v 3 0.3 -2.6
v 3 0.3 -2.7
v 3 0.3 -2.8
v 3 0.3 -2.9
v 3 0.4 -2.3
v 3 0.4 -2.4
v 3 0.4 -2.5
v 3 0.4 -2.6
v 3 0.4 -2.7
v 3.1 0.2 -2.2
v 3.1 0.2 -2.4
v 3.1 0.2 -2.5
v 3.1 0.2 -2.6
v 3.1 0.2 -2.7
v 3.1 0.2 -2.8
v 3.1 0.2 -2.9
v 3.1 0.2 -3
v 3.1 0.3 -2.2
v 3.1 0.3 -2.4
v 3.1 0.3 -2.5
v 3.1 0.3 -2.6
v 3.1 0.3 -2.7
v 3.1 0.3 -2.8
v 3.1 0.5 -2.9
v 3.1 0.5 -3
v 2.6 0.2 -2.1
v 2.6 0.3 -2.1
v 2.7 0.1 -2.1
v 2.7 0.2 -2.1
v 2.9 0.1 -2.1
v 2.9 0.2 -2.1
v 3 0.2 -2.1
v 3 0.3 -2.1
v 2.5 0.2 -2.2
v 2.5 0.3 -2.2
v 2.6 0.1 -2.2
v 2.6 0.2 -2.2
v 2.6 0.3 -2.2
v 2.7 0.1 -2.2
v 2.7 0.2 -2.2
v 2.7 0.3 -2.2
v 2.7 0.4 -2.2
v 2.9 0.1 -2.2
v 2.9 0.2 -2.2
v 2.9 0.3 -2.2
v 2.9 0.4 -2.2
v 3 0.1 -2.2
v 3 0.2 -2.2
v 3 0.3 -2.2
v 3.1 0.2 -2.2
v 3.1 0.3 -2.2
v 2.6 0.3 -2.3
v 2.6 0.4 -2.3
v 2.7 0.3 -2.3
v 2.7 0.4 -2.3
v 2.9 0.3 -2.3
v 2.9 0.4 -2.3
v 3 0.3 -2.3
v 3 0.4 -2.3
v 2.7 0.2 -2.7
v 2.7 0.4 -2.7
v 2.9 0.2 -2.7
v 2.9 0.4 -2.7
v 2.5 0.2 -2.9
v 2.5 0.5 -2.9
v 2.6 0.2 -2.9
v 2.6 0.3 -2.9
v 2.6 0.5 -2.9
v 3 0.2 -2.9
v 3 0.3 -2.9
v 3 0.5 -2.9
v 3.1 0.2 -2.9
v 3.1 0.5 -2.9
v 2.7 0.2 -2.3
v 2.7 0.4 -2.3
v 2.9 0.2 -2.3
v 2.9 0.4 -2.3
v 2.6 0.1 -2.7
v 2.6 0.2 -2.7
v 2.6 0.3 -2.7
v 2.6 0.4 -2.7
v 2.7 0.1 -2.7
v 2.7 0.2 -2.7
v 2.7 0.3 -2.7
v 2.7 0.4 -2.7
v 2.9 0.1 -2.7
v 2.9 0.2 -2.7
v 2.9 0.3 -2.7
v 2.9 0.4 -2.7
v 3 0.1 -2.7
v 3 0.2 -2.7
v 3 0.3 -2.7
v 3 0.4 -2.7
v 2.5 0.2 -2.8
v 2.5 0.3 -2.8
v 2.6 0.2 -2.8
v 2.6 0.3 -2.8
v 3 0.2 -2.8
v 3 0.3 -2.8
v 3.1 0.2 -2.8
v 3.1 0.3 -2.8
v 2.7 0.1 -2.9
v 2.7 0.2 -2.9
v 2.7 0.3 -2.9
v 2.7 0.4 -2.9
v 2.9 0.1 -2.9
v 2.9 0.2 -2.9
v 2.9 0.3 -2.9
v 2.9 0.4 -2.9
v 2.5 0.2 -3
v 2.5 0.5 -3
v 2.6 0.2 -3
v 2.6 0.3 -3
v 2.6 0.5 -3
v 3 0.2 -3
v 3 0.3 -3
v 3 0.5 -3
v 3.1 0.2 -3
v 3.1 0.5 -3
v 2.7 0.1 -2.1
v 2.9 0.1 -2.1
v 2.6 0.1 -2.2
v 2.7 0.1 -2.2
v 2.9 0.1 -2.2
v 3 0.1 -2.2
v 2.6 0.1 -2.4
v 3 0.1 -2.4
v 2.6 0.1 -2.5
v 3 0.1 -2.5
v 2.6 0.1 -2.6
v 3 0.1 -2.6
v 2.6 0.1 -2.7
v 2.7 0.1 -2.7
v 2.9 0.1 -2.7
v 3 0.1 -2.7
v 2.7 0.1 -2.9
v 2.9 0.1 -2.9
v 2.6 0.2 -2.1
v 2.7 0.2 -2.1
v 2.9 0.2 -2.1
v 3 0.2 -2.1
v 2.5 0.2 -2.2
v 2.6 0.2 -2.2
v 2.7 0.2 -2.2
v 2.9 0.2 -2.2
v 3 0.2 -2.2
v 3.1 0.2 -2.2
v 2.5 0.2 -2.4
v 2.6 0.2 -2.4
v 3 0.2 -2.4
v 3.1 0.2 -2.4
v 2.5 0.2 -2.5
v 2.6 0.2 -2.5
v 3 0.2 -2.5
v 3.1 0.2 -2.5
v 2.5 0.2 -2.6
v 2.6 0.2 -2.6
v 3 0.2 -2.6
v 3.1 0.2 -2.6
v 2.5 0.2 -2.7
v 2.6 0.2 -2.7
v 2.7 0.2 -2.7
v 2.9 0.2 -2.7
v 3 0.2 -2.7
v 3.1 0.2 -2.7
v 2.5 0.2 -2.8
v 2.6 0.2 -2.8
v 3 0.2 -2.8
v 3.1 0.2 -2.8
v 2.5 0.2 -2.9
v 2.6 0.2 -2.9
v 2.7 0.2 -2.9
v 2.9 0.2 -2.9
v 3 0.2 -2.9
v 3.1 0.2 -2.9
v 2.5 0.2 -3
v 2.6 0.2 -3
v 3 0.2 -3
v 3.1 0.2 -3
v 2.7 0.2 -2.3
v 2.9 0.2 -2.3
v 2.7 0.2 -2.4
v 2.9 0.2 -2.4
v 2.7 0.2 -2.5
v 2.9 0.2 -2.5
v 2.7 0.2 -2.6
v 2.9 0.2 -2.6
v 2.7 0.2 -2.7
v 2.9 0.2 -2.7
v 2.6 0.3 -2.1
v 3 0.3 -2.1
v 2.5 0.3 -2.2
v 2.6 0.3 -2.2
v 2.7 0.3 -2.2
v 2.9 0.3 -2.2
v 3 0.3 -2.2
v 3.1 0.3 -2.2
v 2.6 0.3 -2.3
v 2.7 0.3 -2.3
v 2.9 0.3 -2.3
v 3 0.3 -2.3
v 2.5 0.3 -2.4
v 2.6 0.3 -2.4
v 3 0.3 -2.4
v 3.1 0.3 -2.4
v 2.5 0.3 -2.5
v 2.6 0.3 -2.5
v 3 0.3 -2.5
v 3.1 0.3 -2.5
v 2.5 0.3 -2.6
v 2.6 0.3 -2.6
v 3 0.3 -2.6
v 3.1 0.3 -2.6
v 2.5 0.3 -2.7
v 2.6 0.3 -2.7
v 2.7 0.3 -2.7
v 2.9 0.3 -2.7
v 3 0.3 -2.7
v 3.1 0.3 -2.7
v 2.5 0.3 -2.8
v 2.6 0.3 -2.8
v 2.7 0.3 -2.8
v 2.9 0.3 -2.8
v 3 0.3 -2.8
v 3.1 0.3 -2.8
v 2.6 0.3 -2.9
v 2.7 0.3 -2.9
v 2.9 0.3 -2.9
v 3 0.3 -2.9
v 2.6 0.3 -3
v 3 0.3 -3
v 2.7 0.4 -2.2
v 2.9 0.4 -2.2
v 2.6 0.4 -2.3
v 2.7 0.4 -2.3
v 2.9 0.4 -2.3
v 3 0.4 -2.3
v 2.6 0.4 -2.4
v 2.7 0.4 -2.4
v 2.9 0.4 -2.4
v 3 0.4 -2.4
v 2.6 0.4 -2.5
v 2.7 0.4 -2.5
v 2.9 0.4 -2.5
v 3 0.4 -2.5
v 2.6 0.4 -2.6
v 2.7 0.4 -2.6
v 2.9 0.4 -2.6
v 3 0.4 -2.6
v 2.6 0.4 -2.7
v 2.7 0.4 -2.7
v 2.9 0.4 -2.7
v 3 0.4 -2.7
v 2.7 0.4 -2.8
v 2.9 0.4 -2.8
v 2.7 0.4 -2.9
v 2.9 0.4 -2.9
v 2.5 0.5 -2.9
v 2.6 0.5 -2.9
v 3 0.5 -2.9
v 3.1 0.5 -2.9
v 2.5 0.5 -3
v 2.6 0.5 -3
v 3 0.5 -3
v 3.1 0.5 -3

# faces
f 9/3/1 2/3/1 1/3/1
f 10/2/1 3/2/1 2/2/1
f 10/3/1 2/3/1 9/3/1
f 11/3/1 4/3/1 3/3/1
f 11/2/1 3/2/1 10/2/1
f 12/2/1 5/2/1 4/2/1
f 12/3/1 4/3/1 11/3/1
f 13/3/1 6/3/1 5/3/1
f 13/2/1 5/2/1 12/2/1
f 14/3/1 6/3/1 13/3/1
f 15/3/1 8/3/1 7/3/1
f 16/3/1 8/3/1 15/3/1
f 23/3/1 18/3/1 17/3/1
f 24/2/1 19/2/1 18/2/1
f 24/3/1 18/3/1 23/3/1
f 25/3/1 20/3/1 19/3/1
f 25/2/1 19/2/1 24/2/1
f 26/2/1 21/2/1 20/2/1
f 26/3/1 20/3/1 25/3/1
f 27/2/1 21/2/1 26/2/1
f 30/3/1 23/3/1 22/3/1
f 31/3/1 23/3/1 30/3/1
f 37/3/1 29/3/1 28/3/1
f 38/3/1 29/3/1 37/3/1
f 39/3/1 33/3/1 32/3/1
f 40/2/1 34/2/1 33/2/1
f 40/3/1 33/3/1 39/3/1
f 41/3/1 35/3/1 34/3/1
f 41/2/1 34/2/1 40/2/1
f 42/2/1 36/2/1 35/2/1
f 42/3/1 35/3/1 41/3/1
f 43/2/1 36/2/1 42/2/1
f 48/3/1 45/3/1 44/3/1
f 49/3/1 45/3/1 48/3/1
f 50/3/1 47/3/1 46/3/1
f 51/3/1 47/3/1 50/3/1
f 57/3/1 53/3/1 52/3/1
f 58/3/1 53/3/1 57/3/1
f 59/1/1 55/1/1 54/1/1
f 60/3/1 56/3/1 55/3/1
f 60/1/1 55/1/1 59/1/1
f 61/3/1 56/3/1 60/3/1
f 67/3/1 63/3/1 62/3/1
f 68/2/1 64/2/1 63/2/1
f 68/3/1 63/3/1 67/3/1
f 69/3/1 65/3/1 64/3/1
f 69/2/1 64/2/1 68/2/1
f 70/2/1 66/2/1 65/2/1
f 70/3/1 65/3/1 69/3/1
f 71/2/1 66/2/1 70/2/1
f 74/3/1 73/3/1 72/3/1
f 75/3/1 73/3/1 74/3/1
f 76/3/2 77/3/2 78/3/2
f 78/3/2 77/3/2 79/3/2
f 80/3/2 81/3/2 85/3/2
f 81/2/2 82/2/2 86/2/2
f 85/3/2 81/3/2 86/3/2
f 82/3/2 83/3/2 87/3/2
f 86/2/2 82/2/2 87/2/2
f 83/2/2 84/2/2 88/2/2
f 87/3/2 83/3/2 88/3/2
f 88/2/2 84/2/2 89/2/2
f 90/3/2 91/3/2 94/3/2
f 94/3/2 91/3/2 95/3/2
f 92/3/2 93/3/2 96/3/2
f 96/3/2 93/3/2 97/3/2
f 98/3/2 99/3/2 103/3/2
f 103/3/2 99/3/2 104/3/2
f 100/1/2 101/1/2 105/1/2
f 101/3/2 102/3/2 106/3/2
f 105/1/2 101/1/2 106/1/2
f 106/3/2 102/3/2 107/3/2
f 108/3/2 109/3/2 114/3/2
f 109/2/2 110/2/2 115/2/2
f 114/3/2 109/3/2 115/3/2
f 110/3/2 111/3/2 116/3/2
f 115/2/2 110/2/2 116/2/2
f 111/2/2 112/2/2 117/2/2
f 116/3/2 111/3/2 117/3/2
f 117/2/2 112/2/2 118/2/2
f 113/3/2 114/3/2 121/3/2
f 121/3/2 114/3/2 122/3/2
f 119/3/2 120/3/2 128/3/2
f 128/3/2 120/3/2 129/3/2
f 123/3/2 124/3/2 130/3/2
f 124/2/2 125/2/2 131/2/2
f 130/3/2 124/3/2 131/3/2
f 125/3/2 126/3/2 132/3/2
f 131/2/2 125/2/2 132/2/2
f 126/2/2 127/2/2 133/2/2
f 132/3/2 126/3/2 133/3/2
f 133/2/2 127/2/2 134/2/2
f 135/3/2 136/3/2 143/3/2
f 136/2/2 137/2/2 144/2/2
f 143/3/2 136/3/2 144/3/2
f 137/3/2 138/3/2 145/3/2
f 144/2/2 137/2/2 145/2/2
f 138/2/2 139/2/2 146/2/2
f 145/3/2 138/3/2 146/3/2
f 139/3/2 140/3/2 147/3/2
f 146/2/2 139/2/2 147/2/2
f 147/3/2 140/3/2 148/3/2
f 141/3/2 142/3/2 149/3/2
f 149/3/2 142/3/2 150/3/2
f 154/3/3 152/3/3 151/3/3
f 155/3/3 154/3/3 153/3/3
f 156/3/3 152/3/3 154/3/3
f 156/3/3 154/3/3 155/3/3
f 157/3/3 152/3/3 156/3/3
f 158/3/3 152/3/3 157/3/3
f 162/3/3 160/3/3 159/3/3
f 163/3/3 160/3/3 162/3/3
f 164/3/3 162/3/3 161/3/3
f 165/3/3 162/3/3 164/3/3
f 170/3/3 167/3/3 166/3/3
f 171/3/3 167/3/3 170/3/3
f 172/3/3 169/3/3 168/3/3
f 173/3/3 169/3/3 172/3/3
f 175/3/3 174/3/3 173/3/3
f 176/3/3 174/3/3 175/3/3
f 179/3/3 178/3/3 177/3/3
f 180/3/3 178/3/3 179/3/3
f 183/3/3 182/3/3 181/3/3
f 184/3/3 182/3/3 183/3/3
f 187/1/3 186/1/3 185/1/3
f 188/1/3 186/1/3 187/1/3
f 191/3/3 190/3/3 189/3/3
f 192/3/3 190/3/3 191/3/3
f 193/3/3 190/3/3 192/3/3
f 197/3/3 195/3/3 194/3/3
f 197/3/3 196/3/3 195/3/3
f 198/3/3 196/3/3 197/3/3
f 199/3/4 200/3/4 201/3/4
f 201/3/4 200/3/4 202/3/4
f 203/2/4 204/2/4 207/2/4
f 207/2/4 204/2/4 208/2/4
f 205/2/4 206/2/4 209/2/4
f 209/2/4 206/2/4 210/2/4
f 211/2/4 212/2/4 215/2/4
f 215/2/4 212/2/4 216/2/4
f 213/2/4 214/2/4 217/2/4
f 217/2/4 214/2/4 218/2/4
f 219/3/4 220/3/4 221/3/4
f 221/3/4 220/3/4 222/3/4
f 223/3/4 224/3/4 225/3/4
f 225/3/4 224/3/4 226/3/4
f 227/3/4 228/3/4 231/3/4
f 231/3/4 228/3/4 232/3/4
f 229/3/4 230/3/4 233/3/4
f 233/3/4 230/3/4 234/3/4
f 235/3/4 236/3/4 237/3/4
f 237/3/4 236/3/4 238/3/4
f 238/3/4 236/3/4 239/3/4
f 237/2/4 238/2/4 240/2/4
f 240/2/4 238/2/4 241/2/4
f 240/3/4 241/3/4 243/3/4
f 241/3/4 242/3/4 243/3/4
f 243/3/4 242/3/4 244/3/4
f 248/3/5 246/3/5 245/3/5
f 249/3/5 246/3/5 248/3/5
f 251/3/5 248/3/5 247/3/5
f 251/3/5 250/3/5 249/3/5
f 251/3/5 249/3/5 248/3/5
f 252/3/5 250/3/5 251/3/5
f 253/2/5 252/2/5 251/2/5
f 254/2/5 252/2/5 253/2/5
f 255/3/5 254/3/5 253/3/5
f 256/3/5 254/3/5 255/3/5
f 257/2/5 256/2/5 255/2/5
f 258/2/5 256/2/5 257/2/5
f 259/2/5 256/2/5 258/2/5
f 260/2/5 256/2/5 259/2/5
f 261/3/5 259/3/5 258/3/5
f 262/3/5 259/3/5 261/3/5
f 268/3/5 264/3/5 263/3/5
f 269/3/5 264/3/5 268/3/5
f 270/3/5 266/3/5 265/3/5
f 271/3/5 266/3/5 270/3/5
f 273/3/5 268/3/5 267/3/5
f 274/3/5 268/3/5 273/3/5
f 275/3/5 272/3/5 271/3/5
f 276/3/5 272/3/5 275/3/5
f 277/2/5 274/2/5 273/2/5
f 278/2/5 274/2/5 277/2/5
f 279/2/5 276/2/5 275/2/5
f 280/2/5 276/2/5 279/2/5
f 281/3/5 278/3/5 277/3/5
f 282/3/5 278/3/5 281/3/5
f 283/3/5 280/3/5 279/3/5
f 284/3/5 280/3/5 283/3/5
f 285/2/5 282/2/5 281/2/5
f 286/2/5 282/2/5 285/2/5
f 289/2/5 284/2/5 283/2/5
f 290/2/5 284/2/5 289/2/5
f 291/3/5 287/3/5 286/3/5
f 291/3/5 286/3/5 285/3/5
f 292/3/5 287/3/5 291/3/5
f 293/3/5 290/3/5 289/3/5
f 293/3/5 289/3/5 288/3/5
f 294/3/5 290/3/5 293/3/5
f 296/3/5 287/3/5 292/3/5
f 297/3/5 287/3/5 296/3/5
f 298/3/5 293/3/5 288/3/5
f 299/3/5 293/3/5 298/3/5
f 301/3/5 296/3/5 295/3/5
f 302/2/5 297/2/5 296/2/5
f 302/3/5 296/3/5 301/3/5
f 302/2/5 298/2/5 297/2/5
f 302/2/5 299/2/5 298/2/5
f 303/3/5 300/3/5 299/3/5
f 303/2/5 299/2/5 302/2/5
f 304/3/5 300/3/5 303/3/5
f 305/3/6 306/3/6 307/3/6
f 307/3/6 306/3/6 308/3/6
f 307/2/6 308/2/6 309/2/6
f 309/2/6 308/2/6 310/2/6
f 309/3/6 310/3/6 311/3/6
f 311/3/6 310/3/6 312/3/6
f 311/2/6 312/2/6 313/2/6
f 313/2/6 312/2/6 314/2/6
f 315/3/6 316/3/6 318/3/6
f 318/3/6 316/3/6 319/3/6
f 319/3/6 316/3/6 320/3/6
f 320/3/6 316/3/6 321/3/6
f 317/3/6 318/3/6 323/3/6
f 318/3/6 319/3/6 323/3/6
f 323/3/6 319/3/6 324/3/6
f 321/3/6 322/3/6 325/3/6
f 320/3/6 321/3/6 325/3/6
f 325/3/6 322/3/6 326/3/6
f 317/3/6 323/3/6 327/3/6
f 327/3/6 323/3/6 328/3/6
f 326/3/6 322/3/6 329/3/6
f 329/3/6 322/3/6 330/3/6
f 327/2/6 328/2/6 331/2/6
f 331/2/6 328/2/6 332/2/6
f 329/2/6 330/2/6 333/2/6
f 333/2/6 330/2/6 334/2/6
f 331/3/6 332/3/6 335/3/6
f 335/3/6 332/3/6 336/3/6
f 333/3/6 334/3/6 337/3/6
f 337/3/6 334/3/6 338/3/6
f 335/2/6 336/2/6 339/2/6
f 339/2/6 336/2/6 340/2/6
f 337/2/6 338/2/6 343/2/6
f 343/2/6 338/2/6 344/2/6
f 340/3/6 341/3/6 345/3/6
f 339/3/6 340/3/6 345/3/6
f 345/3/6 341/3/6 346/3/6
f 346/3/6 341/3/6 347/3/6
f 343/3/6 344/3/6 348/3/6
f 342/3/6 343/3/6 348/3/6
f 348/3/6 344/3/6 349/3/6
f 349/3/6 344/3/6 350/3/6
f 346/3/6 347/3/6 351/3/6
f 351/3/6 347/3/6 352/3/6
f 348/3/6 349/3/6 353/3/6
f 353/3/6 349/3/6 354/3/6
f 351/2/6 352/2/6 355/2/6
f 352/2/6 353/2/6 355/2/6
f 353/2/6 354/2/6 355/2/6
f 355/2/6 354/2/6 356/2/6
f 357/3/6 358/3/6 360/3/6
f 360/3/6 358/3/6 361/3/6
f 359/3/6 360/3/6 363/3/6
f 363/3/6 360/3/6 364/3/6
f 361/3/6 362/3/6 365/3/6
f 365/3/6 362/3/6 366/3/6
f 363/2/6 364/2/6 367/2/6
f 367/2/6 364/2/6 368/2/6
f 365/2/6 366/2/6 369/2/6
f 369/2/6 366/2/6 370/2/6
f 367/3/6 368/3/6 371/3/6
f 371/3/6 368/3/6 372/3/6
f 369/3/6 370/3/6 373/3/6
f 373/3/6 370/3/6 374/3/6
f 371/2/6 372/2/6 375/2/6
f 375/2/6 372/2/6 376/2/6
f 373/2/6 374/2/6 377/2/6
f 377/2/6 374/2/6 378/2/6
f 376/1/6 377/1/6 379/1/6
f 379/1/6 377/1/6 380/1/6
f 379/3/6 380/3/6 381/3/6
f 381/3/6 380/3/6 382/3/6
f 383/3/6 384/3/6 387/3/6
f 387/3/6 384/3/6 388/3/6
f 385/3/6 386/3/6 389/3/6
f 389/3/6 386/3/6 390/3/6
