# MagicaVoxel @ Ephtracy

# group
o 

# material
mtllib navesluzes-28.mtl
usemtl palette

# normals
vn -1 0 0
vn 1 0 0
vn 0 0 1
vn 0 0 -1
vn 0 -1 0
vn 0 1 0

# texcoords
vt 0.00976563 0.5
vt 0.0136719 0.5
vt 0.0175781 0.5
vt 0.0371094 0.5

# verts
v 0.1 0.1 -2.7
v 0.1 0.1 -2.8
v 0.1 0.2 -2.7
v 0.1 0.2 -2.8
v 0.4 0.1 -2.4
v 0.4 0.1 -2.7
v 0.4 0.1 -2.8
v 0.4 0.1 -3.1
v 0.4 0.2 -2.4
v 0.4 0.2 -2.7
v 0.4 0.2 -2.8
v 0.4 0.2 -3.1
v 0.5 0 -2.4
v 0.5 0 -2.7
v 0.5 0 -2.8
v 0.5 0 -3
v 0.5 0.1 -2.3
v 0.5 0.1 -2.4
v 0.5 0.1 -2.7
v 0.5 0.1 -2.8
v 0.5 0.1 -3
v 0.5 0.2 -2.3
v 0.5 0.2 -2.4
v 0.5 0.2 -2.5
v 0.5 0.2 -2.8
v 0.5 0.2 -2.9
v 0.5 0.2 -3
v 0.5 0.3 -2.4
v 0.5 0.3 -2.5
v 0.5 0.3 -2.8
v 0.5 0.3 -2.9
v 0.5 0.3 -3
v 0.7 0.1 -2.5
v 0.7 0.1 -2.7
v 0.7 0.1 -2.8
v 0.7 0.1 -3
v 0.7 0.1 -3.1
v 0.7 0.2 -2.5
v 0.7 0.2 -2.8
v 0.7 0.2 -3
v 0.7 0.2 -3.1
v 0.5 0.1 -2.5
v 0.5 0.1 -2.7
v 0.5 0.1 -2.8
v 0.5 0.1 -3
v 0.5 0.1 -3.1
v 0.5 0.2 -2.5
v 0.5 0.2 -2.8
v 0.5 0.2 -3
v 0.5 0.2 -3.1
v 0.7 0 -2.4
v 0.7 0 -2.7
v 0.7 0 -2.8
v 0.7 0 -3
v 0.7 0.1 -2.3
v 0.7 0.1 -2.4
v 0.7 0.1 -2.7
v 0.7 0.1 -2.8
v 0.7 0.1 -3
v 0.7 0.2 -2.3
v 0.7 0.2 -2.4
v 0.7 0.2 -2.5
v 0.7 0.2 -2.8
v 0.7 0.2 -2.9
v 0.7 0.2 -3
v 0.7 0.3 -2.4
v 0.7 0.3 -2.5
v 0.7 0.3 -2.8
v 0.7 0.3 -2.9
v 0.7 0.3 -3
v 0.8 0.1 -2.4
v 0.8 0.1 -2.7
v 0.8 0.1 -2.8
v 0.8 0.1 -3.1
v 0.8 0.2 -2.4
v 0.8 0.2 -2.7
v 0.8 0.2 -2.8
v 0.8 0.2 -3.1
v 1.1 0.1 -2.7
v 1.1 0.1 -2.8
v 1.1 0.2 -2.7
v 1.1 0.2 -2.8
v 0.5 0.1 -2.3
v 0.5 0.2 -2.3
v 0.7 0.1 -2.3
v 0.7 0.2 -2.3
v 0.4 0.1 -2.4
v 0.4 0.2 -2.4
v 0.5 0 -2.4
v 0.5 0.1 -2.4
v 0.5 0.2 -2.4
v 0.5 0.3 -2.4
v 0.7 0 -2.4
v 0.7 0.1 -2.4
v 0.7 0.2 -2.4
v 0.7 0.3 -2.4
v 0.8 0.1 -2.4
v 0.8 0.2 -2.4
v 0.1 0.1 -2.7
v 0.1 0.2 -2.7
v 0.4 0.1 -2.7
v 0.4 0.2 -2.7
v 0.8 0.1 -2.7
v 0.8 0.2 -2.7
v 1.1 0.1 -2.7
v 1.1 0.2 -2.7
v 0.5 0.1 -2.8
v 0.5 0.2 -2.8
v 0.5 0.3 -2.8
v 0.7 0.1 -2.8
v 0.7 0.2 -2.8
v 0.7 0.3 -2.8
v 0.5 0.1 -2.5
v 0.5 0.2 -2.5
v 0.5 0.3 -2.5
v 0.7 0.1 -2.5
v 0.7 0.2 -2.5
v 0.7 0.3 -2.5
v 0.1 0.1 -2.8
v 0.1 0.2 -2.8
v 0.4 0.1 -2.8
v 0.4 0.2 -2.8
v 0.8 0.1 -2.8
v 0.8 0.2 -2.8
v 1.1 0.1 -2.8
v 1.1 0.2 -2.8
v 0.5 0 -3
v 0.5 0.1 -3
v 0.5 0.2 -3
v 0.5 0.3 -3
v 0.7 0 -3
v 0.7 0.1 -3
v 0.7 0.2 -3
v 0.7 0.3 -3
v 0.4 0.1 -3.1
v 0.4 0.2 -3.1
v 0.5 0.1 -3.1
v 0.5 0.2 -3.1
v 0.7 0.1 -3.1
v 0.7 0.2 -3.1
v 0.8 0.1 -3.1
v 0.8 0.2 -3.1
v 0.5 0 -2.4
v 0.7 0 -2.4
v 0.5 0 -2.7
v 0.7 0 -2.7
v 0.5 0 -2.8
v 0.7 0 -2.8
v 0.5 0 -3
v 0.7 0 -3
v 0.5 0.1 -2.3
v 0.7 0.1 -2.3
v 0.4 0.1 -2.4
v 0.5 0.1 -2.4
v 0.7 0.1 -2.4
v 0.8 0.1 -2.4
v 0.1 0.1 -2.7
v 0.4 0.1 -2.7
v 0.5 0.1 -2.7
v 0.7 0.1 -2.7
v 0.8 0.1 -2.7
v 1.1 0.1 -2.7
v 0.1 0.1 -2.8
v 0.4 0.1 -2.8
v 0.5 0.1 -2.8
v 0.7 0.1 -2.8
v 0.8 0.1 -2.8
v 1.1 0.1 -2.8
v 0.5 0.1 -3
v 0.7 0.1 -3
v 0.4 0.1 -3.1
v 0.5 0.1 -3.1
v 0.7 0.1 -3.1
v 0.8 0.1 -3.1
v 0.5 0.1 -2.5
v 0.7 0.1 -2.5
v 0.5 0.1 -2.7
v 0.7 0.1 -2.7
v 0.5 0.1 -2.8
v 0.7 0.1 -2.8
v 0.5 0.2 -2.3
v 0.7 0.2 -2.3
v 0.4 0.2 -2.4
v 0.5 0.2 -2.4
v 0.7 0.2 -2.4
v 0.8 0.2 -2.4
v 0.5 0.2 -2.5
v 0.7 0.2 -2.5
v 0.1 0.2 -2.7
v 0.4 0.2 -2.7
v 0.8 0.2 -2.7
v 1.1 0.2 -2.7
v 0.1 0.2 -2.8
v 0.4 0.2 -2.8
v 0.5 0.2 -2.8
v 0.7 0.2 -2.8
v 0.8 0.2 -2.8
v 1.1 0.2 -2.8
v 0.5 0.2 -2.9
v 0.7 0.2 -2.9
v 0.5 0.2 -3
v 0.7 0.2 -3
v 0.4 0.2 -3.1
v 0.5 0.2 -3.1
v 0.7 0.2 -3.1
v 0.8 0.2 -3.1
v 0.5 0.3 -2.4
v 0.7 0.3 -2.4
v 0.5 0.3 -2.5
v 0.7 0.3 -2.5
v 0.5 0.3 -2.8
v 0.7 0.3 -2.8
v 0.5 0.3 -2.9
v 0.7 0.3 -2.9
v 0.5 0.3 -3
v 0.7 0.3 -3

# faces
f 3/3/1 2/3/1 1/3/1
f 4/3/1 2/3/1 3/3/1
f 9/2/1 6/2/1 5/2/1
f 10/2/1 6/2/1 9/2/1
f 11/2/1 8/2/1 7/2/1
f 12/2/1 8/2/1 11/2/1
f 18/1/1 14/1/1 13/1/1
f 19/4/1 15/4/1 14/4/1
f 19/1/1 14/1/1 18/1/1
f 20/1/1 16/1/1 15/1/1
f 20/4/1 15/4/1 19/4/1
f 21/1/1 16/1/1 20/1/1
f 22/2/1 18/2/1 17/2/1
f 23/2/1 18/2/1 22/2/1
f 28/1/1 24/1/1 23/1/1
f 29/1/1 24/1/1 28/1/1
f 30/4/1 26/4/1 25/4/1
f 31/1/1 27/1/1 26/1/1
f 31/4/1 26/4/1 30/4/1
f 32/1/1 27/1/1 31/1/1
f 38/2/1 34/2/1 33/2/1
f 38/2/1 35/2/1 34/2/1
f 39/2/1 35/2/1 38/2/1
f 40/2/1 37/2/1 36/2/1
f 41/2/1 37/2/1 40/2/1
f 42/2/2 43/2/2 47/2/2
f 43/2/2 44/2/2 47/2/2
f 47/2/2 44/2/2 48/2/2
f 45/2/2 46/2/2 49/2/2
f 49/2/2 46/2/2 50/2/2
f 51/1/2 52/1/2 56/1/2
f 52/4/2 53/4/2 57/4/2
f 56/1/2 52/1/2 57/1/2
f 53/1/2 54/1/2 58/1/2
f 57/4/2 53/4/2 58/4/2
f 58/1/2 54/1/2 59/1/2
f 55/2/2 56/2/2 60/2/2
f 60/2/2 56/2/2 61/2/2
f 61/1/2 62/1/2 66/1/2
f 66/1/2 62/1/2 67/1/2
f 63/4/2 64/4/2 68/4/2
f 64/1/2 65/1/2 69/1/2
f 68/4/2 64/4/2 69/4/2
f 69/1/2 65/1/2 70/1/2
f 71/2/2 72/2/2 75/2/2
f 75/2/2 72/2/2 76/2/2
f 73/2/2 74/2/2 77/2/2
f 77/2/2 74/2/2 78/2/2
f 79/3/2 80/3/2 81/3/2
f 81/3/2 80/3/2 82/3/2
f 85/2/3 84/2/3 83/2/3
f 86/2/3 84/2/3 85/2/3
f 90/2/3 88/2/3 87/2/3
f 91/2/3 88/2/3 90/2/3
f 93/1/3 90/1/3 89/1/3
f 94/1/3 90/1/3 93/1/3
f 95/1/3 92/1/3 91/1/3
f 96/1/3 92/1/3 95/1/3
f 97/2/3 95/2/3 94/2/3
f 98/2/3 95/2/3 97/2/3
f 101/3/3 100/3/3 99/3/3
f 102/3/3 100/3/3 101/3/3
f 105/3/3 104/3/3 103/3/3
f 106/3/3 104/3/3 105/3/3
f 110/4/3 108/4/3 107/4/3
f 110/4/3 109/4/3 108/4/3
f 111/4/3 109/4/3 110/4/3
f 112/4/3 109/4/3 111/4/3
f 113/2/4 114/2/4 116/2/4
f 114/1/4 115/1/4 117/1/4
f 116/2/4 114/2/4 117/2/4
f 117/1/4 115/1/4 118/1/4
f 119/3/4 120/3/4 121/3/4
f 121/3/4 120/3/4 122/3/4
f 123/3/4 124/3/4 125/3/4
f 125/3/4 124/3/4 126/3/4
f 127/1/4 128/1/4 131/1/4
f 128/2/4 129/2/4 132/2/4
f 131/1/4 128/1/4 132/1/4
f 129/1/4 130/1/4 133/1/4
f 132/2/4 129/2/4 133/2/4
f 133/1/4 130/1/4 134/1/4
f 135/2/4 136/2/4 137/2/4
f 137/2/4 136/2/4 138/2/4
f 139/2/4 140/2/4 141/2/4
f 141/2/4 140/2/4 142/2/4
f 145/1/5 144/1/5 143/1/5
f 146/1/5 144/1/5 145/1/5
f 147/4/5 146/4/5 145/4/5
f 148/4/5 146/4/5 147/4/5
f 149/1/5 148/1/5 147/1/5
f 150/1/5 148/1/5 149/1/5
f 154/2/5 152/2/5 151/2/5
f 155/2/5 152/2/5 154/2/5
f 158/2/5 154/2/5 153/2/5
f 159/2/5 154/2/5 158/2/5
f 160/2/5 156/2/5 155/2/5
f 161/2/5 156/2/5 160/2/5
f 163/3/5 158/3/5 157/3/5
f 164/2/5 159/2/5 158/2/5
f 164/3/5 158/3/5 163/3/5
f 165/2/5 159/2/5 164/2/5
f 166/2/5 161/2/5 160/2/5
f 167/3/5 162/3/5 161/3/5
f 167/2/5 161/2/5 166/2/5
f 168/3/5 162/3/5 167/3/5
f 169/2/5 165/2/5 164/2/5
f 170/2/5 167/2/5 166/2/5
f 171/2/5 169/2/5 164/2/5
f 172/2/5 169/2/5 171/2/5
f 173/2/5 167/2/5 170/2/5
f 174/2/5 167/2/5 173/2/5
f 175/1/6 176/1/6 177/1/6
f 177/1/6 176/1/6 178/1/6
f 177/4/6 178/4/6 179/4/6
f 179/4/6 178/4/6 180/4/6
f 181/2/6 182/2/6 184/2/6
f 184/2/6 182/2/6 185/2/6
f 183/2/6 184/2/6 187/2/6
f 185/2/6 186/2/6 188/2/6
f 183/2/6 187/2/6 190/2/6
f 188/2/6 186/2/6 191/2/6
f 189/3/6 190/3/6 193/3/6
f 190/2/6 187/2/6 194/2/6
f 193/3/6 190/3/6 194/3/6
f 194/2/6 187/2/6 195/2/6
f 188/2/6 191/2/6 196/2/6
f 191/3/6 192/3/6 197/3/6
f 196/2/6 191/2/6 197/2/6
f 197/3/6 192/3/6 198/3/6
f 194/2/6 195/2/6 199/2/6
f 196/2/6 197/2/6 200/2/6
f 194/2/6 199/2/6 201/2/6
f 200/2/6 197/2/6 202/2/6
f 194/2/6 201/2/6 203/2/6
f 203/2/6 201/2/6 204/2/6
f 202/2/6 197/2/6 205/2/6
f 205/2/6 197/2/6 206/2/6
f 207/1/6 208/1/6 209/1/6
f 209/1/6 208/1/6 210/1/6
f 211/4/6 212/4/6 213/4/6
f 213/4/6 212/4/6 214/4/6
f 213/1/6 214/1/6 215/1/6
f 215/1/6 214/1/6 216/1/6
