# MagicaVoxel @ Ephtracy

# group
o 

# material
mtllib navesluzes-26.mtl
usemtl palette

# normals
vn -1 0 0
vn 1 0 0
vn 0 0 1
vn 0 0 -1
vn 0 -1 0
vn 0 1 0

# texcoords
vt 0.00976563 0.5
vt 0.0136719 0.5
vt 0.0175781 0.5
vt 0.0214844 0.5
vt 0.0253906 0.5
vt 0.0332031 0.5
vt 0.0527344 0.5
vt 0.0917969 0.5
vt 0.123047 0.5

# verts
v 0 0 1.4
v 0 0 1.1
v 0 0.1 1.4
v 0 0.1 1.1
v 0.2 0 1.5
v 0.2 0 1.4
v 0.2 0.1 1.5
v 0.2 0.1 1.4
v 0.3 0.1 1.5
v 0.3 0.1 1.1
v 0.3 0.2 1.5
v 0.3 0.2 1.1
v 0.4 0 1.6
v 0.4 0 1.5
v 0.4 0.2 1.6
v 0.4 0.2 1.5
v 0.4 0.2 1.4
v 0.4 0.2 1.3
v 0.4 0.2 1.2
v 0.4 0.2 1.1
v 0.4 0.4 1.5
v 0.4 0.4 1.4
v 0.4 0.5 1.4
v 0.4 0.5 1.3
v 0.4 0.6 1.3
v 0.4 0.6 1.2
v 0.4 0.6 1.1
v 0.6 0 1.8
v 0.6 0 1.5
v 0.6 0 1.2
v 0.6 0 1.1
v 0.6 0.1 1.9
v 0.6 0.1 1.8
v 0.6 0.2 1.9
v 0.6 0.2 1.8
v 0.6 0.2 1.7
v 0.6 0.2 1.5
v 0.6 0.2 1.2
v 0.6 0.2 1.1
v 0.6 0.3 1.8
v 0.6 0.3 1.7
v 0.6 0.3 1.1
v 0.9 0 1.6
v 0.9 0 1.5
v 0.9 0 1.2
v 0.9 0 1.1
v 0.9 0.2 1.6
v 0.9 0.2 1.5
v 0.9 0.2 1.4
v 0.9 0.2 1.3
v 0.9 0.2 1.2
v 0.9 0.4 1.5
v 0.9 0.4 1.4
v 0.9 0.5 1.4
v 0.9 0.5 1.3
v 0.9 0.6 1.3
v 0.9 0.6 1.2
v 0.9 0.6 1.1
v 0.5 0 1.6
v 0.5 0 1.5
v 0.5 0 1.2
v 0.5 0 1.1
v 0.5 0.2 1.6
v 0.5 0.2 1.5
v 0.5 0.2 1.4
v 0.5 0.2 1.3
v 0.5 0.2 1.2
v 0.5 0.4 1.5
v 0.5 0.4 1.4
v 0.5 0.5 1.4
v 0.5 0.5 1.3
v 0.5 0.6 1.3
v 0.5 0.6 1.2
v 0.5 0.6 1.1
v 0.8 0 1.8
v 0.8 0 1.5
v 0.8 0 1.2
v 0.8 0 1.1
v 0.8 0.1 1.9
v 0.8 0.1 1.8
v 0.8 0.2 1.9
v 0.8 0.2 1.8
v 0.8 0.2 1.7
v 0.8 0.2 1.5
v 0.8 0.2 1.2
v 0.8 0.2 1.1
v 0.8 0.3 1.8
v 0.8 0.3 1.7
v 0.8 0.3 1.1
v 1 0 1.6
v 1 0 1.5
v 1 0.2 1.6
v 1 0.2 1.5
v 1 0.2 1.4
v 1 0.2 1.3
v 1 0.2 1.2
v 1 0.2 1.1
v 1 0.4 1.5
v 1 0.4 1.4
v 1 0.5 1.4
v 1 0.5 1.3
v 1 0.6 1.3
v 1 0.6 1.2
v 1 0.6 1.1
v 1.1 0.1 1.5
v 1.1 0.1 1.1
v 1.1 0.2 1.5
v 1.1 0.2 1.1
v 1.2 0 1.5
v 1.2 0 1.4
v 1.2 0.1 1.5
v 1.2 0.1 1.4
v 1.4 0 1.4
v 1.4 0 1.1
v 1.4 0.1 1.4
v 1.4 0.1 1.1
v 0.6 0.1 1.9
v 0.6 0.2 1.9
v 0.8 0.1 1.9
v 0.8 0.2 1.9
v 0.6 0 1.8
v 0.6 0.1 1.8
v 0.6 0.2 1.8
v 0.6 0.3 1.8
v 0.8 0 1.8
v 0.8 0.1 1.8
v 0.8 0.2 1.8
v 0.8 0.3 1.8
v 0.4 0 1.6
v 0.4 0.2 1.6
v 0.5 0 1.6
v 0.5 0.2 1.6
v 0.9 0 1.6
v 0.9 0.2 1.6
v 1 0 1.6
v 1 0.2 1.6
v 0.2 0 1.5
v 0.2 0.1 1.5
v 0.3 0 1.5
v 0.3 0.1 1.5
v 0.3 0.2 1.5
v 0.4 0 1.5
v 0.4 0.2 1.5
v 0.4 0.4 1.5
v 0.5 0 1.5
v 0.5 0.2 1.5
v 0.5 0.4 1.5
v 0.6 0 1.5
v 0.6 0.2 1.5
v 0.8 0 1.5
v 0.8 0.2 1.5
v 0.9 0 1.5
v 0.9 0.2 1.5
v 0.9 0.4 1.5
v 1 0 1.5
v 1 0.2 1.5
v 1 0.4 1.5
v 1.1 0 1.5
v 1.1 0.1 1.5
v 1.1 0.2 1.5
v 1.2 0 1.5
v 1.2 0.1 1.5
v 0 0 1.4
v 0 0.1 1.4
v 0.1 0 1.4
v 0.1 0.1 1.4
v 0.2 0 1.4
v 0.2 0.1 1.4
v 0.4 0.4 1.4
v 0.4 0.5 1.4
v 0.5 0.4 1.4
v 0.5 0.5 1.4
v 0.9 0.4 1.4
v 0.9 0.5 1.4
v 1 0.4 1.4
v 1 0.5 1.4
v 1.2 0 1.4
v 1.2 0.1 1.4
v 1.3 0 1.4
v 1.3 0.1 1.4
v 1.4 0 1.4
v 1.4 0.1 1.4
v 0.4 0.5 1.3
v 0.4 0.6 1.3
v 0.5 0.5 1.3
v 0.5 0.6 1.3
v 0.9 0.5 1.3
v 0.9 0.6 1.3
v 1 0.5 1.3
v 1 0.6 1.3
v 0.5 0 1.2
v 0.5 0.2 1.2
v 0.6 0 1.2
v 0.6 0.2 1.2
v 0.8 0 1.2
v 0.8 0.2 1.2
v 0.9 0 1.2
v 0.9 0.2 1.2
v 0 0 1.1
v 0 0.1 1.1
v 0.1 0 1.1
v 0.1 0.1 1.1
v 0.2 0 1.1
v 0.2 0.1 1.1
v 0.3 0 1.1
v 0.3 0.1 1.1
v 0.3 0.2 1.1
v 0.4 0.2 1.1
v 0.4 0.6 1.1
v 0.5 0 1.1
v 0.5 0.6 1.1
v 0.6 0 1.1
v 0.6 0.2 1.1
v 0.6 0.3 1.1
v 0.8 0 1.1
v 0.8 0.2 1.1
v 0.8 0.3 1.1
v 0.9 0 1.1
v 0.9 0.6 1.1
v 1 0.2 1.1
v 1 0.6 1.1
v 1.1 0 1.1
v 1.1 0.1 1.1
v 1.1 0.2 1.1
v 1.2 0 1.1
v 1.2 0.1 1.1
v 1.3 0 1.1
v 1.3 0.1 1.1
v 1.4 0 1.1
v 1.4 0.1 1.1
v 0.6 0 1.8
v 0.8 0 1.8
v 0.4 0 1.6
v 0.5 0 1.6
v 0.9 0 1.6
v 1 0 1.6
v 0.2 0 1.5
v 0.3 0 1.5
v 0.4 0 1.5
v 0.5 0 1.5
v 0.6 0 1.5
v 0.8 0 1.5
v 0.9 0 1.5
v 1 0 1.5
v 1.1 0 1.5
v 1.2 0 1.5
v 0 0 1.4
v 0.1 0 1.4
v 0.2 0 1.4
v 0.3 0 1.4
v 0.4 0 1.4
v 1 0 1.4
v 1.1 0 1.4
v 1.2 0 1.4
v 1.3 0 1.4
v 1.4 0 1.4
v 0.3 0 1.2
v 0.5 0 1.2
v 0.6 0 1.2
v 0.8 0 1.2
v 0.9 0 1.2
v 1.1 0 1.2
v 0 0 1.1
v 0.1 0 1.1
v 0.2 0 1.1
v 0.3 0 1.1
v 0.5 0 1.1
v 0.6 0 1.1
v 0.8 0 1.1
v 0.9 0 1.1
v 1.1 0 1.1
v 1.2 0 1.1
v 1.3 0 1.1
v 1.4 0 1.1
v 0.6 0.1 1.9
v 0.8 0.1 1.9
v 0.6 0.1 1.8
v 0.8 0.1 1.8
v 0.2 0.1 1.5
v 0.3 0.1 1.5
v 1.1 0.1 1.5
v 1.2 0.1 1.5
v 0 0.1 1.4
v 0.1 0.1 1.4
v 0.2 0.1 1.4
v 1.2 0.1 1.4
v 1.3 0.1 1.4
v 1.4 0.1 1.4
v 0 0.1 1.1
v 0.1 0.1 1.1
v 0.2 0.1 1.1
v 0.3 0.1 1.1
v 1.1 0.1 1.1
v 1.2 0.1 1.1
v 1.3 0.1 1.1
v 1.4 0.1 1.1
v 0.6 0.2 1.9
v 0.8 0.2 1.9
v 0.6 0.2 1.8
v 0.8 0.2 1.8
v 0.4 0.2 1.6
v 0.5 0.2 1.6
v 0.9 0.2 1.6
v 1 0.2 1.6
v 0.3 0.2 1.5
v 0.4 0.2 1.5
v 0.5 0.2 1.5
v 0.6 0.2 1.5
v 0.8 0.2 1.5
v 0.9 0.2 1.5
v 1 0.2 1.5
v 1.1 0.2 1.5
v 0.4 0.2 1.4
v 0.5 0.2 1.4
v 0.9 0.2 1.4
v 1 0.2 1.4
v 0.4 0.2 1.3
v 0.5 0.2 1.3
v 0.9 0.2 1.3
v 1 0.2 1.3
v 0.4 0.2 1.2
v 0.5 0.2 1.2
v 0.6 0.2 1.2
v 0.8 0.2 1.2
v 0.9 0.2 1.2
v 1 0.2 1.2
v 0.3 0.2 1.1
v 0.4 0.2 1.1
v 1 0.2 1.1
v 1.1 0.2 1.1
v 0.6 0.3 1.8
v 0.8 0.3 1.8
v 0.6 0.3 1.7
v 0.8 0.3 1.7
v 0.6 0.3 1.1
v 0.8 0.3 1.1
v 0.4 0.4 1.5
v 0.5 0.4 1.5
v 0.9 0.4 1.5
v 1 0.4 1.5
v 0.4 0.4 1.4
v 0.5 0.4 1.4
v 0.9 0.4 1.4
v 1 0.4 1.4
v 0.4 0.5 1.4
v 0.5 0.5 1.4
v 0.9 0.5 1.4
v 1 0.5 1.4
v 0.4 0.5 1.3
v 0.5 0.5 1.3
v 0.9 0.5 1.3
v 1 0.5 1.3
v 0.4 0.6 1.3
v 0.5 0.6 1.3
v 0.9 0.6 1.3
v 1 0.6 1.3
v 0.4 0.6 1.2
v 0.5 0.6 1.2
v 0.9 0.6 1.2
v 1 0.6 1.2
v 0.4 0.6 1.1
v 0.5 0.6 1.1
v 0.9 0.6 1.1
v 1 0.6 1.1

# faces
f 3/4/1 2/4/1 1/4/1
f 4/4/1 2/4/1 3/4/1
f 7/2/1 6/2/1 5/2/1
f 8/2/1 6/2/1 7/2/1
f 11/1/1 10/1/1 9/1/1
f 12/1/1 10/1/1 11/1/1
f 15/5/1 14/5/1 13/5/1
f 16/5/1 14/5/1 15/5/1
f 21/4/1 17/4/1 16/4/1
f 22/3/1 18/3/1 17/3/1
f 22/4/1 17/4/1 21/4/1
f 23/3/1 18/3/1 22/3/1
f 24/2/1 19/2/1 18/2/1
f 24/3/1 18/3/1 23/3/1
f 25/2/1 19/2/1 24/2/1
f 26/1/1 20/1/1 19/1/1
f 26/2/1 19/2/1 25/2/1
f 27/1/1 20/1/1 26/1/1
f 33/7/1 29/7/1 28/7/1
f 34/7/1 33/7/1 32/7/1
f 35/7/1 29/7/1 33/7/1
f 35/7/1 33/7/1 34/7/1
f 36/7/1 29/7/1 35/7/1
f 37/7/1 29/7/1 36/7/1
f 38/7/1 31/7/1 30/7/1
f 39/7/1 31/7/1 38/7/1
f 40/9/1 36/9/1 35/9/1
f 41/6/1 37/6/1 36/6/1
f 41/9/1 36/9/1 40/9/1
f 41/6/1 39/6/1 38/6/1
f 41/6/1 38/6/1 37/6/1
f 42/6/1 39/6/1 41/6/1
f 47/5/1 44/5/1 43/5/1
f 48/5/1 44/5/1 47/5/1
f 51/1/1 46/1/1 45/1/1
f 52/4/1 49/4/1 48/4/1
f 53/3/1 50/3/1 49/3/1
f 53/4/1 49/4/1 52/4/1
f 54/3/1 50/3/1 53/3/1
f 55/2/1 51/2/1 50/2/1
f 55/3/1 50/3/1 54/3/1
f 56/2/1 51/2/1 55/2/1
f 57/1/1 46/1/1 51/1/1
f 57/2/1 51/2/1 56/2/1
f 58/1/1 46/1/1 57/1/1
f 59/5/2 60/5/2 63/5/2
f 63/5/2 60/5/2 64/5/2
f 61/1/2 62/1/2 67/1/2
f 64/4/2 65/4/2 68/4/2
f 65/3/2 66/3/2 69/3/2
f 68/4/2 65/4/2 69/4/2
f 69/3/2 66/3/2 70/3/2
f 66/2/2 67/2/2 71/2/2
f 70/3/2 66/3/2 71/3/2
f 71/2/2 67/2/2 72/2/2
f 67/1/2 62/1/2 73/1/2
f 72/2/2 67/2/2 73/2/2
f 73/1/2 62/1/2 74/1/2
f 75/7/2 76/7/2 80/7/2
f 79/7/2 80/7/2 81/7/2
f 80/7/2 76/7/2 82/7/2
f 81/7/2 80/7/2 82/7/2
f 82/7/2 76/7/2 83/7/2
f 83/7/2 76/7/2 84/7/2
f 77/7/2 78/7/2 85/7/2
f 85/7/2 78/7/2 86/7/2
f 82/9/2 83/9/2 87/9/2
f 83/6/2 84/6/2 88/6/2
f 87/9/2 83/9/2 88/9/2
f 85/6/2 86/6/2 88/6/2
f 84/6/2 85/6/2 88/6/2
f 88/6/2 86/6/2 89/6/2
f 90/5/2 91/5/2 92/5/2
f 92/5/2 91/5/2 93/5/2
f 93/4/2 94/4/2 98/4/2
f 94/3/2 95/3/2 99/3/2
f 98/4/2 94/4/2 99/4/2
f 99/3/2 95/3/2 100/3/2
f 95/2/2 96/2/2 101/2/2
f 100/3/2 95/3/2 101/3/2
f 101/2/2 96/2/2 102/2/2
f 96/1/2 97/1/2 103/1/2
f 102/2/2 96/2/2 103/2/2
f 103/1/2 97/1/2 104/1/2
f 105/1/2 106/1/2 107/1/2
f 107/1/2 106/1/2 108/1/2
f 109/2/2 110/2/2 111/2/2
f 111/2/2 110/2/2 112/2/2
f 113/4/2 114/4/2 115/4/2
f 115/4/2 114/4/2 116/4/2
f 119/7/3 118/7/3 117/7/3
f 120/7/3 118/7/3 119/7/3
f 125/7/3 122/7/3 121/7/3
f 126/7/3 122/7/3 125/7/3
f 127/9/3 124/9/3 123/9/3
f 128/9/3 124/9/3 127/9/3
f 131/5/3 130/5/3 129/5/3
f 132/5/3 130/5/3 131/5/3
f 135/5/3 134/5/3 133/5/3
f 136/5/3 134/5/3 135/5/3
f 139/2/3 138/2/3 137/2/3
f 140/2/3 138/2/3 139/2/3
f 142/1/3 140/1/3 139/1/3
f 142/1/3 141/1/3 140/1/3
f 143/1/3 141/1/3 142/1/3
f 146/4/3 144/4/3 143/4/3
f 147/4/3 144/4/3 146/4/3
f 148/8/3 146/8/3 145/8/3
f 149/8/3 146/8/3 148/8/3
f 152/8/3 151/8/3 150/8/3
f 153/8/3 151/8/3 152/8/3
f 156/4/3 154/4/3 153/4/3
f 157/4/3 154/4/3 156/4/3
f 158/1/3 156/1/3 155/1/3
f 159/1/3 156/1/3 158/1/3
f 160/1/3 156/1/3 159/1/3
f 161/2/3 159/2/3 158/2/3
f 162/2/3 159/2/3 161/2/3
f 165/4/3 164/4/3 163/4/3
f 166/4/3 164/4/3 165/4/3
f 167/3/3 166/3/3 165/3/3
f 168/3/3 166/3/3 167/3/3
f 171/3/3 170/3/3 169/3/3
f 172/3/3 170/3/3 171/3/3
f 175/3/3 174/3/3 173/3/3
f 176/3/3 174/3/3 175/3/3
f 179/3/3 178/3/3 177/3/3
f 180/3/3 178/3/3 179/3/3
f 181/4/3 180/4/3 179/4/3
f 182/4/3 180/4/3 181/4/3
f 185/2/3 184/2/3 183/2/3
f 186/2/3 184/2/3 185/2/3
f 189/2/3 188/2/3 187/2/3
f 190/2/3 188/2/3 189/2/3
f 191/8/4 192/8/4 193/8/4
f 193/8/4 192/8/4 194/8/4
f 195/8/4 196/8/4 197/8/4
f 197/8/4 196/8/4 198/8/4
f 199/4/4 200/4/4 201/4/4
f 201/4/4 200/4/4 202/4/4
f 201/3/4 202/3/4 203/3/4
f 203/3/4 202/3/4 204/3/4
f 203/2/4 204/2/4 205/2/4
f 205/2/4 204/2/4 206/2/4
f 205/1/4 206/1/4 208/1/4
f 206/1/4 207/1/4 208/1/4
f 205/1/4 208/1/4 210/1/4
f 208/1/4 209/1/4 210/1/4
f 210/1/4 209/1/4 211/1/4
f 212/7/4 213/7/4 215/7/4
f 213/6/4 214/6/4 216/6/4
f 215/7/4 213/7/4 216/7/4
f 216/6/4 214/6/4 217/6/4
f 218/1/4 219/1/4 220/1/4
f 220/1/4 219/1/4 221/1/4
f 218/1/4 220/1/4 222/1/4
f 222/1/4 220/1/4 223/1/4
f 223/1/4 220/1/4 224/1/4
f 222/2/4 223/2/4 225/2/4
f 225/2/4 223/2/4 226/2/4
f 225/3/4 226/3/4 227/3/4
f 227/3/4 226/3/4 228/3/4
f 227/4/4 228/4/4 229/4/4
f 229/4/4 228/4/4 230/4/4
f 239/5/5 234/5/5 233/5/5
f 240/5/5 234/5/5 239/5/5
f 241/7/5 232/7/5 231/7/5
f 242/7/5 232/7/5 241/7/5
f 243/5/5 236/5/5 235/5/5
f 244/5/5 236/5/5 243/5/5
f 249/2/5 238/2/5 237/2/5
f 250/1/5 239/1/5 238/1/5
f 250/2/5 238/2/5 249/2/5
f 251/8/5 240/8/5 239/8/5
f 251/1/5 239/1/5 250/1/5
f 251/8/5 242/8/5 241/8/5
f 251/8/5 241/8/5 240/8/5
f 251/8/5 243/8/5 242/8/5
f 251/8/5 244/8/5 243/8/5
f 252/1/5 245/1/5 244/1/5
f 252/8/5 244/8/5 251/8/5
f 253/2/5 246/2/5 245/2/5
f 253/1/5 245/1/5 252/1/5
f 254/2/5 246/2/5 253/2/5
f 257/2/5 250/2/5 249/2/5
f 257/8/5 252/8/5 251/8/5
f 257/8/5 251/8/5 250/8/5
f 257/8/5 253/8/5 252/8/5
f 258/8/5 253/8/5 257/8/5
f 259/8/5 253/8/5 258/8/5
f 260/8/5 253/8/5 259/8/5
f 261/8/5 253/8/5 260/8/5
f 262/2/5 254/2/5 253/2/5
f 262/8/5 253/8/5 261/8/5
f 263/4/5 248/4/5 247/4/5
f 264/3/5 249/3/5 248/3/5
f 264/4/5 248/4/5 263/4/5
f 265/2/5 257/2/5 249/2/5
f 265/3/5 249/3/5 264/3/5
f 266/1/5 258/1/5 257/1/5
f 266/2/5 257/2/5 265/2/5
f 267/1/5 258/1/5 266/1/5
f 268/7/5 260/7/5 259/7/5
f 269/7/5 260/7/5 268/7/5
f 270/1/5 262/1/5 261/1/5
f 271/2/5 254/2/5 262/2/5
f 271/1/5 262/1/5 270/1/5
f 272/3/5 255/3/5 254/3/5
f 272/2/5 254/2/5 271/2/5
f 273/4/5 256/4/5 255/4/5
f 273/3/5 255/3/5 272/3/5
f 274/4/5 256/4/5 273/4/5
f 277/7/5 276/7/5 275/7/5
f 278/7/5 276/7/5 277/7/5
f 279/2/6 280/2/6 285/2/6
f 281/2/6 282/2/6 286/2/6
f 283/4/6 284/4/6 289/4/6
f 284/3/6 285/3/6 290/3/6
f 289/4/6 284/4/6 290/4/6
f 285/2/6 280/2/6 291/2/6
f 290/3/6 285/3/6 291/3/6
f 291/2/6 280/2/6 292/2/6
f 281/2/6 286/2/6 293/2/6
f 286/3/6 287/3/6 294/3/6
f 293/2/6 286/2/6 294/2/6
f 287/4/6 288/4/6 295/4/6
f 294/3/6 287/3/6 295/3/6
f 295/4/6 288/4/6 296/4/6
f 297/7/6 298/7/6 299/7/6
f 299/7/6 298/7/6 300/7/6
f 301/5/6 302/5/6 306/5/6
f 306/5/6 302/5/6 307/5/6
f 303/5/6 304/5/6 310/5/6
f 310/5/6 304/5/6 311/5/6
f 305/1/6 306/1/6 313/1/6
f 307/8/6 308/8/6 314/8/6
f 309/8/6 310/8/6 315/8/6
f 311/1/6 312/1/6 316/1/6
f 305/1/6 313/1/6 317/1/6
f 314/8/6 308/8/6 318/8/6
f 309/8/6 315/8/6 319/8/6
f 316/1/6 312/1/6 320/1/6
f 305/1/6 317/1/6 321/1/6
f 318/8/6 308/8/6 322/8/6
f 322/8/6 308/8/6 323/8/6
f 309/8/6 319/8/6 324/8/6
f 324/8/6 319/8/6 325/8/6
f 320/1/6 312/1/6 326/1/6
f 305/1/6 321/1/6 327/1/6
f 327/1/6 321/1/6 328/1/6
f 326/1/6 312/1/6 329/1/6
f 329/1/6 312/1/6 330/1/6
f 331/9/6 332/9/6 333/9/6
f 333/9/6 332/9/6 334/9/6
f 333/6/6 334/6/6 335/6/6
f 335/6/6 334/6/6 336/6/6
f 337/4/6 338/4/6 341/4/6
f 341/4/6 338/4/6 342/4/6
f 339/4/6 340/4/6 343/4/6
f 343/4/6 340/4/6 344/4/6
f 345/3/6 346/3/6 349/3/6
f 349/3/6 346/3/6 350/3/6
f 347/3/6 348/3/6 351/3/6
f 351/3/6 348/3/6 352/3/6
f 353/2/6 354/2/6 357/2/6
f 357/2/6 354/2/6 358/2/6
f 355/2/6 356/2/6 359/2/6
f 359/2/6 356/2/6 360/2/6
f 357/1/6 358/1/6 361/1/6
f 361/1/6 358/1/6 362/1/6
f 359/1/6 360/1/6 363/1/6
f 363/1/6 360/1/6 364/1/6
