# MagicaVoxel @ Ephtracy

# group
o 

# material
mtllib navesluzes-27.mtl
usemtl palette

# normals
vn -1 0 0
vn 1 0 0
vn 0 0 1
vn 0 0 -1
vn 0 -1 0
vn 0 1 0

# texcoords
vt 0.00976563 0.5
vt 0.0136719 0.5
vt 0.0917969 0.5
vt 0.123047 0.5

# verts
v 1.6 0.1 2
v 1.6 0.1 1.6
v 1.6 0.2 2
v 1.6 0.2 1.6
v 1.7 0 1.9
v 1.7 0 1.6
v 1.7 0.1 1.9
v 1.7 0.1 1.6
v 1.7 0.2 1.9
v 1.7 0.2 1.6
v 1.7 0.3 1.9
v 1.7 0.3 1.6
v 1.8 0.1 2
v 1.8 0.1 1.9
v 1.8 0.1 1.6
v 1.8 0.2 2
v 1.8 0.2 1.9
v 1.8 0.2 1.6
v 2 0.1 2.1
v 2 0.1 1.9
v 2 0.1 1.7
v 2 0.1 1.4
v 2 0.2 2.1
v 2 0.2 2
v 2 0.2 1.9
v 2 0.2 1.8
v 2 0.2 1.7
v 2 0.2 1.5
v 2 0.2 1.4
v 2 0.3 2
v 2 0.3 1.8
v 2 0.3 1.5
v 2.3 0.1 2
v 2.3 0.1 1.9
v 2.3 0.1 1.7
v 2.3 0.1 1.6
v 2.3 0.2 2
v 2.3 0.2 1.9
v 2.3 0.2 1.7
v 2.3 0.2 1.6
v 2.4 0 1.9
v 2.4 0 1.6
v 2.4 0.1 1.9
v 2.4 0.1 1.6
v 2.4 0.2 1.9
v 2.4 0.2 1.6
v 2.4 0.3 1.9
v 2.4 0.3 1.6
v 2.5 0.1 2
v 2.5 0.1 1.9
v 2.5 0.1 1.6
v 2.5 0.2 2
v 2.5 0.2 1.9
v 2.5 0.2 1.6
v 1.7 0.1 2
v 1.7 0.1 1.9
v 1.7 0.1 1.6
v 1.7 0.2 2
v 1.7 0.2 1.9
v 1.7 0.2 1.6
v 1.8 0 1.9
v 1.8 0 1.6
v 1.8 0.1 1.9
v 1.8 0.1 1.6
v 1.8 0.2 1.9
v 1.8 0.2 1.6
v 1.8 0.3 1.9
v 1.8 0.3 1.6
v 1.9 0.1 2
v 1.9 0.1 1.9
v 1.9 0.1 1.7
v 1.9 0.1 1.6
v 1.9 0.2 2
v 1.9 0.2 1.9
v 1.9 0.2 1.7
v 1.9 0.2 1.6
v 2.2 0.1 2.1
v 2.2 0.1 1.9
v 2.2 0.1 1.7
v 2.2 0.1 1.4
v 2.2 0.2 2.1
v 2.2 0.2 2
v 2.2 0.2 1.9
v 2.2 0.2 1.8
v 2.2 0.2 1.7
v 2.2 0.2 1.5
v 2.2 0.2 1.4
v 2.2 0.3 2
v 2.2 0.3 1.8
v 2.2 0.3 1.5
v 2.4 0.1 2
v 2.4 0.1 1.9
v 2.4 0.1 1.6
v 2.4 0.2 2
v 2.4 0.2 1.9
v 2.4 0.2 1.6
v 2.5 0 1.9
v 2.5 0 1.6
v 2.5 0.1 1.9
v 2.5 0.1 1.6
v 2.5 0.2 1.9
v 2.5 0.2 1.6
v 2.5 0.3 1.9
v 2.5 0.3 1.6
v 2.6 0.1 2
v 2.6 0.1 1.6
v 2.6 0.2 2
v 2.6 0.2 1.6
v 2 0.1 2.1
v 2 0.2 2.1
v 2.2 0.1 2.1
v 2.2 0.2 2.1
v 1.6 0.1 2
v 1.6 0.2 2
v 1.7 0.1 2
v 1.7 0.2 2
v 1.8 0.1 2
v 1.8 0.2 2
v 1.9 0.1 2
v 1.9 0.2 2
v 2 0.2 2
v 2 0.3 2
v 2.2 0.2 2
v 2.2 0.3 2
v 2.3 0.1 2
v 2.3 0.2 2
v 2.4 0.1 2
v 2.4 0.2 2
v 2.5 0.1 2
v 2.5 0.2 2
v 2.6 0.1 2
v 2.6 0.2 2
v 1.7 0 1.9
v 1.7 0.1 1.9
v 1.7 0.2 1.9
v 1.7 0.3 1.9
v 1.8 0 1.9
v 1.8 0.1 1.9
v 1.8 0.2 1.9
v 1.8 0.3 1.9
v 1.9 0.1 1.9
v 1.9 0.2 1.9
v 2 0.1 1.9
v 2 0.2 1.9
v 2.2 0.1 1.9
v 2.2 0.2 1.9
v 2.3 0.1 1.9
v 2.3 0.2 1.9
v 2.4 0 1.9
v 2.4 0.1 1.9
v 2.4 0.2 1.9
v 2.4 0.3 1.9
v 2.5 0 1.9
v 2.5 0.1 1.9
v 2.5 0.2 1.9
v 2.5 0.3 1.9
v 1.9 0.1 1.7
v 1.9 0.2 1.7
v 2 0.1 1.7
v 2 0.2 1.7
v 2.2 0.1 1.7
v 2.2 0.2 1.7
v 2.3 0.1 1.7
v 2.3 0.2 1.7
v 1.6 0.1 1.6
v 1.6 0.2 1.6
v 1.7 0 1.6
v 1.7 0.1 1.6
v 1.7 0.2 1.6
v 1.7 0.3 1.6
v 1.8 0 1.6
v 1.8 0.1 1.6
v 1.8 0.2 1.6
v 1.8 0.3 1.6
v 1.9 0.1 1.6
v 1.9 0.2 1.6
v 2.3 0.1 1.6
v 2.3 0.2 1.6
v 2.4 0 1.6
v 2.4 0.1 1.6
v 2.4 0.2 1.6
v 2.4 0.3 1.6
v 2.5 0 1.6
v 2.5 0.1 1.6
v 2.5 0.2 1.6
v 2.5 0.3 1.6
v 2.6 0.1 1.6
v 2.6 0.2 1.6
v 2 0.2 1.5
v 2 0.3 1.5
v 2.2 0.2 1.5
v 2.2 0.3 1.5
v 2 0.1 1.4
v 2 0.2 1.4
v 2.2 0.1 1.4
v 2.2 0.2 1.4
v 1.7 0 1.9
v 1.8 0 1.9
v 2.4 0 1.9
v 2.5 0 1.9
v 1.7 0 1.6
v 1.8 0 1.6
v 2.4 0 1.6
v 2.5 0 1.6
v 2 0.1 2.1
v 2.2 0.1 2.1
v 1.6 0.1 2
v 1.7 0.1 2
v 1.8 0.1 2
v 1.9 0.1 2
v 2.3 0.1 2
v 2.4 0.1 2
v 2.5 0.1 2
v 2.6 0.1 2
v 1.7 0.1 1.9
v 1.8 0.1 1.9
v 1.9 0.1 1.9
v 2 0.1 1.9
v 2.2 0.1 1.9
v 2.3 0.1 1.9
v 2.4 0.1 1.9
v 2.5 0.1 1.9
v 1.9 0.1 1.7
v 2 0.1 1.7
v 2.2 0.1 1.7
v 2.3 0.1 1.7
v 1.6 0.1 1.6
v 1.7 0.1 1.6
v 1.8 0.1 1.6
v 1.9 0.1 1.6
v 2.3 0.1 1.6
v 2.4 0.1 1.6
v 2.5 0.1 1.6
v 2.6 0.1 1.6
v 2 0.1 1.4
v 2.2 0.1 1.4
v 1.7 0.2 1.9
v 1.8 0.2 1.9
v 2.4 0.2 1.9
v 2.5 0.2 1.9
v 1.7 0.2 1.6
v 1.8 0.2 1.6
v 2.4 0.2 1.6
v 2.5 0.2 1.6
v 1.7 0.1 1.9
v 1.8 0.1 1.9
v 2.4 0.1 1.9
v 2.5 0.1 1.9
v 1.7 0.1 1.6
v 1.8 0.1 1.6
v 2.4 0.1 1.6
v 2.5 0.1 1.6
v 2 0.2 2.1
v 2.2 0.2 2.1
v 1.6 0.2 2
v 1.7 0.2 2
v 1.8 0.2 2
v 1.9 0.2 2
v 2 0.2 2
v 2.2 0.2 2
v 2.3 0.2 2
v 2.4 0.2 2
v 2.5 0.2 2
v 2.6 0.2 2
v 1.7 0.2 1.9
v 1.8 0.2 1.9
v 1.9 0.2 1.9
v 2 0.2 1.9
v 2.2 0.2 1.9
v 2.3 0.2 1.9
v 2.4 0.2 1.9
v 2.5 0.2 1.9
v 2 0.2 1.8
v 2.2 0.2 1.8
v 1.9 0.2 1.7
v 2 0.2 1.7
v 2.2 0.2 1.7
v 2.3 0.2 1.7
v 1.6 0.2 1.6
v 1.7 0.2 1.6
v 1.8 0.2 1.6
v 1.9 0.2 1.6
v 2.3 0.2 1.6
v 2.4 0.2 1.6
v 2.5 0.2 1.6
v 2.6 0.2 1.6
v 2 0.2 1.5
v 2.2 0.2 1.5
v 2 0.2 1.4
v 2.2 0.2 1.4
v 2 0.3 2
v 2.2 0.3 2
v 1.7 0.3 1.9
v 1.8 0.3 1.9
v 2.4 0.3 1.9
v 2.5 0.3 1.9
v 2 0.3 1.8
v 2.2 0.3 1.8
v 1.7 0.3 1.6
v 1.8 0.3 1.6
v 2.4 0.3 1.6
v 2.5 0.3 1.6
v 2 0.3 1.5
v 2.2 0.3 1.5

# faces
f 3/2/1 2/2/1 1/2/1
f 4/2/1 2/2/1 3/2/1
f 7/2/1 6/2/1 5/2/1
f 8/2/1 6/2/1 7/2/1
f 11/2/1 10/2/1 9/2/1
f 12/2/1 10/2/1 11/2/1
f 16/2/1 14/2/1 13/2/1
f 16/2/1 15/2/1 14/2/1
f 17/2/1 15/2/1 16/2/1
f 18/2/1 15/2/1 17/2/1
f 23/1/1 20/1/1 19/1/1
f 24/1/1 20/1/1 23/1/1
f 25/1/1 20/1/1 24/1/1
f 27/1/1 22/1/1 21/1/1
f 28/1/1 22/1/1 27/1/1
f 29/1/1 22/1/1 28/1/1
f 30/4/1 26/4/1 25/4/1
f 30/4/1 25/4/1 24/4/1
f 31/3/1 28/3/1 27/3/1
f 31/4/1 26/4/1 30/4/1
f 31/3/1 27/3/1 26/3/1
f 32/3/1 28/3/1 31/3/1
f 37/2/1 34/2/1 33/2/1
f 38/2/1 34/2/1 37/2/1
f 39/2/1 36/2/1 35/2/1
f 40/2/1 36/2/1 39/2/1
f 43/2/1 42/2/1 41/2/1
f 44/2/1 42/2/1 43/2/1
f 47/2/1 46/2/1 45/2/1
f 48/2/1 46/2/1 47/2/1
f 52/2/1 50/2/1 49/2/1
f 52/2/1 51/2/1 50/2/1
f 53/2/1 51/2/1 52/2/1
f 54/2/1 51/2/1 53/2/1
f 55/2/2 56/2/2 58/2/2
f 56/2/2 57/2/2 58/2/2
f 58/2/2 57/2/2 59/2/2
f 59/2/2 57/2/2 60/2/2
f 61/2/2 62/2/2 63/2/2
f 63/2/2 62/2/2 64/2/2
f 65/2/2 66/2/2 67/2/2
f 67/2/2 66/2/2 68/2/2
f 69/2/2 70/2/2 73/2/2
f 73/2/2 70/2/2 74/2/2
f 71/2/2 72/2/2 75/2/2
f 75/2/2 72/2/2 76/2/2
f 77/1/2 78/1/2 81/1/2
f 81/1/2 78/1/2 82/1/2
f 82/1/2 78/1/2 83/1/2
f 79/1/2 80/1/2 85/1/2
f 85/1/2 80/1/2 86/1/2
f 86/1/2 80/1/2 87/1/2
f 83/4/2 84/4/2 88/4/2
f 82/4/2 83/4/2 88/4/2
f 85/3/2 86/3/2 89/3/2
f 88/4/2 84/4/2 89/4/2
f 84/3/2 85/3/2 89/3/2
f 89/3/2 86/3/2 90/3/2
f 91/2/2 92/2/2 94/2/2
f 92/2/2 93/2/2 94/2/2
f 94/2/2 93/2/2 95/2/2
f 95/2/2 93/2/2 96/2/2
f 97/2/2 98/2/2 99/2/2
f 99/2/2 98/2/2 100/2/2
f 101/2/2 102/2/2 103/2/2
f 103/2/2 102/2/2 104/2/2
f 105/2/2 106/2/2 107/2/2
f 107/2/2 106/2/2 108/2/2
f 111/1/3 110/1/3 109/1/3
f 112/1/3 110/1/3 111/1/3
f 115/2/3 114/2/3 113/2/3
f 116/2/3 114/2/3 115/2/3
f 119/2/3 118/2/3 117/2/3
f 120/2/3 118/2/3 119/2/3
f 123/4/3 122/4/3 121/4/3
f 124/4/3 122/4/3 123/4/3
f 127/2/3 126/2/3 125/2/3
f 128/2/3 126/2/3 127/2/3
f 131/2/3 130/2/3 129/2/3
f 132/2/3 130/2/3 131/2/3
f 137/2/3 134/2/3 133/2/3
f 138/2/3 134/2/3 137/2/3
f 139/2/3 136/2/3 135/2/3
f 140/2/3 136/2/3 139/2/3
f 143/3/3 142/3/3 141/3/3
f 144/3/3 142/3/3 143/3/3
f 147/3/3 146/3/3 145/3/3
f 148/3/3 146/3/3 147/3/3
f 153/2/3 150/2/3 149/2/3
f 154/2/3 150/2/3 153/2/3
f 155/2/3 152/2/3 151/2/3
f 156/2/3 152/2/3 155/2/3
f 157/3/4 158/3/4 159/3/4
f 159/3/4 158/3/4 160/3/4
f 161/3/4 162/3/4 163/3/4
f 163/3/4 162/3/4 164/3/4
f 165/2/4 166/2/4 168/2/4
f 168/2/4 166/2/4 169/2/4
f 167/2/4 168/2/4 171/2/4
f 171/2/4 168/2/4 172/2/4
f 169/2/4 170/2/4 173/2/4
f 173/2/4 170/2/4 174/2/4
f 172/2/4 173/2/4 175/2/4
f 175/2/4 173/2/4 176/2/4
f 177/2/4 178/2/4 180/2/4
f 180/2/4 178/2/4 181/2/4
f 179/2/4 180/2/4 183/2/4
f 183/2/4 180/2/4 184/2/4
f 181/2/4 182/2/4 185/2/4
f 185/2/4 182/2/4 186/2/4
f 184/2/4 185/2/4 187/2/4
f 187/2/4 185/2/4 188/2/4
f 189/3/4 190/3/4 191/3/4
f 191/3/4 190/3/4 192/3/4
f 193/1/4 194/1/4 195/1/4
f 195/1/4 194/1/4 196/1/4
f 201/2/5 198/2/5 197/2/5
f 202/2/5 198/2/5 201/2/5
f 203/2/5 200/2/5 199/2/5
f 204/2/5 200/2/5 203/2/5
f 215/2/5 208/2/5 207/2/5
f 216/2/5 210/2/5 209/2/5
f 217/2/5 210/2/5 216/2/5
f 218/1/5 206/1/5 205/1/5
f 219/1/5 206/1/5 218/1/5
f 220/2/5 212/2/5 211/2/5
f 221/2/5 212/2/5 220/2/5
f 222/2/5 214/2/5 213/2/5
f 223/2/5 217/2/5 216/2/5
f 223/3/5 219/3/5 218/3/5
f 223/3/5 218/3/5 217/3/5
f 223/3/5 220/3/5 219/3/5
f 224/3/5 220/3/5 223/3/5
f 225/3/5 220/3/5 224/3/5
f 226/2/5 221/2/5 220/2/5
f 226/3/5 220/3/5 225/3/5
f 227/2/5 215/2/5 207/2/5
f 228/2/5 215/2/5 227/2/5
f 229/2/5 223/2/5 216/2/5
f 230/2/5 223/2/5 229/2/5
f 231/2/5 221/2/5 226/2/5
f 232/2/5 221/2/5 231/2/5
f 233/2/5 214/2/5 222/2/5
f 234/2/5 214/2/5 233/2/5
f 235/1/5 225/1/5 224/1/5
f 236/1/5 225/1/5 235/1/5
f 241/2/5 238/2/5 237/2/5
f 242/2/5 238/2/5 241/2/5
f 243/2/5 240/2/5 239/2/5
f 244/2/5 240/2/5 243/2/5
f 245/2/6 246/2/6 249/2/6
f 249/2/6 246/2/6 250/2/6
f 247/2/6 248/2/6 251/2/6
f 251/2/6 248/2/6 252/2/6
f 253/1/6 254/1/6 259/1/6
f 259/1/6 254/1/6 260/1/6
f 255/2/6 256/2/6 265/2/6
f 257/2/6 258/2/6 266/2/6
f 266/2/6 258/2/6 267/2/6
f 261/2/6 262/2/6 270/2/6
f 270/2/6 262/2/6 271/2/6
f 263/2/6 264/2/6 272/2/6
f 267/3/6 268/3/6 273/3/6
f 269/3/6 270/3/6 274/3/6
f 266/2/6 267/2/6 275/2/6
f 267/3/6 273/3/6 275/3/6
f 275/3/6 273/3/6 276/3/6
f 274/3/6 270/3/6 277/3/6
f 270/2/6 271/2/6 278/2/6
f 277/3/6 270/3/6 278/3/6
f 255/2/6 265/2/6 279/2/6
f 279/2/6 265/2/6 280/2/6
f 266/2/6 275/2/6 281/2/6
f 281/2/6 275/2/6 282/2/6
f 278/2/6 271/2/6 283/2/6
f 283/2/6 271/2/6 284/2/6
f 272/2/6 264/2/6 285/2/6
f 285/2/6 264/2/6 286/2/6
f 287/1/6 288/1/6 289/1/6
f 289/1/6 288/1/6 290/1/6
f 291/4/6 292/4/6 297/4/6
f 297/4/6 292/4/6 298/4/6
f 293/2/6 294/2/6 299/2/6
f 299/2/6 294/2/6 300/2/6
f 295/2/6 296/2/6 301/2/6
f 301/2/6 296/2/6 302/2/6
f 297/3/6 298/3/6 303/3/6
f 303/3/6 298/3/6 304/3/6
