# MagicaVoxel @ Ephtracy

# group
o 

# material
mtllib naves-0.mtl
usemtl palette

# normals
vn -1 0 0
vn 1 0 0
vn 0 0 1
vn 0 0 -1
vn 0 -1 0
vn 0 1 0

# texcoords
vt 0.00976563 0.5
vt 0.0136719 0.5
vt 0.0175781 0.5
vt 0.0214844 0.5
vt 0.0253906 0.5
vt 0.0332031 0.5
vt 0.0410156 0.5
vt 0.0449219 0.5
vt 0.0527344 0.5
vt 0.0839844 0.5
vt 0.0878906 0.5
vt 0.0917969 0.5
vt 0.123047 0.5

# verts
v 0 0 1.4
v 0 0 1.1
v 0 0.1 1.4
v 0 0.1 1.1
v 0.2 0 1.5
v 0.2 0 1.4
v 0.2 0.1 1.5
v 0.2 0.1 1.4
v 0.3 0 1.1
v 0.3 0 1
v 0.3 0 0.9
v 0.3 0 0.8
v 0.3 0.1 1.5
v 0.3 0.1 1.1
v 0.3 0.2 1.5
v 0.3 0.2 1.1
v 0.3 0.2 1
v 0.3 0.2 0.9
v 0.3 0.2 0.8
v 0.4 0 1.6
v 0.4 0 1.5
v 0.4 0.2 1.6
v 0.4 0.2 1.5
v 0.4 0.2 1.4
v 0.4 0.2 1.3
v 0.4 0.2 1.2
v 0.4 0.2 1.1
v 0.4 0.4 1.5
v 0.4 0.4 1.4
v 0.4 0.5 1.4
v 0.4 0.5 1.3
v 0.4 0.6 1.3
v 0.4 0.6 1.2
v 0.4 0.6 1.1
v 0.6 0 1.9
v 0.6 0 1.8
v 0.6 0 1.5
v 0.6 0 1.2
v 0.6 0 1.1
v 0.6 0.1 1.9
v 0.6 0.1 1.8
v 0.6 0.2 1.9
v 0.6 0.2 1.8
v 0.6 0.2 1.7
v 0.6 0.2 1.5
v 0.6 0.2 1.2
v 0.6 0.2 1.1
v 0.6 0.3 1.8
v 0.6 0.3 1.7
v 0.6 0.3 1.1
v 0.9 0 1.6
v 0.9 0 1.5
v 0.9 0 1.2
v 0.9 0 1.1
v 0.9 0 1
v 0.9 0 0.9
v 0.9 0 0.8
v 0.9 0.2 1.6
v 0.9 0.2 1.5
v 0.9 0.2 1.4
v 0.9 0.2 1.3
v 0.9 0.2 1.2
v 0.9 0.2 1.1
v 0.9 0.2 1
v 0.9 0.2 0.9
v 0.9 0.2 0.8
v 0.9 0.4 1.5
v 0.9 0.4 1.4
v 0.9 0.5 1.4
v 0.9 0.5 1.3
v 0.9 0.6 1.3
v 0.9 0.6 1.2
v 0.9 0.6 1.1
v 0.5 0 1.6
v 0.5 0 1.5
v 0.5 0 1.2
v 0.5 0 1.1
v 0.5 0 1
v 0.5 0 0.9
v 0.5 0 0.8
v 0.5 0.2 1.6
v 0.5 0.2 1.5
v 0.5 0.2 1.4
v 0.5 0.2 1.3
v 0.5 0.2 1.2
v 0.5 0.2 1.1
v 0.5 0.2 1
v 0.5 0.2 0.9
v 0.5 0.2 0.8
v 0.5 0.4 1.5
v 0.5 0.4 1.4
v 0.5 0.5 1.4
v 0.5 0.5 1.3
v 0.5 0.6 1.3
v 0.5 0.6 1.2
v 0.5 0.6 1.1
v 0.8 0 1.9
v 0.8 0 1.8
v 0.8 0 1.5
v 0.8 0 1.2
v 0.8 0 1.1
v 0.8 0.1 1.9
v 0.8 0.1 1.8
v 0.8 0.2 1.9
v 0.8 0.2 1.8
v 0.8 0.2 1.7
v 0.8 0.2 1.5
v 0.8 0.2 1.2
v 0.8 0.2 1.1
v 0.8 0.3 1.8
v 0.8 0.3 1.7
v 0.8 0.3 1.1
v 1 0 1.6
v 1 0 1.5
v 1 0.2 1.6
v 1 0.2 1.5
v 1 0.2 1.4
v 1 0.2 1.3
v 1 0.2 1.2
v 1 0.2 1.1
v 1 0.4 1.5
v 1 0.4 1.4
v 1 0.5 1.4
v 1 0.5 1.3
v 1 0.6 1.3
v 1 0.6 1.2
v 1 0.6 1.1
v 1.1 0 1.1
v 1.1 0 1
v 1.1 0 0.9
v 1.1 0 0.8
v 1.1 0.1 1.5
v 1.1 0.1 1.1
v 1.1 0.2 1.5
v 1.1 0.2 1.1
v 1.1 0.2 1
v 1.1 0.2 0.9
v 1.1 0.2 0.8
v 1.2 0 1.5
v 1.2 0 1.4
v 1.2 0.1 1.5
v 1.2 0.1 1.4
v 1.4 0 1.4
v 1.4 0 1.1
v 1.4 0.1 1.4
v 1.4 0.1 1.1
v 0.6 0 1.9
v 0.6 0.1 1.9
v 0.6 0.2 1.9
v 0.7 0 1.9
v 0.7 0.1 1.9
v 0.8 0 1.9
v 0.8 0.1 1.9
v 0.8 0.2 1.9
v 0.6 0.2 1.8
v 0.6 0.3 1.8
v 0.8 0.2 1.8
v 0.8 0.3 1.8
v 0.4 0 1.6
v 0.4 0.2 1.6
v 0.5 0 1.6
v 0.5 0.2 1.6
v 0.9 0 1.6
v 0.9 0.2 1.6
v 1 0 1.6
v 1 0.2 1.6
v 0.2 0 1.5
v 0.2 0.1 1.5
v 0.3 0 1.5
v 0.3 0.1 1.5
v 0.3 0.2 1.5
v 0.4 0 1.5
v 0.4 0.2 1.5
v 0.4 0.4 1.5
v 0.5 0 1.5
v 0.5 0.2 1.5
v 0.5 0.4 1.5
v 0.6 0 1.5
v 0.6 0.2 1.5
v 0.8 0 1.5
v 0.8 0.2 1.5
v 0.9 0 1.5
v 0.9 0.2 1.5
v 0.9 0.4 1.5
v 1 0 1.5
v 1 0.2 1.5
v 1 0.4 1.5
v 1.1 0 1.5
v 1.1 0.1 1.5
v 1.1 0.2 1.5
v 1.2 0 1.5
v 1.2 0.1 1.5
v 0 0 1.4
v 0 0.1 1.4
v 0.1 0 1.4
v 0.1 0.1 1.4
v 0.2 0 1.4
v 0.2 0.1 1.4
v 0.4 0.4 1.4
v 0.4 0.5 1.4
v 0.5 0.4 1.4
v 0.5 0.5 1.4
v 0.9 0.4 1.4
v 0.9 0.5 1.4
v 1 0.4 1.4
v 1 0.5 1.4
v 1.2 0 1.4
v 1.2 0.1 1.4
v 1.3 0 1.4
v 1.3 0.1 1.4
v 1.4 0 1.4
v 1.4 0.1 1.4
v 0.4 0.5 1.3
v 0.4 0.6 1.3
v 0.5 0.5 1.3
v 0.5 0.6 1.3
v 0.9 0.5 1.3
v 0.9 0.6 1.3
v 1 0.5 1.3
v 1 0.6 1.3
v 0.5 0 1.2
v 0.5 0.2 1.2
v 0.6 0 1.2
v 0.6 0.2 1.2
v 0.8 0 1.2
v 0.8 0.2 1.2
v 0.9 0 1.2
v 0.9 0.2 1.2
v 0 0 1.1
v 0 0.1 1.1
v 0.1 0 1.1
v 0.1 0.1 1.1
v 0.2 0 1.1
v 0.2 0.1 1.1
v 0.3 0 1.1
v 0.3 0.1 1.1
v 0.4 0.2 1.1
v 0.4 0.6 1.1
v 0.5 0.2 1.1
v 0.5 0.6 1.1
v 0.6 0 1.1
v 0.6 0.2 1.1
v 0.6 0.3 1.1
v 0.8 0 1.1
v 0.8 0.2 1.1
v 0.8 0.3 1.1
v 0.9 0.2 1.1
v 0.9 0.6 1.1
v 1 0.2 1.1
v 1 0.6 1.1
v 1.1 0 1.1
v 1.1 0.1 1.1
v 1.2 0 1.1
v 1.2 0.1 1.1
v 1.3 0 1.1
v 1.3 0.1 1.1
v 1.4 0 1.1
v 1.4 0.1 1.1
v 0.3 0 0.8
v 0.3 0.2 0.8
v 0.5 0 0.8
v 0.5 0.2 0.8
v 0.9 0 0.8
v 0.9 0.2 0.8
v 1.1 0 0.8
v 1.1 0.2 0.8
v 0.6 0 1.9
v 0.7 0 1.9
v 0.8 0 1.9
v 0.6 0 1.8
v 0.7 0 1.8
v 0.8 0 1.8
v 0.4 0 1.6
v 0.5 0 1.6
v 0.9 0 1.6
v 1 0 1.6
v 0.2 0 1.5
v 0.3 0 1.5
v 0.4 0 1.5
v 0.5 0 1.5
v 0.6 0 1.5
v 0.8 0 1.5
v 0.9 0 1.5
v 1 0 1.5
v 1.1 0 1.5
v 1.2 0 1.5
v 0 0 1.4
v 0.1 0 1.4
v 0.2 0 1.4
v 0.3 0 1.4
v 0.4 0 1.4
v 1 0 1.4
v 1.1 0 1.4
v 1.2 0 1.4
v 1.3 0 1.4
v 1.4 0 1.4
v 0.3 0 1.2
v 0.5 0 1.2
v 0.6 0 1.2
v 0.8 0 1.2
v 0.9 0 1.2
v 1.1 0 1.2
v 0 0 1.1
v 0.1 0 1.1
v 0.2 0 1.1
v 0.3 0 1.1
v 0.5 0 1.1
v 0.6 0 1.1
v 0.8 0 1.1
v 0.9 0 1.1
v 1.1 0 1.1
v 1.2 0 1.1
v 1.3 0 1.1
v 1.4 0 1.1
v 0.3 0 1
v 0.5 0 1
v 0.9 0 1
v 1.1 0 1
v 0.3 0 0.9
v 0.5 0 0.9
v 0.9 0 0.9
v 1.1 0 0.9
v 0.3 0 0.8
v 0.5 0 0.8
v 0.9 0 0.8
v 1.1 0 0.8
v 0.2 0.1 1.5
v 0.3 0.1 1.5
v 1.1 0.1 1.5
v 1.2 0.1 1.5
v 0 0.1 1.4
v 0.1 0.1 1.4
v 0.2 0.1 1.4
v 1.2 0.1 1.4
v 1.3 0.1 1.4
v 1.4 0.1 1.4
v 0 0.1 1.1
v 0.1 0.1 1.1
v 0.2 0.1 1.1
v 0.3 0.1 1.1
v 1.1 0.1 1.1
v 1.2 0.1 1.1
v 1.3 0.1 1.1
v 1.4 0.1 1.1
v 0.6 0.2 1.9
v 0.8 0.2 1.9
v 0.6 0.2 1.8
v 0.8 0.2 1.8
v 0.4 0.2 1.6
v 0.5 0.2 1.6
v 0.9 0.2 1.6
v 1 0.2 1.6
v 0.3 0.2 1.5
v 0.4 0.2 1.5
v 0.5 0.2 1.5
v 0.6 0.2 1.5
v 0.8 0.2 1.5
v 0.9 0.2 1.5
v 1 0.2 1.5
v 1.1 0.2 1.5
v 0.4 0.2 1.4
v 0.5 0.2 1.4
v 0.9 0.2 1.4
v 1 0.2 1.4
v 0.4 0.2 1.3
v 0.5 0.2 1.3
v 0.9 0.2 1.3
v 1 0.2 1.3
v 0.4 0.2 1.2
v 0.5 0.2 1.2
v 0.6 0.2 1.2
v 0.8 0.2 1.2
v 0.9 0.2 1.2
v 1 0.2 1.2
v 0.3 0.2 1.1
v 0.4 0.2 1.1
v 0.5 0.2 1.1
v 0.9 0.2 1.1
v 1 0.2 1.1
v 1.1 0.2 1.1
v 0.3 0.2 1
v 0.5 0.2 1
v 0.9 0.2 1
v 1.1 0.2 1
v 0.3 0.2 0.9
v 0.5 0.2 0.9
v 0.9 0.2 0.9
v 1.1 0.2 0.9
v 0.3 0.2 0.8
v 0.5 0.2 0.8
v 0.9 0.2 0.8
v 1.1 0.2 0.8
v 0.6 0.3 1.8
v 0.8 0.3 1.8
v 0.6 0.3 1.7
v 0.8 0.3 1.7
v 0.6 0.3 1.1
v 0.8 0.3 1.1
v 0.4 0.4 1.5
v 0.5 0.4 1.5
v 0.9 0.4 1.5
v 1 0.4 1.5
v 0.4 0.4 1.4
v 0.5 0.4 1.4
v 0.9 0.4 1.4
v 1 0.4 1.4
v 0.4 0.5 1.4
v 0.5 0.5 1.4
v 0.9 0.5 1.4
v 1 0.5 1.4
v 0.4 0.5 1.3
v 0.5 0.5 1.3
v 0.9 0.5 1.3
v 1 0.5 1.3
v 0.4 0.6 1.3
v 0.5 0.6 1.3
v 0.9 0.6 1.3
v 1 0.6 1.3
v 0.4 0.6 1.2
v 0.5 0.6 1.2
v 0.9 0.6 1.2
v 1 0.6 1.2
v 0.4 0.6 1.1
v 0.5 0.6 1.1
v 0.9 0.6 1.1
v 1 0.6 1.1

# faces
f 3/4/1 2/4/1 1/4/1
f 4/4/1 2/4/1 3/4/1
f 7/2/1 6/2/1 5/2/1
f 8/2/1 6/2/1 7/2/1
f 14/8/1 10/8/1 9/8/1
f 15/1/1 14/1/1 13/1/1
f 16/8/1 10/8/1 14/8/1
f 16/1/1 14/1/1 15/1/1
f 17/7/1 11/7/1 10/7/1
f 17/8/1 10/8/1 16/8/1
f 18/10/1 12/10/1 11/10/1
f 18/7/1 11/7/1 17/7/1
f 19/10/1 12/10/1 18/10/1
f 22/5/1 21/5/1 20/5/1
f 23/5/1 21/5/1 22/5/1
f 28/4/1 24/4/1 23/4/1
f 29/3/1 25/3/1 24/3/1
f 29/4/1 24/4/1 28/4/1
f 30/3/1 25/3/1 29/3/1
f 31/2/1 26/2/1 25/2/1
f 31/3/1 25/3/1 30/3/1
f 32/2/1 26/2/1 31/2/1
f 33/1/1 27/1/1 26/1/1
f 33/2/1 26/2/1 32/2/1
f 34/1/1 27/1/1 33/1/1
f 40/13/1 36/13/1 35/13/1
f 41/9/1 37/9/1 36/9/1
f 41/13/1 36/13/1 40/13/1
f 42/9/1 41/9/1 40/9/1
f 43/9/1 37/9/1 41/9/1
f 43/9/1 41/9/1 42/9/1
f 44/9/1 37/9/1 43/9/1
f 45/9/1 37/9/1 44/9/1
f 46/9/1 39/9/1 38/9/1
f 47/9/1 39/9/1 46/9/1
f 48/13/1 44/13/1 43/13/1
f 49/6/1 45/6/1 44/6/1
f 49/13/1 44/13/1 48/13/1
f 49/6/1 47/6/1 46/6/1
f 49/6/1 46/6/1 45/6/1
f 50/6/1 47/6/1 49/6/1
f 58/5/1 52/5/1 51/5/1
f 59/5/1 52/5/1 58/5/1
f 62/1/1 54/1/1 53/1/1
f 63/8/1 55/8/1 54/8/1
f 63/1/1 54/1/1 62/1/1
f 64/7/1 56/7/1 55/7/1
f 64/8/1 55/8/1 63/8/1
f 65/10/1 57/10/1 56/10/1
f 65/7/1 56/7/1 64/7/1
f 66/10/1 57/10/1 65/10/1
f 67/4/1 60/4/1 59/4/1
f 68/3/1 61/3/1 60/3/1
f 68/4/1 60/4/1 67/4/1
f 69/3/1 61/3/1 68/3/1
f 70/2/1 62/2/1 61/2/1
f 70/3/1 61/3/1 69/3/1
f 71/2/1 62/2/1 70/2/1
f 72/1/1 63/1/1 62/1/1
f 72/2/1 62/2/1 71/2/1
f 73/1/1 63/1/1 72/1/1
f 74/5/2 75/5/2 81/5/2
f 81/5/2 75/5/2 82/5/2
f 76/1/2 77/1/2 85/1/2
f 77/8/2 78/8/2 86/8/2
f 85/1/2 77/1/2 86/1/2
f 78/7/2 79/7/2 87/7/2
f 86/8/2 78/8/2 87/8/2
f 79/10/2 80/10/2 88/10/2
f 87/7/2 79/7/2 88/7/2
f 88/10/2 80/10/2 89/10/2
f 82/4/2 83/4/2 90/4/2
f 83/3/2 84/3/2 91/3/2
f 90/4/2 83/4/2 91/4/2
f 91/3/2 84/3/2 92/3/2
f 84/2/2 85/2/2 93/2/2
f 92/3/2 84/3/2 93/3/2
f 93/2/2 85/2/2 94/2/2
f 85/1/2 86/1/2 95/1/2
f 94/2/2 85/2/2 95/2/2
f 95/1/2 86/1/2 96/1/2
f 97/11/2 98/11/2 102/11/2
f 98/9/2 99/9/2 103/9/2
f 102/11/2 98/11/2 103/11/2
f 102/9/2 103/9/2 104/9/2
f 103/9/2 99/9/2 105/9/2
f 104/9/2 103/9/2 105/9/2
f 105/9/2 99/9/2 106/9/2
f 106/9/2 99/9/2 107/9/2
f 100/9/2 101/9/2 108/9/2
f 108/9/2 101/9/2 109/9/2
f 105/13/2 106/13/2 110/13/2
f 106/6/2 107/6/2 111/6/2
f 110/13/2 106/13/2 111/13/2
f 108/6/2 109/6/2 111/6/2
f 107/6/2 108/6/2 111/6/2
f 111/6/2 109/6/2 112/6/2
f 113/5/2 114/5/2 115/5/2
f 115/5/2 114/5/2 116/5/2
f 116/4/2 117/4/2 121/4/2
f 117/3/2 118/3/2 122/3/2
f 121/4/2 117/4/2 122/4/2
f 122/3/2 118/3/2 123/3/2
f 118/2/2 119/2/2 124/2/2
f 123/3/2 118/3/2 124/3/2
f 124/2/2 119/2/2 125/2/2
f 119/1/2 120/1/2 126/1/2
f 125/2/2 119/2/2 126/2/2
f 126/1/2 120/1/2 127/1/2
f 128/8/2 129/8/2 133/8/2
f 132/1/2 133/1/2 134/1/2
f 133/8/2 129/8/2 135/8/2
f 134/1/2 133/1/2 135/1/2
f 129/7/2 130/7/2 136/7/2
f 135/8/2 129/8/2 136/8/2
f 130/10/2 131/10/2 137/10/2
f 136/7/2 130/7/2 137/7/2
f 137/10/2 131/10/2 138/10/2
f 139/2/2 140/2/2 141/2/2
f 141/2/2 140/2/2 142/2/2
f 143/4/2 144/4/2 145/4/2
f 145/4/2 144/4/2 146/4/2
f 150/13/3 148/13/3 147/13/3
f 151/9/3 149/9/3 148/9/3
f 151/13/3 148/13/3 150/13/3
f 152/11/3 151/11/3 150/11/3
f 153/9/3 149/9/3 151/9/3
f 153/11/3 151/11/3 152/11/3
f 154/9/3 149/9/3 153/9/3
f 157/13/3 156/13/3 155/13/3
f 158/13/3 156/13/3 157/13/3
f 161/5/3 160/5/3 159/5/3
f 162/5/3 160/5/3 161/5/3
f 165/5/3 164/5/3 163/5/3
f 166/5/3 164/5/3 165/5/3
f 169/2/3 168/2/3 167/2/3
f 170/2/3 168/2/3 169/2/3
f 172/1/3 170/1/3 169/1/3
f 172/1/3 171/1/3 170/1/3
f 173/1/3 171/1/3 172/1/3
f 176/4/3 174/4/3 173/4/3
f 177/4/3 174/4/3 176/4/3
f 178/12/3 176/12/3 175/12/3
f 179/12/3 176/12/3 178/12/3
f 182/12/3 181/12/3 180/12/3
f 183/12/3 181/12/3 182/12/3
f 186/4/3 184/4/3 183/4/3
f 187/4/3 184/4/3 186/4/3
f 188/1/3 186/1/3 185/1/3
f 189/1/3 186/1/3 188/1/3
f 190/1/3 186/1/3 189/1/3
f 191/2/3 189/2/3 188/2/3
f 192/2/3 189/2/3 191/2/3
f 195/4/3 194/4/3 193/4/3
f 196/4/3 194/4/3 195/4/3
f 197/3/3 196/3/3 195/3/3
f 198/3/3 196/3/3 197/3/3
f 201/3/3 200/3/3 199/3/3
f 202/3/3 200/3/3 201/3/3
f 205/3/3 204/3/3 203/3/3
f 206/3/3 204/3/3 205/3/3
f 209/3/3 208/3/3 207/3/3
f 210/3/3 208/3/3 209/3/3
f 211/4/3 210/4/3 209/4/3
f 212/4/3 210/4/3 211/4/3
f 215/2/3 214/2/3 213/2/3
f 216/2/3 214/2/3 215/2/3
f 219/2/3 218/2/3 217/2/3
f 220/2/3 218/2/3 219/2/3
f 221/12/4 222/12/4 223/12/4
f 223/12/4 222/12/4 224/12/4
f 225/12/4 226/12/4 227/12/4
f 227/12/4 226/12/4 228/12/4
f 229/4/4 230/4/4 231/4/4
f 231/4/4 230/4/4 232/4/4
f 231/3/4 232/3/4 233/3/4
f 233/3/4 232/3/4 234/3/4
f 233/2/4 234/2/4 235/2/4
f 235/2/4 234/2/4 236/2/4
f 237/1/4 238/1/4 239/1/4
f 239/1/4 238/1/4 240/1/4
f 241/9/4 242/9/4 244/9/4
f 242/6/4 243/6/4 245/6/4
f 244/9/4 242/9/4 245/9/4
f 245/6/4 243/6/4 246/6/4
f 247/1/4 248/1/4 249/1/4
f 249/1/4 248/1/4 250/1/4
f 251/2/4 252/2/4 253/2/4
f 253/2/4 252/2/4 254/2/4
f 253/3/4 254/3/4 255/3/4
f 255/3/4 254/3/4 256/3/4
f 255/4/4 256/4/4 257/4/4
f 257/4/4 256/4/4 258/4/4
f 259/10/4 260/10/4 261/10/4
f 261/10/4 260/10/4 262/10/4
f 263/10/4 264/10/4 265/10/4
f 265/10/4 264/10/4 266/10/4
f 270/13/5 268/13/5 267/13/5
f 271/11/5 269/11/5 268/11/5
f 271/13/5 268/13/5 270/13/5
f 272/11/5 269/11/5 271/11/5
f 279/5/5 274/5/5 273/5/5
f 280/5/5 274/5/5 279/5/5
f 281/9/5 271/9/5 270/9/5
f 281/9/5 272/9/5 271/9/5
f 282/9/5 272/9/5 281/9/5
f 283/5/5 276/5/5 275/5/5
f 284/5/5 276/5/5 283/5/5
f 289/2/5 278/2/5 277/2/5
f 290/1/5 279/1/5 278/1/5
f 290/2/5 278/2/5 289/2/5
f 291/12/5 280/12/5 279/12/5
f 291/1/5 279/1/5 290/1/5
f 291/12/5 282/12/5 281/12/5
f 291/12/5 281/12/5 280/12/5
f 291/12/5 283/12/5 282/12/5
f 291/12/5 284/12/5 283/12/5
f 292/1/5 285/1/5 284/1/5
f 292/12/5 284/12/5 291/12/5
f 293/2/5 286/2/5 285/2/5
f 293/1/5 285/1/5 292/1/5
f 294/2/5 286/2/5 293/2/5
f 297/2/5 290/2/5 289/2/5
f 297/12/5 292/12/5 291/12/5
f 297/12/5 291/12/5 290/12/5
f 297/12/5 293/12/5 292/12/5
f 298/12/5 293/12/5 297/12/5
f 299/12/5 293/12/5 298/12/5
f 300/12/5 293/12/5 299/12/5
f 301/12/5 293/12/5 300/12/5
f 302/2/5 294/2/5 293/2/5
f 302/12/5 293/12/5 301/12/5
f 303/4/5 288/4/5 287/4/5
f 304/3/5 289/3/5 288/3/5
f 304/4/5 288/4/5 303/4/5
f 305/2/5 297/2/5 289/2/5
f 305/3/5 289/3/5 304/3/5
f 306/1/5 298/1/5 297/1/5
f 306/2/5 297/2/5 305/2/5
f 307/1/5 298/1/5 306/1/5
f 308/9/5 300/9/5 299/9/5
f 309/9/5 300/9/5 308/9/5
f 310/1/5 302/1/5 301/1/5
f 311/2/5 294/2/5 302/2/5
f 311/1/5 302/1/5 310/1/5
f 312/3/5 295/3/5 294/3/5
f 312/2/5 294/2/5 311/2/5
f 313/4/5 296/4/5 295/4/5
f 313/3/5 295/3/5 312/3/5
f 314/4/5 296/4/5 313/4/5
f 315/8/5 307/8/5 306/8/5
f 316/8/5 307/8/5 315/8/5
f 317/8/5 311/8/5 310/8/5
f 318/8/5 311/8/5 317/8/5
f 319/7/5 316/7/5 315/7/5
f 320/7/5 316/7/5 319/7/5
f 321/7/5 318/7/5 317/7/5
f 322/7/5 318/7/5 321/7/5
f 323/10/5 320/10/5 319/10/5
f 324/10/5 320/10/5 323/10/5
f 325/10/5 322/10/5 321/10/5
f 326/10/5 322/10/5 325/10/5
f 327/2/6 328/2/6 333/2/6
f 329/2/6 330/2/6 334/2/6
f 331/4/6 332/4/6 337/4/6
f 332/3/6 333/3/6 338/3/6
f 337/4/6 332/4/6 338/4/6
f 333/2/6 328/2/6 339/2/6
f 338/3/6 333/3/6 339/3/6
f 339/2/6 328/2/6 340/2/6
f 329/2/6 334/2/6 341/2/6
f 334/3/6 335/3/6 342/3/6
f 341/2/6 334/2/6 342/2/6
f 335/4/6 336/4/6 343/4/6
f 342/3/6 335/3/6 343/3/6
f 343/4/6 336/4/6 344/4/6
f 345/9/6 346/9/6 347/9/6
f 347/9/6 346/9/6 348/9/6
f 349/5/6 350/5/6 354/5/6
f 354/5/6 350/5/6 355/5/6
f 351/5/6 352/5/6 358/5/6
f 358/5/6 352/5/6 359/5/6
f 353/1/6 354/1/6 361/1/6
f 355/12/6 356/12/6 362/12/6
f 357/12/6 358/12/6 363/12/6
f 359/1/6 360/1/6 364/1/6
f 353/1/6 361/1/6 365/1/6
f 362/12/6 356/12/6 366/12/6
f 357/12/6 363/12/6 367/12/6
f 364/1/6 360/1/6 368/1/6
f 353/1/6 365/1/6 369/1/6
f 366/12/6 356/12/6 370/12/6
f 370/12/6 356/12/6 371/12/6
f 357/12/6 367/12/6 372/12/6
f 372/12/6 367/12/6 373/12/6
f 368/1/6 360/1/6 374/1/6
f 353/1/6 369/1/6 375/1/6
f 375/1/6 369/1/6 376/1/6
f 374/1/6 360/1/6 379/1/6
f 379/1/6 360/1/6 380/1/6
f 376/8/6 377/8/6 381/8/6
f 375/8/6 376/8/6 381/8/6
f 381/8/6 377/8/6 382/8/6
f 379/8/6 380/8/6 383/8/6
f 378/8/6 379/8/6 383/8/6
f 383/8/6 380/8/6 384/8/6
f 381/7/6 382/7/6 385/7/6
f 385/7/6 382/7/6 386/7/6
f 383/7/6 384/7/6 387/7/6
f 387/7/6 384/7/6 388/7/6
f 385/10/6 386/10/6 389/10/6
f 389/10/6 386/10/6 390/10/6
f 387/10/6 388/10/6 391/10/6
f 391/10/6 388/10/6 392/10/6
f 393/13/6 394/13/6 395/13/6
f 395/13/6 394/13/6 396/13/6
f 395/6/6 396/6/6 397/6/6
f 397/6/6 396/6/6 398/6/6
f 399/4/6 400/4/6 403/4/6
f 403/4/6 400/4/6 404/4/6
f 401/4/6 402/4/6 405/4/6
f 405/4/6 402/4/6 406/4/6
f 407/3/6 408/3/6 411/3/6
f 411/3/6 408/3/6 412/3/6
f 409/3/6 410/3/6 413/3/6
f 413/3/6 410/3/6 414/3/6
f 415/2/6 416/2/6 419/2/6
f 419/2/6 416/2/6 420/2/6
f 417/2/6 418/2/6 421/2/6
f 421/2/6 418/2/6 422/2/6
f 419/1/6 420/1/6 423/1/6
f 423/1/6 420/1/6 424/1/6
f 421/1/6 422/1/6 425/1/6
f 425/1/6 422/1/6 426/1/6
