# MagicaVoxel @ Ephtracy

# group
o 

# material
mtllib naves-2.mtl
usemtl palette

# normals
vn -1 0 0
vn 1 0 0
vn 0 0 1
vn 0 0 -1
vn 0 -1 0
vn 0 1 0

# texcoords
vt 0.00976563 0.5
vt 0.0136719 0.5
vt 0.0175781 0.5
vt 0.0214844 0.5
vt 0.0371094 0.5
vt 0.0410156 0.5
vt 0.0449219 0.5
vt 0.0800781 0.5
vt 0.0839844 0.5

# verts
v 0 0.1 -0.1
v 0 0.1 -0.2
v 0 0.2 -0.1
v 0 0.2 -0.2
v 0.1 0.1 0
v 0.1 0.1 -0.1
v 0.1 0.2 0
v 0.1 0.2 -0.1
v 0.2 0.1 0.1
v 0.2 0.1 0
v 0.2 0.2 0.1
v 0.2 0.2 0
v 0.4 0.1 0.4
v 0.4 0.1 0.3
v 0.4 0.1 0.1
v 0.4 0.1 -0.2
v 0.4 0.1 -0.4
v 0.4 0.2 0.4
v 0.4 0.2 0.3
v 0.4 0.2 0.1
v 0.4 0.2 -0.2
v 0.4 0.2 -0.4
v 0.5 0 0.3
v 0.5 0 0
v 0.5 0 -0.1
v 0.5 0 -0.3
v 0.5 0.1 0.3
v 0.5 0.1 0
v 0.5 0.1 -0.1
v 0.5 0.1 -0.3
v 0.5 0.1 -0.4
v 0.5 0.1 -0.5
v 0.5 0.1 -0.6
v 0.5 0.2 0.3
v 0.5 0.2 0.2
v 0.5 0.2 0.1
v 0.5 0.2 -0.1
v 0.5 0.2 -0.2
v 0.5 0.2 -0.3
v 0.5 0.2 -0.4
v 0.5 0.2 -0.5
v 0.5 0.2 -0.6
v 0.5 0.3 0.3
v 0.5 0.3 0.2
v 0.5 0.3 0.1
v 0.5 0.3 -0.1
v 0.5 0.3 -0.2
v 0.5 0.3 -0.3
v 0.7 0.1 0.1
v 0.7 0.1 0
v 0.7 0.1 -0.1
v 0.7 0.2 0.1
v 0.7 0.2 -0.1
v 0.5 0.1 0.1
v 0.5 0.1 0
v 0.5 0.1 -0.1
v 0.5 0.2 0.1
v 0.5 0.2 -0.1
v 0.7 0 0.3
v 0.7 0 0
v 0.7 0 -0.1
v 0.7 0 -0.3
v 0.7 0.1 0.3
v 0.7 0.1 0
v 0.7 0.1 -0.1
v 0.7 0.1 -0.3
v 0.7 0.1 -0.4
v 0.7 0.1 -0.5
v 0.7 0.1 -0.6
v 0.7 0.2 0.3
v 0.7 0.2 0.2
v 0.7 0.2 0.1
v 0.7 0.2 -0.1
v 0.7 0.2 -0.2
v 0.7 0.2 -0.3
v 0.7 0.2 -0.4
v 0.7 0.2 -0.5
v 0.7 0.2 -0.6
v 0.7 0.3 0.3
v 0.7 0.3 0.2
v 0.7 0.3 0.1
v 0.7 0.3 -0.1
v 0.7 0.3 -0.2
v 0.7 0.3 -0.3
v 0.8 0.1 0.4
v 0.8 0.1 0.3
v 0.8 0.1 0.1
v 0.8 0.1 -0.2
v 0.8 0.1 -0.4
v 0.8 0.2 0.4
v 0.8 0.2 0.3
v 0.8 0.2 0.1
v 0.8 0.2 -0.2
v 0.8 0.2 -0.4
v 1 0.1 0.1
v 1 0.1 0
v 1 0.2 0.1
v 1 0.2 0
v 1.1 0.1 0
v 1.1 0.1 -0.1
v 1.1 0.2 0
v 1.1 0.2 -0.1
v 1.2 0.1 -0.1
v 1.2 0.1 -0.2
v 1.2 0.2 -0.1
v 1.2 0.2 -0.2
v 0.4 0.1 0.4
v 0.4 0.2 0.4
v 0.5 0.1 0.4
v 0.5 0.2 0.4
v 0.7 0.1 0.4
v 0.7 0.2 0.4
v 0.8 0.1 0.4
v 0.8 0.2 0.4
v 0.5 0 0.3
v 0.5 0.1 0.3
v 0.5 0.2 0.3
v 0.5 0.3 0.3
v 0.7 0 0.3
v 0.7 0.1 0.3
v 0.7 0.2 0.3
v 0.7 0.3 0.3
v 0.2 0.1 0.1
v 0.2 0.2 0.1
v 0.4 0.1 0.1
v 0.4 0.2 0.1
v 0.8 0.1 0.1
v 0.8 0.2 0.1
v 1 0.1 0.1
v 1 0.2 0.1
v 0.1 0.1 0
v 0.1 0.2 0
v 0.2 0.1 0
v 0.2 0.2 0
v 1 0.1 0
v 1 0.2 0
v 1.1 0.1 0
v 1.1 0.2 0
v 0 0.1 -0.1
v 0 0.2 -0.1
v 0.1 0.1 -0.1
v 0.1 0.2 -0.1
v 0.5 0.1 -0.1
v 0.5 0.2 -0.1
v 0.5 0.3 -0.1
v 0.7 0.1 -0.1
v 0.7 0.2 -0.1
v 0.7 0.3 -0.1
v 1.1 0.1 -0.1
v 1.1 0.2 -0.1
v 1.2 0.1 -0.1
v 1.2 0.2 -0.1
v 0.5 0.1 0.1
v 0.5 0.2 0.1
v 0.5 0.3 0.1
v 0.7 0.1 0.1
v 0.7 0.2 0.1
v 0.7 0.3 0.1
v 0 0.1 -0.2
v 0 0.2 -0.2
v 0.4 0.1 -0.2
v 0.4 0.2 -0.2
v 0.8 0.1 -0.2
v 0.8 0.2 -0.2
v 1.2 0.1 -0.2
v 1.2 0.2 -0.2
v 0.5 0 -0.3
v 0.5 0.1 -0.3
v 0.5 0.2 -0.3
v 0.5 0.3 -0.3
v 0.7 0 -0.3
v 0.7 0.1 -0.3
v 0.7 0.2 -0.3
v 0.7 0.3 -0.3
v 0.4 0.1 -0.4
v 0.4 0.2 -0.4
v 0.5 0.1 -0.4
v 0.5 0.2 -0.4
v 0.7 0.1 -0.4
v 0.7 0.2 -0.4
v 0.8 0.1 -0.4
v 0.8 0.2 -0.4
v 0.5 0.1 -0.6
v 0.5 0.2 -0.6
v 0.7 0.1 -0.6
v 0.7 0.2 -0.6
v 0.5 0 0.3
v 0.7 0 0.3
v 0.5 0 0
v 0.7 0 0
v 0.5 0 -0.1
v 0.7 0 -0.1
v 0.5 0 -0.3
v 0.7 0 -0.3
v 0.4 0.1 0.4
v 0.5 0.1 0.4
v 0.7 0.1 0.4
v 0.8 0.1 0.4
v 0.4 0.1 0.3
v 0.5 0.1 0.3
v 0.7 0.1 0.3
v 0.8 0.1 0.3
v 0.2 0.1 0.1
v 0.4 0.1 0.1
v 0.8 0.1 0.1
v 1 0.1 0.1
v 0.1 0.1 0
v 0.2 0.1 0
v 0.4 0.1 0
v 0.5 0.1 0
v 0.7 0.1 0
v 0.8 0.1 0
v 1 0.1 0
v 1.1 0.1 0
v 0 0.1 -0.1
v 0.1 0.1 -0.1
v 0.4 0.1 -0.1
v 0.5 0.1 -0.1
v 0.7 0.1 -0.1
v 0.8 0.1 -0.1
v 1.1 0.1 -0.1
v 1.2 0.1 -0.1
v 0 0.1 -0.2
v 0.4 0.1 -0.2
v 0.8 0.1 -0.2
v 1.2 0.1 -0.2
v 0.5 0.1 -0.3
v 0.7 0.1 -0.3
v 0.4 0.1 -0.4
v 0.5 0.1 -0.4
v 0.7 0.1 -0.4
v 0.8 0.1 -0.4
v 0.5 0.1 -0.5
v 0.7 0.1 -0.5
v 0.5 0.1 -0.6
v 0.7 0.1 -0.6
v 0.5 0.1 0.1
v 0.7 0.1 0.1
v 0.5 0.1 0
v 0.7 0.1 0
v 0.5 0.1 -0.1
v 0.7 0.1 -0.1
v 0.4 0.2 0.4
v 0.5 0.2 0.4
v 0.7 0.2 0.4
v 0.8 0.2 0.4
v 0.4 0.2 0.3
v 0.5 0.2 0.3
v 0.7 0.2 0.3
v 0.8 0.2 0.3
v 0.5 0.2 0.2
v 0.7 0.2 0.2
v 0.2 0.2 0.1
v 0.4 0.2 0.1
v 0.5 0.2 0.1
v 0.7 0.2 0.1
v 0.8 0.2 0.1
v 1 0.2 0.1
v 0.1 0.2 0
v 0.2 0.2 0
v 0.4 0.2 0
v 0.8 0.2 0
v 1 0.2 0
v 1.1 0.2 0
v 0 0.2 -0.1
v 0.1 0.2 -0.1
v 0.4 0.2 -0.1
v 0.5 0.2 -0.1
v 0.7 0.2 -0.1
v 0.8 0.2 -0.1
v 1.1 0.2 -0.1
v 1.2 0.2 -0.1
v 0 0.2 -0.2
v 0.4 0.2 -0.2
v 0.5 0.2 -0.2
v 0.7 0.2 -0.2
v 0.8 0.2 -0.2
v 1.2 0.2 -0.2
v 0.5 0.2 -0.3
v 0.7 0.2 -0.3
v 0.4 0.2 -0.4
v 0.5 0.2 -0.4
v 0.7 0.2 -0.4
v 0.8 0.2 -0.4
v 0.5 0.2 -0.5
v 0.7 0.2 -0.5
v 0.5 0.2 -0.6
v 0.7 0.2 -0.6
v 0.5 0.3 0.3
v 0.7 0.3 0.3
v 0.5 0.3 0.2
v 0.7 0.3 0.2
v 0.5 0.3 0.1
v 0.7 0.3 0.1
v 0.5 0.3 -0.1
v 0.7 0.3 -0.1
v 0.5 0.3 -0.2
v 0.7 0.3 -0.2
v 0.5 0.3 -0.3
v 0.7 0.3 -0.3

# faces
f 3/4/1 2/4/1 1/4/1
f 4/4/1 2/4/1 3/4/1
f 7/3/1 6/3/1 5/3/1
f 8/3/1 6/3/1 7/3/1
f 11/4/1 10/4/1 9/4/1
f 12/4/1 10/4/1 11/4/1
f 18/8/1 14/8/1 13/8/1
f 19/2/1 15/2/1 14/2/1
f 19/8/1 14/8/1 18/8/1
f 20/2/1 15/2/1 19/2/1
f 21/2/1 17/2/1 16/2/1
f 22/2/1 17/2/1 21/2/1
f 27/1/1 24/1/1 23/1/1
f 28/5/1 25/5/1 24/5/1
f 28/1/1 24/1/1 27/1/1
f 29/1/1 26/1/1 25/1/1
f 29/5/1 25/5/1 28/5/1
f 30/1/1 26/1/1 29/1/1
f 40/6/1 32/6/1 31/6/1
f 41/9/1 33/9/1 32/9/1
f 41/6/1 32/6/1 40/6/1
f 42/9/1 33/9/1 41/9/1
f 43/1/1 35/1/1 34/1/1
f 44/8/1 36/8/1 35/8/1
f 44/1/1 35/1/1 43/1/1
f 45/8/1 36/8/1 44/8/1
f 46/5/1 38/5/1 37/5/1
f 47/1/1 39/1/1 38/1/1
f 47/5/1 38/5/1 46/5/1
f 48/1/1 39/1/1 47/1/1
f 52/2/1 50/2/1 49/2/1
f 52/2/1 51/2/1 50/2/1
f 53/2/1 51/2/1 52/2/1
f 54/2/2 55/2/2 57/2/2
f 55/2/2 56/2/2 57/2/2
f 57/2/2 56/2/2 58/2/2
f 59/1/2 60/1/2 63/1/2
f 60/5/2 61/5/2 64/5/2
f 63/1/2 60/1/2 64/1/2
f 61/1/2 62/1/2 65/1/2
f 64/5/2 61/5/2 65/5/2
f 65/1/2 62/1/2 66/1/2
f 67/6/2 68/6/2 76/6/2
f 68/9/2 69/9/2 77/9/2
f 76/6/2 68/6/2 77/6/2
f 77/9/2 69/9/2 78/9/2
f 70/1/2 71/1/2 79/1/2
f 71/8/2 72/8/2 80/8/2
f 79/1/2 71/1/2 80/1/2
f 80/8/2 72/8/2 81/8/2
f 73/5/2 74/5/2 82/5/2
f 74/1/2 75/1/2 83/1/2
f 82/5/2 74/5/2 83/5/2
f 83/1/2 75/1/2 84/1/2
f 85/8/2 86/8/2 90/8/2
f 86/2/2 87/2/2 91/2/2
f 90/8/2 86/8/2 91/8/2
f 91/2/2 87/2/2 92/2/2
f 88/2/2 89/2/2 93/2/2
f 93/2/2 89/2/2 94/2/2
f 95/4/2 96/4/2 97/4/2
f 97/4/2 96/4/2 98/4/2
f 99/3/2 100/3/2 101/3/2
f 101/3/2 100/3/2 102/3/2
f 103/4/2 104/4/2 105/4/2
f 105/4/2 104/4/2 106/4/2
f 109/8/3 108/8/3 107/8/3
f 110/8/3 108/8/3 109/8/3
f 111/2/3 110/2/3 109/2/3
f 112/2/3 110/2/3 111/2/3
f 113/8/3 112/8/3 111/8/3
f 114/8/3 112/8/3 113/8/3
f 119/1/3 116/1/3 115/1/3
f 120/1/3 116/1/3 119/1/3
f 121/1/3 118/1/3 117/1/3
f 122/1/3 118/1/3 121/1/3
f 125/4/3 124/4/3 123/4/3
f 126/4/3 124/4/3 125/4/3
f 129/4/3 128/4/3 127/4/3
f 130/4/3 128/4/3 129/4/3
f 133/3/3 132/3/3 131/3/3
f 134/3/3 132/3/3 133/3/3
f 137/3/3 136/3/3 135/3/3
f 138/3/3 136/3/3 137/3/3
f 141/4/3 140/4/3 139/4/3
f 142/4/3 140/4/3 141/4/3
f 146/5/3 144/5/3 143/5/3
f 146/5/3 145/5/3 144/5/3
f 147/5/3 145/5/3 146/5/3
f 148/5/3 145/5/3 147/5/3
f 151/4/3 150/4/3 149/4/3
f 152/4/3 150/4/3 151/4/3
f 153/8/4 154/8/4 156/8/4
f 154/8/4 155/8/4 156/8/4
f 156/8/4 155/8/4 157/8/4
f 157/8/4 155/8/4 158/8/4
f 159/4/4 160/4/4 161/4/4
f 161/4/4 160/4/4 162/4/4
f 163/4/4 164/4/4 165/4/4
f 165/4/4 164/4/4 166/4/4
f 167/1/4 168/1/4 171/1/4
f 171/1/4 168/1/4 172/1/4
f 169/1/4 170/1/4 173/1/4
f 173/1/4 170/1/4 174/1/4
f 175/2/4 176/2/4 177/2/4
f 177/2/4 176/2/4 178/2/4
f 179/2/4 180/2/4 181/2/4
f 181/2/4 180/2/4 182/2/4
f 183/9/4 184/9/4 185/9/4
f 185/9/4 184/9/4 186/9/4
f 189/1/5 188/1/5 187/1/5
f 190/1/5 188/1/5 189/1/5
f 191/5/5 190/5/5 189/5/5
f 192/5/5 190/5/5 191/5/5
f 193/1/5 192/1/5 191/1/5
f 194/1/5 192/1/5 193/1/5
f 199/8/5 196/8/5 195/8/5
f 200/2/5 197/2/5 196/2/5
f 200/8/5 196/8/5 199/8/5
f 201/8/5 198/8/5 197/8/5
f 201/2/5 197/2/5 200/2/5
f 202/8/5 198/8/5 201/8/5
f 204/2/5 200/2/5 199/2/5
f 205/2/5 202/2/5 201/2/5
f 208/4/5 204/4/5 203/4/5
f 209/2/5 200/2/5 204/2/5
f 209/4/5 204/4/5 208/4/5
f 210/2/5 200/2/5 209/2/5
f 211/2/5 205/2/5 201/2/5
f 212/4/5 206/4/5 205/4/5
f 212/2/5 205/2/5 211/2/5
f 213/4/5 206/4/5 212/4/5
f 216/3/5 208/3/5 207/3/5
f 216/3/5 209/3/5 208/3/5
f 217/2/5 210/2/5 209/2/5
f 217/3/5 209/3/5 216/3/5
f 218/2/5 210/2/5 217/2/5
f 219/2/5 212/2/5 211/2/5
f 220/3/5 214/3/5 213/3/5
f 220/2/5 212/2/5 219/2/5
f 220/3/5 213/3/5 212/3/5
f 221/3/5 214/3/5 220/3/5
f 223/4/5 216/4/5 215/4/5
f 223/4/5 217/4/5 216/4/5
f 224/2/5 218/2/5 217/2/5
f 224/4/5 217/4/5 223/4/5
f 225/4/5 222/4/5 221/4/5
f 225/4/5 221/4/5 220/4/5
f 225/2/5 220/2/5 219/2/5
f 226/4/5 222/4/5 225/4/5
f 227/2/5 218/2/5 224/2/5
f 228/2/5 225/2/5 219/2/5
f 229/2/5 227/2/5 224/2/5
f 230/7/5 228/7/5 227/7/5
f 230/2/5 227/2/5 229/2/5
f 231/2/5 225/2/5 228/2/5
f 231/7/5 228/7/5 230/7/5
f 232/2/5 225/2/5 231/2/5
f 233/6/5 231/6/5 230/6/5
f 234/6/5 231/6/5 233/6/5
f 235/9/5 234/9/5 233/9/5
f 236/9/5 234/9/5 235/9/5
f 237/1/6 238/1/6 239/1/6
f 239/1/6 238/1/6 240/1/6
f 239/5/6 240/5/6 241/5/6
f 241/5/6 240/5/6 242/5/6
f 243/8/6 244/8/6 247/8/6
f 244/2/6 245/2/6 248/2/6
f 247/8/6 244/8/6 248/8/6
f 245/8/6 246/8/6 249/8/6
f 248/2/6 245/2/6 249/2/6
f 249/8/6 246/8/6 250/8/6
f 247/2/6 248/2/6 251/2/6
f 249/2/6 250/2/6 252/2/6
f 247/2/6 251/2/6 254/2/6
f 254/2/6 251/2/6 255/2/6
f 252/2/6 250/2/6 256/2/6
f 256/2/6 250/2/6 257/2/6
f 253/4/6 254/4/6 260/4/6
f 254/2/6 255/2/6 261/2/6
f 260/4/6 254/4/6 261/4/6
f 256/2/6 257/2/6 262/2/6
f 257/4/6 258/4/6 262/4/6
f 262/4/6 258/4/6 263/4/6
f 259/3/6 260/3/6 266/3/6
f 260/3/6 261/3/6 266/3/6
f 261/2/6 255/2/6 267/2/6
f 266/3/6 261/3/6 267/3/6
f 267/2/6 255/2/6 268/2/6
f 256/2/6 262/2/6 269/2/6
f 263/3/6 264/3/6 270/3/6
f 269/2/6 262/2/6 270/2/6
f 262/3/6 263/3/6 270/3/6
f 270/3/6 264/3/6 271/3/6
f 265/4/6 266/4/6 273/4/6
f 266/4/6 267/4/6 273/4/6
f 267/2/6 268/2/6 274/2/6
f 273/4/6 267/4/6 274/4/6
f 274/2/6 268/2/6 275/2/6
f 269/2/6 270/2/6 276/2/6
f 271/4/6 272/4/6 277/4/6
f 276/2/6 270/2/6 277/2/6
f 270/4/6 271/4/6 277/4/6
f 277/4/6 272/4/6 278/4/6
f 274/2/6 275/2/6 279/2/6
f 276/2/6 277/2/6 280/2/6
f 274/2/6 279/2/6 281/2/6
f 279/7/6 280/7/6 282/7/6
f 281/2/6 279/2/6 282/2/6
f 280/2/6 277/2/6 283/2/6
f 282/7/6 280/7/6 283/7/6
f 283/2/6 277/2/6 284/2/6
f 282/6/6 283/6/6 285/6/6
f 285/6/6 283/6/6 286/6/6
f 285/9/6 286/9/6 287/9/6
f 287/9/6 286/9/6 288/9/6
f 289/1/6 290/1/6 291/1/6
f 291/1/6 290/1/6 292/1/6
f 291/8/6 292/8/6 293/8/6
f 293/8/6 292/8/6 294/8/6
f 295/5/6 296/5/6 297/5/6
f 297/5/6 296/5/6 298/5/6
f 297/1/6 298/1/6 299/1/6
f 299/1/6 298/1/6 300/1/6
