# MagicaVoxel @ Ephtracy

# group
o 

# material
mtllib naves-5.mtl
usemtl palette

# normals
vn -1 0 0
vn 1 0 0
vn 0 0 1
vn 0 0 -1
vn 0 -1 0
vn 0 1 0

# texcoords
vt 0.0332031 0.5
vt 0.0410156 0.5
vt 0.0839844 0.5
vt 0.0917969 0.5
vt 0.123047 0.5

# verts
v 2.7 0.3 1.8
v 2.7 0.3 1.7
v 2.7 0.3 1.5
v 2.7 0.3 1.4
v 2.7 0.4 1.8
v 2.7 0.4 1.7
v 2.7 0.4 1.5
v 2.7 0.4 1.4
v 2.7 0.5 1.8
v 2.7 0.5 1.4
v 2.8 0.2 1.7
v 2.8 0.2 1.5
v 2.8 0.3 1.7
v 2.8 0.3 1.5
v 2.8 0.4 1.7
v 2.8 0.4 1.5
v 2.8 0.5 1.7
v 2.8 0.5 1.5
v 2.8 0.6 1.7
v 2.8 0.6 1.5
v 2.9 0.6 1.7
v 2.9 0.6 1.5
v 2.9 0.7 1.7
v 2.9 0.7 1.5
v 3 0.3 1.8
v 3 0.3 1.7
v 3 0.3 1.5
v 3 0.3 1.4
v 3 0.4 1.8
v 3 0.4 1.7
v 3 0.4 1.5
v 3 0.4 1.4
v 3.1 0.3 2.2
v 3.1 0.3 2.1
v 3.1 0.3 1.9
v 3.1 0.3 1.8
v 3.1 0.3 1.4
v 3.1 0.3 1.3
v 3.1 0.3 1.1
v 3.1 0.3 1
v 3.1 0.4 2.2
v 3.1 0.4 2.1
v 3.1 0.4 1.9
v 3.1 0.4 1.8
v 3.1 0.4 1.4
v 3.1 0.4 1.3
v 3.1 0.4 1.1
v 3.1 0.4 1
v 3.1 0.5 2.2
v 3.1 0.5 1.8
v 3.1 0.5 1.4
v 3.1 0.5 1
v 3.1 0.7 1.7
v 3.1 0.7 1.5
v 3.1 0.8 1.7
v 3.1 0.8 1.5
v 3.2 0.2 2.1
v 3.2 0.2 1.9
v 3.2 0.2 1.3
v 3.2 0.2 1.1
v 3.2 0.3 2.1
v 3.2 0.3 1.9
v 3.2 0.3 1.3
v 3.2 0.3 1.1
v 3.2 0.4 2.1
v 3.2 0.4 1.9
v 3.2 0.4 1.3
v 3.2 0.4 1.1
v 3.2 0.5 2.1
v 3.2 0.5 2
v 3.2 0.5 1.8
v 3.2 0.5 1.4
v 3.2 0.5 1.2
v 3.2 0.5 1.1
v 3.2 0.6 2.1
v 3.2 0.6 2
v 3.2 0.6 1.9
v 3.2 0.6 1.8
v 3.2 0.6 1.7
v 3.2 0.6 1.5
v 3.2 0.6 1.4
v 3.2 0.6 1.3
v 3.2 0.6 1.2
v 3.2 0.6 1.1
v 3.2 0.7 1.9
v 3.2 0.7 1.8
v 3.2 0.7 1.7
v 3.2 0.7 1.5
v 3.2 0.7 1.4
v 3.2 0.7 1.3
v 3.2 0.8 1.8
v 3.2 0.8 1.7
v 3.2 0.8 1.5
v 3.2 0.8 1.4
v 3.2 0.9 1.7
v 3.2 0.9 1.5
v 3.4 0.3 2.2
v 3.4 0.3 2.1
v 3.4 0.3 1.9
v 3.4 0.3 1.8
v 3.4 0.3 1.4
v 3.4 0.3 1.3
v 3.4 0.3 1.1
v 3.4 0.3 1
v 3.4 0.4 2.2
v 3.4 0.4 2.1
v 3.4 0.4 1.9
v 3.4 0.4 1.8
v 3.4 0.4 1.4
v 3.4 0.4 1.3
v 3.4 0.4 1.1
v 3.4 0.4 1
v 3.5 0.3 1.8
v 3.5 0.3 1.7
v 3.5 0.3 1.5
v 3.5 0.3 1.4
v 3.5 0.4 1.8
v 3.5 0.4 1.7
v 3.5 0.4 1.5
v 3.5 0.4 1.4
v 3.5 0.5 1.8
v 3.5 0.5 1.4
v 3.6 0.2 1.7
v 3.6 0.2 1.5
v 3.6 0.3 1.7
v 3.6 0.3 1.5
v 3.6 0.4 1.7
v 3.6 0.4 1.5
v 3.6 0.5 1.7
v 3.6 0.5 1.5
v 3.6 0.6 1.7
v 3.6 0.6 1.5
v 3.8 0.3 1.8
v 3.8 0.3 1.7
v 3.8 0.3 1.5
v 3.8 0.3 1.4
v 3.8 0.4 1.8
v 3.8 0.4 1.7
v 3.8 0.4 1.5
v 3.8 0.4 1.4
v 2.8 0.3 1.8
v 2.8 0.3 1.7
v 2.8 0.3 1.5
v 2.8 0.3 1.4
v 2.8 0.4 1.8
v 2.8 0.4 1.7
v 2.8 0.4 1.5
v 2.8 0.4 1.4
v 3 0.2 1.7
v 3 0.2 1.5
v 3 0.3 1.7
v 3 0.3 1.5
v 3 0.4 1.7
v 3 0.4 1.5
v 3 0.5 1.7
v 3 0.5 1.5
v 3 0.6 1.7
v 3 0.6 1.5
v 3.1 0.3 1.8
v 3.1 0.3 1.7
v 3.1 0.3 1.5
v 3.1 0.3 1.4
v 3.1 0.4 1.8
v 3.1 0.4 1.7
v 3.1 0.4 1.5
v 3.1 0.4 1.4
v 3.1 0.5 1.8
v 3.1 0.5 1.4
v 3.2 0.3 2.2
v 3.2 0.3 2.1
v 3.2 0.3 1.9
v 3.2 0.3 1.8
v 3.2 0.3 1.4
v 3.2 0.3 1.3
v 3.2 0.3 1.1
v 3.2 0.3 1
v 3.2 0.4 2.2
v 3.2 0.4 2.1
v 3.2 0.4 1.9
v 3.2 0.4 1.8
v 3.2 0.4 1.4
v 3.2 0.4 1.3
v 3.2 0.4 1.1
v 3.2 0.4 1
v 3.4 0.2 2.1
v 3.4 0.2 1.9
v 3.4 0.2 1.3
v 3.4 0.2 1.1
v 3.4 0.3 2.1
v 3.4 0.3 1.9
v 3.4 0.3 1.3
v 3.4 0.3 1.1
v 3.4 0.4 2.1
v 3.4 0.4 1.9
v 3.4 0.4 1.3
v 3.4 0.4 1.1
v 3.4 0.5 2.1
v 3.4 0.5 2
v 3.4 0.5 1.8
v 3.4 0.5 1.4
v 3.4 0.5 1.2
v 3.4 0.5 1.1
v 3.4 0.6 2.1
v 3.4 0.6 2
v 3.4 0.6 1.9
v 3.4 0.6 1.8
v 3.4 0.6 1.7
v 3.4 0.6 1.5
v 3.4 0.6 1.4
v 3.4 0.6 1.3
v 3.4 0.6 1.2
v 3.4 0.6 1.1
v 3.4 0.7 1.9
v 3.4 0.7 1.8
v 3.4 0.7 1.7
v 3.4 0.7 1.5
v 3.4 0.7 1.4
v 3.4 0.7 1.3
v 3.4 0.8 1.8
v 3.4 0.8 1.7
v 3.4 0.8 1.5
v 3.4 0.8 1.4
v 3.4 0.9 1.7
v 3.4 0.9 1.5
v 3.5 0.3 2.2
v 3.5 0.3 2.1
v 3.5 0.3 1.9
v 3.5 0.3 1.8
v 3.5 0.3 1.4
v 3.5 0.3 1.3
v 3.5 0.3 1.1
v 3.5 0.3 1
v 3.5 0.4 2.2
v 3.5 0.4 2.1
v 3.5 0.4 1.9
v 3.5 0.4 1.8
v 3.5 0.4 1.4
v 3.5 0.4 1.3
v 3.5 0.4 1.1
v 3.5 0.4 1
v 3.5 0.5 2.2
v 3.5 0.5 1.8
v 3.5 0.5 1.4
v 3.5 0.5 1
v 3.5 0.7 1.7
v 3.5 0.7 1.5
v 3.5 0.8 1.7
v 3.5 0.8 1.5
v 3.6 0.3 1.8
v 3.6 0.3 1.7
v 3.6 0.3 1.5
v 3.6 0.3 1.4
v 3.6 0.4 1.8
v 3.6 0.4 1.7
v 3.6 0.4 1.5
v 3.6 0.4 1.4
v 3.7 0.6 1.7
v 3.7 0.6 1.5
v 3.7 0.7 1.7
v 3.7 0.7 1.5
v 3.8 0.2 1.7
v 3.8 0.2 1.5
v 3.8 0.3 1.7
v 3.8 0.3 1.5
v 3.8 0.4 1.7
v 3.8 0.4 1.5
v 3.8 0.5 1.7
v 3.8 0.5 1.5
v 3.8 0.6 1.7
v 3.8 0.6 1.5
v 3.9 0.3 1.8
v 3.9 0.3 1.7
v 3.9 0.3 1.5
v 3.9 0.3 1.4
v 3.9 0.4 1.8
v 3.9 0.4 1.7
v 3.9 0.4 1.5
v 3.9 0.4 1.4
v 3.9 0.5 1.8
v 3.9 0.5 1.4
v 3.1 0.3 2.2
v 3.1 0.4 2.2
v 3.1 0.5 2.2
v 3.2 0.3 2.2
v 3.2 0.4 2.2
v 3.4 0.3 2.2
v 3.4 0.4 2.2
v 3.5 0.3 2.2
v 3.5 0.4 2.2
v 3.5 0.5 2.2
v 3.2 0.2 2.1
v 3.2 0.3 2.1
v 3.2 0.4 2.1
v 3.2 0.5 2.1
v 3.2 0.6 2.1
v 3.4 0.2 2.1
v 3.4 0.3 2.1
v 3.4 0.4 2.1
v 3.4 0.5 2.1
v 3.4 0.6 2.1
v 3.1 0.3 1.9
v 3.1 0.4 1.9
v 3.2 0.3 1.9
v 3.2 0.4 1.9
v 3.2 0.6 1.9
v 3.2 0.7 1.9
v 3.4 0.3 1.9
v 3.4 0.4 1.9
v 3.4 0.6 1.9
v 3.4 0.7 1.9
v 3.5 0.3 1.9
v 3.5 0.4 1.9
v 2.7 0.3 1.8
v 2.7 0.4 1.8
v 2.7 0.5 1.8
v 2.8 0.3 1.8
v 2.8 0.4 1.8
v 3 0.3 1.8
v 3 0.4 1.8
v 3.1 0.3 1.8
v 3.1 0.4 1.8
v 3.1 0.5 1.8
v 3.2 0.7 1.8
v 3.2 0.8 1.8
v 3.4 0.7 1.8
v 3.4 0.8 1.8
v 3.5 0.3 1.8
v 3.5 0.4 1.8
v 3.5 0.5 1.8
v 3.6 0.3 1.8
v 3.6 0.4 1.8
v 3.8 0.3 1.8
v 3.8 0.4 1.8
v 3.9 0.3 1.8
v 3.9 0.4 1.8
v 3.9 0.5 1.8
v 2.8 0.2 1.7
v 2.8 0.3 1.7
v 2.8 0.4 1.7
v 2.8 0.5 1.7
v 2.8 0.6 1.7
v 2.9 0.5 1.7
v 2.9 0.6 1.7
v 2.9 0.7 1.7
v 3 0.2 1.7
v 3 0.3 1.7
v 3 0.4 1.7
v 3 0.5 1.7
v 3 0.6 1.7
v 3.1 0.7 1.7
v 3.1 0.8 1.7
v 3.2 0.6 1.7
v 3.2 0.7 1.7
v 3.2 0.8 1.7
v 3.2 0.9 1.7
v 3.4 0.6 1.7
v 3.4 0.7 1.7
v 3.4 0.8 1.7
v 3.4 0.9 1.7
v 3.5 0.7 1.7
v 3.5 0.8 1.7
v 3.6 0.2 1.7
v 3.6 0.3 1.7
v 3.6 0.4 1.7
v 3.6 0.5 1.7
v 3.6 0.6 1.7
v 3.7 0.5 1.7
v 3.7 0.6 1.7
v 3.7 0.7 1.7
v 3.8 0.2 1.7
v 3.8 0.3 1.7
v 3.8 0.4 1.7
v 3.8 0.5 1.7
v 3.8 0.6 1.7
v 2.7 0.3 1.5
v 2.7 0.4 1.5
v 2.8 0.3 1.5
v 2.8 0.4 1.5
v 3 0.3 1.5
v 3 0.4 1.5
v 3.1 0.3 1.5
v 3.1 0.4 1.5
v 3.5 0.3 1.5
v 3.5 0.4 1.5
v 3.6 0.3 1.5
v 3.6 0.4 1.5
v 3.8 0.3 1.5
v 3.8 0.4 1.5
v 3.9 0.3 1.5
v 3.9 0.4 1.5
v 3.1 0.3 1.4
v 3.1 0.4 1.4
v 3.1 0.5 1.4
v 3.2 0.3 1.4
v 3.2 0.4 1.4
v 3.2 0.5 1.4
v 3.2 0.6 1.4
v 3.4 0.3 1.4
v 3.4 0.4 1.4
v 3.4 0.5 1.4
v 3.4 0.6 1.4
v 3.5 0.3 1.4
v 3.5 0.4 1.4
v 3.5 0.5 1.4
v 3.2 0.2 1.3
v 3.2 0.3 1.3
v 3.2 0.4 1.3
v 3.4 0.2 1.3
v 3.4 0.3 1.3
v 3.4 0.4 1.3
v 3.1 0.3 1.1
v 3.1 0.4 1.1
v 3.2 0.3 1.1
v 3.2 0.4 1.1
v 3.4 0.3 1.1
v 3.4 0.4 1.1
v 3.5 0.3 1.1
v 3.5 0.4 1.1
v 3.1 0.3 2.1
v 3.1 0.4 2.1
v 3.2 0.3 2.1
v 3.2 0.4 2.1
v 3.4 0.3 2.1
v 3.4 0.4 2.1
v 3.5 0.3 2.1
v 3.5 0.4 2.1
v 3.2 0.2 1.9
v 3.2 0.3 1.9
v 3.2 0.4 1.9
v 3.4 0.2 1.9
v 3.4 0.3 1.9
v 3.4 0.4 1.9
v 3.1 0.3 1.8
v 3.1 0.4 1.8
v 3.1 0.5 1.8
v 3.2 0.3 1.8
v 3.2 0.4 1.8
v 3.2 0.5 1.8
v 3.2 0.6 1.8
v 3.4 0.3 1.8
v 3.4 0.4 1.8
v 3.4 0.5 1.8
v 3.4 0.6 1.8
v 3.5 0.3 1.8
v 3.5 0.4 1.8
v 3.5 0.5 1.8
v 2.7 0.3 1.7
v 2.7 0.4 1.7
v 2.8 0.3 1.7
v 2.8 0.4 1.7
v 3 0.3 1.7
v 3 0.4 1.7
v 3.1 0.3 1.7
v 3.1 0.4 1.7
v 3.5 0.3 1.7
v 3.5 0.4 1.7
v 3.6 0.3 1.7
v 3.6 0.4 1.7
v 3.8 0.3 1.7
v 3.8 0.4 1.7
v 3.9 0.3 1.7
v 3.9 0.4 1.7
v 2.8 0.2 1.5
v 2.8 0.3 1.5
v 2.8 0.4 1.5
v 2.8 0.5 1.5
v 2.8 0.6 1.5
v 2.9 0.5 1.5
v 2.9 0.6 1.5
v 2.9 0.7 1.5
v 3 0.2 1.5
v 3 0.3 1.5
v 3 0.4 1.5
v 3 0.5 1.5
v 3 0.6 1.5
v 3.1 0.7 1.5
v 3.1 0.8 1.5
v 3.2 0.6 1.5
v 3.2 0.7 1.5
v 3.2 0.8 1.5
v 3.2 0.9 1.5
v 3.4 0.6 1.5
v 3.4 0.7 1.5
v 3.4 0.8 1.5
v 3.4 0.9 1.5
v 3.5 0.7 1.5
v 3.5 0.8 1.5
v 3.6 0.2 1.5
v 3.6 0.3 1.5
v 3.6 0.4 1.5
v 3.6 0.5 1.5
v 3.6 0.6 1.5
v 3.7 0.5 1.5
v 3.7 0.6 1.5
v 3.7 0.7 1.5
v 3.8 0.2 1.5
v 3.8 0.3 1.5
v 3.8 0.4 1.5
v 3.8 0.5 1.5
v 3.8 0.6 1.5
v 2.7 0.3 1.4
v 2.7 0.4 1.4
v 2.7 0.5 1.4
v 2.8 0.3 1.4
v 2.8 0.4 1.4
v 3 0.3 1.4
v 3 0.4 1.4
v 3.1 0.3 1.4
v 3.1 0.4 1.4
v 3.1 0.5 1.4
v 3.2 0.7 1.4
v 3.2 0.8 1.4
v 3.4 0.7 1.4
v 3.4 0.8 1.4
v 3.5 0.3 1.4
v 3.5 0.4 1.4
v 3.5 0.5 1.4
v 3.6 0.3 1.4
v 3.6 0.4 1.4
v 3.8 0.3 1.4
v 3.8 0.4 1.4
v 3.9 0.3 1.4
v 3.9 0.4 1.4
v 3.9 0.5 1.4
v 3.1 0.3 1.3
v 3.1 0.4 1.3
v 3.2 0.3 1.3
v 3.2 0.4 1.3
v 3.2 0.6 1.3
v 3.2 0.7 1.3
v 3.4 0.3 1.3
v 3.4 0.4 1.3
v 3.4 0.6 1.3
v 3.4 0.7 1.3
v 3.5 0.3 1.3
v 3.5 0.4 1.3
v 3.2 0.2 1.1
v 3.2 0.3 1.1
v 3.2 0.4 1.1
v 3.2 0.5 1.1
v 3.2 0.6 1.1
v 3.4 0.2 1.1
v 3.4 0.3 1.1
v 3.4 0.4 1.1
v 3.4 0.5 1.1
v 3.4 0.6 1.1
v 3.1 0.3 1
v 3.1 0.4 1
v 3.1 0.5 1
v 3.2 0.3 1
v 3.2 0.4 1
v 3.4 0.3 1
v 3.4 0.4 1
v 3.5 0.3 1
v 3.5 0.4 1
v 3.5 0.5 1
v 3.2 0.2 2.1
v 3.4 0.2 2.1
v 3.2 0.2 1.9
v 3.4 0.2 1.9
v 2.8 0.2 1.7
v 3 0.2 1.7
v 3.6 0.2 1.7
v 3.8 0.2 1.7
v 2.8 0.2 1.5
v 3 0.2 1.5
v 3.6 0.2 1.5
v 3.8 0.2 1.5
v 3.2 0.2 1.3
v 3.4 0.2 1.3
v 3.2 0.2 1.1
v 3.4 0.2 1.1
v 3.1 0.3 2.2
v 3.2 0.3 2.2
v 3.4 0.3 2.2
v 3.5 0.3 2.2
v 3.1 0.3 2.1
v 3.2 0.3 2.1
v 3.4 0.3 2.1
v 3.5 0.3 2.1
v 3.1 0.3 1.9
v 3.2 0.3 1.9
v 3.4 0.3 1.9
v 3.5 0.3 1.9
v 2.7 0.3 1.8
v 2.8 0.3 1.8
v 3 0.3 1.8
v 3.1 0.3 1.8
v 3.2 0.3 1.8
v 3.4 0.3 1.8
v 3.5 0.3 1.8
v 3.6 0.3 1.8
v 3.8 0.3 1.8
v 3.9 0.3 1.8
v 2.7 0.3 1.7
v 2.8 0.3 1.7
v 3 0.3 1.7
v 3.1 0.3 1.7
v 3.5 0.3 1.7
v 3.6 0.3 1.7
v 3.8 0.3 1.7
v 3.9 0.3 1.7
v 2.7 0.3 1.5
v 2.8 0.3 1.5
v 3 0.3 1.5
v 3.1 0.3 1.5
v 3.5 0.3 1.5
v 3.6 0.3 1.5
v 3.8 0.3 1.5
v 3.9 0.3 1.5
v 2.7 0.3 1.4
v 2.8 0.3 1.4
v 3 0.3 1.4
v 3.1 0.3 1.4
v 3.2 0.3 1.4
v 3.4 0.3 1.4
v 3.5 0.3 1.4
v 3.6 0.3 1.4
v 3.8 0.3 1.4
v 3.9 0.3 1.4
v 3.1 0.3 1.3
v 3.2 0.3 1.3
v 3.4 0.3 1.3
v 3.5 0.3 1.3
v 3.1 0.3 1.1
v 3.2 0.3 1.1
v 3.4 0.3 1.1
v 3.5 0.3 1.1
v 3.1 0.3 1
v 3.2 0.3 1
v 3.4 0.3 1
v 3.5 0.3 1
v 3.2 0.4 2.2
v 3.4 0.4 2.2
v 3.1 0.4 2.1
v 3.2 0.4 2.1
v 3.4 0.4 2.1
v 3.5 0.4 2.1
v 3.1 0.4 1.9
v 3.2 0.4 1.9
v 3.4 0.4 1.9
v 3.5 0.4 1.9
v 2.8 0.4 1.8
v 3 0.4 1.8
v 3.2 0.4 1.8
v 3.4 0.4 1.8
v 3.6 0.4 1.8
v 3.8 0.4 1.8
v 2.7 0.4 1.7
v 2.8 0.4 1.7
v 3 0.4 1.7
v 3.1 0.4 1.7
v 3.5 0.4 1.7
v 3.6 0.4 1.7
v 3.8 0.4 1.7
v 3.9 0.4 1.7
v 2.7 0.4 1.5
v 2.8 0.4 1.5
v 3 0.4 1.5
v 3.1 0.4 1.5
v 3.5 0.4 1.5
v 3.6 0.4 1.5
v 3.8 0.4 1.5
v 3.9 0.4 1.5
v 2.8 0.4 1.4
v 3 0.4 1.4
v 3.2 0.4 1.4
v 3.4 0.4 1.4
v 3.6 0.4 1.4
v 3.8 0.4 1.4
v 3.1 0.4 1.3
v 3.2 0.4 1.3
v 3.4 0.4 1.3
v 3.5 0.4 1.3
v 3.1 0.4 1.1
v 3.2 0.4 1.1
v 3.4 0.4 1.1
v 3.5 0.4 1.1
v 3.2 0.4 1
v 3.4 0.4 1
v 3.2 0.6 1.8
v 3.4 0.6 1.8
v 3 0.6 1.7
v 3.2 0.6 1.7
v 3.4 0.6 1.7
v 3.6 0.6 1.7
v 3 0.6 1.5
v 3.2 0.6 1.5
v 3.4 0.6 1.5
v 3.6 0.6 1.5
v 3.2 0.6 1.4
v 3.4 0.6 1.4
v 3.1 0.5 2.2
v 3.5 0.5 2.2
v 3.2 0.5 2.1
v 3.4 0.5 2.1
v 3.2 0.5 2
v 3.4 0.5 2
v 2.7 0.5 1.8
v 3.1 0.5 1.8
v 3.2 0.5 1.8
v 3.4 0.5 1.8
v 3.5 0.5 1.8
v 3.9 0.5 1.8
v 2.8 0.5 1.7
v 2.9 0.5 1.7
v 3 0.5 1.7
v 3.6 0.5 1.7
v 3.7 0.5 1.7
v 3.8 0.5 1.7
v 2.8 0.5 1.5
v 2.9 0.5 1.5
v 3 0.5 1.5
v 3.6 0.5 1.5
v 3.7 0.5 1.5
v 3.8 0.5 1.5
v 2.7 0.5 1.4
v 3.1 0.5 1.4
v 3.2 0.5 1.4
v 3.4 0.5 1.4
v 3.5 0.5 1.4
v 3.9 0.5 1.4
v 3.2 0.5 1.2
v 3.4 0.5 1.2
v 3.2 0.5 1.1
v 3.4 0.5 1.1
v 3.1 0.5 1
v 3.5 0.5 1
v 3.2 0.6 2.1
v 3.4 0.6 2.1
v 3.2 0.6 2
v 3.4 0.6 2
v 3.2 0.6 1.9
v 3.4 0.6 1.9
v 2.8 0.6 1.7
v 2.9 0.6 1.7
v 3.7 0.6 1.7
v 3.8 0.6 1.7
v 2.8 0.6 1.5
v 2.9 0.6 1.5
v 3.7 0.6 1.5
v 3.8 0.6 1.5
v 3.2 0.6 1.3
v 3.4 0.6 1.3
v 3.2 0.6 1.2
v 3.4 0.6 1.2
v 3.2 0.6 1.1
v 3.4 0.6 1.1
v 3.2 0.7 1.9
v 3.4 0.7 1.9
v 3.2 0.7 1.8
v 3.4 0.7 1.8
v 2.9 0.7 1.7
v 3.1 0.7 1.7
v 3.5 0.7 1.7
v 3.7 0.7 1.7
v 2.9 0.7 1.5
v 3.1 0.7 1.5
v 3.5 0.7 1.5
v 3.7 0.7 1.5
v 3.2 0.7 1.4
v 3.4 0.7 1.4
v 3.2 0.7 1.3
v 3.4 0.7 1.3
v 3.2 0.8 1.8
v 3.4 0.8 1.8
v 3.1 0.8 1.7
v 3.2 0.8 1.7
v 3.4 0.8 1.7
v 3.5 0.8 1.7
v 3.1 0.8 1.5
v 3.2 0.8 1.5
v 3.4 0.8 1.5
v 3.5 0.8 1.5
v 3.2 0.8 1.4
v 3.4 0.8 1.4
v 3.2 0.9 1.7
v 3.4 0.9 1.7
v 3.2 0.9 1.5
v 3.4 0.9 1.5

# faces
f 5/3/1 2/3/1 1/3/1
f 6/3/1 2/3/1 5/3/1
f 7/3/1 4/3/1 3/3/1
f 8/3/1 4/3/1 7/3/1
f 9/4/1 6/4/1 5/4/1
f 9/4/1 7/4/1 6/4/1
f 9/4/1 8/4/1 7/4/1
f 10/4/1 8/4/1 9/4/1
f 13/3/1 12/3/1 11/3/1
f 14/3/1 12/3/1 13/3/1
f 15/2/1 14/2/1 13/2/1
f 16/2/1 14/2/1 15/2/1
f 19/5/1 18/5/1 17/5/1
f 20/5/1 18/5/1 19/5/1
f 23/4/1 22/4/1 21/4/1
f 24/4/1 22/4/1 23/4/1
f 29/3/1 26/3/1 25/3/1
f 30/3/1 26/3/1 29/3/1
f 31/3/1 28/3/1 27/3/1
f 32/3/1 28/3/1 31/3/1
f 41/3/1 34/3/1 33/3/1
f 42/3/1 34/3/1 41/3/1
f 43/3/1 36/3/1 35/3/1
f 44/3/1 36/3/1 43/3/1
f 45/3/1 38/3/1 37/3/1
f 46/3/1 38/3/1 45/3/1
f 47/3/1 40/3/1 39/3/1
f 48/3/1 40/3/1 47/3/1
f 49/4/1 42/4/1 41/4/1
f 49/4/1 44/4/1 43/4/1
f 49/4/1 43/4/1 42/4/1
f 50/4/1 44/4/1 49/4/1
f 51/4/1 46/4/1 45/4/1
f 51/4/1 48/4/1 47/4/1
f 51/4/1 47/4/1 46/4/1
f 52/4/1 48/4/1 51/4/1
f 55/5/1 54/5/1 53/5/1
f 56/5/1 54/5/1 55/5/1
f 61/3/1 58/3/1 57/3/1
f 62/3/1 58/3/1 61/3/1
f 63/3/1 60/3/1 59/3/1
f 64/3/1 60/3/1 63/3/1
f 65/2/1 62/2/1 61/2/1
f 66/2/1 62/2/1 65/2/1
f 67/2/1 64/2/1 63/2/1
f 68/2/1 64/2/1 67/2/1
f 75/5/1 70/5/1 69/5/1
f 76/4/1 71/4/1 70/4/1
f 76/5/1 70/5/1 75/5/1
f 77/4/1 71/4/1 76/4/1
f 78/4/1 71/4/1 77/4/1
f 81/4/1 73/4/1 72/4/1
f 82/4/1 73/4/1 81/4/1
f 83/5/1 74/5/1 73/5/1
f 83/4/1 73/4/1 82/4/1
f 84/5/1 74/5/1 83/5/1
f 85/4/1 79/4/1 78/4/1
f 85/4/1 78/4/1 77/4/1
f 86/4/1 79/4/1 85/4/1
f 87/4/1 79/4/1 86/4/1
f 88/4/1 82/4/1 81/4/1
f 88/4/1 81/4/1 80/4/1
f 89/4/1 82/4/1 88/4/1
f 90/4/1 82/4/1 89/4/1
f 91/5/1 87/5/1 86/5/1
f 92/5/1 87/5/1 91/5/1
f 93/5/1 89/5/1 88/5/1
f 94/5/1 89/5/1 93/5/1
f 95/4/1 93/4/1 92/4/1
f 96/4/1 93/4/1 95/4/1
f 105/3/1 98/3/1 97/3/1
f 106/3/1 98/3/1 105/3/1
f 107/3/1 100/3/1 99/3/1
f 108/3/1 100/3/1 107/3/1
f 109/3/1 102/3/1 101/3/1
f 110/3/1 102/3/1 109/3/1
f 111/3/1 104/3/1 103/3/1
f 112/3/1 104/3/1 111/3/1
f 117/3/1 114/3/1 113/3/1
f 118/3/1 114/3/1 117/3/1
f 119/3/1 116/3/1 115/3/1
f 120/3/1 116/3/1 119/3/1
f 121/4/1 118/4/1 117/4/1
f 121/4/1 119/4/1 118/4/1
f 121/4/1 120/4/1 119/4/1
f 122/4/1 120/4/1 121/4/1
f 125/3/1 124/3/1 123/3/1
f 126/3/1 124/3/1 125/3/1
f 127/2/1 126/2/1 125/2/1
f 128/2/1 126/2/1 127/2/1
f 131/4/1 130/4/1 129/4/1
f 132/4/1 130/4/1 131/4/1
f 137/3/1 134/3/1 133/3/1
f 138/3/1 134/3/1 137/3/1
f 139/3/1 136/3/1 135/3/1
f 140/3/1 136/3/1 139/3/1
f 141/3/2 142/3/2 145/3/2
f 145/3/2 142/3/2 146/3/2
f 143/3/2 144/3/2 147/3/2
f 147/3/2 144/3/2 148/3/2
f 149/3/2 150/3/2 151/3/2
f 151/3/2 150/3/2 152/3/2
f 151/2/2 152/2/2 153/2/2
f 153/2/2 152/2/2 154/2/2
f 155/4/2 156/4/2 157/4/2
f 157/4/2 156/4/2 158/4/2
f 159/3/2 160/3/2 163/3/2
f 163/3/2 160/3/2 164/3/2
f 161/3/2 162/3/2 165/3/2
f 165/3/2 162/3/2 166/3/2
f 163/4/2 164/4/2 167/4/2
f 164/4/2 165/4/2 167/4/2
f 165/4/2 166/4/2 167/4/2
f 167/4/2 166/4/2 168/4/2
f 169/3/2 170/3/2 177/3/2
f 177/3/2 170/3/2 178/3/2
f 171/3/2 172/3/2 179/3/2
f 179/3/2 172/3/2 180/3/2
f 173/3/2 174/3/2 181/3/2
f 181/3/2 174/3/2 182/3/2
f 175/3/2 176/3/2 183/3/2
f 183/3/2 176/3/2 184/3/2
f 185/3/2 186/3/2 189/3/2
f 189/3/2 186/3/2 190/3/2
f 187/3/2 188/3/2 191/3/2
f 191/3/2 188/3/2 192/3/2
f 189/2/2 190/2/2 193/2/2
f 193/2/2 190/2/2 194/2/2
f 191/2/2 192/2/2 195/2/2
f 195/2/2 192/2/2 196/2/2
f 197/5/2 198/5/2 203/5/2
f 198/4/2 199/4/2 204/4/2
f 203/5/2 198/5/2 204/5/2
f 204/4/2 199/4/2 205/4/2
f 205/4/2 199/4/2 206/4/2
f 200/4/2 201/4/2 209/4/2
f 209/4/2 201/4/2 210/4/2
f 201/5/2 202/5/2 211/5/2
f 210/4/2 201/4/2 211/4/2
f 211/5/2 202/5/2 212/5/2
f 206/4/2 207/4/2 213/4/2
f 205/4/2 206/4/2 213/4/2
f 213/4/2 207/4/2 214/4/2
f 214/4/2 207/4/2 215/4/2
f 209/4/2 210/4/2 216/4/2
f 208/4/2 209/4/2 216/4/2
f 216/4/2 210/4/2 217/4/2
f 217/4/2 210/4/2 218/4/2
f 214/5/2 215/5/2 219/5/2
f 219/5/2 215/5/2 220/5/2
f 216/5/2 217/5/2 221/5/2
f 221/5/2 217/5/2 222/5/2
f 220/4/2 221/4/2 223/4/2
f 223/4/2 221/4/2 224/4/2
f 225/3/2 226/3/2 233/3/2
f 233/3/2 226/3/2 234/3/2
f 227/3/2 228/3/2 235/3/2
f 235/3/2 228/3/2 236/3/2
f 229/3/2 230/3/2 237/3/2
f 237/3/2 230/3/2 238/3/2
f 231/3/2 232/3/2 239/3/2
f 239/3/2 232/3/2 240/3/2
f 233/4/2 234/4/2 241/4/2
f 235/4/2 236/4/2 241/4/2
f 234/4/2 235/4/2 241/4/2
f 241/4/2 236/4/2 242/4/2
f 237/4/2 238/4/2 243/4/2
f 239/4/2 240/4/2 243/4/2
f 238/4/2 239/4/2 243/4/2
f 243/4/2 240/4/2 244/4/2
f 245/5/2 246/5/2 247/5/2
f 247/5/2 246/5/2 248/5/2
f 249/3/2 250/3/2 253/3/2
f 253/3/2 250/3/2 254/3/2
f 251/3/2 252/3/2 255/3/2
f 255/3/2 252/3/2 256/3/2
f 257/4/2 258/4/2 259/4/2
f 259/4/2 258/4/2 260/4/2
f 261/3/2 262/3/2 263/3/2
f 263/3/2 262/3/2 264/3/2
f 263/2/2 264/2/2 265/2/2
f 265/2/2 264/2/2 266/2/2
f 267/5/2 268/5/2 269/5/2
f 269/5/2 268/5/2 270/5/2
f 271/3/2 272/3/2 275/3/2
f 275/3/2 272/3/2 276/3/2
f 273/3/2 274/3/2 277/3/2
f 277/3/2 274/3/2 278/3/2
f 275/4/2 276/4/2 279/4/2
f 276/4/2 277/4/2 279/4/2
f 277/4/2 278/4/2 279/4/2
f 279/4/2 278/4/2 280/4/2
f 284/3/3 282/3/3 281/3/3
f 285/4/3 283/4/3 282/4/3
f 285/3/3 282/3/3 284/3/3
f 287/4/3 283/4/3 285/4/3
f 288/3/3 287/3/3 286/3/3
f 289/4/3 283/4/3 287/4/3
f 289/3/3 287/3/3 288/3/3
f 290/4/3 283/4/3 289/4/3
f 296/3/3 292/3/3 291/3/3
f 297/2/3 293/2/3 292/2/3
f 297/3/3 292/3/3 296/3/3
f 298/2/3 293/2/3 297/2/3
f 299/5/3 295/5/3 294/5/3
f 300/5/3 295/5/3 299/5/3
f 303/3/3 302/3/3 301/3/3
f 304/3/3 302/3/3 303/3/3
f 309/4/3 306/4/3 305/4/3
f 310/4/3 306/4/3 309/4/3
f 311/3/3 308/3/3 307/3/3
f 312/3/3 308/3/3 311/3/3
f 316/3/3 314/3/3 313/3/3
f 317/4/3 315/4/3 314/4/3
f 317/3/3 314/3/3 316/3/3
f 319/4/3 315/4/3 317/4/3
f 320/3/3 319/3/3 318/3/3
f 321/4/3 315/4/3 319/4/3
f 321/3/3 319/3/3 320/3/3
f 322/4/3 315/4/3 321/4/3
f 325/5/3 324/5/3 323/5/3
f 326/5/3 324/5/3 325/5/3
f 330/3/3 328/3/3 327/3/3
f 331/4/3 329/4/3 328/4/3
f 331/3/3 328/3/3 330/3/3
f 333/4/3 329/4/3 331/4/3
f 334/3/3 333/3/3 332/3/3
f 335/4/3 329/4/3 333/4/3
f 335/3/3 333/3/3 334/3/3
f 336/4/3 329/4/3 335/4/3
f 342/5/3 341/5/3 340/5/3
f 343/5/3 341/5/3 342/5/3
f 345/3/3 338/3/3 337/3/3
f 346/2/3 339/2/3 338/2/3
f 346/3/3 338/3/3 345/3/3
f 347/2/3 339/2/3 346/2/3
f 348/4/3 344/4/3 343/4/3
f 348/4/3 343/4/3 342/4/3
f 349/4/3 344/4/3 348/4/3
f 350/4/3 344/4/3 349/4/3
f 352/4/3 350/4/3 349/4/3
f 353/5/3 351/5/3 350/5/3
f 353/4/3 350/4/3 352/4/3
f 354/5/3 351/5/3 353/5/3
f 358/4/3 355/4/3 354/4/3
f 359/4/3 355/4/3 358/4/3
f 360/4/3 357/4/3 356/4/3
f 360/5/3 358/5/3 357/5/3
f 361/5/3 358/5/3 360/5/3
f 366/4/3 360/4/3 356/4/3
f 367/4/3 366/4/3 365/4/3
f 368/4/3 360/4/3 366/4/3
f 368/4/3 366/4/3 367/4/3
f 369/4/3 360/4/3 368/4/3
f 370/3/3 363/3/3 362/3/3
f 371/2/3 364/2/3 363/2/3
f 371/3/3 363/3/3 370/3/3
f 372/2/3 364/2/3 371/2/3
f 373/5/3 368/5/3 367/5/3
f 374/5/3 368/5/3 373/5/3
f 377/3/3 376/3/3 375/3/3
f 378/3/3 376/3/3 377/3/3
f 381/3/3 380/3/3 379/3/3
f 382/3/3 380/3/3 381/3/3
f 385/3/3 384/3/3 383/3/3
f 386/3/3 384/3/3 385/3/3
f 389/3/3 388/3/3 387/3/3
f 390/3/3 388/3/3 389/3/3
f 394/3/3 392/3/3 391/3/3
f 395/4/3 393/4/3 392/4/3
f 395/3/3 392/3/3 394/3/3
f 396/4/3 393/4/3 395/4/3
f 399/4/3 397/4/3 396/4/3
f 399/4/3 396/4/3 395/4/3
f 400/4/3 397/4/3 399/4/3
f 401/4/3 397/4/3 400/4/3
f 402/3/3 399/3/3 398/3/3
f 403/4/3 400/4/3 399/4/3
f 403/3/3 399/3/3 402/3/3
f 404/4/3 400/4/3 403/4/3
f 408/3/3 406/3/3 405/3/3
f 409/2/3 407/2/3 406/2/3
f 409/3/3 406/3/3 408/3/3
f 410/2/3 407/2/3 409/2/3
f 413/3/3 412/3/3 411/3/3
f 414/3/3 412/3/3 413/3/3
f 417/3/3 416/3/3 415/3/3
f 418/3/3 416/3/3 417/3/3
f 419/3/4 420/3/4 421/3/4
f 421/3/4 420/3/4 422/3/4
f 423/3/4 424/3/4 425/3/4
f 425/3/4 424/3/4 426/3/4
f 427/3/4 428/3/4 430/3/4
f 428/2/4 429/2/4 431/2/4
f 430/3/4 428/3/4 431/3/4
f 431/2/4 429/2/4 432/2/4
f 433/3/4 434/3/4 436/3/4
f 434/4/4 435/4/4 437/4/4
f 436/3/4 434/3/4 437/3/4
f 437/4/4 435/4/4 438/4/4
f 438/4/4 439/4/4 441/4/4
f 437/4/4 438/4/4 441/4/4
f 441/4/4 439/4/4 442/4/4
f 442/4/4 439/4/4 443/4/4
f 440/3/4 441/3/4 444/3/4
f 441/4/4 442/4/4 445/4/4
f 444/3/4 441/3/4 445/3/4
f 445/4/4 442/4/4 446/4/4
f 447/3/4 448/3/4 449/3/4
f 449/3/4 448/3/4 450/3/4
f 451/3/4 452/3/4 453/3/4
f 453/3/4 452/3/4 454/3/4
f 455/3/4 456/3/4 457/3/4
f 457/3/4 456/3/4 458/3/4
f 459/3/4 460/3/4 461/3/4
f 461/3/4 460/3/4 462/3/4
f 466/5/4 467/5/4 468/5/4
f 468/5/4 467/5/4 469/5/4
f 463/3/4 464/3/4 471/3/4
f 464/2/4 465/2/4 472/2/4
f 471/3/4 464/3/4 472/3/4
f 472/2/4 465/2/4 473/2/4
f 469/4/4 470/4/4 474/4/4
f 468/4/4 469/4/4 474/4/4
f 474/4/4 470/4/4 475/4/4
f 475/4/4 470/4/4 476/4/4
f 475/4/4 476/4/4 478/4/4
f 476/5/4 477/5/4 479/5/4
f 478/4/4 476/4/4 479/4/4
f 479/5/4 477/5/4 480/5/4
f 480/4/4 481/4/4 484/4/4
f 484/4/4 481/4/4 485/4/4
f 482/4/4 483/4/4 486/4/4
f 483/5/4 484/5/4 486/5/4
f 486/5/4 484/5/4 487/5/4
f 482/4/4 486/4/4 492/4/4
f 491/4/4 492/4/4 493/4/4
f 492/4/4 486/4/4 494/4/4
f 493/4/4 492/4/4 494/4/4
f 494/4/4 486/4/4 495/4/4
f 488/3/4 489/3/4 496/3/4
f 489/2/4 490/2/4 497/2/4
f 496/3/4 489/3/4 497/3/4
f 497/2/4 490/2/4 498/2/4
f 493/5/4 494/5/4 499/5/4
f 499/5/4 494/5/4 500/5/4
f 501/3/4 502/3/4 504/3/4
f 502/4/4 503/4/4 505/4/4
f 504/3/4 502/3/4 505/3/4
f 505/4/4 503/4/4 507/4/4
f 506/3/4 507/3/4 508/3/4
f 507/4/4 503/4/4 509/4/4
f 508/3/4 507/3/4 509/3/4
f 509/4/4 503/4/4 510/4/4
f 511/5/4 512/5/4 513/5/4
f 513/5/4 512/5/4 514/5/4
f 515/3/4 516/3/4 518/3/4
f 516/4/4 517/4/4 519/4/4
f 518/3/4 516/3/4 519/3/4
f 519/4/4 517/4/4 521/4/4
f 520/3/4 521/3/4 522/3/4
f 521/4/4 517/4/4 523/4/4
f 522/3/4 521/3/4 523/3/4
f 523/4/4 517/4/4 524/4/4
f 525/3/4 526/3/4 527/3/4
f 527/3/4 526/3/4 528/3/4
f 529/4/4 530/4/4 533/4/4
f 533/4/4 530/4/4 534/4/4
f 531/3/4 532/3/4 535/3/4
f 535/3/4 532/3/4 536/3/4
f 537/3/4 538/3/4 542/3/4
f 538/2/4 539/2/4 543/2/4
f 542/3/4 538/3/4 543/3/4
f 543/2/4 539/2/4 544/2/4
f 540/5/4 541/5/4 545/5/4
f 545/5/4 541/5/4 546/5/4
f 547/3/4 548/3/4 550/3/4
f 548/4/4 549/4/4 551/4/4
f 550/3/4 548/3/4 551/3/4
f 551/4/4 549/4/4 553/4/4
f 552/3/4 553/3/4 554/3/4
f 553/4/4 549/4/4 555/4/4
f 554/3/4 553/3/4 555/3/4
f 555/4/4 549/4/4 556/4/4
f 559/3/5 558/3/5 557/3/5
f 560/3/5 558/3/5 559/3/5
f 565/3/5 562/3/5 561/3/5
f 566/3/5 562/3/5 565/3/5
f 567/3/5 564/3/5 563/3/5
f 568/3/5 564/3/5 567/3/5
f 571/3/5 570/3/5 569/3/5
f 572/3/5 570/3/5 571/3/5
f 577/3/5 574/3/5 573/3/5
f 578/3/5 574/3/5 577/3/5
f 579/3/5 576/3/5 575/3/5
f 580/3/5 576/3/5 579/3/5
f 588/3/5 582/3/5 581/3/5
f 589/3/5 582/3/5 588/3/5
f 590/3/5 584/3/5 583/3/5
f 591/3/5 584/3/5 590/3/5
f 595/3/5 586/3/5 585/3/5
f 596/3/5 586/3/5 595/3/5
f 597/3/5 588/3/5 587/3/5
f 598/3/5 588/3/5 597/3/5
f 599/3/5 592/3/5 591/3/5
f 600/3/5 592/3/5 599/3/5
f 601/3/5 594/3/5 593/3/5
f 602/3/5 594/3/5 601/3/5
f 611/3/5 604/3/5 603/3/5
f 612/3/5 604/3/5 611/3/5
f 613/3/5 606/3/5 605/3/5
f 614/3/5 606/3/5 613/3/5
f 617/3/5 608/3/5 607/3/5
f 618/3/5 608/3/5 617/3/5
f 619/3/5 610/3/5 609/3/5
f 620/3/5 610/3/5 619/3/5
f 621/3/5 615/3/5 614/3/5
f 622/3/5 615/3/5 621/3/5
f 623/3/5 617/3/5 616/3/5
f 624/3/5 617/3/5 623/3/5
f 629/3/5 626/3/5 625/3/5
f 630/3/5 626/3/5 629/3/5
f 631/3/5 628/3/5 627/3/5
f 632/3/5 628/3/5 631/3/5
f 636/4/5 634/4/5 633/4/5
f 637/4/5 634/4/5 636/4/5
f 639/4/5 636/4/5 635/4/5
f 640/4/5 636/4/5 639/4/5
f 641/4/5 638/4/5 637/4/5
f 642/4/5 638/4/5 641/4/5
f 645/4/5 641/4/5 640/4/5
f 646/4/5 641/4/5 645/4/5
f 650/4/5 644/4/5 643/4/5
f 651/4/5 644/4/5 650/4/5
f 654/4/5 648/4/5 647/4/5
f 655/4/5 648/4/5 654/4/5
f 657/4/5 650/4/5 649/4/5
f 658/4/5 650/4/5 657/4/5
f 659/4/5 652/4/5 651/4/5
f 660/4/5 652/4/5 659/4/5
f 661/4/5 654/4/5 653/4/5
f 662/4/5 654/4/5 661/4/5
f 663/4/5 656/4/5 655/4/5
f 664/4/5 656/4/5 663/4/5
f 665/4/5 659/4/5 658/4/5
f 666/4/5 659/4/5 665/4/5
f 669/4/5 663/4/5 662/4/5
f 670/4/5 663/4/5 669/4/5
f 672/4/5 668/4/5 667/4/5
f 673/4/5 668/4/5 672/4/5
f 675/4/5 672/4/5 671/4/5
f 676/4/5 672/4/5 675/4/5
f 677/4/5 674/4/5 673/4/5
f 678/4/5 674/4/5 677/4/5
f 679/4/5 677/4/5 676/4/5
f 680/4/5 677/4/5 679/4/5
f 684/4/5 682/4/5 681/4/5
f 685/4/5 682/4/5 684/4/5
f 687/4/5 684/4/5 683/4/5
f 688/1/5 685/1/5 684/1/5
f 688/4/5 684/4/5 687/4/5
f 689/4/5 686/4/5 685/4/5
f 689/1/5 685/1/5 688/1/5
f 690/4/5 686/4/5 689/4/5
f 691/4/5 689/4/5 688/4/5
f 692/4/5 689/4/5 691/4/5
f 693/4/6 694/4/6 695/4/6
f 695/4/6 694/4/6 696/4/6
f 693/4/6 695/4/6 697/4/6
f 696/4/6 694/4/6 698/4/6
f 693/4/6 697/4/6 700/4/6
f 700/4/6 697/4/6 701/4/6
f 698/4/6 694/4/6 702/4/6
f 702/4/6 694/4/6 703/4/6
f 699/4/6 700/4/6 705/4/6
f 705/4/6 700/4/6 706/4/6
f 706/4/6 700/4/6 707/4/6
f 703/4/6 704/4/6 708/4/6
f 708/4/6 704/4/6 709/4/6
f 709/4/6 704/4/6 710/4/6
f 699/4/6 705/4/6 711/4/6
f 707/4/6 700/4/6 713/4/6
f 703/4/6 708/4/6 714/4/6
f 710/4/6 704/4/6 716/4/6
f 711/4/6 712/4/6 717/4/6
f 712/4/6 713/4/6 717/4/6
f 699/4/6 711/4/6 717/4/6
f 713/4/6 700/4/6 718/4/6
f 717/4/6 713/4/6 718/4/6
f 715/4/6 716/4/6 721/4/6
f 714/4/6 715/4/6 721/4/6
f 703/4/6 714/4/6 721/4/6
f 716/4/6 704/4/6 722/4/6
f 721/4/6 716/4/6 722/4/6
f 718/4/6 719/4/6 723/4/6
f 720/4/6 721/4/6 724/4/6
f 718/4/6 723/4/6 725/4/6
f 724/4/6 721/4/6 726/4/6
f 718/4/6 725/4/6 727/4/6
f 725/4/6 726/4/6 727/4/6
f 726/4/6 721/4/6 728/4/6
f 727/4/6 726/4/6 728/4/6
f 729/5/6 730/5/6 731/5/6
f 731/5/6 730/5/6 732/5/6
f 731/4/6 732/4/6 733/4/6
f 733/4/6 732/4/6 734/4/6
f 735/5/6 736/5/6 739/5/6
f 739/5/6 736/5/6 740/5/6
f 737/5/6 738/5/6 741/5/6
f 741/5/6 738/5/6 742/5/6
f 743/4/6 744/4/6 745/4/6
f 745/4/6 744/4/6 746/4/6
f 745/5/6 746/5/6 747/5/6
f 747/5/6 746/5/6 748/5/6
f 749/4/6 750/4/6 751/4/6
f 751/4/6 750/4/6 752/4/6
f 753/4/6 754/4/6 757/4/6
f 757/4/6 754/4/6 758/4/6
f 755/4/6 756/4/6 759/4/6
f 759/4/6 756/4/6 760/4/6
f 761/4/6 762/4/6 763/4/6
f 763/4/6 762/4/6 764/4/6
f 765/5/6 766/5/6 768/5/6
f 768/5/6 766/5/6 769/5/6
f 767/5/6 768/5/6 771/5/6
f 771/5/6 768/5/6 772/5/6
f 769/5/6 770/5/6 773/5/6
f 773/5/6 770/5/6 774/5/6
f 772/5/6 773/5/6 775/5/6
f 775/5/6 773/5/6 776/5/6
f 777/4/6 778/4/6 779/4/6
f 779/4/6 778/4/6 780/4/6
