# MagicaVoxel @ Ephtracy

# group
o 

# material
mtllib planetas-5.mtl
usemtl palette

# normals
vn -1 0 0
vn 1 0 0
vn 0 0 1
vn 0 0 -1
vn 0 -1 0
vn 0 1 0

# texcoords
vt 0.00195313 0.5
vt 0.0136719 0.5

# verts
v 1.7 0.2 -27.3
v 1.7 0.2 -27.4
v 1.7 0.2 -27.5
v 1.7 0.3 -27.2
v 1.7 0.3 -27.3
v 1.7 0.3 -27.5
v 1.7 0.3 -27.6
v 1.7 0.4 -27.4
v 1.7 0.4 -27.5
v 1.7 0.5 -27.2
v 1.7 0.5 -27.3
v 1.7 0.5 -27.5
v 1.7 0.5 -27.6
v 1.7 0.6 -27.3
v 1.7 0.6 -27.5
v 1.8 0.1 -27.2
v 1.8 0.1 -27.3
v 1.8 0.1 -27.6
v 1.8 0.2 -27.1
v 1.8 0.2 -27.2
v 1.8 0.2 -27.3
v 1.8 0.2 -27.4
v 1.8 0.2 -27.5
v 1.8 0.2 -27.6
v 1.8 0.2 -27.7
v 1.8 0.3 -27.2
v 1.8 0.3 -27.3
v 1.8 0.3 -27.5
v 1.8 0.3 -27.6
v 1.8 0.4 -27.6
v 1.8 0.4 -27.7
v 1.8 0.5 -27.2
v 1.8 0.5 -27.3
v 1.8 0.5 -27.5
v 1.8 0.5 -27.6
v 1.8 0.6 -27.1
v 1.8 0.6 -27.2
v 1.8 0.6 -27.3
v 1.8 0.6 -27.4
v 1.8 0.6 -27.5
v 1.8 0.6 -27.6
v 1.8 0.6 -27.7
v 1.8 0.7 -27.2
v 1.8 0.7 -27.3
v 1.8 0.7 -27.4
v 1.8 0.7 -27.5
v 1.8 0.7 -27.6
v 1.9 0 -27.3
v 1.9 0 -27.5
v 1.9 0.1 -27.1
v 1.9 0.1 -27.2
v 1.9 0.1 -27.3
v 1.9 0.1 -27.5
v 1.9 0.1 -27.6
v 1.9 0.1 -27.7
v 1.9 0.2 -27.1
v 1.9 0.2 -27.2
v 1.9 0.2 -27.6
v 1.9 0.2 -27.7
v 1.9 0.3 -27
v 1.9 0.3 -27.1
v 1.9 0.3 -27.7
v 1.9 0.3 -27.8
v 1.9 0.4 -27.7
v 1.9 0.5 -27
v 1.9 0.5 -27.1
v 1.9 0.5 -27.7
v 1.9 0.5 -27.8
v 1.9 0.6 -27.1
v 1.9 0.6 -27.2
v 1.9 0.6 -27.6
v 1.9 0.6 -27.7
v 1.9 0.7 -27.1
v 1.9 0.7 -27.2
v 1.9 0.7 -27.3
v 1.9 0.7 -27.4
v 1.9 0.7 -27.5
v 1.9 0.7 -27.6
v 1.9 0.7 -27.7
v 1.9 0.8 -27.3
v 1.9 0.8 -27.4
v 1.9 0.8 -27.5
v 2 0 -27.2
v 2 0 -27.3
v 2 0 -27.5
v 2 0 -27.6
v 2 0.1 -27.2
v 2 0.1 -27.3
v 2 0.1 -27.5
v 2 0.1 -27.6
v 2 0.2 -27
v 2 0.2 -27.1
v 2 0.2 -27.7
v 2 0.2 -27.8
v 2 0.3 -27
v 2 0.3 -27.1
v 2 0.3 -27.7
v 2 0.3 -27.8
v 2 0.5 -27
v 2 0.5 -27.1
v 2 0.5 -27.7
v 2 0.5 -27.8
v 2 0.6 -27
v 2 0.6 -27.1
v 2 0.6 -27.7
v 2 0.6 -27.8
v 2 0.7 -27.2
v 2 0.7 -27.3
v 2 0.7 -27.5
v 2 0.7 -27.6
v 2 0.8 -27.2
v 2 0.8 -27.3
v 2 0.8 -27.5
v 2 0.8 -27.6
v 2.2 0 -27.2
v 2.2 0 -27.3
v 2.2 0 -27.5
v 2.2 0 -27.6
v 2.2 0.1 -27.2
v 2.2 0.1 -27.3
v 2.2 0.1 -27.5
v 2.2 0.1 -27.6
v 2.2 0.2 -27
v 2.2 0.2 -27.1
v 2.2 0.2 -27.7
v 2.2 0.2 -27.8
v 2.2 0.3 -27
v 2.2 0.3 -27.1
v 2.2 0.3 -27.7
v 2.2 0.3 -27.8
v 2.2 0.5 -27
v 2.2 0.5 -27.1
v 2.2 0.5 -27.7
v 2.2 0.5 -27.8
v 2.2 0.6 -27
v 2.2 0.6 -27.1
v 2.2 0.6 -27.7
v 2.2 0.6 -27.8
v 2.2 0.7 -27.2
v 2.2 0.7 -27.3
v 2.2 0.7 -27.5
v 2.2 0.7 -27.6
v 2.2 0.8 -27.2
v 2.2 0.8 -27.3
v 2.2 0.8 -27.5
v 2.2 0.8 -27.6
v 2.3 0 -27.3
v 2.3 0 -27.5
v 2.3 0.1 -27.1
v 2.3 0.1 -27.2
v 2.3 0.1 -27.3
v 2.3 0.1 -27.5
v 2.3 0.1 -27.6
v 2.3 0.1 -27.7
v 2.3 0.2 -27.1
v 2.3 0.2 -27.2
v 2.3 0.2 -27.6
v 2.3 0.2 -27.7
v 2.3 0.3 -27
v 2.3 0.3 -27.1
v 2.3 0.3 -27.7
v 2.3 0.3 -27.8
v 2.3 0.4 -27
v 2.3 0.4 -27.1
v 2.3 0.5 -27
v 2.3 0.5 -27.1
v 2.3 0.5 -27.7
v 2.3 0.5 -27.8
v 2.3 0.6 -27.1
v 2.3 0.6 -27.2
v 2.3 0.6 -27.6
v 2.3 0.6 -27.7
v 2.3 0.7 -27.1
v 2.3 0.7 -27.2
v 2.3 0.7 -27.3
v 2.3 0.7 -27.4
v 2.3 0.7 -27.5
v 2.3 0.7 -27.6
v 2.3 0.7 -27.7
v 2.3 0.8 -27.3
v 2.3 0.8 -27.5
v 2.4 0.1 -27.2
v 2.4 0.1 -27.3
v 2.4 0.1 -27.6
v 2.4 0.2 -27.1
v 2.4 0.2 -27.2
v 2.4 0.2 -27.3
v 2.4 0.2 -27.5
v 2.4 0.2 -27.6
v 2.4 0.2 -27.7
v 2.4 0.3 -27.2
v 2.4 0.3 -27.3
v 2.4 0.3 -27.5
v 2.4 0.3 -27.6
v 2.4 0.3 -27.7
v 2.4 0.4 -27.1
v 2.4 0.4 -27.2
v 2.4 0.5 -27.2
v 2.4 0.5 -27.3
v 2.4 0.5 -27.5
v 2.4 0.5 -27.6
v 2.4 0.5 -27.7
v 2.4 0.6 -27.1
v 2.4 0.6 -27.2
v 2.4 0.6 -27.3
v 2.4 0.6 -27.4
v 2.4 0.6 -27.5
v 2.4 0.6 -27.6
v 2.4 0.6 -27.7
v 2.4 0.7 -27.2
v 2.4 0.7 -27.4
v 2.4 0.7 -27.6
v 2.5 0.2 -27.3
v 2.5 0.2 -27.5
v 2.5 0.3 -27.2
v 2.5 0.3 -27.3
v 2.5 0.3 -27.4
v 2.5 0.3 -27.5
v 2.5 0.3 -27.6
v 2.5 0.4 -27.3
v 2.5 0.4 -27.4
v 2.5 0.4 -27.5
v 2.5 0.5 -27.2
v 2.5 0.5 -27.3
v 2.5 0.5 -27.4
v 2.5 0.5 -27.5
v 2.5 0.5 -27.6
v 2.5 0.6 -27.3
v 2.5 0.6 -27.5
v 1.9 0.3 -27
v 1.9 0.5 -27
v 2 0.2 -27
v 2 0.3 -27
v 2 0.5 -27
v 2 0.6 -27
v 2.1 0.4 -27
v 2.1 0.6 -27
v 2.2 0.2 -27
v 2.2 0.3 -27
v 2.2 0.5 -27
v 2.2 0.6 -27
v 2.3 0.3 -27
v 2.3 0.4 -27
v 2.3 0.5 -27
v 1.8 0.2 -27.1
v 1.8 0.6 -27.1
v 1.9 0.1 -27.1
v 1.9 0.2 -27.1
v 1.9 0.3 -27.1
v 1.9 0.5 -27.1
v 1.9 0.6 -27.1
v 1.9 0.7 -27.1
v 2 0.2 -27.1
v 2 0.3 -27.1
v 2 0.5 -27.1
v 2 0.6 -27.1
v 2.1 0.6 -27.1
v 2.2 0.1 -27.1
v 2.2 0.2 -27.1
v 2.2 0.3 -27.1
v 2.2 0.5 -27.1
v 2.2 0.6 -27.1
v 2.3 0.1 -27.1
v 2.3 0.2 -27.1
v 2.3 0.3 -27.1
v 2.3 0.4 -27.1
v 2.3 0.5 -27.1
v 2.3 0.6 -27.1
v 2.3 0.7 -27.1
v 2.4 0.2 -27.1
v 2.4 0.4 -27.1
v 2.4 0.6 -27.1
v 1.7 0.3 -27.2
v 1.7 0.5 -27.2
v 1.8 0.1 -27.2
v 1.8 0.2 -27.2
v 1.8 0.3 -27.2
v 1.8 0.5 -27.2
v 1.8 0.6 -27.2
v 1.8 0.7 -27.2
v 1.9 0.1 -27.2
v 1.9 0.2 -27.2
v 1.9 0.6 -27.2
v 1.9 0.7 -27.2
v 2 0 -27.2
v 2 0.1 -27.2
v 2 0.7 -27.2
v 2 0.8 -27.2
v 2.2 0 -27.2
v 2.2 0.1 -27.2
v 2.2 0.7 -27.2
v 2.2 0.8 -27.2
v 2.3 0.1 -27.2
v 2.3 0.2 -27.2
v 2.3 0.6 -27.2
v 2.3 0.7 -27.2
v 2.4 0.1 -27.2
v 2.4 0.2 -27.2
v 2.4 0.3 -27.2
v 2.4 0.4 -27.2
v 2.4 0.5 -27.2
v 2.4 0.6 -27.2
v 2.4 0.7 -27.2
v 2.5 0.3 -27.2
v 2.5 0.5 -27.2
v 1.7 0.2 -27.3
v 1.7 0.3 -27.3
v 1.7 0.5 -27.3
v 1.7 0.6 -27.3
v 1.8 0.2 -27.3
v 1.8 0.3 -27.3
v 1.8 0.5 -27.3
v 1.8 0.6 -27.3
v 1.9 0 -27.3
v 1.9 0.1 -27.3
v 1.9 0.7 -27.3
v 1.9 0.8 -27.3
v 2 0 -27.3
v 2 0.1 -27.3
v 2 0.7 -27.3
v 2 0.8 -27.3
v 2.2 0 -27.3
v 2.2 0.1 -27.3
v 2.2 0.7 -27.3
v 2.2 0.8 -27.3
v 2.3 0 -27.3
v 2.3 0.1 -27.3
v 2.3 0.7 -27.3
v 2.3 0.8 -27.3
v 2.4 0.2 -27.3
v 2.4 0.3 -27.3
v 2.4 0.5 -27.3
v 2.4 0.6 -27.3
v 2.5 0.2 -27.3
v 2.5 0.3 -27.3
v 2.5 0.5 -27.3
v 2.5 0.6 -27.3
v 1.7 0.2 -27.5
v 1.7 0.3 -27.5
v 1.7 0.5 -27.5
v 1.7 0.6 -27.5
v 1.8 0.2 -27.5
v 1.8 0.3 -27.5
v 1.8 0.5 -27.5
v 1.8 0.6 -27.5
v 1.9 0 -27.5
v 1.9 0.1 -27.5
v 1.9 0.7 -27.5
v 1.9 0.8 -27.5
v 2 0 -27.5
v 2 0.1 -27.5
v 2 0.7 -27.5
v 2 0.8 -27.5
v 2.2 0 -27.5
v 2.2 0.1 -27.5
v 2.2 0.7 -27.5
v 2.2 0.8 -27.5
v 2.3 0 -27.5
v 2.3 0.1 -27.5
v 2.3 0.7 -27.5
v 2.3 0.8 -27.5
v 2.4 0.2 -27.5
v 2.4 0.3 -27.5
v 2.4 0.5 -27.5
v 2.4 0.6 -27.5
v 2.5 0.2 -27.5
v 2.5 0.3 -27.5
v 2.5 0.5 -27.5
v 2.5 0.6 -27.5
v 1.7 0.3 -27.6
v 1.7 0.5 -27.6
v 1.8 0.1 -27.6
v 1.8 0.2 -27.6
v 1.8 0.3 -27.6
v 1.8 0.4 -27.6
v 1.8 0.5 -27.6
v 1.8 0.6 -27.6
v 1.8 0.7 -27.6
v 1.9 0.1 -27.6
v 1.9 0.2 -27.6
v 1.9 0.6 -27.6
v 1.9 0.7 -27.6
v 2 0 -27.6
v 2 0.1 -27.6
v 2 0.7 -27.6
v 2 0.8 -27.6
v 2.1 0.1 -27.6
v 2.1 0.7 -27.6
v 2.1 0.8 -27.6
v 2.2 0 -27.6
v 2.2 0.1 -27.6
v 2.2 0.7 -27.6
v 2.2 0.8 -27.6
v 2.3 0.1 -27.6
v 2.3 0.2 -27.6
v 2.3 0.6 -27.6
v 2.3 0.7 -27.6
v 2.4 0.1 -27.6
v 2.4 0.2 -27.6
v 2.4 0.3 -27.6
v 2.4 0.5 -27.6
v 2.4 0.6 -27.6
v 2.4 0.7 -27.6
v 2.5 0.3 -27.6
v 2.5 0.5 -27.6
v 1.8 0.2 -27.7
v 1.8 0.4 -27.7
v 1.8 0.6 -27.7
v 1.9 0.1 -27.7
v 1.9 0.2 -27.7
v 1.9 0.3 -27.7
v 1.9 0.4 -27.7
v 1.9 0.5 -27.7
v 1.9 0.6 -27.7
v 1.9 0.7 -27.7
v 2 0.2 -27.7
v 2 0.3 -27.7
v 2 0.5 -27.7
v 2 0.6 -27.7
v 2.1 0.1 -27.7
v 2.1 0.2 -27.7
v 2.1 0.6 -27.7
v 2.1 0.7 -27.7
v 2.2 0.1 -27.7
v 2.2 0.2 -27.7
v 2.2 0.3 -27.7
v 2.2 0.5 -27.7
v 2.2 0.6 -27.7
v 2.3 0.1 -27.7
v 2.3 0.2 -27.7
v 2.3 0.3 -27.7
v 2.3 0.5 -27.7
v 2.3 0.6 -27.7
v 2.3 0.7 -27.7
v 2.4 0.2 -27.7
v 2.4 0.3 -27.7
v 2.4 0.5 -27.7
v 2.4 0.6 -27.7
v 1.9 0.3 -27.8
v 1.9 0.5 -27.8
v 2 0.2 -27.8
v 2 0.3 -27.8
v 2 0.5 -27.8
v 2 0.6 -27.8
v 2.2 0.2 -27.8
v 2.2 0.3 -27.8
v 2.2 0.5 -27.8
v 2.2 0.6 -27.8
v 2.3 0.3 -27.8
v 2.3 0.5 -27.8
v 2 0 -27.2
v 2.2 0 -27.2
v 1.9 0 -27.3
v 2 0 -27.3
v 2.2 0 -27.3
v 2.3 0 -27.3
v 1.9 0 -27.5
v 2 0 -27.5
v 2.2 0 -27.5
v 2.3 0 -27.5
v 2 0 -27.6
v 2.2 0 -27.6
v 1.9 0.1 -27.1
v 2.2 0.1 -27.1
v 2.3 0.1 -27.1
v 1.8 0.1 -27.2
v 1.9 0.1 -27.2
v 2 0.1 -27.2
v 2.2 0.1 -27.2
v 2.3 0.1 -27.2
v 2.4 0.1 -27.2
v 1.8 0.1 -27.3
v 1.9 0.1 -27.3
v 2 0.1 -27.3
v 2.2 0.1 -27.3
v 2.3 0.1 -27.3
v 2.4 0.1 -27.3
v 1.9 0.1 -27.5
v 2 0.1 -27.5
v 2.2 0.1 -27.5
v 2.3 0.1 -27.5
v 1.8 0.1 -27.6
v 1.9 0.1 -27.6
v 2 0.1 -27.6
v 2.1 0.1 -27.6
v 2.2 0.1 -27.6
v 2.3 0.1 -27.6
v 2.4 0.1 -27.6
v 1.9 0.1 -27.7
v 2.1 0.1 -27.7
v 2.2 0.1 -27.7
v 2.3 0.1 -27.7
v 2 0.2 -27
v 2.2 0.2 -27
v 1.8 0.2 -27.1
v 1.9 0.2 -27.1
v 2 0.2 -27.1
v 2.2 0.2 -27.1
v 2.3 0.2 -27.1
v 2.4 0.2 -27.1
v 1.8 0.2 -27.2
v 1.9 0.2 -27.2
v 2.3 0.2 -27.2
v 2.4 0.2 -27.2
v 1.7 0.2 -27.3
v 1.8 0.2 -27.3
v 2.4 0.2 -27.3
v 2.5 0.2 -27.3
v 1.7 0.2 -27.4
v 1.8 0.2 -27.4
v 1.7 0.2 -27.5
v 1.8 0.2 -27.5
v 2.4 0.2 -27.5
v 2.5 0.2 -27.5
v 1.8 0.2 -27.6
v 1.9 0.2 -27.6
v 2.3 0.2 -27.6
v 2.4 0.2 -27.6
v 1.8 0.2 -27.7
v 1.9 0.2 -27.7
v 2 0.2 -27.7
v 2.1 0.2 -27.7
v 2.2 0.2 -27.7
v 2.3 0.2 -27.7
v 2.4 0.2 -27.7
v 2 0.2 -27.8
v 2.2 0.2 -27.8
v 1.9 0.3 -27
v 2 0.3 -27
v 2.2 0.3 -27
v 2.3 0.3 -27
v 1.9 0.3 -27.1
v 2 0.3 -27.1
v 2.2 0.3 -27.1
v 2.3 0.3 -27.1
v 1.7 0.3 -27.2
v 1.8 0.3 -27.2
v 2.4 0.3 -27.2
v 2.5 0.3 -27.2
v 1.7 0.3 -27.3
v 1.8 0.3 -27.3
v 2.4 0.3 -27.3
v 2.5 0.3 -27.3
v 1.7 0.3 -27.5
v 1.8 0.3 -27.5
v 2.4 0.3 -27.5
v 2.5 0.3 -27.5
v 1.7 0.3 -27.6
v 1.8 0.3 -27.6
v 2.4 0.3 -27.6
v 2.5 0.3 -27.6
v 1.9 0.3 -27.7
v 2 0.3 -27.7
v 2.2 0.3 -27.7
v 2.3 0.3 -27.7
v 1.9 0.3 -27.8
v 2 0.3 -27.8
v 2.2 0.3 -27.8
v 2.3 0.3 -27.8
v 1.9 0.5 -27
v 2 0.5 -27
v 2.2 0.5 -27
v 2.3 0.5 -27
v 1.9 0.5 -27.1
v 2 0.5 -27.1
v 2.2 0.5 -27.1
v 2.3 0.5 -27.1
v 1.7 0.5 -27.2
v 1.8 0.5 -27.2
v 2.4 0.5 -27.2
v 2.5 0.5 -27.2
v 1.7 0.5 -27.3
v 1.8 0.5 -27.3
v 2.4 0.5 -27.3
v 2.5 0.5 -27.3
v 1.7 0.5 -27.5
v 1.8 0.5 -27.5
v 2.4 0.5 -27.5
v 2.5 0.5 -27.5
v 1.7 0.5 -27.6
v 1.8 0.5 -27.6
v 2.4 0.5 -27.6
v 2.5 0.5 -27.6
v 1.9 0.5 -27.7
v 2 0.5 -27.7
v 2.2 0.5 -27.7
v 2.3 0.5 -27.7
v 1.9 0.5 -27.8
v 2 0.5 -27.8
v 2.2 0.5 -27.8
v 2.3 0.5 -27.8
v 2 0.6 -27
v 2.1 0.6 -27
v 2.2 0.6 -27
v 1.8 0.6 -27.1
v 1.9 0.6 -27.1
v 2 0.6 -27.1
v 2.1 0.6 -27.1
v 2.2 0.6 -27.1
v 2.3 0.6 -27.1
v 2.4 0.6 -27.1
v 1.8 0.6 -27.2
v 1.9 0.6 -27.2
v 2.3 0.6 -27.2
v 2.4 0.6 -27.2
v 1.7 0.6 -27.3
v 1.8 0.6 -27.3
v 2.4 0.6 -27.3
v 2.5 0.6 -27.3
v 1.8 0.6 -27.4
v 2.4 0.6 -27.4
v 1.7 0.6 -27.5
v 1.8 0.6 -27.5
v 2.4 0.6 -27.5
v 2.5 0.6 -27.5
v 1.8 0.6 -27.6
v 1.9 0.6 -27.6
v 2.3 0.6 -27.6
v 2.4 0.6 -27.6
v 1.8 0.6 -27.7
v 1.9 0.6 -27.7
v 2 0.6 -27.7
v 2.1 0.6 -27.7
v 2.2 0.6 -27.7
v 2.3 0.6 -27.7
v 2.4 0.6 -27.7
v 2 0.6 -27.8
v 2.2 0.6 -27.8
v 1.9 0.7 -27.1
v 2.3 0.7 -27.1
v 1.8 0.7 -27.2
v 1.9 0.7 -27.2
v 2 0.7 -27.2
v 2.2 0.7 -27.2
v 2.3 0.7 -27.2
v 2.4 0.7 -27.2
v 1.8 0.7 -27.3
v 1.9 0.7 -27.3
v 2 0.7 -27.3
v 2.2 0.7 -27.3
v 2.3 0.7 -27.3
v 1.8 0.7 -27.4
v 1.9 0.7 -27.4
v 2.3 0.7 -27.4
v 2.4 0.7 -27.4
v 1.8 0.7 -27.5
v 1.9 0.7 -27.5
v 2 0.7 -27.5
v 2.2 0.7 -27.5
v 2.3 0.7 -27.5
v 1.8 0.7 -27.6
v 1.9 0.7 -27.6
v 2 0.7 -27.6
v 2.1 0.7 -27.6
v 2.2 0.7 -27.6
v 2.3 0.7 -27.6
v 2.4 0.7 -27.6
v 1.9 0.7 -27.7
v 2.1 0.7 -27.7
v 2.3 0.7 -27.7
v 2 0.8 -27.2
v 2.2 0.8 -27.2
v 1.9 0.8 -27.3
v 2 0.8 -27.3
v 2.2 0.8 -27.3
v 2.3 0.8 -27.3
v 1.9 0.8 -27.4
v 2 0.8 -27.4
v 1.9 0.8 -27.5
v 2 0.8 -27.5
v 2.1 0.8 -27.5
v 2.2 0.8 -27.5
v 2.3 0.8 -27.5
v 2 0.8 -27.6
v 2.1 0.8 -27.6
v 2.2 0.8 -27.6

# faces
f 5/2/1 2/2/1 1/2/1
f 6/1/1 3/1/1 2/1/1
f 8/2/1 5/2/1 4/2/1
f 8/1/1 7/1/1 6/1/1
f 8/1/1 6/1/1 2/1/1
f 8/2/1 2/2/1 5/2/1
f 9/1/1 7/1/1 8/1/1
f 10/2/1 8/2/1 4/2/1
f 10/2/1 9/2/1 8/2/1
f 11/2/1 9/2/1 10/2/1
f 12/1/1 7/1/1 9/1/1
f 12/2/1 9/2/1 11/2/1
f 13/1/1 7/1/1 12/1/1
f 14/1/1 12/1/1 11/1/1
f 15/1/1 12/1/1 14/1/1
f 20/1/1 17/1/1 16/1/1
f 21/2/1 18/2/1 17/2/1
f 21/1/1 17/1/1 20/1/1
f 22/2/1 18/2/1 21/2/1
f 23/2/1 18/2/1 22/2/1
f 24/2/1 18/2/1 23/2/1
f 26/1/1 20/1/1 19/1/1
f 26/1/1 21/1/1 20/1/1
f 27/1/1 21/1/1 26/1/1
f 28/1/1 24/1/1 23/1/1
f 29/2/1 25/2/1 24/2/1
f 29/1/1 24/1/1 28/1/1
f 30/2/1 25/2/1 29/2/1
f 31/2/1 25/2/1 30/2/1
f 32/1/1 26/1/1 19/1/1
f 35/1/1 31/1/1 30/1/1
f 36/1/1 33/1/1 32/1/1
f 36/1/1 32/1/1 19/1/1
f 37/1/1 33/1/1 36/1/1
f 38/1/1 33/1/1 37/1/1
f 40/1/1 35/1/1 34/1/1
f 41/1/1 31/1/1 35/1/1
f 41/1/1 35/1/1 40/1/1
f 42/1/1 31/1/1 41/1/1
f 43/1/1 38/1/1 37/1/1
f 44/2/1 39/2/1 38/2/1
f 44/1/1 38/1/1 43/1/1
f 45/1/1 40/1/1 39/1/1
f 45/2/1 39/2/1 44/2/1
f 46/2/1 41/2/1 40/2/1
f 46/1/1 40/1/1 45/1/1
f 47/2/1 41/2/1 46/2/1
f 52/2/1 49/2/1 48/2/1
f 53/2/1 49/2/1 52/2/1
f 56/1/1 51/1/1 50/1/1
f 57/1/1 51/1/1 56/1/1
f 58/1/1 55/1/1 54/1/1
f 59/1/1 55/1/1 58/1/1
f 64/1/1 63/1/1 62/1/1
f 65/1/1 61/1/1 60/1/1
f 66/1/1 61/1/1 65/1/1
f 67/1/1 63/1/1 64/1/1
f 68/1/1 63/1/1 67/1/1
f 73/1/1 70/1/1 69/1/1
f 74/1/1 70/1/1 73/1/1
f 78/2/1 72/2/1 71/2/1
f 79/2/1 72/2/1 78/2/1
f 80/1/1 76/1/1 75/1/1
f 81/2/1 77/2/1 76/2/1
f 81/1/1 76/1/1 80/1/1
f 82/2/1 77/2/1 81/2/1
f 87/1/1 84/1/1 83/1/1
f 88/1/1 84/1/1 87/1/1
f 89/2/1 86/2/1 85/2/1
f 90/2/1 86/2/1 89/2/1
f 95/1/1 92/1/1 91/1/1
f 96/1/1 92/1/1 95/1/1
f 97/1/1 94/1/1 93/1/1
f 98/1/1 94/1/1 97/1/1
f 103/1/1 100/1/1 99/1/1
f 104/1/1 100/1/1 103/1/1
f 105/1/1 102/1/1 101/1/1
f 106/1/1 102/1/1 105/1/1
f 111/1/1 108/1/1 107/1/1
f 112/1/1 108/1/1 111/1/1
f 113/2/1 110/2/1 109/2/1
f 114/2/1 110/2/1 113/2/1
f 115/1/2 116/1/2 119/1/2
f 119/1/2 116/1/2 120/1/2
f 117/2/2 118/2/2 121/2/2
f 121/2/2 118/2/2 122/2/2
f 123/1/2 124/1/2 127/1/2
f 127/1/2 124/1/2 128/1/2
f 125/1/2 126/1/2 129/1/2
f 129/1/2 126/1/2 130/1/2
f 131/2/2 132/2/2 135/2/2
f 135/2/2 132/2/2 136/2/2
f 133/1/2 134/1/2 137/1/2
f 137/1/2 134/1/2 138/1/2
f 139/1/2 140/1/2 143/1/2
f 143/1/2 140/1/2 144/1/2
f 141/1/2 142/1/2 145/1/2
f 145/1/2 142/1/2 146/1/2
f 147/1/2 148/1/2 151/1/2
f 151/1/2 148/1/2 152/1/2
f 149/2/2 150/2/2 155/2/2
f 155/2/2 150/2/2 156/2/2
f 153/1/2 154/1/2 157/1/2
f 157/1/2 154/1/2 158/1/2
f 159/1/2 160/1/2 163/1/2
f 163/1/2 160/1/2 164/1/2
f 163/2/2 164/2/2 165/2/2
f 165/2/2 164/2/2 166/2/2
f 161/2/2 162/2/2 167/2/2
f 167/2/2 162/2/2 168/2/2
f 169/1/2 170/1/2 173/1/2
f 173/1/2 170/1/2 174/1/2
f 171/1/2 172/1/2 178/1/2
f 178/1/2 172/1/2 179/1/2
f 176/1/2 177/1/2 180/1/2
f 175/1/2 176/1/2 180/1/2
f 180/1/2 177/1/2 181/1/2
f 182/1/2 183/1/2 186/1/2
f 183/2/2 184/2/2 187/2/2
f 186/1/2 183/1/2 187/1/2
f 187/2/2 184/2/2 188/2/2
f 188/2/2 184/2/2 189/2/2
f 185/2/2 186/2/2 191/2/2
f 186/2/2 187/2/2 191/2/2
f 191/2/2 187/2/2 192/2/2
f 189/1/2 190/1/2 193/1/2
f 188/1/2 189/1/2 193/1/2
f 193/1/2 190/1/2 194/1/2
f 194/1/2 190/1/2 195/1/2
f 185/2/2 191/2/2 196/2/2
f 196/2/2 191/2/2 197/2/2
f 196/1/2 197/1/2 198/1/2
f 194/2/2 195/2/2 201/2/2
f 201/2/2 195/2/2 202/2/2
f 198/1/2 199/1/2 203/1/2
f 196/1/2 198/1/2 203/1/2
f 203/1/2 199/1/2 204/1/2
f 204/1/2 199/1/2 205/1/2
f 200/2/2 201/2/2 207/2/2
f 201/1/2 202/1/2 208/1/2
f 207/2/2 201/2/2 208/2/2
f 208/1/2 202/1/2 209/1/2
f 205/1/2 206/1/2 210/1/2
f 204/1/2 205/1/2 210/1/2
f 206/2/2 207/2/2 211/2/2
f 210/1/2 206/1/2 211/1/2
f 207/2/2 208/2/2 211/2/2
f 211/2/2 208/2/2 212/2/2
f 213/1/2 214/1/2 216/1/2
f 216/1/2 214/1/2 217/1/2
f 217/1/2 214/1/2 218/1/2
f 215/1/2 216/1/2 220/1/2
f 216/1/2 217/1/2 220/1/2
f 218/2/2 219/2/2 221/2/2
f 220/1/2 217/1/2 221/1/2
f 217/2/2 218/2/2 221/2/2
f 221/2/2 219/2/2 222/2/2
f 215/1/2 220/1/2 223/1/2
f 220/2/2 221/2/2 224/2/2
f 223/1/2 220/1/2 224/1/2
f 221/1/2 222/1/2 225/1/2
f 224/2/2 221/2/2 225/2/2
f 222/2/2 219/2/2 226/2/2
f 225/1/2 222/1/2 226/1/2
f 226/2/2 219/2/2 227/2/2
f 224/1/2 225/1/2 228/1/2
f 225/1/2 226/1/2 228/1/2
f 228/1/2 226/1/2 229/1/2
f 233/1/3 231/1/3 230/1/3
f 234/1/3 231/1/3 233/1/3
f 236/1/3 233/1/3 232/1/3
f 236/1/3 235/1/3 234/1/3
f 236/1/3 234/1/3 233/1/3
f 237/1/3 235/1/3 236/1/3
f 238/1/3 236/1/3 232/1/3
f 239/1/3 236/1/3 238/1/3
f 240/2/3 237/2/3 236/2/3
f 241/2/3 237/2/3 240/2/3
f 242/1/3 236/1/3 239/1/3
f 243/2/3 240/2/3 236/2/3
f 243/1/3 236/1/3 242/1/3
f 244/2/3 240/2/3 243/2/3
f 248/1/3 246/1/3 245/1/3
f 249/1/3 246/1/3 248/1/3
f 250/1/3 246/1/3 249/1/3
f 251/1/3 246/1/3 250/1/3
f 253/1/3 248/1/3 247/1/3
f 253/1/3 249/1/3 248/1/3
f 254/1/3 249/1/3 253/1/3
f 255/1/3 252/1/3 251/1/3
f 255/1/3 251/1/3 250/1/3
f 256/1/3 252/1/3 255/1/3
f 257/1/3 252/1/3 256/1/3
f 258/1/3 253/1/3 247/1/3
f 259/1/3 253/1/3 258/1/3
f 262/1/3 252/1/3 257/1/3
f 263/2/3 259/2/3 258/2/3
f 264/1/3 260/1/3 259/1/3
f 264/2/3 259/2/3 263/2/3
f 265/1/3 260/1/3 264/1/3
f 267/1/3 262/1/3 261/1/3
f 268/1/3 252/1/3 262/1/3
f 268/1/3 262/1/3 267/1/3
f 269/1/3 252/1/3 268/1/3
f 270/2/3 266/2/3 265/2/3
f 270/2/3 265/2/3 264/2/3
f 271/1/3 267/1/3 266/1/3
f 271/2/3 266/2/3 270/2/3
f 271/1/3 268/1/3 267/1/3
f 272/1/3 268/1/3 271/1/3
f 277/2/3 274/2/3 273/2/3
f 278/2/3 274/2/3 277/2/3
f 281/1/3 276/1/3 275/1/3
f 282/1/3 276/1/3 281/1/3
f 283/1/3 280/1/3 279/1/3
f 284/1/3 280/1/3 283/1/3
f 289/1/3 286/1/3 285/1/3
f 290/1/3 286/1/3 289/1/3
f 291/1/3 288/1/3 287/1/3
f 292/1/3 288/1/3 291/1/3
f 297/1/3 294/1/3 293/1/3
f 298/1/3 294/1/3 297/1/3
f 302/1/3 296/1/3 295/1/3
f 303/1/3 296/1/3 302/1/3
f 304/1/3 301/1/3 300/1/3
f 304/1/3 300/1/3 299/1/3
f 305/1/3 301/1/3 304/1/3
f 310/2/3 307/2/3 306/2/3
f 311/2/3 307/2/3 310/2/3
f 312/1/3 309/1/3 308/1/3
f 313/1/3 309/1/3 312/1/3
f 318/2/3 315/2/3 314/2/3
f 319/2/3 315/2/3 318/2/3
f 320/1/3 317/1/3 316/1/3
f 321/1/3 317/1/3 320/1/3
f 326/1/3 323/1/3 322/1/3
f 327/1/3 323/1/3 326/1/3
f 328/1/3 325/1/3 324/1/3
f 329/1/3 325/1/3 328/1/3
f 334/1/3 331/1/3 330/1/3
f 335/1/3 331/1/3 334/1/3
f 336/1/3 333/1/3 332/1/3
f 337/1/3 333/1/3 336/1/3
f 338/1/4 339/1/4 342/1/4
f 342/1/4 339/1/4 343/1/4
f 340/1/4 341/1/4 344/1/4
f 344/1/4 341/1/4 345/1/4
f 346/2/4 347/2/4 350/2/4
f 350/2/4 347/2/4 351/2/4
f 348/2/4 349/2/4 352/2/4
f 352/2/4 349/2/4 353/2/4
f 354/1/4 355/1/4 358/1/4
f 358/1/4 355/1/4 359/1/4
f 356/1/4 357/1/4 360/1/4
f 360/1/4 357/1/4 361/1/4
f 362/1/4 363/1/4 366/1/4
f 366/1/4 363/1/4 367/1/4
f 364/1/4 365/1/4 368/1/4
f 368/1/4 365/1/4 369/1/4
f 370/1/4 371/1/4 374/1/4
f 374/1/4 371/1/4 375/1/4
f 375/1/4 371/1/4 376/1/4
f 372/2/4 373/2/4 379/2/4
f 379/2/4 373/2/4 380/2/4
f 377/2/4 378/2/4 381/2/4
f 381/2/4 378/2/4 382/2/4
f 383/2/4 384/2/4 387/2/4
f 385/2/4 386/2/4 388/2/4
f 388/2/4 386/2/4 389/2/4
f 383/2/4 387/2/4 390/2/4
f 390/2/4 387/2/4 391/2/4
f 388/1/4 389/1/4 392/1/4
f 392/1/4 389/1/4 393/1/4
f 394/2/4 395/2/4 398/2/4
f 398/2/4 395/2/4 399/2/4
f 396/2/4 397/2/4 402/2/4
f 402/2/4 397/2/4 403/2/4
f 400/2/4 401/2/4 404/2/4
f 404/2/4 401/2/4 405/2/4
f 406/2/4 407/2/4 410/2/4
f 410/2/4 407/2/4 411/2/4
f 407/1/4 408/1/4 412/1/4
f 411/2/4 407/2/4 412/2/4
f 412/1/4 408/1/4 413/1/4
f 413/1/4 408/1/4 414/1/4
f 410/1/4 411/1/4 416/1/4
f 409/1/4 410/1/4 416/1/4
f 416/1/4 411/1/4 417/1/4
f 413/1/4 414/1/4 418/1/4
f 414/2/4 415/2/4 419/2/4
f 418/1/4 414/1/4 419/1/4
f 409/1/4 416/1/4 420/1/4
f 420/1/4 416/1/4 421/1/4
f 419/2/4 415/2/4 422/2/4
f 422/2/4 415/2/4 423/2/4
f 420/2/4 421/2/4 424/2/4
f 424/2/4 421/2/4 425/2/4
f 422/1/4 423/1/4 428/1/4
f 425/1/4 426/1/4 429/1/4
f 424/1/4 425/1/4 429/1/4
f 429/1/4 426/1/4 430/1/4
f 430/1/4 426/1/4 431/1/4
f 427/1/4 428/1/4 432/1/4
f 428/1/4 423/1/4 433/1/4
f 432/1/4 428/1/4 433/1/4
f 433/1/4 423/1/4 434/1/4
f 430/1/4 431/1/4 435/1/4
f 431/2/4 432/2/4 436/2/4
f 435/1/4 431/1/4 436/1/4
f 432/1/4 433/1/4 437/1/4
f 436/2/4 432/2/4 437/2/4
f 437/1/4 433/1/4 438/1/4
f 439/1/4 440/1/4 442/1/4
f 442/1/4 440/1/4 443/1/4
f 441/1/4 442/1/4 445/1/4
f 443/1/4 444/1/4 445/1/4
f 442/1/4 443/1/4 445/1/4
f 445/1/4 444/1/4 446/1/4
f 446/1/4 444/1/4 447/1/4
f 447/1/4 444/1/4 448/1/4
f 446/2/4 447/2/4 449/2/4
f 449/2/4 447/2/4 450/2/4
f 454/1/5 452/1/5 451/1/5
f 455/1/5 452/1/5 454/1/5
f 457/2/5 454/2/5 453/2/5
f 457/2/5 455/2/5 454/2/5
f 458/2/5 455/2/5 457/2/5
f 459/1/5 456/1/5 455/1/5
f 459/2/5 455/2/5 458/2/5
f 460/1/5 456/1/5 459/1/5
f 461/2/5 459/2/5 458/2/5
f 462/2/5 459/2/5 461/2/5
f 467/1/5 464/1/5 463/1/5
f 468/1/5 464/1/5 467/1/5
f 469/2/5 465/2/5 464/2/5
f 469/1/5 464/1/5 468/1/5
f 470/2/5 465/2/5 469/2/5
f 472/1/5 468/1/5 467/1/5
f 472/1/5 467/1/5 466/1/5
f 473/1/5 468/1/5 472/1/5
f 474/1/5 468/1/5 473/1/5
f 475/1/5 471/1/5 470/1/5
f 475/1/5 470/1/5 469/1/5
f 476/1/5 471/1/5 475/1/5
f 477/1/5 471/1/5 476/1/5
f 478/2/5 473/2/5 472/2/5
f 481/2/5 477/2/5 476/2/5
f 482/2/5 479/2/5 478/2/5
f 482/2/5 478/2/5 472/2/5
f 483/2/5 479/2/5 482/2/5
f 484/2/5 479/2/5 483/2/5
f 486/2/5 481/2/5 480/2/5
f 487/2/5 477/2/5 481/2/5
f 487/2/5 481/2/5 486/2/5
f 488/2/5 477/2/5 487/2/5
f 489/1/5 485/1/5 484/1/5
f 489/1/5 484/1/5 483/1/5
f 490/2/5 486/2/5 485/2/5
f 490/1/5 485/1/5 489/1/5
f 491/1/5 487/1/5 486/1/5
f 491/2/5 486/2/5 490/2/5
f 492/1/5 487/1/5 491/1/5
f 497/1/5 494/1/5 493/1/5
f 498/1/5 494/1/5 497/1/5
f 501/1/5 496/1/5 495/1/5
f 502/1/5 496/1/5 501/1/5
f 503/2/5 500/2/5 499/2/5
f 504/2/5 500/2/5 503/2/5
f 509/2/5 506/2/5 505/2/5
f 510/2/5 506/2/5 509/2/5
f 511/1/5 510/1/5 509/1/5
f 512/1/5 510/1/5 511/1/5
f 513/1/5 508/1/5 507/1/5
f 514/1/5 508/1/5 513/1/5
f 519/2/5 516/2/5 515/2/5
f 520/2/5 516/2/5 519/2/5
f 524/1/5 518/1/5 517/1/5
f 525/1/5 518/1/5 524/1/5
f 526/1/5 523/1/5 522/1/5
f 526/1/5 522/1/5 521/1/5
f 527/1/5 523/1/5 526/1/5
f 532/1/5 529/1/5 528/1/5
f 533/1/5 529/1/5 532/1/5
f 534/1/5 531/1/5 530/1/5
f 535/1/5 531/1/5 534/1/5
f 540/2/5 537/2/5 536/2/5
f 541/2/5 537/2/5 540/2/5
f 542/1/5 539/1/5 538/1/5
f 543/1/5 539/1/5 542/1/5
f 548/1/5 545/1/5 544/1/5
f 549/1/5 545/1/5 548/1/5
f 550/2/5 547/2/5 546/2/5
f 551/2/5 547/2/5 550/2/5
f 556/1/5 553/1/5 552/1/5
f 557/1/5 553/1/5 556/1/5
f 558/2/5 555/2/5 554/2/5
f 559/2/5 555/2/5 558/2/5
f 560/1/6 561/1/6 564/1/6
f 564/1/6 561/1/6 565/1/6
f 562/2/6 563/2/6 566/2/6
f 566/2/6 563/2/6 567/2/6
f 568/2/6 569/2/6 572/2/6
f 572/2/6 569/2/6 573/2/6
f 570/1/6 571/1/6 574/1/6
f 574/1/6 571/1/6 575/1/6
f 576/1/6 577/1/6 580/1/6
f 580/1/6 577/1/6 581/1/6
f 578/2/6 579/2/6 582/2/6
f 582/2/6 579/2/6 583/2/6
f 584/1/6 585/1/6 588/1/6
f 588/1/6 585/1/6 589/1/6
f 586/2/6 587/2/6 590/2/6
f 590/2/6 587/2/6 591/2/6
f 592/1/6 593/1/6 597/1/6
f 593/2/6 594/2/6 598/2/6
f 597/1/6 593/1/6 598/1/6
f 598/2/6 594/2/6 599/2/6
f 595/1/6 596/1/6 602/1/6
f 602/1/6 596/1/6 603/1/6
f 600/1/6 601/1/6 604/1/6
f 604/1/6 601/1/6 605/1/6
f 606/1/6 607/1/6 610/1/6
f 608/1/6 609/1/6 611/1/6
f 606/1/6 610/1/6 612/1/6
f 612/1/6 610/1/6 613/1/6
f 611/1/6 609/1/6 614/1/6
f 614/1/6 609/1/6 615/1/6
f 616/1/6 617/1/6 620/1/6
f 620/1/6 617/1/6 621/1/6
f 618/1/6 619/1/6 625/1/6
f 625/1/6 619/1/6 626/1/6
f 623/1/6 624/1/6 627/1/6
f 622/1/6 623/1/6 627/1/6
f 627/1/6 624/1/6 628/1/6
f 629/1/6 630/1/6 632/1/6
f 632/1/6 630/1/6 633/1/6
f 633/1/6 630/1/6 634/1/6
f 634/1/6 630/1/6 635/1/6
f 631/1/6 632/1/6 637/1/6
f 632/1/6 633/1/6 637/1/6
f 637/1/6 633/1/6 638/1/6
f 638/1/6 633/1/6 639/1/6
f 635/1/6 636/1/6 640/1/6
f 634/1/6 635/1/6 640/1/6
f 640/1/6 636/1/6 641/1/6
f 637/2/6 638/2/6 642/2/6
f 642/2/6 638/2/6 643/2/6
f 641/1/6 636/1/6 644/1/6
f 644/1/6 636/1/6 645/1/6
f 642/1/6 643/1/6 646/1/6
f 646/1/6 643/1/6 647/1/6
f 644/2/6 645/2/6 650/2/6
f 647/2/6 648/2/6 651/2/6
f 646/2/6 647/2/6 651/2/6
f 651/2/6 648/2/6 652/2/6
f 652/2/6 648/2/6 653/2/6
f 649/1/6 650/1/6 655/1/6
f 650/2/6 645/2/6 656/2/6
f 655/1/6 650/1/6 656/1/6
f 656/2/6 645/2/6 657/2/6
f 653/2/6 654/2/6 658/2/6
f 652/2/6 653/2/6 658/2/6
f 654/1/6 655/1/6 659/1/6
f 658/2/6 654/2/6 659/2/6
f 655/1/6 656/1/6 659/1/6
f 659/1/6 656/1/6 660/1/6
f 661/1/6 662/1/6 664/1/6
f 664/1/6 662/1/6 665/1/6
f 663/1/6 664/1/6 667/1/6
f 665/1/6 666/1/6 667/1/6
f 664/1/6 665/1/6 667/1/6
f 667/1/6 666/1/6 668/1/6
f 667/2/6 668/2/6 669/2/6
f 668/1/6 666/1/6 670/1/6
f 669/2/6 668/2/6 670/2/6
f 670/1/6 666/1/6 671/1/6
f 671/1/6 666/1/6 672/1/6
f 672/1/6 666/1/6 673/1/6
f 670/2/6 671/2/6 674/2/6
f 671/1/6 672/1/6 675/1/6
f 674/2/6 671/2/6 675/2/6
f 675/1/6 672/1/6 676/1/6
