# MagicaVoxel @ Ephtracy

# group
o 

# material
mtllib planetas-3.mtl
usemtl palette

# normals
vn -1 0 0
vn 1 0 0
vn 0 0 1
vn 0 0 -1
vn 0 -1 0
vn 0 1 0

# texcoords
vt 0.0800781 0.5
vt 0.0878906 0.5

# verts
v 9.9 0.2 -27.3
v 9.9 0.2 -27.5
v 9.9 0.3 -27.2
v 9.9 0.3 -27.3
v 9.9 0.3 -27.5
v 9.9 0.3 -27.6
v 9.9 0.4 -27.3
v 9.9 0.4 -27.6
v 9.9 0.5 -27.2
v 9.9 0.5 -27.3
v 9.9 0.5 -27.5
v 9.9 0.5 -27.6
v 9.9 0.6 -27.3
v 9.9 0.6 -27.5
v 10 0.1 -27.2
v 10 0.1 -27.3
v 10 0.1 -27.6
v 10 0.2 -27.1
v 10 0.2 -27.2
v 10 0.2 -27.3
v 10 0.2 -27.5
v 10 0.2 -27.6
v 10 0.2 -27.7
v 10 0.3 -27.2
v 10 0.3 -27.3
v 10 0.3 -27.5
v 10 0.3 -27.6
v 10 0.3 -27.7
v 10 0.4 -27.6
v 10 0.5 -27.2
v 10 0.5 -27.3
v 10 0.5 -27.5
v 10 0.5 -27.6
v 10 0.5 -27.7
v 10 0.6 -27.1
v 10 0.6 -27.2
v 10 0.6 -27.3
v 10 0.6 -27.5
v 10 0.6 -27.6
v 10 0.6 -27.7
v 10 0.7 -27.2
v 10 0.7 -27.3
v 10 0.7 -27.6
v 10.1 0 -27.3
v 10.1 0 -27.5
v 10.1 0.1 -27.1
v 10.1 0.1 -27.2
v 10.1 0.1 -27.3
v 10.1 0.1 -27.5
v 10.1 0.1 -27.6
v 10.1 0.1 -27.7
v 10.1 0.2 -27.1
v 10.1 0.2 -27.2
v 10.1 0.2 -27.6
v 10.1 0.2 -27.7
v 10.1 0.3 -27
v 10.1 0.3 -27.1
v 10.1 0.3 -27.7
v 10.1 0.3 -27.8
v 10.1 0.4 -27
v 10.1 0.4 -27.1
v 10.1 0.5 -27
v 10.1 0.5 -27.1
v 10.1 0.5 -27.7
v 10.1 0.5 -27.8
v 10.1 0.6 -27.1
v 10.1 0.6 -27.2
v 10.1 0.6 -27.6
v 10.1 0.6 -27.7
v 10.1 0.7 -27.1
v 10.1 0.7 -27.2
v 10.1 0.7 -27.3
v 10.1 0.7 -27.5
v 10.1 0.7 -27.6
v 10.1 0.7 -27.7
v 10.1 0.8 -27.3
v 10.1 0.8 -27.5
v 10.2 0 -27.2
v 10.2 0 -27.3
v 10.2 0 -27.5
v 10.2 0 -27.6
v 10.2 0.1 -27.2
v 10.2 0.1 -27.3
v 10.2 0.1 -27.5
v 10.2 0.1 -27.6
v 10.2 0.2 -27
v 10.2 0.2 -27.1
v 10.2 0.2 -27.7
v 10.2 0.2 -27.8
v 10.2 0.3 -27
v 10.2 0.3 -27.1
v 10.2 0.3 -27.7
v 10.2 0.3 -27.8
v 10.2 0.5 -27
v 10.2 0.5 -27.1
v 10.2 0.5 -27.7
v 10.2 0.5 -27.8
v 10.2 0.6 -27
v 10.2 0.6 -27.1
v 10.2 0.6 -27.7
v 10.2 0.6 -27.8
v 10.2 0.7 -27.2
v 10.2 0.7 -27.3
v 10.2 0.7 -27.5
v 10.2 0.7 -27.6
v 10.2 0.8 -27.2
v 10.2 0.8 -27.3
v 10.2 0.8 -27.5
v 10.2 0.8 -27.6
v 10.4 0 -27.2
v 10.4 0 -27.3
v 10.4 0 -27.5
v 10.4 0 -27.6
v 10.4 0.1 -27.2
v 10.4 0.1 -27.3
v 10.4 0.1 -27.5
v 10.4 0.1 -27.6
v 10.4 0.2 -27
v 10.4 0.2 -27.1
v 10.4 0.2 -27.7
v 10.4 0.2 -27.8
v 10.4 0.3 -27
v 10.4 0.3 -27.1
v 10.4 0.3 -27.7
v 10.4 0.3 -27.8
v 10.4 0.5 -27
v 10.4 0.5 -27.1
v 10.4 0.5 -27.7
v 10.4 0.5 -27.8
v 10.4 0.6 -27
v 10.4 0.6 -27.1
v 10.4 0.6 -27.7
v 10.4 0.6 -27.8
v 10.4 0.7 -27.2
v 10.4 0.7 -27.3
v 10.4 0.7 -27.5
v 10.4 0.7 -27.6
v 10.4 0.8 -27.2
v 10.4 0.8 -27.3
v 10.4 0.8 -27.5
v 10.4 0.8 -27.6
v 10.5 0 -27.3
v 10.5 0 -27.4
v 10.5 0 -27.5
v 10.5 0.1 -27.1
v 10.5 0.1 -27.2
v 10.5 0.1 -27.3
v 10.5 0.1 -27.4
v 10.5 0.1 -27.5
v 10.5 0.1 -27.6
v 10.5 0.1 -27.7
v 10.5 0.2 -27.1
v 10.5 0.2 -27.2
v 10.5 0.2 -27.6
v 10.5 0.2 -27.7
v 10.5 0.3 -27
v 10.5 0.3 -27.1
v 10.5 0.3 -27.7
v 10.5 0.3 -27.8
v 10.5 0.4 -27
v 10.5 0.4 -27.1
v 10.5 0.4 -27.7
v 10.5 0.4 -27.8
v 10.5 0.5 -27
v 10.5 0.5 -27.1
v 10.5 0.5 -27.7
v 10.5 0.5 -27.8
v 10.5 0.6 -27.1
v 10.5 0.6 -27.2
v 10.5 0.6 -27.6
v 10.5 0.6 -27.7
v 10.5 0.7 -27.1
v 10.5 0.7 -27.2
v 10.5 0.7 -27.3
v 10.5 0.7 -27.5
v 10.5 0.7 -27.6
v 10.5 0.7 -27.7
v 10.5 0.8 -27.3
v 10.5 0.8 -27.5
v 10.6 0.1 -27.2
v 10.6 0.1 -27.3
v 10.6 0.1 -27.5
v 10.6 0.1 -27.6
v 10.6 0.2 -27.1
v 10.6 0.2 -27.2
v 10.6 0.2 -27.3
v 10.6 0.2 -27.4
v 10.6 0.2 -27.5
v 10.6 0.2 -27.6
v 10.6 0.2 -27.7
v 10.6 0.3 -27.2
v 10.6 0.3 -27.3
v 10.6 0.3 -27.5
v 10.6 0.3 -27.6
v 10.6 0.4 -27.1
v 10.6 0.4 -27.2
v 10.6 0.4 -27.6
v 10.6 0.4 -27.7
v 10.6 0.5 -27.2
v 10.6 0.5 -27.3
v 10.6 0.5 -27.5
v 10.6 0.5 -27.6
v 10.6 0.6 -27.1
v 10.6 0.6 -27.2
v 10.6 0.6 -27.3
v 10.6 0.6 -27.5
v 10.6 0.6 -27.6
v 10.6 0.6 -27.7
v 10.6 0.7 -27.2
v 10.6 0.7 -27.6
v 10.7 0.2 -27.3
v 10.7 0.2 -27.4
v 10.7 0.2 -27.5
v 10.7 0.3 -27.2
v 10.7 0.3 -27.3
v 10.7 0.3 -27.4
v 10.7 0.3 -27.5
v 10.7 0.3 -27.6
v 10.7 0.4 -27.2
v 10.7 0.4 -27.4
v 10.7 0.4 -27.5
v 10.7 0.4 -27.6
v 10.7 0.5 -27.2
v 10.7 0.5 -27.3
v 10.7 0.5 -27.5
v 10.7 0.5 -27.6
v 10.7 0.6 -27.3
v 10.7 0.6 -27.5
v 10.1 0.3 -27
v 10.1 0.4 -27
v 10.1 0.5 -27
v 10.2 0.2 -27
v 10.2 0.3 -27
v 10.2 0.5 -27
v 10.2 0.6 -27
v 10.3 0.5 -27
v 10.3 0.6 -27
v 10.4 0.2 -27
v 10.4 0.3 -27
v 10.4 0.5 -27
v 10.4 0.6 -27
v 10.5 0.3 -27
v 10.5 0.4 -27
v 10.5 0.5 -27
v 10 0.2 -27.1
v 10 0.6 -27.1
v 10.1 0.1 -27.1
v 10.1 0.2 -27.1
v 10.1 0.3 -27.1
v 10.1 0.4 -27.1
v 10.1 0.5 -27.1
v 10.1 0.6 -27.1
v 10.1 0.7 -27.1
v 10.2 0.2 -27.1
v 10.2 0.3 -27.1
v 10.2 0.5 -27.1
v 10.2 0.6 -27.1
v 10.3 0.6 -27.1
v 10.3 0.7 -27.1
v 10.4 0.2 -27.1
v 10.4 0.3 -27.1
v 10.4 0.5 -27.1
v 10.4 0.6 -27.1
v 10.5 0.1 -27.1
v 10.5 0.2 -27.1
v 10.5 0.3 -27.1
v 10.5 0.4 -27.1
v 10.5 0.5 -27.1
v 10.5 0.6 -27.1
v 10.5 0.7 -27.1
v 10.6 0.2 -27.1
v 10.6 0.4 -27.1
v 10.6 0.6 -27.1
v 9.9 0.3 -27.2
v 9.9 0.5 -27.2
v 10 0.1 -27.2
v 10 0.2 -27.2
v 10 0.3 -27.2
v 10 0.5 -27.2
v 10 0.6 -27.2
v 10 0.7 -27.2
v 10.1 0.1 -27.2
v 10.1 0.2 -27.2
v 10.1 0.6 -27.2
v 10.1 0.7 -27.2
v 10.2 0 -27.2
v 10.2 0.1 -27.2
v 10.2 0.7 -27.2
v 10.2 0.8 -27.2
v 10.3 0.7 -27.2
v 10.4 0 -27.2
v 10.4 0.1 -27.2
v 10.4 0.7 -27.2
v 10.4 0.8 -27.2
v 10.5 0.1 -27.2
v 10.5 0.2 -27.2
v 10.5 0.6 -27.2
v 10.5 0.7 -27.2
v 10.6 0.1 -27.2
v 10.6 0.2 -27.2
v 10.6 0.3 -27.2
v 10.6 0.4 -27.2
v 10.6 0.5 -27.2
v 10.6 0.6 -27.2
v 10.6 0.7 -27.2
v 10.7 0.3 -27.2
v 10.7 0.4 -27.2
v 10.7 0.5 -27.2
v 9.9 0.2 -27.3
v 9.9 0.3 -27.3
v 9.9 0.5 -27.3
v 9.9 0.6 -27.3
v 10 0.2 -27.3
v 10 0.3 -27.3
v 10 0.5 -27.3
v 10 0.6 -27.3
v 10.1 0 -27.3
v 10.1 0.1 -27.3
v 10.1 0.7 -27.3
v 10.1 0.8 -27.3
v 10.2 0 -27.3
v 10.2 0.1 -27.3
v 10.2 0.7 -27.3
v 10.2 0.8 -27.3
v 10.4 0 -27.3
v 10.4 0.1 -27.3
v 10.4 0.7 -27.3
v 10.4 0.8 -27.3
v 10.5 0 -27.3
v 10.5 0.1 -27.3
v 10.5 0.7 -27.3
v 10.5 0.8 -27.3
v 10.6 0.2 -27.3
v 10.6 0.3 -27.3
v 10.6 0.5 -27.3
v 10.6 0.6 -27.3
v 10.7 0.2 -27.3
v 10.7 0.3 -27.3
v 10.7 0.5 -27.3
v 10.7 0.6 -27.3
v 9.9 0.2 -27.5
v 9.9 0.3 -27.5
v 9.9 0.5 -27.5
v 9.9 0.6 -27.5
v 10 0.2 -27.5
v 10 0.3 -27.5
v 10 0.5 -27.5
v 10 0.6 -27.5
v 10.1 0 -27.5
v 10.1 0.1 -27.5
v 10.1 0.7 -27.5
v 10.1 0.8 -27.5
v 10.2 0 -27.5
v 10.2 0.1 -27.5
v 10.2 0.7 -27.5
v 10.2 0.8 -27.5
v 10.4 0 -27.5
v 10.4 0.1 -27.5
v 10.4 0.7 -27.5
v 10.4 0.8 -27.5
v 10.5 0 -27.5
v 10.5 0.1 -27.5
v 10.5 0.7 -27.5
v 10.5 0.8 -27.5
v 10.6 0.2 -27.5
v 10.6 0.3 -27.5
v 10.6 0.5 -27.5
v 10.6 0.6 -27.5
v 10.7 0.2 -27.5
v 10.7 0.3 -27.5
v 10.7 0.5 -27.5
v 10.7 0.6 -27.5
v 9.9 0.3 -27.6
v 9.9 0.4 -27.6
v 9.9 0.5 -27.6
v 10 0.1 -27.6
v 10 0.2 -27.6
v 10 0.3 -27.6
v 10 0.4 -27.6
v 10 0.5 -27.6
v 10 0.6 -27.6
v 10 0.7 -27.6
v 10.1 0.1 -27.6
v 10.1 0.2 -27.6
v 10.1 0.6 -27.6
v 10.1 0.7 -27.6
v 10.2 0 -27.6
v 10.2 0.1 -27.6
v 10.2 0.7 -27.6
v 10.2 0.8 -27.6
v 10.3 0.7 -27.6
v 10.3 0.8 -27.6
v 10.4 0 -27.6
v 10.4 0.1 -27.6
v 10.4 0.7 -27.6
v 10.4 0.8 -27.6
v 10.5 0.1 -27.6
v 10.5 0.2 -27.6
v 10.5 0.6 -27.6
v 10.5 0.7 -27.6
v 10.6 0.1 -27.6
v 10.6 0.2 -27.6
v 10.6 0.3 -27.6
v 10.6 0.4 -27.6
v 10.6 0.5 -27.6
v 10.6 0.6 -27.6
v 10.6 0.7 -27.6
v 10.7 0.3 -27.6
v 10.7 0.4 -27.6
v 10.7 0.5 -27.6
v 10 0.2 -27.7
v 10 0.3 -27.7
v 10 0.5 -27.7
v 10 0.6 -27.7
v 10.1 0.1 -27.7
v 10.1 0.2 -27.7
v 10.1 0.3 -27.7
v 10.1 0.5 -27.7
v 10.1 0.6 -27.7
v 10.1 0.7 -27.7
v 10.2 0.2 -27.7
v 10.2 0.3 -27.7
v 10.2 0.5 -27.7
v 10.2 0.6 -27.7
v 10.2 0.7 -27.7
v 10.3 0.2 -27.7
v 10.3 0.6 -27.7
v 10.4 0.2 -27.7
v 10.4 0.3 -27.7
v 10.4 0.5 -27.7
v 10.4 0.6 -27.7
v 10.5 0.1 -27.7
v 10.5 0.2 -27.7
v 10.5 0.3 -27.7
v 10.5 0.4 -27.7
v 10.5 0.5 -27.7
v 10.5 0.6 -27.7
v 10.5 0.7 -27.7
v 10.6 0.2 -27.7
v 10.6 0.4 -27.7
v 10.6 0.6 -27.7
v 10.1 0.3 -27.8
v 10.1 0.5 -27.8
v 10.2 0.2 -27.8
v 10.2 0.3 -27.8
v 10.2 0.5 -27.8
v 10.2 0.6 -27.8
v 10.3 0.2 -27.8
v 10.3 0.3 -27.8
v 10.3 0.4 -27.8
v 10.3 0.6 -27.8
v 10.4 0.2 -27.8
v 10.4 0.3 -27.8
v 10.4 0.5 -27.8
v 10.4 0.6 -27.8
v 10.5 0.3 -27.8
v 10.5 0.4 -27.8
v 10.5 0.5 -27.8
v 10.2 0 -27.2
v 10.4 0 -27.2
v 10.1 0 -27.3
v 10.2 0 -27.3
v 10.4 0 -27.3
v 10.5 0 -27.3
v 10.4 0 -27.4
v 10.5 0 -27.4
v 10.1 0 -27.5
v 10.2 0 -27.5
v 10.4 0 -27.5
v 10.5 0 -27.5
v 10.2 0 -27.6
v 10.4 0 -27.6
v 10.1 0.1 -27.1
v 10.5 0.1 -27.1
v 10 0.1 -27.2
v 10.1 0.1 -27.2
v 10.2 0.1 -27.2
v 10.4 0.1 -27.2
v 10.5 0.1 -27.2
v 10.6 0.1 -27.2
v 10 0.1 -27.3
v 10.1 0.1 -27.3
v 10.2 0.1 -27.3
v 10.4 0.1 -27.3
v 10.5 0.1 -27.3
v 10.6 0.1 -27.3
v 10.5 0.1 -27.4
v 10.1 0.1 -27.5
v 10.2 0.1 -27.5
v 10.4 0.1 -27.5
v 10.5 0.1 -27.5
v 10.6 0.1 -27.5
v 10 0.1 -27.6
v 10.1 0.1 -27.6
v 10.2 0.1 -27.6
v 10.4 0.1 -27.6
v 10.5 0.1 -27.6
v 10.6 0.1 -27.6
v 10.1 0.1 -27.7
v 10.5 0.1 -27.7
v 10.2 0.2 -27
v 10.4 0.2 -27
v 10 0.2 -27.1
v 10.1 0.2 -27.1
v 10.2 0.2 -27.1
v 10.4 0.2 -27.1
v 10.5 0.2 -27.1
v 10.6 0.2 -27.1
v 10 0.2 -27.2
v 10.1 0.2 -27.2
v 10.5 0.2 -27.2
v 10.6 0.2 -27.2
v 9.9 0.2 -27.3
v 10 0.2 -27.3
v 10.6 0.2 -27.3
v 10.7 0.2 -27.3
v 10.6 0.2 -27.4
v 10.7 0.2 -27.4
v 9.9 0.2 -27.5
v 10 0.2 -27.5
v 10.6 0.2 -27.5
v 10.7 0.2 -27.5
v 10 0.2 -27.6
v 10.1 0.2 -27.6
v 10.5 0.2 -27.6
v 10.6 0.2 -27.6
v 10 0.2 -27.7
v 10.1 0.2 -27.7
v 10.2 0.2 -27.7
v 10.3 0.2 -27.7
v 10.4 0.2 -27.7
v 10.5 0.2 -27.7
v 10.6 0.2 -27.7
v 10.2 0.2 -27.8
v 10.3 0.2 -27.8
v 10.4 0.2 -27.8
v 10.1 0.3 -27
v 10.2 0.3 -27
v 10.4 0.3 -27
v 10.5 0.3 -27
v 10.1 0.3 -27.1
v 10.2 0.3 -27.1
v 10.4 0.3 -27.1
v 10.5 0.3 -27.1
v 9.9 0.3 -27.2
v 10 0.3 -27.2
v 10.6 0.3 -27.2
v 10.7 0.3 -27.2
v 9.9 0.3 -27.3
v 10 0.3 -27.3
v 10.6 0.3 -27.3
v 10.7 0.3 -27.3
v 9.9 0.3 -27.5
v 10 0.3 -27.5
v 10.6 0.3 -27.5
v 10.7 0.3 -27.5
v 9.9 0.3 -27.6
v 10 0.3 -27.6
v 10.6 0.3 -27.6
v 10.7 0.3 -27.6
v 10.1 0.3 -27.7
v 10.2 0.3 -27.7
v 10.4 0.3 -27.7
v 10.5 0.3 -27.7
v 10.1 0.3 -27.8
v 10.2 0.3 -27.8
v 10.4 0.3 -27.8
v 10.5 0.3 -27.8
v 10.1 0.5 -27
v 10.2 0.5 -27
v 10.4 0.5 -27
v 10.5 0.5 -27
v 10.1 0.5 -27.1
v 10.2 0.5 -27.1
v 10.4 0.5 -27.1
v 10.5 0.5 -27.1
v 9.9 0.5 -27.2
v 10 0.5 -27.2
v 10.6 0.5 -27.2
v 10.7 0.5 -27.2
v 9.9 0.5 -27.3
v 10 0.5 -27.3
v 10.6 0.5 -27.3
v 10.7 0.5 -27.3
v 9.9 0.5 -27.5
v 10 0.5 -27.5
v 10.6 0.5 -27.5
v 10.7 0.5 -27.5
v 9.9 0.5 -27.6
v 10 0.5 -27.6
v 10.6 0.5 -27.6
v 10.7 0.5 -27.6
v 10.1 0.5 -27.7
v 10.2 0.5 -27.7
v 10.4 0.5 -27.7
v 10.5 0.5 -27.7
v 10.1 0.5 -27.8
v 10.2 0.5 -27.8
v 10.4 0.5 -27.8
v 10.5 0.5 -27.8
v 10.2 0.6 -27
v 10.3 0.6 -27
v 10.4 0.6 -27
v 10 0.6 -27.1
v 10.1 0.6 -27.1
v 10.2 0.6 -27.1
v 10.3 0.6 -27.1
v 10.4 0.6 -27.1
v 10.5 0.6 -27.1
v 10.6 0.6 -27.1
v 10 0.6 -27.2
v 10.1 0.6 -27.2
v 10.5 0.6 -27.2
v 10.6 0.6 -27.2
v 9.9 0.6 -27.3
v 10 0.6 -27.3
v 10.6 0.6 -27.3
v 10.7 0.6 -27.3
v 9.9 0.6 -27.5
v 10 0.6 -27.5
v 10.6 0.6 -27.5
v 10.7 0.6 -27.5
v 10 0.6 -27.6
v 10.1 0.6 -27.6
v 10.5 0.6 -27.6
v 10.6 0.6 -27.6
v 10 0.6 -27.7
v 10.1 0.6 -27.7
v 10.2 0.6 -27.7
v 10.3 0.6 -27.7
v 10.4 0.6 -27.7
v 10.5 0.6 -27.7
v 10.6 0.6 -27.7
v 10.2 0.6 -27.8
v 10.3 0.6 -27.8
v 10.4 0.6 -27.8
v 10.1 0.7 -27.1
v 10.3 0.7 -27.1
v 10.5 0.7 -27.1
v 10 0.7 -27.2
v 10.1 0.7 -27.2
v 10.2 0.7 -27.2
v 10.3 0.7 -27.2
v 10.4 0.7 -27.2
v 10.5 0.7 -27.2
v 10.6 0.7 -27.2
v 10 0.7 -27.3
v 10.1 0.7 -27.3
v 10.2 0.7 -27.3
v 10.4 0.7 -27.3
v 10.5 0.7 -27.3
v 10.1 0.7 -27.5
v 10.2 0.7 -27.5
v 10.4 0.7 -27.5
v 10.5 0.7 -27.5
v 10 0.7 -27.6
v 10.1 0.7 -27.6
v 10.2 0.7 -27.6
v 10.3 0.7 -27.6
v 10.4 0.7 -27.6
v 10.5 0.7 -27.6
v 10.6 0.7 -27.6
v 10.1 0.7 -27.7
v 10.2 0.7 -27.7
v 10.5 0.7 -27.7
v 10.2 0.8 -27.2
v 10.4 0.8 -27.2
v 10.1 0.8 -27.3
v 10.2 0.8 -27.3
v 10.3 0.8 -27.3
v 10.4 0.8 -27.3
v 10.5 0.8 -27.3
v 10.1 0.8 -27.5
v 10.2 0.8 -27.5
v 10.4 0.8 -27.5
v 10.5 0.8 -27.5
v 10.2 0.8 -27.6
v 10.3 0.8 -27.6
v 10.4 0.8 -27.6

# faces
f 4/1/1 2/1/1 1/1/1
f 5/1/1 2/1/1 4/1/1
f 7/1/1 4/1/1 3/1/1
f 7/1/1 6/1/1 5/1/1
f 7/1/1 5/1/1 4/1/1
f 8/1/1 6/1/1 7/1/1
f 9/1/1 7/1/1 3/1/1
f 10/2/1 8/2/1 7/2/1
f 10/1/1 7/1/1 9/1/1
f 11/2/1 8/2/1 10/2/1
f 12/2/1 8/2/1 11/2/1
f 13/2/1 11/2/1 10/2/1
f 14/2/1 11/2/1 13/2/1
f 19/1/1 16/1/1 15/1/1
f 20/2/1 17/2/1 16/2/1
f 20/1/1 16/1/1 19/1/1
f 21/2/1 17/2/1 20/2/1
f 22/2/1 17/2/1 21/2/1
f 24/1/1 19/1/1 18/1/1
f 24/1/1 20/1/1 19/1/1
f 25/1/1 20/1/1 24/1/1
f 26/2/1 23/2/1 22/2/1
f 26/2/1 22/2/1 21/2/1
f 27/2/1 23/2/1 26/2/1
f 28/2/1 23/2/1 27/2/1
f 29/1/1 28/1/1 27/1/1
f 30/1/1 24/1/1 18/1/1
f 33/1/1 28/1/1 29/1/1
f 34/1/1 28/1/1 33/1/1
f 35/1/1 31/1/1 30/1/1
f 35/1/1 30/1/1 18/1/1
f 36/1/1 31/1/1 35/1/1
f 37/1/1 31/1/1 36/1/1
f 38/2/1 34/2/1 33/2/1
f 38/2/1 33/2/1 32/2/1
f 39/2/1 34/2/1 38/2/1
f 40/2/1 34/2/1 39/2/1
f 41/1/1 37/1/1 36/1/1
f 42/2/1 39/2/1 38/2/1
f 42/1/1 37/1/1 41/1/1
f 42/2/1 38/2/1 37/2/1
f 43/2/1 39/2/1 42/2/1
f 48/2/1 45/2/1 44/2/1
f 49/2/1 45/2/1 48/2/1
f 52/2/1 47/2/1 46/2/1
f 53/2/1 47/2/1 52/2/1
f 54/2/1 51/2/1 50/2/1
f 55/2/1 51/2/1 54/2/1
f 60/2/1 57/2/1 56/2/1
f 61/2/1 57/2/1 60/2/1
f 62/1/1 61/1/1 60/1/1
f 63/1/1 61/1/1 62/1/1
f 64/1/1 59/1/1 58/1/1
f 65/1/1 59/1/1 64/1/1
f 70/1/1 67/1/1 66/1/1
f 71/1/1 67/1/1 70/1/1
f 74/2/1 69/2/1 68/2/1
f 75/2/1 69/2/1 74/2/1
f 76/2/1 73/2/1 72/2/1
f 77/2/1 73/2/1 76/2/1
f 82/1/1 79/1/1 78/1/1
f 83/1/1 79/1/1 82/1/1
f 84/2/1 81/2/1 80/2/1
f 85/2/1 81/2/1 84/2/1
f 90/2/1 87/2/1 86/2/1
f 91/2/1 87/2/1 90/2/1
f 92/2/1 89/2/1 88/2/1
f 93/2/1 89/2/1 92/2/1
f 98/1/1 95/1/1 94/1/1
f 99/1/1 95/1/1 98/1/1
f 100/1/1 97/1/1 96/1/1
f 101/1/1 97/1/1 100/1/1
f 106/1/1 103/1/1 102/1/1
f 107/1/1 103/1/1 106/1/1
f 108/2/1 105/2/1 104/2/1
f 109/2/1 105/2/1 108/2/1
f 110/1/2 111/1/2 114/1/2
f 114/1/2 111/1/2 115/1/2
f 112/2/2 113/2/2 116/2/2
f 116/2/2 113/2/2 117/2/2
f 118/2/2 119/2/2 122/2/2
f 122/2/2 119/2/2 123/2/2
f 120/1/2 121/1/2 124/1/2
f 124/1/2 121/1/2 125/1/2
f 126/2/2 127/2/2 130/2/2
f 130/2/2 127/2/2 131/2/2
f 128/2/2 129/2/2 132/2/2
f 132/2/2 129/2/2 133/2/2
f 134/1/2 135/1/2 138/1/2
f 138/1/2 135/1/2 139/1/2
f 136/1/2 137/1/2 140/1/2
f 140/1/2 137/1/2 141/1/2
f 142/1/2 143/1/2 147/1/2
f 143/2/2 144/2/2 148/2/2
f 147/1/2 143/1/2 148/1/2
f 148/2/2 144/2/2 149/2/2
f 145/2/2 146/2/2 152/2/2
f 152/2/2 146/2/2 153/2/2
f 150/2/2 151/2/2 154/2/2
f 154/2/2 151/2/2 155/2/2
f 156/2/2 157/2/2 160/2/2
f 160/2/2 157/2/2 161/2/2
f 158/1/2 159/1/2 162/1/2
f 162/1/2 159/1/2 163/1/2
f 160/1/2 161/1/2 164/1/2
f 164/1/2 161/1/2 165/1/2
f 162/2/2 163/2/2 166/2/2
f 166/2/2 163/2/2 167/2/2
f 168/2/2 169/2/2 172/2/2
f 172/2/2 169/2/2 173/2/2
f 170/1/2 171/1/2 176/1/2
f 176/1/2 171/1/2 177/1/2
f 174/2/2 175/2/2 178/2/2
f 178/2/2 175/2/2 179/2/2
f 180/2/2 181/2/2 185/2/2
f 181/1/2 182/1/2 186/1/2
f 185/2/2 181/2/2 186/2/2
f 186/1/2 182/1/2 187/1/2
f 182/2/2 183/2/2 188/2/2
f 187/1/2 182/1/2 188/1/2
f 188/2/2 183/2/2 189/2/2
f 184/1/2 185/1/2 191/1/2
f 185/1/2 186/1/2 191/1/2
f 191/1/2 186/1/2 192/1/2
f 189/1/2 190/1/2 193/1/2
f 188/1/2 189/1/2 193/1/2
f 193/1/2 190/1/2 194/1/2
f 184/1/2 191/1/2 195/1/2
f 195/1/2 191/1/2 196/1/2
f 194/1/2 190/1/2 197/1/2
f 197/1/2 190/1/2 198/1/2
f 195/2/2 196/2/2 199/2/2
f 197/2/2 198/2/2 202/2/2
f 195/2/2 199/2/2 203/2/2
f 199/1/2 200/1/2 204/1/2
f 203/2/2 199/2/2 204/2/2
f 204/1/2 200/1/2 205/1/2
f 201/2/2 202/2/2 206/2/2
f 202/2/2 198/2/2 207/2/2
f 206/2/2 202/2/2 207/2/2
f 207/2/2 198/2/2 208/2/2
f 204/1/2 205/1/2 209/1/2
f 205/1/2 206/1/2 209/1/2
f 206/1/2 207/1/2 209/1/2
f 209/1/2 207/1/2 210/1/2
f 211/2/2 212/2/2 215/2/2
f 212/1/2 213/1/2 216/1/2
f 215/2/2 212/2/2 216/2/2
f 216/1/2 213/1/2 217/1/2
f 214/1/2 215/1/2 219/1/2
f 215/1/2 216/1/2 219/1/2
f 216/2/2 217/2/2 220/2/2
f 219/1/2 216/1/2 220/1/2
f 217/1/2 218/1/2 221/1/2
f 220/2/2 217/2/2 221/2/2
f 221/1/2 218/1/2 222/1/2
f 219/2/2 220/2/2 223/2/2
f 220/2/2 221/2/2 223/2/2
f 221/2/2 222/2/2 223/2/2
f 223/2/2 222/2/2 224/2/2
f 224/2/2 222/2/2 225/2/2
f 225/2/2 222/2/2 226/2/2
f 224/2/2 225/2/2 227/2/2
f 227/2/2 225/2/2 228/2/2
f 233/2/3 230/2/3 229/2/3
f 234/1/3 231/1/3 230/1/3
f 236/1/3 234/1/3 230/1/3
f 236/1/3 235/1/3 234/1/3
f 237/1/3 235/1/3 236/1/3
f 238/2/3 233/2/3 232/2/3
f 239/2/3 230/2/3 233/2/3
f 239/2/3 233/2/3 238/2/3
f 240/1/3 236/1/3 230/1/3
f 240/2/3 237/2/3 236/2/3
f 241/2/3 237/2/3 240/2/3
f 242/2/3 230/2/3 239/2/3
f 243/1/3 240/1/3 230/1/3
f 243/2/3 230/2/3 242/2/3
f 244/1/3 240/1/3 243/1/3
f 248/1/3 246/1/3 245/1/3
f 249/1/3 246/1/3 248/1/3
f 250/1/3 246/1/3 249/1/3
f 251/1/3 246/1/3 250/1/3
f 252/1/3 246/1/3 251/1/3
f 254/2/3 248/2/3 247/2/3
f 254/2/3 249/2/3 248/2/3
f 255/2/3 249/2/3 254/2/3
f 256/1/3 253/1/3 252/1/3
f 256/1/3 252/1/3 251/1/3
f 257/1/3 253/1/3 256/1/3
f 258/1/3 253/1/3 257/1/3
f 259/1/3 253/1/3 258/1/3
f 260/2/3 254/2/3 247/2/3
f 263/2/3 259/2/3 258/2/3
f 264/2/3 261/2/3 260/2/3
f 264/2/3 260/2/3 247/2/3
f 265/2/3 261/2/3 264/2/3
f 266/2/3 261/2/3 265/2/3
f 268/2/3 263/2/3 262/2/3
f 269/2/3 259/2/3 263/2/3
f 269/2/3 263/2/3 268/2/3
f 270/2/3 259/2/3 269/2/3
f 271/1/3 267/1/3 266/1/3
f 271/1/3 266/1/3 265/1/3
f 272/2/3 268/2/3 267/2/3
f 272/1/3 267/1/3 271/1/3
f 272/2/3 269/2/3 268/2/3
f 273/2/3 269/2/3 272/2/3
f 278/1/3 275/1/3 274/1/3
f 279/1/3 275/1/3 278/1/3
f 282/1/3 277/1/3 276/1/3
f 283/1/3 277/1/3 282/1/3
f 284/1/3 281/1/3 280/1/3
f 285/1/3 281/1/3 284/1/3
f 290/1/3 289/1/3 288/1/3
f 291/1/3 287/1/3 286/1/3
f 292/1/3 287/1/3 291/1/3
f 293/1/3 289/1/3 290/1/3
f 294/1/3 289/1/3 293/1/3
f 299/2/3 296/2/3 295/2/3
f 300/2/3 296/2/3 299/2/3
f 304/1/3 298/1/3 297/1/3
f 305/1/3 298/1/3 304/1/3
f 306/1/3 302/1/3 301/1/3
f 307/2/3 303/2/3 302/2/3
f 307/1/3 302/1/3 306/1/3
f 308/2/3 303/2/3 307/2/3
f 313/1/3 310/1/3 309/1/3
f 314/1/3 310/1/3 313/1/3
f 315/2/3 312/2/3 311/2/3
f 316/2/3 312/2/3 315/2/3
f 321/2/3 318/2/3 317/2/3
f 322/2/3 318/2/3 321/2/3
f 323/2/3 320/2/3 319/2/3
f 324/2/3 320/2/3 323/2/3
f 329/1/3 326/1/3 325/1/3
f 330/1/3 326/1/3 329/1/3
f 331/2/3 328/2/3 327/2/3
f 332/2/3 328/2/3 331/2/3
f 337/2/3 334/2/3 333/2/3
f 338/2/3 334/2/3 337/2/3
f 339/2/3 336/2/3 335/2/3
f 340/2/3 336/2/3 339/2/3
f 341/1/4 342/1/4 345/1/4
f 345/1/4 342/1/4 346/1/4
f 343/2/4 344/2/4 347/2/4
f 347/2/4 344/2/4 348/2/4
f 349/2/4 350/2/4 353/2/4
f 353/2/4 350/2/4 354/2/4
f 351/2/4 352/2/4 355/2/4
f 355/2/4 352/2/4 356/2/4
f 357/2/4 358/2/4 361/2/4
f 361/2/4 358/2/4 362/2/4
f 359/2/4 360/2/4 363/2/4
f 363/2/4 360/2/4 364/2/4
f 365/1/4 366/1/4 369/1/4
f 369/1/4 366/1/4 370/1/4
f 367/2/4 368/2/4 371/2/4
f 371/2/4 368/2/4 372/2/4
f 373/1/4 374/1/4 378/1/4
f 374/2/4 375/2/4 379/2/4
f 378/1/4 374/1/4 379/1/4
f 379/2/4 375/2/4 380/2/4
f 376/2/4 377/2/4 383/2/4
f 383/2/4 377/2/4 384/2/4
f 381/2/4 382/2/4 385/2/4
f 385/2/4 382/2/4 386/2/4
f 389/2/4 390/2/4 391/2/4
f 391/2/4 390/2/4 392/2/4
f 387/2/4 388/2/4 393/2/4
f 393/2/4 388/2/4 394/2/4
f 391/1/4 392/1/4 395/1/4
f 395/1/4 392/1/4 396/1/4
f 397/2/4 398/2/4 401/2/4
f 401/2/4 398/2/4 402/2/4
f 399/1/4 400/1/4 406/1/4
f 406/1/4 400/1/4 407/1/4
f 403/1/4 404/1/4 408/1/4
f 404/2/4 405/2/4 409/2/4
f 408/1/4 404/1/4 409/1/4
f 409/2/4 405/2/4 410/2/4
f 411/2/4 412/2/4 416/2/4
f 412/1/4 413/1/4 417/1/4
f 416/2/4 412/2/4 417/2/4
f 413/2/4 414/2/4 418/2/4
f 417/1/4 413/1/4 418/1/4
f 418/2/4 414/2/4 419/2/4
f 416/2/4 417/2/4 421/2/4
f 415/2/4 416/2/4 421/2/4
f 421/2/4 417/2/4 422/2/4
f 419/2/4 420/2/4 423/2/4
f 418/2/4 419/2/4 423/2/4
f 423/2/4 420/2/4 424/2/4
f 424/2/4 420/2/4 425/2/4
f 415/2/4 421/2/4 426/2/4
f 424/1/4 425/1/4 427/1/4
f 415/2/4 426/2/4 428/2/4
f 427/1/4 425/1/4 431/1/4
f 415/2/4 428/2/4 432/2/4
f 428/1/4 429/1/4 433/1/4
f 432/2/4 428/2/4 433/2/4
f 433/1/4 429/1/4 434/1/4
f 430/2/4 431/2/4 436/2/4
f 431/1/4 425/1/4 437/1/4
f 436/2/4 431/2/4 437/2/4
f 437/1/4 425/1/4 438/1/4
f 434/1/4 435/1/4 439/1/4
f 433/1/4 434/1/4 439/1/4
f 435/2/4 436/2/4 440/2/4
f 439/1/4 435/1/4 440/1/4
f 436/2/4 437/2/4 440/2/4
f 440/2/4 437/2/4 441/2/4
f 442/1/4 443/1/4 445/1/4
f 445/1/4 443/1/4 446/1/4
f 444/2/4 445/2/4 448/2/4
f 446/1/4 447/1/4 449/1/4
f 448/2/4 445/2/4 449/2/4
f 445/1/4 446/1/4 449/1/4
f 449/1/4 447/1/4 450/1/4
f 450/1/4 447/1/4 451/1/4
f 448/1/4 449/1/4 452/1/4
f 449/1/4 450/1/4 452/1/4
f 452/1/4 450/1/4 453/1/4
f 450/2/4 451/2/4 454/2/4
f 454/2/4 451/2/4 455/2/4
f 453/1/4 450/1/4 456/1/4
f 450/2/4 454/2/4 457/2/4
f 456/1/4 450/1/4 457/1/4
f 457/2/4 454/2/4 458/2/4
f 462/1/5 460/1/5 459/1/5
f 463/1/5 460/1/5 462/1/5
f 465/2/5 462/2/5 461/2/5
f 465/1/5 464/1/5 463/1/5
f 465/2/5 463/2/5 462/2/5
f 466/1/5 464/1/5 465/1/5
f 467/2/5 465/2/5 461/2/5
f 467/2/5 466/2/5 465/2/5
f 468/2/5 466/2/5 467/2/5
f 469/2/5 466/2/5 468/2/5
f 470/2/5 466/2/5 469/2/5
f 471/2/5 469/2/5 468/2/5
f 472/2/5 469/2/5 471/2/5
f 476/2/5 474/2/5 473/2/5
f 477/2/5 474/2/5 476/2/5
f 478/2/5 474/2/5 477/2/5
f 479/2/5 474/2/5 478/2/5
f 481/1/5 476/1/5 475/1/5
f 481/1/5 477/1/5 476/1/5
f 482/1/5 477/1/5 481/1/5
f 483/1/5 477/1/5 482/1/5
f 484/1/5 479/1/5 478/1/5
f 485/2/5 480/2/5 479/2/5
f 485/1/5 479/1/5 484/1/5
f 486/2/5 480/2/5 485/2/5
f 487/1/5 486/1/5 485/1/5
f 488/2/5 482/2/5 481/2/5
f 491/1/5 486/1/5 487/1/5
f 492/1/5 486/1/5 491/1/5
f 493/2/5 489/2/5 488/2/5
f 493/2/5 488/2/5 481/2/5
f 494/2/5 489/2/5 493/2/5
f 495/2/5 489/2/5 494/2/5
f 496/2/5 492/2/5 491/2/5
f 496/2/5 491/2/5 490/2/5
f 497/2/5 492/2/5 496/2/5
f 498/2/5 492/2/5 497/2/5
f 499/2/5 495/2/5 494/2/5
f 499/2/5 497/2/5 496/2/5
f 499/2/5 496/2/5 495/2/5
f 500/2/5 497/2/5 499/2/5
f 505/2/5 502/2/5 501/2/5
f 506/2/5 502/2/5 505/2/5
f 509/1/5 504/1/5 503/1/5
f 510/1/5 504/1/5 509/1/5
f 511/1/5 508/1/5 507/1/5
f 512/1/5 508/1/5 511/1/5
f 517/2/5 516/2/5 515/2/5
f 518/2/5 516/2/5 517/2/5
f 519/1/5 514/1/5 513/1/5
f 520/1/5 514/1/5 519/1/5
f 521/1/5 518/1/5 517/1/5
f 522/1/5 518/1/5 521/1/5
f 527/2/5 524/2/5 523/2/5
f 528/2/5 524/2/5 527/2/5
f 532/1/5 526/1/5 525/1/5
f 533/1/5 526/1/5 532/1/5
f 534/2/5 530/2/5 529/2/5
f 535/1/5 531/1/5 530/1/5
f 535/2/5 530/2/5 534/2/5
f 536/1/5 531/1/5 535/1/5
f 541/2/5 538/2/5 537/2/5
f 542/2/5 538/2/5 541/2/5
f 543/2/5 540/2/5 539/2/5
f 544/2/5 540/2/5 543/2/5
f 549/1/5 546/1/5 545/1/5
f 550/1/5 546/1/5 549/1/5
f 551/1/5 548/1/5 547/1/5
f 552/1/5 548/1/5 551/1/5
f 557/1/5 554/1/5 553/1/5
f 558/1/5 554/1/5 557/1/5
f 559/1/5 556/1/5 555/1/5
f 560/1/5 556/1/5 559/1/5
f 565/1/5 562/1/5 561/1/5
f 566/1/5 562/1/5 565/1/5
f 567/1/5 564/1/5 563/1/5
f 568/1/5 564/1/5 567/1/5
f 569/1/6 570/1/6 573/1/6
f 573/1/6 570/1/6 574/1/6
f 571/1/6 572/1/6 575/1/6
f 575/1/6 572/1/6 576/1/6
f 577/1/6 578/1/6 581/1/6
f 581/1/6 578/1/6 582/1/6
f 579/2/6 580/2/6 583/2/6
f 583/2/6 580/2/6 584/2/6
f 585/2/6 586/2/6 589/2/6
f 589/2/6 586/2/6 590/2/6
f 587/2/6 588/2/6 591/2/6
f 591/2/6 588/2/6 592/2/6
f 593/1/6 594/1/6 597/1/6
f 597/1/6 594/1/6 598/1/6
f 595/2/6 596/2/6 599/2/6
f 599/2/6 596/2/6 600/2/6
f 601/1/6 602/1/6 606/1/6
f 602/2/6 603/2/6 607/2/6
f 606/1/6 602/1/6 607/1/6
f 607/2/6 603/2/6 608/2/6
f 604/1/6 605/1/6 611/1/6
f 611/1/6 605/1/6 612/1/6
f 609/2/6 610/2/6 613/2/6
f 613/2/6 610/2/6 614/2/6
f 615/2/6 616/2/6 619/2/6
f 619/2/6 616/2/6 620/2/6
f 617/2/6 618/2/6 621/2/6
f 621/2/6 618/2/6 622/2/6
f 623/2/6 624/2/6 627/2/6
f 627/2/6 624/2/6 628/2/6
f 625/2/6 626/2/6 632/2/6
f 632/2/6 626/2/6 633/2/6
f 629/1/6 630/1/6 634/1/6
f 630/2/6 631/2/6 635/2/6
f 634/1/6 630/1/6 635/1/6
f 635/2/6 631/2/6 636/2/6
f 637/1/6 638/1/6 641/1/6
f 641/1/6 638/1/6 642/1/6
f 638/2/6 639/2/6 643/2/6
f 642/1/6 638/1/6 643/1/6
f 643/2/6 639/2/6 644/2/6
f 644/2/6 639/2/6 645/2/6
f 641/1/6 642/1/6 647/1/6
f 640/1/6 641/1/6 647/1/6
f 647/1/6 642/1/6 648/1/6
f 648/1/6 642/1/6 649/1/6
f 644/2/6 645/2/6 650/2/6
f 645/1/6 646/1/6 651/1/6
f 650/2/6 645/2/6 651/2/6
f 647/2/6 648/2/6 652/2/6
f 651/1/6 646/1/6 655/1/6
f 652/2/6 653/2/6 656/2/6
f 647/2/6 652/2/6 656/2/6
f 656/2/6 653/2/6 657/2/6
f 657/2/6 653/2/6 658/2/6
f 654/1/6 655/1/6 660/1/6
f 655/1/6 646/1/6 661/1/6
f 660/1/6 655/1/6 661/1/6
f 661/1/6 646/1/6 662/1/6
f 657/2/6 658/2/6 663/2/6
f 658/1/6 659/1/6 664/1/6
f 663/2/6 658/2/6 664/2/6
f 659/1/6 660/1/6 664/1/6
f 660/1/6 661/1/6 664/1/6
f 664/1/6 661/1/6 665/1/6
f 666/1/6 667/1/6 669/1/6
f 669/1/6 667/1/6 670/1/6
f 670/1/6 667/1/6 671/1/6
f 668/2/6 669/2/6 673/2/6
f 669/2/6 670/2/6 673/2/6
f 673/2/6 670/2/6 674/2/6
f 671/2/6 672/2/6 675/2/6
f 670/1/6 671/1/6 675/1/6
f 675/2/6 672/2/6 676/2/6
f 674/2/6 670/2/6 677/2/6
f 670/1/6 675/1/6 678/1/6
f 677/2/6 670/2/6 678/2/6
f 678/1/6 675/1/6 679/1/6
