# MagicaVoxel @ Ephtracy

# group
o 

# material
mtllib planetas-1.mtl
usemtl palette

# normals
vn -1 0 0
vn 1 0 0
vn 0 0 1
vn 0 0 -1
vn 0 -1 0
vn 0 1 0

# texcoords
vt 0.00195313 0.5
vt 0.0214844 0.5

# verts
v 6.3 0.1 -29.6
v 6.3 0.1 -29.8
v 6.3 0.2 -29.5
v 6.3 0.2 -29.6
v 6.3 0.2 -29.8
v 6.3 0.2 -29.9
v 6.3 0.3 -29.5
v 6.3 0.3 -29.7
v 6.3 0.4 -29.5
v 6.3 0.4 -29.6
v 6.3 0.4 -29.7
v 6.3 0.4 -29.8
v 6.3 0.4 -29.9
v 6.3 0.5 -29.6
v 6.3 0.5 -29.7
v 6.3 0.5 -29.8
v 6.4 0 -29.6
v 6.4 0 -29.8
v 6.4 0.1 -29.5
v 6.4 0.1 -29.6
v 6.4 0.1 -29.8
v 6.4 0.1 -29.9
v 6.4 0.2 -29.4
v 6.4 0.2 -29.5
v 6.4 0.2 -29.6
v 6.4 0.2 -29.8
v 6.4 0.2 -29.9
v 6.4 0.2 -30
v 6.4 0.3 -29.4
v 6.4 0.3 -29.5
v 6.4 0.3 -29.9
v 6.4 0.3 -30
v 6.4 0.4 -29.4
v 6.4 0.4 -29.5
v 6.4 0.4 -29.6
v 6.4 0.4 -29.8
v 6.4 0.4 -29.9
v 6.4 0.4 -30
v 6.4 0.5 -29.5
v 6.4 0.5 -29.6
v 6.4 0.5 -29.7
v 6.4 0.5 -29.8
v 6.4 0.5 -29.9
v 6.4 0.6 -29.6
v 6.4 0.6 -29.8
v 6.5 0 -29.5
v 6.5 0 -29.6
v 6.5 0 -29.8
v 6.5 0 -29.9
v 6.5 0.1 -29.4
v 6.5 0.1 -29.5
v 6.5 0.1 -29.6
v 6.5 0.1 -29.8
v 6.5 0.1 -29.9
v 6.5 0.1 -30
v 6.5 0.2 -29.4
v 6.5 0.2 -29.5
v 6.5 0.2 -29.9
v 6.5 0.2 -30
v 6.5 0.4 -29.4
v 6.5 0.4 -29.5
v 6.5 0.4 -29.9
v 6.5 0.4 -30
v 6.5 0.5 -29.4
v 6.5 0.5 -29.5
v 6.5 0.5 -29.6
v 6.5 0.5 -29.8
v 6.5 0.5 -29.9
v 6.5 0.5 -30
v 6.5 0.6 -29.5
v 6.5 0.6 -29.6
v 6.5 0.6 -29.8
v 6.5 0.6 -29.9
v 6.7 0 -29.5
v 6.7 0 -29.6
v 6.7 0 -29.8
v 6.7 0 -29.9
v 6.7 0.1 -29.4
v 6.7 0.1 -29.5
v 6.7 0.1 -29.6
v 6.7 0.1 -29.8
v 6.7 0.1 -29.9
v 6.7 0.1 -30
v 6.7 0.2 -29.4
v 6.7 0.2 -29.5
v 6.7 0.2 -29.9
v 6.7 0.2 -30
v 6.7 0.4 -29.4
v 6.7 0.4 -29.5
v 6.7 0.4 -29.9
v 6.7 0.4 -30
v 6.7 0.5 -29.4
v 6.7 0.5 -29.5
v 6.7 0.5 -29.6
v 6.7 0.5 -29.8
v 6.7 0.5 -29.9
v 6.7 0.5 -30
v 6.7 0.6 -29.5
v 6.7 0.6 -29.6
v 6.7 0.6 -29.8
v 6.7 0.6 -29.9
v 6.8 0 -29.6
v 6.8 0 -29.8
v 6.8 0.1 -29.5
v 6.8 0.1 -29.6
v 6.8 0.1 -29.8
v 6.8 0.1 -29.9
v 6.8 0.2 -29.4
v 6.8 0.2 -29.5
v 6.8 0.2 -29.6
v 6.8 0.2 -29.8
v 6.8 0.2 -29.9
v 6.8 0.2 -30
v 6.8 0.3 -29.9
v 6.8 0.3 -30
v 6.8 0.4 -29.4
v 6.8 0.4 -29.5
v 6.8 0.4 -29.6
v 6.8 0.4 -29.8
v 6.8 0.4 -29.9
v 6.8 0.4 -30
v 6.8 0.5 -29.5
v 6.8 0.5 -29.6
v 6.8 0.5 -29.8
v 6.8 0.5 -29.9
v 6.8 0.6 -29.6
v 6.8 0.6 -29.8
v 6.9 0.1 -29.6
v 6.9 0.1 -29.8
v 6.9 0.2 -29.5
v 6.9 0.2 -29.6
v 6.9 0.2 -29.8
v 6.9 0.2 -29.9
v 6.9 0.3 -29.6
v 6.9 0.3 -29.8
v 6.9 0.3 -29.9
v 6.9 0.4 -29.5
v 6.9 0.4 -29.6
v 6.9 0.4 -29.8
v 6.9 0.4 -29.9
v 6.9 0.5 -29.6
v 6.9 0.5 -29.8
v 6.4 0.2 -29.4
v 6.4 0.3 -29.4
v 6.4 0.4 -29.4
v 6.5 0.1 -29.4
v 6.5 0.2 -29.4
v 6.5 0.3 -29.4
v 6.5 0.4 -29.4
v 6.5 0.5 -29.4
v 6.6 0.1 -29.4
v 6.6 0.2 -29.4
v 6.6 0.4 -29.4
v 6.6 0.5 -29.4
v 6.7 0.1 -29.4
v 6.7 0.2 -29.4
v 6.7 0.4 -29.4
v 6.7 0.5 -29.4
v 6.8 0.2 -29.4
v 6.8 0.4 -29.4
v 6.3 0.2 -29.5
v 6.3 0.3 -29.5
v 6.3 0.4 -29.5
v 6.4 0.1 -29.5
v 6.4 0.2 -29.5
v 6.4 0.3 -29.5
v 6.4 0.4 -29.5
v 6.4 0.5 -29.5
v 6.5 0 -29.5
v 6.5 0.1 -29.5
v 6.5 0.2 -29.5
v 6.5 0.4 -29.5
v 6.5 0.5 -29.5
v 6.5 0.6 -29.5
v 6.6 0 -29.5
v 6.6 0.1 -29.5
v 6.6 0.5 -29.5
v 6.6 0.6 -29.5
v 6.7 0 -29.5
v 6.7 0.1 -29.5
v 6.7 0.2 -29.5
v 6.7 0.4 -29.5
v 6.7 0.5 -29.5
v 6.7 0.6 -29.5
v 6.8 0.1 -29.5
v 6.8 0.2 -29.5
v 6.8 0.4 -29.5
v 6.8 0.5 -29.5
v 6.9 0.2 -29.5
v 6.9 0.4 -29.5
v 6.3 0.1 -29.6
v 6.3 0.2 -29.6
v 6.3 0.4 -29.6
v 6.3 0.5 -29.6
v 6.4 0 -29.6
v 6.4 0.1 -29.6
v 6.4 0.2 -29.6
v 6.4 0.4 -29.6
v 6.4 0.5 -29.6
v 6.4 0.6 -29.6
v 6.5 0 -29.6
v 6.5 0.1 -29.6
v 6.5 0.5 -29.6
v 6.5 0.6 -29.6
v 6.7 0 -29.6
v 6.7 0.1 -29.6
v 6.7 0.5 -29.6
v 6.7 0.6 -29.6
v 6.8 0 -29.6
v 6.8 0.1 -29.6
v 6.8 0.2 -29.6
v 6.8 0.4 -29.6
v 6.8 0.5 -29.6
v 6.8 0.6 -29.6
v 6.9 0.1 -29.6
v 6.9 0.2 -29.6
v 6.9 0.4 -29.6
v 6.9 0.5 -29.6
v 6.3 0.1 -29.8
v 6.3 0.2 -29.8
v 6.3 0.4 -29.8
v 6.3 0.5 -29.8
v 6.4 0 -29.8
v 6.4 0.1 -29.8
v 6.4 0.2 -29.8
v 6.4 0.4 -29.8
v 6.4 0.5 -29.8
v 6.4 0.6 -29.8
v 6.5 0 -29.8
v 6.5 0.1 -29.8
v 6.5 0.5 -29.8
v 6.5 0.6 -29.8
v 6.7 0 -29.8
v 6.7 0.1 -29.8
v 6.7 0.5 -29.8
v 6.7 0.6 -29.8
v 6.8 0 -29.8
v 6.8 0.1 -29.8
v 6.8 0.2 -29.8
v 6.8 0.4 -29.8
v 6.8 0.5 -29.8
v 6.8 0.6 -29.8
v 6.9 0.1 -29.8
v 6.9 0.2 -29.8
v 6.9 0.4 -29.8
v 6.9 0.5 -29.8
v 6.3 0.2 -29.9
v 6.3 0.4 -29.9
v 6.4 0.1 -29.9
v 6.4 0.2 -29.9
v 6.4 0.3 -29.9
v 6.4 0.4 -29.9
v 6.4 0.5 -29.9
v 6.5 0 -29.9
v 6.5 0.1 -29.9
v 6.5 0.2 -29.9
v 6.5 0.4 -29.9
v 6.5 0.5 -29.9
v 6.5 0.6 -29.9
v 6.6 0.1 -29.9
v 6.6 0.5 -29.9
v 6.6 0.6 -29.9
v 6.7 0 -29.9
v 6.7 0.1 -29.9
v 6.7 0.2 -29.9
v 6.7 0.4 -29.9
v 6.7 0.5 -29.9
v 6.7 0.6 -29.9
v 6.8 0.1 -29.9
v 6.8 0.2 -29.9
v 6.8 0.3 -29.9
v 6.8 0.4 -29.9
v 6.8 0.5 -29.9
v 6.9 0.2 -29.9
v 6.9 0.3 -29.9
v 6.9 0.4 -29.9
v 6.4 0.2 -30
v 6.4 0.3 -30
v 6.4 0.4 -30
v 6.5 0.1 -30
v 6.5 0.2 -30
v 6.5 0.3 -30
v 6.5 0.4 -30
v 6.5 0.5 -30
v 6.6 0.1 -30
v 6.6 0.2 -30
v 6.6 0.3 -30
v 6.6 0.5 -30
v 6.7 0.1 -30
v 6.7 0.2 -30
v 6.7 0.4 -30
v 6.7 0.5 -30
v 6.8 0.2 -30
v 6.8 0.3 -30
v 6.8 0.4 -30
v 6.5 0 -29.5
v 6.6 0 -29.5
v 6.7 0 -29.5
v 6.4 0 -29.6
v 6.5 0 -29.6
v 6.7 0 -29.6
v 6.8 0 -29.6
v 6.5 0 -29.7
v 6.6 0 -29.7
v 6.4 0 -29.8
v 6.5 0 -29.8
v 6.7 0 -29.8
v 6.8 0 -29.8
v 6.5 0 -29.9
v 6.7 0 -29.9
v 6.5 0.1 -29.4
v 6.6 0.1 -29.4
v 6.7 0.1 -29.4
v 6.4 0.1 -29.5
v 6.5 0.1 -29.5
v 6.6 0.1 -29.5
v 6.7 0.1 -29.5
v 6.8 0.1 -29.5
v 6.3 0.1 -29.6
v 6.4 0.1 -29.6
v 6.5 0.1 -29.6
v 6.7 0.1 -29.6
v 6.8 0.1 -29.6
v 6.9 0.1 -29.6
v 6.3 0.1 -29.8
v 6.4 0.1 -29.8
v 6.5 0.1 -29.8
v 6.7 0.1 -29.8
v 6.8 0.1 -29.8
v 6.9 0.1 -29.8
v 6.4 0.1 -29.9
v 6.5 0.1 -29.9
v 6.6 0.1 -29.9
v 6.7 0.1 -29.9
v 6.8 0.1 -29.9
v 6.5 0.1 -30
v 6.6 0.1 -30
v 6.7 0.1 -30
v 6.4 0.2 -29.4
v 6.5 0.2 -29.4
v 6.7 0.2 -29.4
v 6.8 0.2 -29.4
v 6.3 0.2 -29.5
v 6.4 0.2 -29.5
v 6.5 0.2 -29.5
v 6.7 0.2 -29.5
v 6.8 0.2 -29.5
v 6.9 0.2 -29.5
v 6.3 0.2 -29.6
v 6.4 0.2 -29.6
v 6.8 0.2 -29.6
v 6.9 0.2 -29.6
v 6.3 0.2 -29.8
v 6.4 0.2 -29.8
v 6.8 0.2 -29.8
v 6.9 0.2 -29.8
v 6.3 0.2 -29.9
v 6.4 0.2 -29.9
v 6.5 0.2 -29.9
v 6.7 0.2 -29.9
v 6.8 0.2 -29.9
v 6.9 0.2 -29.9
v 6.4 0.2 -30
v 6.5 0.2 -30
v 6.7 0.2 -30
v 6.8 0.2 -30
v 6.4 0.4 -29.4
v 6.5 0.4 -29.4
v 6.7 0.4 -29.4
v 6.8 0.4 -29.4
v 6.3 0.4 -29.5
v 6.4 0.4 -29.5
v 6.5 0.4 -29.5
v 6.7 0.4 -29.5
v 6.8 0.4 -29.5
v 6.9 0.4 -29.5
v 6.3 0.4 -29.6
v 6.4 0.4 -29.6
v 6.8 0.4 -29.6
v 6.9 0.4 -29.6
v 6.3 0.4 -29.8
v 6.4 0.4 -29.8
v 6.8 0.4 -29.8
v 6.9 0.4 -29.8
v 6.3 0.4 -29.9
v 6.4 0.4 -29.9
v 6.5 0.4 -29.9
v 6.7 0.4 -29.9
v 6.8 0.4 -29.9
v 6.9 0.4 -29.9
v 6.4 0.4 -30
v 6.5 0.4 -30
v 6.7 0.4 -30
v 6.8 0.4 -30
v 6.5 0.5 -29.4
v 6.6 0.5 -29.4
v 6.7 0.5 -29.4
v 6.4 0.5 -29.5
v 6.5 0.5 -29.5
v 6.6 0.5 -29.5
v 6.7 0.5 -29.5
v 6.8 0.5 -29.5
v 6.3 0.5 -29.6
v 6.4 0.5 -29.6
v 6.5 0.5 -29.6
v 6.7 0.5 -29.6
v 6.8 0.5 -29.6
v 6.9 0.5 -29.6
v 6.3 0.5 -29.7
v 6.4 0.5 -29.7
v 6.3 0.5 -29.8
v 6.4 0.5 -29.8
v 6.5 0.5 -29.8
v 6.7 0.5 -29.8
v 6.8 0.5 -29.8
v 6.9 0.5 -29.8
v 6.4 0.5 -29.9
v 6.5 0.5 -29.9
v 6.6 0.5 -29.9
v 6.7 0.5 -29.9
v 6.8 0.5 -29.9
v 6.5 0.5 -30
v 6.6 0.5 -30
v 6.7 0.5 -30
v 6.5 0.6 -29.5
v 6.6 0.6 -29.5
v 6.7 0.6 -29.5
v 6.4 0.6 -29.6
v 6.5 0.6 -29.6
v 6.6 0.6 -29.6
v 6.7 0.6 -29.6
v 6.8 0.6 -29.6
v 6.5 0.6 -29.7
v 6.6 0.6 -29.7
v 6.4 0.6 -29.8
v 6.5 0.6 -29.8
v 6.6 0.6 -29.8
v 6.7 0.6 -29.8
v 6.8 0.6 -29.8
v 6.5 0.6 -29.9
v 6.6 0.6 -29.9
v 6.7 0.6 -29.9

# faces
f 4/1/1 2/1/1 1/1/1
f 5/1/1 2/1/1 4/1/1
f 7/2/1 4/2/1 3/2/1
f 7/2/1 6/2/1 5/2/1
f 7/2/1 5/2/1 4/2/1
f 8/2/1 6/2/1 7/2/1
f 9/1/1 8/1/1 7/1/1
f 10/1/1 8/1/1 9/1/1
f 11/2/1 6/2/1 8/2/1
f 11/1/1 8/1/1 10/1/1
f 12/2/1 6/2/1 11/2/1
f 13/2/1 6/2/1 12/2/1
f 14/2/1 11/2/1 10/2/1
f 15/1/1 12/1/1 11/1/1
f 15/2/1 11/2/1 14/2/1
f 16/1/1 12/1/1 15/1/1
f 20/1/1 18/1/1 17/1/1
f 21/1/1 18/1/1 20/1/1
f 24/1/1 20/1/1 19/1/1
f 25/1/1 20/1/1 24/1/1
f 26/1/1 22/1/1 21/1/1
f 27/1/1 22/1/1 26/1/1
f 29/2/1 24/2/1 23/2/1
f 30/2/1 24/2/1 29/2/1
f 31/1/1 28/1/1 27/1/1
f 32/1/1 28/1/1 31/1/1
f 33/1/1 30/1/1 29/1/1
f 34/1/1 30/1/1 33/1/1
f 37/2/1 32/2/1 31/2/1
f 38/2/1 32/2/1 37/2/1
f 39/2/1 35/2/1 34/2/1
f 40/2/1 35/2/1 39/2/1
f 42/1/1 37/1/1 36/1/1
f 43/1/1 37/1/1 42/1/1
f 44/1/1 41/1/1 40/1/1
f 44/1/1 42/1/1 41/1/1
f 45/1/1 42/1/1 44/1/1
f 51/1/1 47/1/1 46/1/1
f 52/1/1 47/1/1 51/1/1
f 53/2/1 49/2/1 48/2/1
f 54/2/1 49/2/1 53/2/1
f 56/1/1 51/1/1 50/1/1
f 57/1/1 51/1/1 56/1/1
f 58/2/1 55/2/1 54/2/1
f 59/2/1 55/2/1 58/2/1
f 64/2/1 61/2/1 60/2/1
f 65/2/1 61/2/1 64/2/1
f 68/1/1 63/1/1 62/1/1
f 69/1/1 63/1/1 68/1/1
f 70/2/1 66/2/1 65/2/1
f 71/2/1 66/2/1 70/2/1
f 72/1/1 68/1/1 67/1/1
f 73/1/1 68/1/1 72/1/1
f 74/2/2 75/2/2 79/2/2
f 79/2/2 75/2/2 80/2/2
f 76/2/2 77/2/2 81/2/2
f 81/2/2 77/2/2 82/2/2
f 78/2/2 79/2/2 84/2/2
f 84/2/2 79/2/2 85/2/2
f 82/1/2 83/1/2 86/1/2
f 86/1/2 83/1/2 87/1/2
f 88/1/2 89/1/2 92/1/2
f 92/1/2 89/1/2 93/1/2
f 90/2/2 91/2/2 96/2/2
f 96/2/2 91/2/2 97/2/2
f 93/1/2 94/1/2 98/1/2
f 98/1/2 94/1/2 99/1/2
f 95/2/2 96/2/2 100/2/2
f 100/2/2 96/2/2 101/2/2
f 102/1/2 103/1/2 105/1/2
f 105/1/2 103/1/2 106/1/2
f 104/1/2 105/1/2 109/1/2
f 109/1/2 105/1/2 110/1/2
f 106/2/2 107/2/2 111/2/2
f 111/2/2 107/2/2 112/2/2
f 112/1/2 113/1/2 114/1/2
f 114/1/2 113/1/2 115/1/2
f 108/1/2 109/1/2 116/1/2
f 116/1/2 109/1/2 117/1/2
f 114/2/2 115/2/2 120/2/2
f 120/2/2 115/2/2 121/2/2
f 117/2/2 118/2/2 122/2/2
f 122/2/2 118/2/2 123/2/2
f 119/2/2 120/2/2 124/2/2
f 124/2/2 120/2/2 125/2/2
f 123/2/2 124/2/2 126/2/2
f 126/2/2 124/2/2 127/2/2
f 128/1/2 129/1/2 131/1/2
f 131/1/2 129/1/2 132/1/2
f 130/2/2 131/2/2 134/2/2
f 131/1/2 132/1/2 134/1/2
f 132/2/2 133/2/2 135/2/2
f 134/1/2 132/1/2 135/1/2
f 135/2/2 133/2/2 136/2/2
f 130/2/2 134/2/2 137/2/2
f 134/2/2 135/2/2 137/2/2
f 137/2/2 135/2/2 138/2/2
f 135/1/2 136/1/2 139/1/2
f 138/2/2 135/2/2 139/2/2
f 139/1/2 136/1/2 140/1/2
f 138/1/2 139/1/2 141/1/2
f 141/1/2 139/1/2 142/1/2
f 147/2/3 144/2/3 143/2/3
f 148/1/3 145/1/3 144/1/3
f 148/2/3 144/2/3 147/2/3
f 149/1/3 145/1/3 148/1/3
f 151/1/3 147/1/3 146/1/3
f 151/1/3 148/1/3 147/1/3
f 151/1/3 149/1/3 148/1/3
f 152/1/3 149/1/3 151/1/3
f 153/2/3 150/2/3 149/2/3
f 153/1/3 149/1/3 152/1/3
f 154/2/3 150/2/3 153/2/3
f 155/2/3 152/2/3 151/2/3
f 156/1/3 153/1/3 152/1/3
f 156/2/3 152/2/3 155/2/3
f 156/1/3 154/1/3 153/1/3
f 157/1/3 154/1/3 156/1/3
f 158/1/3 154/1/3 157/1/3
f 159/1/3 157/1/3 156/1/3
f 160/1/3 157/1/3 159/1/3
f 165/2/3 162/2/3 161/2/3
f 166/1/3 163/1/3 162/1/3
f 166/2/3 162/2/3 165/2/3
f 167/1/3 163/1/3 166/1/3
f 170/1/3 165/1/3 164/1/3
f 171/1/3 165/1/3 170/1/3
f 172/2/3 168/2/3 167/2/3
f 173/2/3 168/2/3 172/2/3
f 175/1/3 170/1/3 169/1/3
f 176/1/3 170/1/3 175/1/3
f 177/2/3 174/2/3 173/2/3
f 178/2/3 174/2/3 177/2/3
f 179/2/3 176/2/3 175/2/3
f 180/2/3 176/2/3 179/2/3
f 183/1/3 178/1/3 177/1/3
f 184/1/3 178/1/3 183/1/3
f 185/1/3 181/1/3 180/1/3
f 186/1/3 181/1/3 185/1/3
f 187/2/3 183/2/3 182/2/3
f 188/2/3 183/2/3 187/2/3
f 189/2/3 187/2/3 186/2/3
f 190/2/3 187/2/3 189/2/3
f 196/1/3 192/1/3 191/1/3
f 197/1/3 192/1/3 196/1/3
f 198/2/3 194/2/3 193/2/3
f 199/2/3 194/2/3 198/2/3
f 201/1/3 196/1/3 195/1/3
f 202/1/3 196/1/3 201/1/3
f 203/1/3 200/1/3 199/1/3
f 204/1/3 200/1/3 203/1/3
f 209/1/3 206/1/3 205/1/3
f 210/1/3 206/1/3 209/1/3
f 213/2/3 208/2/3 207/2/3
f 214/2/3 208/2/3 213/2/3
f 215/1/3 211/1/3 210/1/3
f 216/1/3 211/1/3 215/1/3
f 217/1/3 213/1/3 212/1/3
f 218/1/3 213/1/3 217/1/3
f 219/1/4 220/1/4 224/1/4
f 224/1/4 220/1/4 225/1/4
f 221/1/4 222/1/4 226/1/4
f 226/1/4 222/1/4 227/1/4
f 223/1/4 224/1/4 229/1/4
f 229/1/4 224/1/4 230/1/4
f 227/1/4 228/1/4 231/1/4
f 231/1/4 228/1/4 232/1/4
f 233/1/4 234/1/4 237/1/4
f 237/1/4 234/1/4 238/1/4
f 235/2/4 236/2/4 241/2/4
f 241/2/4 236/2/4 242/2/4
f 238/1/4 239/1/4 243/1/4
f 243/1/4 239/1/4 244/1/4
f 240/1/4 241/1/4 245/1/4
f 245/1/4 241/1/4 246/1/4
f 247/2/4 248/2/4 250/2/4
f 250/2/4 248/2/4 251/2/4
f 251/2/4 248/2/4 252/2/4
f 249/1/4 250/1/4 255/1/4
f 255/1/4 250/1/4 256/1/4
f 252/1/4 253/1/4 257/1/4
f 257/1/4 253/1/4 258/1/4
f 254/2/4 255/2/4 260/2/4
f 258/1/4 259/1/4 261/1/4
f 261/1/4 259/1/4 262/1/4
f 254/2/4 260/2/4 263/2/4
f 263/2/4 260/2/4 264/2/4
f 261/2/4 262/2/4 267/2/4
f 267/2/4 262/2/4 268/2/4
f 264/2/4 265/2/4 269/2/4
f 269/2/4 265/2/4 270/2/4
f 266/2/4 267/2/4 272/2/4
f 272/2/4 267/2/4 273/2/4
f 270/2/4 271/2/4 274/2/4
f 271/1/4 272/1/4 275/1/4
f 274/2/4 271/2/4 275/2/4
f 275/1/4 272/1/4 276/1/4
f 277/1/4 278/1/4 281/1/4
f 278/2/4 279/2/4 282/2/4
f 281/1/4 278/1/4 282/1/4
f 282/2/4 279/2/4 283/2/4
f 280/2/4 281/2/4 285/2/4
f 283/1/4 284/1/4 286/1/4
f 285/2/4 281/2/4 286/2/4
f 281/1/4 282/1/4 286/1/4
f 282/1/4 283/1/4 286/1/4
f 286/1/4 284/1/4 287/1/4
f 287/1/4 284/1/4 288/1/4
f 285/1/4 286/1/4 289/1/4
f 286/1/4 287/1/4 289/1/4
f 289/1/4 287/1/4 290/1/4
f 287/2/4 288/2/4 291/2/4
f 291/2/4 288/2/4 292/2/4
f 290/1/4 287/1/4 293/1/4
f 287/2/4 291/2/4 294/2/4
f 293/1/4 287/1/4 294/1/4
f 294/2/4 291/2/4 295/2/4
f 300/1/5 297/1/5 296/1/5
f 301/2/5 298/2/5 297/2/5
f 303/1/5 300/1/5 299/1/5
f 303/1/5 297/1/5 300/1/5
f 304/2/5 301/2/5 297/2/5
f 304/1/5 297/1/5 303/1/5
f 305/1/5 303/1/5 299/1/5
f 306/2/5 304/2/5 303/2/5
f 306/1/5 303/1/5 305/1/5
f 307/1/5 302/1/5 301/1/5
f 307/2/5 304/2/5 306/2/5
f 307/2/5 301/2/5 304/2/5
f 308/1/5 302/1/5 307/1/5
f 309/2/5 307/2/5 306/2/5
f 310/2/5 307/2/5 309/2/5
f 315/1/5 312/1/5 311/1/5
f 316/2/5 313/2/5 312/2/5
f 316/1/5 312/1/5 315/1/5
f 317/2/5 313/2/5 316/2/5
f 320/1/5 315/1/5 314/1/5
f 321/1/5 315/1/5 320/1/5
f 322/1/5 318/1/5 317/1/5
f 323/1/5 318/1/5 322/1/5
f 325/1/5 320/1/5 319/1/5
f 326/1/5 320/1/5 325/1/5
f 329/1/5 324/1/5 323/1/5
f 330/1/5 324/1/5 329/1/5
f 331/1/5 327/1/5 326/1/5
f 332/1/5 327/1/5 331/1/5
f 334/2/5 329/2/5 328/2/5
f 335/2/5 329/2/5 334/2/5
f 336/2/5 333/2/5 332/2/5
f 337/1/5 334/1/5 333/1/5
f 337/2/5 333/2/5 336/2/5
f 338/1/5 334/1/5 337/1/5
f 344/2/5 340/2/5 339/2/5
f 345/2/5 340/2/5 344/2/5
f 346/1/5 342/1/5 341/1/5
f 347/1/5 342/1/5 346/1/5
f 349/2/5 344/2/5 343/2/5
f 350/2/5 344/2/5 349/2/5
f 351/2/5 348/2/5 347/2/5
f 352/2/5 348/2/5 351/2/5
f 357/2/5 354/2/5 353/2/5
f 358/2/5 354/2/5 357/2/5
f 361/2/5 356/2/5 355/2/5
f 362/2/5 356/2/5 361/2/5
f 363/1/5 359/1/5 358/1/5
f 364/1/5 359/1/5 363/1/5
f 365/1/5 361/1/5 360/1/5
f 366/1/5 361/1/5 365/1/5
f 367/1/6 368/1/6 372/1/6
f 372/1/6 368/1/6 373/1/6
f 369/1/6 370/1/6 374/1/6
f 374/1/6 370/1/6 375/1/6
f 371/1/6 372/1/6 377/1/6
f 377/1/6 372/1/6 378/1/6
f 375/2/6 376/2/6 379/2/6
f 379/2/6 376/2/6 380/2/6
f 381/2/6 382/2/6 385/2/6
f 385/2/6 382/2/6 386/2/6
f 383/1/6 384/1/6 389/1/6
f 389/1/6 384/1/6 390/1/6
f 386/2/6 387/2/6 391/2/6
f 391/2/6 387/2/6 392/2/6
f 388/2/6 389/2/6 393/2/6
f 393/2/6 389/2/6 394/2/6
f 395/2/6 396/2/6 399/2/6
f 396/1/6 397/1/6 400/1/6
f 399/2/6 396/2/6 400/2/6
f 400/1/6 397/1/6 401/1/6
f 398/2/6 399/2/6 404/2/6
f 404/2/6 399/2/6 405/2/6
f 401/2/6 402/2/6 406/2/6
f 406/2/6 402/2/6 407/2/6
f 403/2/6 404/2/6 409/2/6
f 409/2/6 404/2/6 410/2/6
f 409/1/6 410/1/6 411/1/6
f 411/1/6 410/1/6 412/1/6
f 407/1/6 408/1/6 415/1/6
f 415/1/6 408/1/6 416/1/6
f 412/1/6 413/1/6 417/1/6
f 417/1/6 413/1/6 418/1/6
f 414/2/6 415/2/6 420/2/6
f 420/2/6 415/2/6 421/2/6
f 418/1/6 419/1/6 422/1/6
f 419/2/6 420/2/6 423/2/6
f 422/1/6 419/1/6 423/1/6
f 423/2/6 420/2/6 424/2/6
f 425/2/6 426/2/6 429/2/6
f 426/1/6 427/1/6 430/1/6
f 429/2/6 426/2/6 430/2/6
f 430/1/6 427/1/6 431/1/6
f 428/1/6 429/1/6 433/1/6
f 429/1/6 430/1/6 433/1/6
f 430/1/6 431/1/6 433/1/6
f 433/1/6 431/1/6 434/1/6
f 428/1/6 433/1/6 435/1/6
f 433/2/6 434/2/6 436/2/6
f 435/1/6 433/1/6 436/1/6
f 434/1/6 431/1/6 437/1/6
f 436/2/6 434/2/6 437/2/6
f 431/2/6 432/2/6 438/2/6
f 437/1/6 431/1/6 438/1/6
f 438/2/6 432/2/6 439/2/6
f 436/1/6 437/1/6 440/1/6
f 437/2/6 438/2/6 441/2/6
f 440/1/6 437/1/6 441/1/6
f 441/2/6 438/2/6 442/2/6
