# MagicaVoxel @ Ephtracy

# group
o 

# material
mtllib planetas-41.mtl
usemtl palette

# normals
vn -1 0 0
vn 1 0 0
vn 0 0 1
vn 0 0 -1
vn 0 -1 0
vn 0 1 0

# texcoords
vt 0.0957031 0.5
vt 0.103516 0.5
vt 0.986328 0.5

# verts
v -0.4 0.2 -5.9
v -0.4 0.2 -6
v -0.4 0.2 -6.1
v -0.4 0.3 -5.8
v -0.4 0.3 -5.9
v -0.4 0.3 -6
v -0.4 0.3 -6.1
v -0.4 0.3 -6.2
v -0.4 0.4 -5.8
v -0.4 0.4 -5.9
v -0.4 0.4 -6
v -0.4 0.4 -6.1
v -0.4 0.5 -5.8
v -0.4 0.5 -5.9
v -0.4 0.5 -6
v -0.4 0.5 -6.1
v -0.4 0.5 -6.2
v -0.4 0.6 -5.9
v -0.4 0.6 -6
v -0.4 0.6 -6.1
v -0.3 0.1 -5.8
v -0.3 0.1 -6.1
v -0.3 0.1 -6.2
v -0.3 0.2 -5.7
v -0.3 0.2 -5.8
v -0.3 0.2 -5.9
v -0.3 0.2 -6
v -0.3 0.2 -6.1
v -0.3 0.2 -6.2
v -0.3 0.2 -6.3
v -0.3 0.3 -5.7
v -0.3 0.3 -5.8
v -0.3 0.3 -5.9
v -0.3 0.3 -6.1
v -0.3 0.3 -6.2
v -0.3 0.4 -5.8
v -0.3 0.5 -5.8
v -0.3 0.5 -5.9
v -0.3 0.5 -6.1
v -0.3 0.5 -6.2
v -0.3 0.6 -5.7
v -0.3 0.6 -5.8
v -0.3 0.6 -5.9
v -0.3 0.6 -6
v -0.3 0.6 -6.1
v -0.3 0.6 -6.2
v -0.3 0.6 -6.3
v -0.3 0.7 -5.8
v -0.3 0.7 -6.2
v -0.2 0 -5.9
v -0.2 0 -6
v -0.2 0 -6.1
v -0.2 0.1 -5.7
v -0.2 0.1 -5.8
v -0.2 0.1 -5.9
v -0.2 0.1 -6
v -0.2 0.1 -6.1
v -0.2 0.1 -6.2
v -0.2 0.1 -6.3
v -0.2 0.2 -5.7
v -0.2 0.2 -5.8
v -0.2 0.2 -6.2
v -0.2 0.2 -6.3
v -0.2 0.3 -5.6
v -0.2 0.3 -5.7
v -0.2 0.3 -6.3
v -0.2 0.3 -6.4
v -0.2 0.5 -5.6
v -0.2 0.5 -5.7
v -0.2 0.5 -6.3
v -0.2 0.5 -6.4
v -0.2 0.6 -5.7
v -0.2 0.6 -5.8
v -0.2 0.6 -6.2
v -0.2 0.6 -6.3
v -0.2 0.7 -5.7
v -0.2 0.7 -5.8
v -0.2 0.7 -5.9
v -0.2 0.7 -6
v -0.2 0.7 -6.1
v -0.2 0.7 -6.2
v -0.2 0.7 -6.3
v -0.2 0.8 -5.9
v -0.2 0.8 -6
v -0.2 0.8 -6.1
v -0.1 0 -5.8
v -0.1 0 -5.9
v -0.1 0 -6.1
v -0.1 0 -6.2
v -0.1 0.1 -5.8
v -0.1 0.1 -5.9
v -0.1 0.1 -6.1
v -0.1 0.1 -6.2
v -0.1 0.2 -5.6
v -0.1 0.2 -5.7
v -0.1 0.2 -6.3
v -0.1 0.2 -6.4
v -0.1 0.3 -5.6
v -0.1 0.3 -5.7
v -0.1 0.3 -6.3
v -0.1 0.3 -6.4
v -0.1 0.5 -5.6
v -0.1 0.5 -5.7
v -0.1 0.5 -6.3
v -0.1 0.5 -6.4
v -0.1 0.6 -5.6
v -0.1 0.6 -5.7
v -0.1 0.6 -6.3
v -0.1 0.6 -6.4
v -0.1 0.7 -5.8
v -0.1 0.7 -5.9
v -0.1 0.7 -6.1
v -0.1 0.7 -6.2
v -0.1 0.8 -5.8
v -0.1 0.8 -5.9
v -0.1 0.8 -6.1
v -0.1 0.8 -6.2
v 0.1 0 -5.8
v 0.1 0 -5.9
v 0.1 0 -6.1
v 0.1 0 -6.2
v 0.1 0.1 -5.8
v 0.1 0.1 -5.9
v 0.1 0.1 -6.1
v 0.1 0.1 -6.2
v 0.1 0.2 -5.6
v 0.1 0.2 -5.7
v 0.1 0.2 -6.3
v 0.1 0.2 -6.4
v 0.1 0.3 -5.6
v 0.1 0.3 -5.7
v 0.1 0.3 -6.3
v 0.1 0.3 -6.4
v 0.1 0.5 -5.6
v 0.1 0.5 -5.7
v 0.1 0.5 -6.3
v 0.1 0.5 -6.4
v 0.1 0.6 -5.6
v 0.1 0.6 -5.7
v 0.1 0.6 -6.3
v 0.1 0.6 -6.4
v 0.1 0.7 -5.8
v 0.1 0.7 -5.9
v 0.1 0.7 -6.1
v 0.1 0.7 -6.2
v 0.1 0.8 -5.8
v 0.1 0.8 -5.9
v 0.1 0.8 -6.1
v 0.1 0.8 -6.2
v 0.2 0 -5.9
v 0.2 0 -6.1
v 0.2 0.1 -5.7
v 0.2 0.1 -5.8
v 0.2 0.1 -5.9
v 0.2 0.1 -6.1
v 0.2 0.1 -6.2
v 0.2 0.1 -6.3
v 0.2 0.2 -5.7
v 0.2 0.2 -5.8
v 0.2 0.2 -6.2
v 0.2 0.2 -6.3
v 0.2 0.3 -5.6
v 0.2 0.3 -5.7
v 0.2 0.3 -6.3
v 0.2 0.3 -6.4
v 0.2 0.4 -5.7
v 0.2 0.5 -5.6
v 0.2 0.5 -5.7
v 0.2 0.5 -6.3
v 0.2 0.5 -6.4
v 0.2 0.6 -5.7
v 0.2 0.6 -5.8
v 0.2 0.6 -6.2
v 0.2 0.6 -6.3
v 0.2 0.7 -5.7
v 0.2 0.7 -5.8
v 0.2 0.7 -5.9
v 0.2 0.7 -6.1
v 0.2 0.7 -6.2
v 0.2 0.7 -6.3
v 0.2 0.8 -5.9
v 0.2 0.8 -6.1
v 0.3 0.1 -5.8
v 0.3 0.1 -6.2
v 0.3 0.2 -5.7
v 0.3 0.2 -5.8
v 0.3 0.2 -5.9
v 0.3 0.2 -6
v 0.3 0.2 -6.1
v 0.3 0.2 -6.2
v 0.3 0.2 -6.3
v 0.3 0.3 -5.8
v 0.3 0.3 -5.9
v 0.3 0.3 -6.1
v 0.3 0.3 -6.2
v 0.3 0.3 -6.3
v 0.3 0.4 -5.7
v 0.3 0.4 -5.8
v 0.3 0.4 -6.2
v 0.3 0.5 -5.7
v 0.3 0.5 -5.8
v 0.3 0.5 -5.9
v 0.3 0.5 -6.1
v 0.3 0.5 -6.2
v 0.3 0.6 -5.7
v 0.3 0.6 -5.8
v 0.3 0.6 -5.9
v 0.3 0.6 -6.1
v 0.3 0.6 -6.2
v 0.3 0.6 -6.3
v 0.3 0.7 -5.8
v 0.3 0.7 -5.9
v 0.3 0.7 -6.2
v 0.4 0.2 -5.9
v 0.4 0.2 -6
v 0.4 0.2 -6.1
v 0.4 0.3 -5.8
v 0.4 0.3 -5.9
v 0.4 0.3 -6
v 0.4 0.3 -6.1
v 0.4 0.3 -6.2
v 0.4 0.4 -5.8
v 0.4 0.4 -5.9
v 0.4 0.4 -6.1
v 0.4 0.4 -6.2
v 0.4 0.5 -5.8
v 0.4 0.5 -5.9
v 0.4 0.5 -6.1
v 0.4 0.5 -6.2
v 0.4 0.6 -5.9
v 0.4 0.6 -6.1
v -0.2 0.3 -5.6
v -0.2 0.5 -5.6
v -0.1 0.2 -5.6
v -0.1 0.3 -5.6
v -0.1 0.4 -5.6
v -0.1 0.5 -5.6
v -0.1 0.6 -5.6
v 0 0.5 -5.6
v 0 0.6 -5.6
v 0.1 0.2 -5.6
v 0.1 0.3 -5.6
v 0.1 0.4 -5.6
v 0.1 0.5 -5.6
v 0.1 0.6 -5.6
v 0.2 0.3 -5.6
v 0.2 0.5 -5.6
v -0.3 0.2 -5.7
v -0.3 0.3 -5.7
v -0.3 0.6 -5.7
v -0.2 0.1 -5.7
v -0.2 0.2 -5.7
v -0.2 0.3 -5.7
v -0.2 0.5 -5.7
v -0.2 0.6 -5.7
v -0.2 0.7 -5.7
v -0.1 0.1 -5.7
v -0.1 0.2 -5.7
v -0.1 0.3 -5.7
v -0.1 0.5 -5.7
v -0.1 0.6 -5.7
v 0 0.1 -5.7
v 0 0.2 -5.7
v 0 0.6 -5.7
v 0.1 0.1 -5.7
v 0.1 0.2 -5.7
v 0.1 0.3 -5.7
v 0.1 0.5 -5.7
v 0.1 0.6 -5.7
v 0.2 0.1 -5.7
v 0.2 0.2 -5.7
v 0.2 0.3 -5.7
v 0.2 0.4 -5.7
v 0.2 0.5 -5.7
v 0.2 0.6 -5.7
v 0.2 0.7 -5.7
v 0.3 0.2 -5.7
v 0.3 0.4 -5.7
v 0.3 0.5 -5.7
v 0.3 0.6 -5.7
v -0.4 0.3 -5.8
v -0.4 0.4 -5.8
v -0.4 0.5 -5.8
v -0.3 0.1 -5.8
v -0.3 0.2 -5.8
v -0.3 0.3 -5.8
v -0.3 0.4 -5.8
v -0.3 0.5 -5.8
v -0.3 0.6 -5.8
v -0.3 0.7 -5.8
v -0.2 0.1 -5.8
v -0.2 0.2 -5.8
v -0.2 0.6 -5.8
v -0.2 0.7 -5.8
v -0.1 0 -5.8
v -0.1 0.1 -5.8
v -0.1 0.7 -5.8
v -0.1 0.8 -5.8
v 0 0 -5.8
v 0 0.1 -5.8
v 0 0.7 -5.8
v 0 0.8 -5.8
v 0.1 0 -5.8
v 0.1 0.1 -5.8
v 0.1 0.7 -5.8
v 0.1 0.8 -5.8
v 0.2 0.1 -5.8
v 0.2 0.2 -5.8
v 0.2 0.6 -5.8
v 0.2 0.7 -5.8
v 0.3 0.1 -5.8
v 0.3 0.2 -5.8
v 0.3 0.3 -5.8
v 0.3 0.4 -5.8
v 0.3 0.5 -5.8
v 0.3 0.6 -5.8
v 0.3 0.7 -5.8
v 0.4 0.3 -5.8
v 0.4 0.4 -5.8
v 0.4 0.5 -5.8
v -0.4 0.2 -5.9
v -0.4 0.3 -5.9
v -0.4 0.5 -5.9
v -0.4 0.6 -5.9
v -0.3 0.2 -5.9
v -0.3 0.3 -5.9
v -0.3 0.5 -5.9
v -0.3 0.6 -5.9
v -0.2 0 -5.9
v -0.2 0.1 -5.9
v -0.2 0.7 -5.9
v -0.2 0.8 -5.9
v -0.1 0 -5.9
v -0.1 0.1 -5.9
v -0.1 0.7 -5.9
v -0.1 0.8 -5.9
v 0.1 0 -5.9
v 0.1 0.1 -5.9
v 0.1 0.7 -5.9
v 0.1 0.8 -5.9
v 0.2 0 -5.9
v 0.2 0.1 -5.9
v 0.2 0.7 -5.9
v 0.2 0.8 -5.9
v 0.3 0.2 -5.9
v 0.3 0.3 -5.9
v 0.3 0.5 -5.9
v 0.3 0.6 -5.9
v 0.4 0.2 -5.9
v 0.4 0.3 -5.9
v 0.4 0.5 -5.9
v 0.4 0.6 -5.9
v -0.4 0.2 -6.1
v -0.4 0.3 -6.1
v -0.4 0.5 -6.1
v -0.4 0.6 -6.1
v -0.3 0.2 -6.1
v -0.3 0.3 -6.1
v -0.3 0.5 -6.1
v -0.3 0.6 -6.1
v -0.2 0 -6.1
v -0.2 0.1 -6.1
v -0.2 0.7 -6.1
v -0.2 0.8 -6.1
v -0.1 0 -6.1
v -0.1 0.1 -6.1
v -0.1 0.7 -6.1
v -0.1 0.8 -6.1
v 0.1 0 -6.1
v 0.1 0.1 -6.1
v 0.1 0.7 -6.1
v 0.1 0.8 -6.1
v 0.2 0 -6.1
v 0.2 0.1 -6.1
v 0.2 0.7 -6.1
v 0.2 0.8 -6.1
v 0.3 0.2 -6.1
v 0.3 0.3 -6.1
v 0.3 0.5 -6.1
v 0.3 0.6 -6.1
v 0.4 0.2 -6.1
v 0.4 0.3 -6.1
v 0.4 0.5 -6.1
v 0.4 0.6 -6.1
v -0.4 0.3 -6.2
v -0.4 0.5 -6.2
v -0.3 0.1 -6.2
v -0.3 0.2 -6.2
v -0.3 0.3 -6.2
v -0.3 0.5 -6.2
v -0.3 0.6 -6.2
v -0.3 0.7 -6.2
v -0.2 0.1 -6.2
v -0.2 0.2 -6.2
v -0.2 0.6 -6.2
v -0.2 0.7 -6.2
v -0.1 0 -6.2
v -0.1 0.1 -6.2
v -0.1 0.7 -6.2
v -0.1 0.8 -6.2
v 0 0.7 -6.2
v 0 0.8 -6.2
v 0.1 0 -6.2
v 0.1 0.1 -6.2
v 0.1 0.7 -6.2
v 0.1 0.8 -6.2
v 0.2 0.1 -6.2
v 0.2 0.2 -6.2
v 0.2 0.6 -6.2
v 0.2 0.7 -6.2
v 0.3 0.1 -6.2
v 0.3 0.2 -6.2
v 0.3 0.3 -6.2
v 0.3 0.4 -6.2
v 0.3 0.5 -6.2
v 0.3 0.6 -6.2
v 0.3 0.7 -6.2
v 0.4 0.3 -6.2
v 0.4 0.4 -6.2
v 0.4 0.5 -6.2
v -0.3 0.2 -6.3
v -0.3 0.6 -6.3
v -0.2 0.1 -6.3
v -0.2 0.2 -6.3
v -0.2 0.3 -6.3
v -0.2 0.5 -6.3
v -0.2 0.6 -6.3
v -0.2 0.7 -6.3
v -0.1 0.1 -6.3
v -0.1 0.2 -6.3
v -0.1 0.3 -6.3
v -0.1 0.5 -6.3
v -0.1 0.6 -6.3
v -0.1 0.7 -6.3
v 0 0.6 -6.3
v 0.1 0.1 -6.3
v 0.1 0.2 -6.3
v 0.1 0.3 -6.3
v 0.1 0.5 -6.3
v 0.1 0.6 -6.3
v 0.2 0.1 -6.3
v 0.2 0.2 -6.3
v 0.2 0.3 -6.3
v 0.2 0.5 -6.3
v 0.2 0.6 -6.3
v 0.2 0.7 -6.3
v 0.3 0.2 -6.3
v 0.3 0.3 -6.3
v 0.3 0.6 -6.3
v -0.2 0.3 -6.4
v -0.2 0.5 -6.4
v -0.1 0.2 -6.4
v -0.1 0.3 -6.4
v -0.1 0.5 -6.4
v -0.1 0.6 -6.4
v 0 0.5 -6.4
v 0 0.6 -6.4
v 0.1 0.2 -6.4
v 0.1 0.3 -6.4
v 0.1 0.5 -6.4
v 0.1 0.6 -6.4
v 0.2 0.3 -6.4
v 0.2 0.5 -6.4
v -0.1 0 -5.8
v 0 0 -5.8
v 0.1 0 -5.8
v -0.2 0 -5.9
v -0.1 0 -5.9
v 0 0 -5.9
v 0.1 0 -5.9
v 0.2 0 -5.9
v -0.2 0 -6
v -0.1 0 -6
v -0.2 0 -6.1
v -0.1 0 -6.1
v 0 0 -6.1
v 0.1 0 -6.1
v 0.2 0 -6.1
v -0.1 0 -6.2
v 0.1 0 -6.2
v -0.2 0.1 -5.7
v -0.1 0.1 -5.7
v 0 0.1 -5.7
v 0.1 0.1 -5.7
v 0.2 0.1 -5.7
v -0.3 0.1 -5.8
v -0.2 0.1 -5.8
v -0.1 0.1 -5.8
v 0 0.1 -5.8
v 0.1 0.1 -5.8
v 0.2 0.1 -5.8
v 0.3 0.1 -5.8
v -0.2 0.1 -5.9
v -0.1 0.1 -5.9
v 0.1 0.1 -5.9
v 0.2 0.1 -5.9
v -0.2 0.1 -6
v -0.3 0.1 -6.1
v -0.2 0.1 -6.1
v -0.1 0.1 -6.1
v 0.1 0.1 -6.1
v 0.2 0.1 -6.1
v -0.3 0.1 -6.2
v -0.2 0.1 -6.2
v -0.1 0.1 -6.2
v 0.1 0.1 -6.2
v 0.2 0.1 -6.2
v 0.3 0.1 -6.2
v -0.2 0.1 -6.3
v -0.1 0.1 -6.3
v 0.1 0.1 -6.3
v 0.2 0.1 -6.3
v -0.1 0.2 -5.6
v 0.1 0.2 -5.6
v -0.3 0.2 -5.7
v -0.2 0.2 -5.7
v -0.1 0.2 -5.7
v 0 0.2 -5.7
v 0.1 0.2 -5.7
v 0.2 0.2 -5.7
v 0.3 0.2 -5.7
v -0.3 0.2 -5.8
v -0.2 0.2 -5.8
v 0.2 0.2 -5.8
v 0.3 0.2 -5.8
v -0.4 0.2 -5.9
v -0.3 0.2 -5.9
v 0.3 0.2 -5.9
v 0.4 0.2 -5.9
v -0.4 0.2 -6
v -0.3 0.2 -6
v 0.3 0.2 -6
v 0.4 0.2 -6
v -0.4 0.2 -6.1
v -0.3 0.2 -6.1
v 0.3 0.2 -6.1
v 0.4 0.2 -6.1
v -0.3 0.2 -6.2
v -0.2 0.2 -6.2
v 0.2 0.2 -6.2
v 0.3 0.2 -6.2
v -0.3 0.2 -6.3
v -0.2 0.2 -6.3
v -0.1 0.2 -6.3
v 0.1 0.2 -6.3
v 0.2 0.2 -6.3
v 0.3 0.2 -6.3
v -0.1 0.2 -6.4
v 0.1 0.2 -6.4
v -0.2 0.3 -5.6
v -0.1 0.3 -5.6
v 0.1 0.3 -5.6
v 0.2 0.3 -5.6
v -0.2 0.3 -5.7
v -0.1 0.3 -5.7
v 0.1 0.3 -5.7
v 0.2 0.3 -5.7
v -0.4 0.3 -5.8
v -0.3 0.3 -5.8
v 0.3 0.3 -5.8
v 0.4 0.3 -5.8
v -0.4 0.3 -5.9
v -0.3 0.3 -5.9
v 0.3 0.3 -5.9
v 0.4 0.3 -5.9
v -0.4 0.3 -6.1
v -0.3 0.3 -6.1
v 0.3 0.3 -6.1
v 0.4 0.3 -6.1
v -0.4 0.3 -6.2
v -0.3 0.3 -6.2
v 0.3 0.3 -6.2
v 0.4 0.3 -6.2
v -0.2 0.3 -6.3
v -0.1 0.3 -6.3
v 0.1 0.3 -6.3
v 0.2 0.3 -6.3
v -0.2 0.3 -6.4
v -0.1 0.3 -6.4
v 0.1 0.3 -6.4
v 0.2 0.3 -6.4
v -0.2 0.5 -5.6
v -0.1 0.5 -5.6
v 0.1 0.5 -5.6
v 0.2 0.5 -5.6
v -0.2 0.5 -5.7
v -0.1 0.5 -5.7
v 0.1 0.5 -5.7
v 0.2 0.5 -5.7
v -0.4 0.5 -5.8
v -0.3 0.5 -5.8
v 0.3 0.5 -5.8
v 0.4 0.5 -5.8
v -0.4 0.5 -5.9
v -0.3 0.5 -5.9
v 0.3 0.5 -5.9
v 0.4 0.5 -5.9
v -0.4 0.5 -6.1
v -0.3 0.5 -6.1
v 0.3 0.5 -6.1
v 0.4 0.5 -6.1
v -0.4 0.5 -6.2
v -0.3 0.5 -6.2
v 0.3 0.5 -6.2
v 0.4 0.5 -6.2
v -0.2 0.5 -6.3
v -0.1 0.5 -6.3
v 0.1 0.5 -6.3
v 0.2 0.5 -6.3
v -0.2 0.5 -6.4
v -0.1 0.5 -6.4
v 0.1 0.5 -6.4
v 0.2 0.5 -6.4
v -0.1 0.6 -5.6
v 0 0.6 -5.6
v 0.1 0.6 -5.6
v -0.3 0.6 -5.7
v -0.2 0.6 -5.7
v -0.1 0.6 -5.7
v 0 0.6 -5.7
v 0.1 0.6 -5.7
v 0.2 0.6 -5.7
v 0.3 0.6 -5.7
v -0.3 0.6 -5.8
v -0.2 0.6 -5.8
v 0.2 0.6 -5.8
v 0.3 0.6 -5.8
v -0.4 0.6 -5.9
v -0.3 0.6 -5.9
v 0.3 0.6 -5.9
v 0.4 0.6 -5.9
v -0.4 0.6 -6
v -0.3 0.6 -6
v -0.4 0.6 -6.1
v -0.3 0.6 -6.1
v 0.3 0.6 -6.1
v 0.4 0.6 -6.1
v -0.3 0.6 -6.2
v -0.2 0.6 -6.2
v 0.2 0.6 -6.2
v 0.3 0.6 -6.2
v -0.3 0.6 -6.3
v -0.2 0.6 -6.3
v -0.1 0.6 -6.3
v 0 0.6 -6.3
v 0.1 0.6 -6.3
v 0.2 0.6 -6.3
v 0.3 0.6 -6.3
v -0.1 0.6 -6.4
v 0 0.6 -6.4
v 0.1 0.6 -6.4
v -0.2 0.7 -5.7
v 0.2 0.7 -5.7
v -0.3 0.7 -5.8
v -0.2 0.7 -5.8
v -0.1 0.7 -5.8
v 0 0.7 -5.8
v 0.1 0.7 -5.8
v 0.2 0.7 -5.8
v 0.3 0.7 -5.8
v -0.2 0.7 -5.9
v -0.1 0.7 -5.9
v 0.1 0.7 -5.9
v 0.2 0.7 -5.9
v 0.3 0.7 -5.9
v -0.2 0.7 -6
v -0.2 0.7 -6.1
v -0.1 0.7 -6.1
v 0.1 0.7 -6.1
v 0.2 0.7 -6.1
v -0.3 0.7 -6.2
v -0.2 0.7 -6.2
v -0.1 0.7 -6.2
v 0 0.7 -6.2
v 0.1 0.7 -6.2
v 0.2 0.7 -6.2
v 0.3 0.7 -6.2
v -0.2 0.7 -6.3
v -0.1 0.7 -6.3
v 0.2 0.7 -6.3
v -0.1 0.8 -5.8
v 0 0.8 -5.8
v 0.1 0.8 -5.8
v -0.2 0.8 -5.9
v -0.1 0.8 -5.9
v 0 0.8 -5.9
v 0.1 0.8 -5.9
v 0.2 0.8 -5.9
v -0.2 0.8 -6
v -0.1 0.8 -6
v 0 0.8 -6
v -0.2 0.8 -6.1
v -0.1 0.8 -6.1
v 0.1 0.8 -6.1
v 0.2 0.8 -6.1
v -0.1 0.8 -6.2
v 0 0.8 -6.2
v 0.1 0.8 -6.2

# faces
f 5/1/1 2/1/1 1/1/1
f 6/2/1 3/2/1 2/2/1
f 6/1/1 2/1/1 5/1/1
f 7/2/1 3/2/1 6/2/1
f 9/3/1 5/3/1 4/3/1
f 10/1/1 8/1/1 7/1/1
f 10/3/1 5/3/1 9/3/1
f 10/1/1 6/1/1 5/1/1
f 10/1/1 7/1/1 6/1/1
f 11/1/1 8/1/1 10/1/1
f 12/1/1 8/1/1 11/1/1
f 13/2/1 10/2/1 9/2/1
f 14/1/1 11/1/1 10/1/1
f 14/2/1 10/2/1 13/2/1
f 15/3/1 12/3/1 11/3/1
f 15/1/1 11/1/1 14/1/1
f 16/1/1 8/1/1 12/1/1
f 16/3/1 12/3/1 15/3/1
f 17/1/1 8/1/1 16/1/1
f 18/2/1 15/2/1 14/2/1
f 19/3/1 16/3/1 15/3/1
f 19/2/1 15/2/1 18/2/1
f 20/3/1 16/3/1 19/3/1
f 25/1/1 22/1/1 21/1/1
f 26/1/1 22/1/1 25/1/1
f 27/1/1 22/1/1 26/1/1
f 28/2/1 23/2/1 22/2/1
f 28/1/1 22/1/1 27/1/1
f 29/2/1 23/2/1 28/2/1
f 31/3/1 25/3/1 24/3/1
f 31/3/1 26/3/1 25/3/1
f 32/3/1 26/3/1 31/3/1
f 33/3/1 26/3/1 32/3/1
f 34/1/1 30/1/1 29/1/1
f 34/1/1 29/1/1 28/1/1
f 35/1/1 30/1/1 34/1/1
f 36/1/1 32/1/1 31/1/1
f 37/1/1 36/1/1 31/1/1
f 40/1/1 30/1/1 35/1/1
f 41/1/1 37/1/1 31/1/1
f 42/3/1 38/3/1 37/3/1
f 42/1/1 37/1/1 41/1/1
f 43/3/1 38/3/1 42/3/1
f 45/1/1 40/1/1 39/1/1
f 46/1/1 30/1/1 40/1/1
f 46/1/1 40/1/1 45/1/1
f 47/1/1 30/1/1 46/1/1
f 48/1/1 44/1/1 43/1/1
f 48/1/1 45/1/1 44/1/1
f 48/1/1 46/1/1 45/1/1
f 48/1/1 43/1/1 42/1/1
f 49/1/1 46/1/1 48/1/1
f 55/2/1 51/2/1 50/2/1
f 56/1/1 52/1/1 51/1/1
f 56/2/1 51/2/1 55/2/1
f 57/1/1 52/1/1 56/1/1
f 60/1/1 54/1/1 53/1/1
f 61/1/1 54/1/1 60/1/1
f 62/3/1 59/3/1 58/3/1
f 63/3/1 59/3/1 62/3/1
f 68/1/1 65/1/1 64/1/1
f 69/1/1 65/1/1 68/1/1
f 70/1/1 67/1/1 66/1/1
f 71/1/1 67/1/1 70/1/1
f 76/1/1 73/1/1 72/1/1
f 77/1/1 73/1/1 76/1/1
f 81/3/1 75/3/1 74/3/1
f 82/3/1 75/3/1 81/3/1
f 83/2/1 79/2/1 78/2/1
f 84/1/1 80/1/1 79/1/1
f 84/2/1 79/2/1 83/2/1
f 85/1/1 80/1/1 84/1/1
f 90/2/1 87/2/1 86/2/1
f 91/2/1 87/2/1 90/2/1
f 92/1/1 89/1/1 88/1/1
f 93/1/1 89/1/1 92/1/1
f 98/1/1 95/1/1 94/1/1
f 99/1/1 95/1/1 98/1/1
f 100/1/1 97/1/1 96/1/1
f 101/1/1 97/1/1 100/1/1
f 106/1/1 103/1/1 102/1/1
f 107/1/1 103/1/1 106/1/1
f 108/3/1 105/3/1 104/3/1
f 109/3/1 105/3/1 108/3/1
f 114/2/1 111/2/1 110/2/1
f 115/2/1 111/2/1 114/2/1
f 116/3/1 113/3/1 112/3/1
f 117/3/1 113/3/1 116/3/1
f 118/1/2 119/1/2 122/1/2
f 122/1/2 119/1/2 123/1/2
f 120/1/2 121/1/2 124/1/2
f 124/1/2 121/1/2 125/1/2
f 126/1/2 127/1/2 130/1/2
f 130/1/2 127/1/2 131/1/2
f 128/1/2 129/1/2 132/1/2
f 132/1/2 129/1/2 133/1/2
f 134/2/2 135/2/2 138/2/2
f 138/2/2 135/2/2 139/2/2
f 136/1/2 137/1/2 140/1/2
f 140/1/2 137/1/2 141/1/2
f 142/1/2 143/1/2 146/1/2
f 146/1/2 143/1/2 147/1/2
f 144/1/2 145/1/2 148/1/2
f 148/1/2 145/1/2 149/1/2
f 150/1/2 151/1/2 154/1/2
f 154/1/2 151/1/2 155/1/2
f 152/2/2 153/2/2 158/2/2
f 158/2/2 153/2/2 159/2/2
f 156/2/2 157/2/2 160/2/2
f 160/2/2 157/2/2 161/2/2
f 162/1/2 163/1/2 166/1/2
f 162/1/2 166/1/2 167/1/2
f 167/1/2 166/1/2 168/1/2
f 164/1/2 165/1/2 169/1/2
f 169/1/2 165/1/2 170/1/2
f 171/1/2 172/1/2 175/1/2
f 175/1/2 172/1/2 176/1/2
f 173/1/2 174/1/2 179/1/2
f 179/1/2 174/1/2 180/1/2
f 177/1/2 178/1/2 181/1/2
f 181/1/2 178/1/2 182/1/2
f 183/1/2 184/1/2 186/1/2
f 186/1/2 184/1/2 187/1/2
f 187/1/2 184/1/2 188/1/2
f 188/1/2 184/1/2 189/1/2
f 189/1/2 184/1/2 190/1/2
f 185/1/2 186/1/2 192/1/2
f 186/1/2 187/1/2 192/1/2
f 192/1/2 187/1/2 193/1/2
f 190/3/2 191/3/2 194/3/2
f 189/3/2 190/3/2 194/3/2
f 194/3/2 191/3/2 195/3/2
f 195/3/2 191/3/2 196/3/2
f 185/1/2 192/1/2 197/1/2
f 197/1/2 192/1/2 198/1/2
f 195/1/2 196/1/2 199/1/2
f 197/2/2 198/2/2 200/2/2
f 200/2/2 198/2/2 201/2/2
f 199/1/2 196/1/2 204/1/2
f 201/1/2 202/1/2 205/1/2
f 200/1/2 201/1/2 205/1/2
f 205/1/2 202/1/2 206/1/2
f 206/1/2 202/1/2 207/1/2
f 203/1/2 204/1/2 208/1/2
f 204/1/2 196/1/2 209/1/2
f 208/1/2 204/1/2 209/1/2
f 209/1/2 196/1/2 210/1/2
f 206/3/2 207/3/2 211/3/2
f 207/1/2 208/1/2 212/1/2
f 211/3/2 207/3/2 212/3/2
f 208/1/2 209/1/2 212/1/2
f 212/1/2 209/1/2 213/1/2
f 214/1/2 215/1/2 218/1/2
f 215/3/2 216/3/2 219/3/2
f 218/1/2 215/1/2 219/1/2
f 219/3/2 216/3/2 220/3/2
f 217/1/2 218/1/2 222/1/2
f 220/1/2 221/1/2 222/1/2
f 219/1/2 220/1/2 222/1/2
f 218/1/2 219/1/2 222/1/2
f 222/1/2 221/1/2 223/1/2
f 223/1/2 221/1/2 224/1/2
f 224/1/2 221/1/2 225/1/2
f 222/2/2 223/2/2 226/2/2
f 223/1/2 224/1/2 227/1/2
f 226/2/2 223/2/2 227/2/2
f 224/2/2 225/2/2 228/2/2
f 227/1/2 224/1/2 228/1/2
f 228/2/2 225/2/2 229/2/2
f 227/1/2 228/1/2 230/1/2
f 230/1/2 228/1/2 231/1/2
f 235/1/3 233/1/3 232/1/3
f 236/1/3 233/1/3 235/1/3
f 237/1/3 233/1/3 236/1/3
f 239/3/3 237/3/3 236/3/3
f 239/1/3 238/1/3 237/1/3
f 240/1/3 238/1/3 239/1/3
f 241/1/3 235/1/3 234/1/3
f 241/1/3 236/1/3 235/1/3
f 242/1/3 236/1/3 241/1/3
f 243/3/3 239/3/3 236/3/3
f 243/1/3 236/1/3 242/1/3
f 244/2/3 240/2/3 239/2/3
f 244/3/3 239/3/3 243/3/3
f 245/2/3 240/2/3 244/2/3
f 246/1/3 243/1/3 242/1/3
f 246/1/3 244/1/3 243/1/3
f 247/1/3 244/1/3 246/1/3
f 252/3/3 249/3/3 248/3/3
f 253/1/3 250/1/3 249/1/3
f 253/3/3 249/3/3 252/3/3
f 254/1/3 250/1/3 253/1/3
f 255/1/3 250/1/3 254/1/3
f 257/1/3 252/1/3 251/1/3
f 258/3/3 253/3/3 252/3/3
f 258/1/3 252/1/3 257/1/3
f 259/3/3 253/3/3 258/3/3
f 260/1/3 256/1/3 255/1/3
f 260/1/3 255/1/3 254/1/3
f 261/1/3 256/1/3 260/1/3
f 262/3/3 258/3/3 257/3/3
f 263/3/3 258/3/3 262/3/3
f 264/1/3 256/1/3 261/1/3
f 265/1/3 263/1/3 262/1/3
f 266/1/3 263/1/3 265/1/3
f 269/1/3 256/1/3 264/1/3
f 270/2/3 266/2/3 265/2/3
f 271/1/3 267/1/3 266/1/3
f 271/2/3 266/2/3 270/2/3
f 272/1/3 267/1/3 271/1/3
f 274/1/3 269/1/3 268/1/3
f 275/1/3 256/1/3 269/1/3
f 275/1/3 269/1/3 274/1/3
f 276/1/3 256/1/3 275/1/3
f 277/1/3 273/1/3 272/1/3
f 277/1/3 272/1/3 271/1/3
f 278/2/3 274/2/3 273/2/3
f 278/1/3 273/1/3 277/1/3
f 279/1/3 275/1/3 274/1/3
f 279/2/3 274/2/3 278/2/3
f 280/1/3 275/1/3 279/1/3
f 286/3/3 282/3/3 281/3/3
f 287/2/3 283/2/3 282/2/3
f 287/3/3 282/3/3 286/3/3
f 288/2/3 283/2/3 287/2/3
f 291/1/3 285/1/3 284/1/3
f 292/1/3 285/1/3 291/1/3
f 293/1/3 290/1/3 289/1/3
f 294/1/3 290/1/3 293/1/3
f 299/2/3 296/2/3 295/2/3
f 300/2/3 296/2/3 299/2/3
f 301/2/3 298/2/3 297/2/3
f 302/2/3 298/2/3 301/2/3
f 303/1/3 300/1/3 299/1/3
f 304/1/3 300/1/3 303/1/3
f 305/1/3 302/1/3 301/1/3
f 306/1/3 302/1/3 305/1/3
f 311/1/3 308/1/3 307/1/3
f 312/1/3 308/1/3 311/1/3
f 316/3/3 310/3/3 309/3/3
f 317/3/3 310/3/3 316/3/3
f 318/1/3 314/1/3 313/1/3
f 319/2/3 315/2/3 314/2/3
f 319/1/3 314/1/3 318/1/3
f 320/2/3 315/2/3 319/2/3
f 325/1/3 322/1/3 321/1/3
f 326/1/3 322/1/3 325/1/3
f 327/2/3 324/2/3 323/2/3
f 328/2/3 324/2/3 327/2/3
f 333/2/3 330/2/3 329/2/3
f 334/2/3 330/2/3 333/2/3
f 335/2/3 332/2/3 331/2/3
f 336/2/3 332/2/3 335/2/3
f 341/1/3 338/1/3 337/1/3
f 342/1/3 338/1/3 341/1/3
f 343/1/3 340/1/3 339/1/3
f 344/1/3 340/1/3 343/1/3
f 349/1/3 346/1/3 345/1/3
f 350/1/3 346/1/3 349/1/3
f 351/1/3 348/1/3 347/1/3
f 352/1/3 348/1/3 351/1/3
f 353/2/4 354/2/4 357/2/4
f 357/2/4 354/2/4 358/2/4
f 355/3/4 356/3/4 359/3/4
f 359/3/4 356/3/4 360/3/4
f 361/1/4 362/1/4 365/1/4
f 365/1/4 362/1/4 366/1/4
f 363/1/4 364/1/4 367/1/4
f 367/1/4 364/1/4 368/1/4
f 369/1/4 370/1/4 373/1/4
f 373/1/4 370/1/4 374/1/4
f 371/1/4 372/1/4 375/1/4
f 375/1/4 372/1/4 376/1/4
f 377/3/4 378/3/4 381/3/4
f 381/3/4 378/3/4 382/3/4
f 379/1/4 380/1/4 383/1/4
f 383/1/4 380/1/4 384/1/4
f 385/1/4 386/1/4 389/1/4
f 389/1/4 386/1/4 390/1/4
f 387/2/4 388/2/4 393/2/4
f 393/2/4 388/2/4 394/2/4
f 391/1/4 392/1/4 395/1/4
f 395/1/4 392/1/4 396/1/4
f 399/3/4 400/3/4 401/3/4
f 401/3/4 400/3/4 402/3/4
f 397/1/4 398/1/4 403/1/4
f 403/1/4 398/1/4 404/1/4
f 401/1/4 402/1/4 405/1/4
f 405/1/4 402/1/4 406/1/4
f 407/1/4 408/1/4 411/1/4
f 411/1/4 408/1/4 412/1/4
f 409/1/4 410/1/4 416/1/4
f 416/1/4 410/1/4 417/1/4
f 413/1/4 414/1/4 418/1/4
f 414/2/4 415/2/4 419/2/4
f 418/1/4 414/1/4 419/1/4
f 419/2/4 415/2/4 420/2/4
f 421/1/4 422/1/4 424/1/4
f 424/1/4 422/1/4 425/1/4
f 425/1/4 422/1/4 426/1/4
f 426/1/4 422/1/4 427/1/4
f 423/3/4 424/3/4 429/3/4
f 424/1/4 425/1/4 430/1/4
f 429/3/4 424/3/4 430/3/4
f 430/1/4 425/1/4 431/1/4
f 426/1/4 427/1/4 432/1/4
f 427/3/4 428/3/4 433/3/4
f 432/1/4 427/1/4 433/1/4
f 433/3/4 428/3/4 434/3/4
f 433/1/4 434/1/4 435/1/4
f 429/1/4 430/1/4 436/1/4
f 436/1/4 430/1/4 437/1/4
f 435/1/4 434/1/4 440/1/4
f 436/2/4 437/2/4 441/2/4
f 437/3/4 438/3/4 442/3/4
f 441/2/4 437/2/4 442/2/4
f 442/3/4 438/3/4 443/3/4
f 439/1/4 440/1/4 444/1/4
f 440/1/4 434/1/4 445/1/4
f 444/1/4 440/1/4 445/1/4
f 445/1/4 434/1/4 446/1/4
f 442/3/4 443/3/4 447/3/4
f 443/1/4 444/1/4 448/1/4
f 447/3/4 443/3/4 448/3/4
f 444/1/4 445/1/4 448/1/4
f 448/1/4 445/1/4 449/1/4
f 450/1/4 451/1/4 453/1/4
f 453/1/4 451/1/4 454/1/4
f 452/1/4 453/1/4 456/1/4
f 454/3/4 455/3/4 456/3/4
f 453/1/4 454/1/4 456/1/4
f 456/3/4 455/3/4 457/3/4
f 452/1/4 456/1/4 458/1/4
f 456/1/4 457/1/4 458/1/4
f 458/1/4 457/1/4 459/1/4
f 459/1/4 457/1/4 460/1/4
f 460/1/4 457/1/4 461/1/4
f 459/1/4 460/1/4 462/1/4
f 462/1/4 460/1/4 463/1/4
f 468/2/5 465/2/5 464/2/5
f 469/1/5 466/1/5 465/1/5
f 469/2/5 465/2/5 468/2/5
f 470/1/5 466/1/5 469/1/5
f 472/2/5 468/2/5 467/2/5
f 473/1/5 469/1/5 468/1/5
f 473/2/5 468/2/5 472/2/5
f 474/1/5 473/1/5 472/1/5
f 475/1/5 469/1/5 473/1/5
f 475/1/5 473/1/5 474/1/5
f 476/2/5 470/2/5 469/2/5
f 476/1/5 469/1/5 475/1/5
f 477/1/5 471/1/5 470/1/5
f 477/2/5 470/2/5 476/2/5
f 478/1/5 471/1/5 477/1/5
f 479/1/5 476/1/5 475/1/5
f 479/1/5 477/1/5 476/1/5
f 480/1/5 477/1/5 479/1/5
f 487/1/5 482/1/5 481/1/5
f 488/3/5 483/3/5 482/3/5
f 488/1/5 482/1/5 487/1/5
f 489/1/5 484/1/5 483/1/5
f 489/3/5 483/3/5 488/3/5
f 490/2/5 485/2/5 484/2/5
f 490/1/5 484/1/5 489/1/5
f 491/2/5 485/2/5 490/2/5
f 493/1/5 487/1/5 486/1/5
f 493/1/5 488/1/5 487/1/5
f 494/1/5 488/1/5 493/1/5
f 495/1/5 492/1/5 491/1/5
f 495/1/5 491/1/5 490/1/5
f 496/1/5 492/1/5 495/1/5
f 497/1/5 493/1/5 486/1/5
f 498/1/5 497/1/5 486/1/5
f 499/1/5 497/1/5 498/1/5
f 502/1/5 492/1/5 496/1/5
f 503/2/5 499/2/5 498/2/5
f 504/1/5 500/1/5 499/1/5
f 504/2/5 499/2/5 503/2/5
f 505/1/5 500/1/5 504/1/5
f 506/1/5 502/1/5 501/1/5
f 507/1/5 492/1/5 502/1/5
f 507/1/5 502/1/5 506/1/5
f 508/1/5 492/1/5 507/1/5
f 509/3/5 505/3/5 504/3/5
f 510/1/5 506/1/5 505/1/5
f 510/3/5 505/3/5 509/3/5
f 511/2/5 507/2/5 506/2/5
f 511/1/5 506/1/5 510/1/5
f 512/2/5 507/2/5 511/2/5
f 517/1/5 514/1/5 513/1/5
f 518/1/5 514/1/5 517/1/5
f 519/1/5 514/1/5 518/1/5
f 522/3/5 516/3/5 515/3/5
f 523/3/5 516/3/5 522/3/5
f 524/1/5 521/1/5 520/1/5
f 525/1/5 521/1/5 524/1/5
f 530/1/5 527/1/5 526/1/5
f 531/1/5 527/1/5 530/1/5
f 532/1/5 529/1/5 528/1/5
f 533/1/5 529/1/5 532/1/5
f 534/2/5 531/2/5 530/2/5
f 535/2/5 531/2/5 534/2/5
f 536/3/5 533/3/5 532/3/5
f 537/3/5 533/3/5 536/3/5
f 542/1/5 539/1/5 538/1/5
f 543/1/5 539/1/5 542/1/5
f 546/3/5 541/3/5 540/3/5
f 547/3/5 541/3/5 546/3/5
f 548/1/5 545/1/5 544/1/5
f 549/1/5 545/1/5 548/1/5
f 554/1/5 551/1/5 550/1/5
f 555/1/5 551/1/5 554/1/5
f 556/1/5 553/1/5 552/1/5
f 557/1/5 553/1/5 556/1/5
f 562/3/5 559/3/5 558/3/5
f 563/3/5 559/3/5 562/3/5
f 564/1/5 561/1/5 560/1/5
f 565/1/5 561/1/5 564/1/5
f 570/1/5 567/1/5 566/1/5
f 571/1/5 567/1/5 570/1/5
f 572/1/5 569/1/5 568/1/5
f 573/1/5 569/1/5 572/1/5
f 578/1/5 575/1/5 574/1/5
f 579/1/5 575/1/5 578/1/5
f 580/1/5 577/1/5 576/1/5
f 581/1/5 577/1/5 580/1/5
f 582/1/6 583/1/6 586/1/6
f 586/1/6 583/1/6 587/1/6
f 584/1/6 585/1/6 588/1/6
f 588/1/6 585/1/6 589/1/6
f 590/2/6 591/2/6 594/2/6
f 594/2/6 591/2/6 595/2/6
f 592/2/6 593/2/6 596/2/6
f 596/2/6 593/2/6 597/2/6
f 598/1/6 599/1/6 602/1/6
f 602/1/6 599/1/6 603/1/6
f 600/2/6 601/2/6 604/2/6
f 604/2/6 601/2/6 605/2/6
f 606/1/6 607/1/6 610/1/6
f 610/1/6 607/1/6 611/1/6
f 608/1/6 609/1/6 612/1/6
f 612/1/6 609/1/6 613/1/6
f 614/1/6 615/1/6 619/1/6
f 615/2/6 616/2/6 620/2/6
f 619/1/6 615/1/6 620/1/6
f 620/2/6 616/2/6 621/2/6
f 617/1/6 618/1/6 624/1/6
f 624/1/6 618/1/6 625/1/6
f 622/1/6 623/1/6 626/1/6
f 626/1/6 623/1/6 627/1/6
f 628/2/6 629/2/6 632/2/6
f 632/2/6 629/2/6 633/2/6
f 632/3/6 633/3/6 634/3/6
f 634/3/6 633/3/6 635/3/6
f 630/1/6 631/1/6 636/1/6
f 636/1/6 631/1/6 637/1/6
f 638/1/6 639/1/6 642/1/6
f 642/1/6 639/1/6 643/1/6
f 640/1/6 641/1/6 647/1/6
f 647/1/6 641/1/6 648/1/6
f 644/3/6 645/3/6 649/3/6
f 645/1/6 646/1/6 650/1/6
f 649/3/6 645/3/6 650/3/6
f 650/1/6 646/1/6 651/1/6
f 652/1/6 653/1/6 655/1/6
f 655/1/6 653/1/6 656/1/6
f 656/1/6 653/1/6 657/1/6
f 657/1/6 653/1/6 658/1/6
f 658/1/6 653/1/6 659/1/6
f 654/1/6 655/1/6 661/1/6
f 655/1/6 656/1/6 661/1/6
f 661/1/6 656/1/6 662/1/6
f 659/3/6 660/3/6 663/3/6
f 658/3/6 659/3/6 663/3/6
f 663/3/6 660/3/6 664/3/6
f 664/3/6 660/3/6 665/3/6
f 654/1/6 661/1/6 666/1/6
f 654/1/6 666/1/6 667/1/6
f 664/1/6 665/1/6 670/1/6
f 654/1/6 667/1/6 671/1/6
f 667/3/6 668/3/6 672/3/6
f 671/1/6 667/1/6 672/1/6
f 672/3/6 668/3/6 673/3/6
f 669/1/6 670/1/6 675/1/6
f 670/1/6 665/1/6 676/1/6
f 675/1/6 670/1/6 676/1/6
f 676/1/6 665/1/6 677/1/6
f 672/3/6 673/3/6 678/3/6
f 673/1/6 674/1/6 679/1/6
f 678/3/6 673/3/6 679/3/6
f 674/1/6 675/1/6 679/1/6
f 675/1/6 676/1/6 679/1/6
f 679/1/6 676/1/6 680/1/6
f 681/2/6 682/2/6 685/2/6
f 682/1/6 683/1/6 686/1/6
f 685/2/6 682/2/6 686/2/6
f 686/1/6 683/1/6 687/1/6
f 684/2/6 685/2/6 689/2/6
f 687/1/6 688/1/6 690/1/6
f 689/2/6 685/2/6 690/2/6
f 685/1/6 686/1/6 690/1/6
f 686/1/6 687/1/6 690/1/6
f 690/1/6 688/1/6 691/1/6
f 689/1/6 690/1/6 692/1/6
f 690/3/6 691/3/6 693/3/6
f 692/1/6 690/1/6 693/1/6
f 691/1/6 688/1/6 694/1/6
f 694/1/6 688/1/6 695/1/6
f 693/3/6 691/3/6 696/3/6
f 691/1/6 694/1/6 697/1/6
f 696/3/6 691/3/6 697/3/6
f 697/1/6 694/1/6 698/1/6
