# MagicaVoxel @ Ephtracy

# group
o 

# material
mtllib planetas-42.mtl
usemtl palette

# normals
vn -1 0 0
vn 1 0 0
vn 0 0 1
vn 0 0 -1
vn 0 -1 0
vn 0 1 0

# texcoords
vt 0.0996094 0.5
vt 0.103516 0.5
vt 0.986328 0.5

# verts
v -0.5 0.3 -4.7
v -0.5 0.3 -5.1
v -0.5 0.4 -4.8
v -0.5 0.4 -4.9
v -0.5 0.5 -4.8
v -0.5 0.5 -4.9
v -0.5 0.6 -4.7
v -0.5 0.6 -4.8
v -0.5 0.7 -4.7
v -0.5 0.7 -4.8
v -0.5 0.7 -5.1
v -0.4 0.1 -4.8
v -0.4 0.1 -5
v -0.4 0.2 -4.6
v -0.4 0.2 -4.8
v -0.4 0.2 -5
v -0.4 0.2 -5.2
v -0.4 0.3 -4.7
v -0.4 0.3 -5.1
v -0.4 0.4 -4.5
v -0.4 0.4 -4.6
v -0.4 0.4 -5.2
v -0.4 0.4 -5.3
v -0.4 0.5 -4.5
v -0.4 0.5 -4.6
v -0.4 0.6 -4.5
v -0.4 0.6 -4.6
v -0.4 0.6 -4.7
v -0.4 0.6 -5.2
v -0.4 0.6 -5.3
v -0.4 0.7 -4.7
v -0.4 0.7 -4.8
v -0.4 0.7 -5.1
v -0.4 0.8 -4.6
v -0.4 0.8 -4.8
v -0.4 0.8 -5
v -0.4 0.8 -5.2
v -0.4 0.9 -4.8
v -0.4 0.9 -5
v -0.3 0.1 -4.6
v -0.3 0.1 -4.7
v -0.3 0.1 -4.8
v -0.3 0.1 -5
v -0.3 0.1 -5.1
v -0.3 0.1 -5.2
v -0.3 0.2 -4.5
v -0.3 0.2 -4.6
v -0.3 0.2 -4.7
v -0.3 0.2 -4.8
v -0.3 0.2 -5
v -0.3 0.2 -5.1
v -0.3 0.2 -5.2
v -0.3 0.2 -5.3
v -0.3 0.4 -4.5
v -0.3 0.4 -4.6
v -0.3 0.4 -5.2
v -0.3 0.4 -5.3
v -0.3 0.6 -4.5
v -0.3 0.6 -4.6
v -0.3 0.6 -5.2
v -0.3 0.6 -5.3
v -0.3 0.7 -4.5
v -0.3 0.7 -4.6
v -0.3 0.8 -4.5
v -0.3 0.8 -4.6
v -0.3 0.8 -4.8
v -0.3 0.8 -5
v -0.3 0.8 -5.2
v -0.3 0.8 -5.3
v -0.3 0.9 -4.6
v -0.3 0.9 -4.8
v -0.3 0.9 -5
v -0.3 0.9 -5.2
v -0.2 0 -4.7
v -0.2 0 -5
v -0.2 0 -5.1
v -0.2 0.1 -4.7
v -0.2 0.1 -5
v -0.2 0.1 -5.1
v -0.2 0.3 -4.4
v -0.2 0.3 -4.5
v -0.2 0.3 -5.3
v -0.2 0.3 -5.4
v -0.2 0.7 -4.4
v -0.2 0.7 -4.5
v -0.2 0.7 -5.3
v -0.2 0.7 -5.4
v -0.2 0.9 -4.7
v -0.2 0.9 -5.1
v -0.2 1 -4.7
v -0.2 1 -5.1
v -0.1 0.1 -4.5
v -0.1 0.1 -4.6
v -0.1 0.1 -5.2
v -0.1 0.1 -5.3
v -0.1 0.2 -4.5
v -0.1 0.2 -4.6
v -0.1 0.2 -5.2
v -0.1 0.2 -5.3
v -0.1 0.8 -4.5
v -0.1 0.8 -4.6
v -0.1 0.8 -5.2
v -0.1 0.8 -5.3
v -0.1 0.9 -4.5
v -0.1 0.9 -4.6
v -0.1 0.9 -5.2
v -0.1 0.9 -5.3
v 0.1 0.1 -4.5
v 0.1 0.1 -4.6
v 0.1 0.1 -5.2
v 0.1 0.1 -5.3
v 0.1 0.2 -4.5
v 0.1 0.2 -4.6
v 0.1 0.2 -5.2
v 0.1 0.2 -5.3
v 0.1 0.8 -4.5
v 0.1 0.8 -4.6
v 0.1 0.8 -5.2
v 0.1 0.8 -5.3
v 0.1 0.9 -4.5
v 0.1 0.9 -4.6
v 0.1 0.9 -5.2
v 0.1 0.9 -5.3
v 0.2 0 -4.7
v 0.2 0 -4.8
v 0.2 0 -4.9
v 0.2 0 -5.1
v 0.2 0.1 -4.7
v 0.2 0.1 -4.8
v 0.2 0.1 -4.9
v 0.2 0.1 -5.1
v 0.2 0.3 -4.4
v 0.2 0.3 -4.5
v 0.2 0.3 -5.3
v 0.2 0.3 -5.4
v 0.2 0.7 -4.4
v 0.2 0.7 -4.5
v 0.2 0.7 -5.3
v 0.2 0.7 -5.4
v 0.2 0.9 -4.7
v 0.2 0.9 -5.1
v 0.2 1 -4.7
v 0.2 1 -5.1
v 0.3 0.1 -4.6
v 0.3 0.1 -4.8
v 0.3 0.1 -5
v 0.3 0.1 -5.2
v 0.3 0.2 -4.5
v 0.3 0.2 -4.6
v 0.3 0.2 -4.8
v 0.3 0.2 -5
v 0.3 0.2 -5.2
v 0.3 0.2 -5.3
v 0.3 0.4 -4.5
v 0.3 0.4 -4.6
v 0.3 0.4 -5.2
v 0.3 0.4 -5.3
v 0.3 0.6 -4.5
v 0.3 0.6 -4.6
v 0.3 0.6 -5.2
v 0.3 0.6 -5.3
v 0.3 0.7 -5.2
v 0.3 0.7 -5.3
v 0.3 0.8 -4.5
v 0.3 0.8 -4.6
v 0.3 0.8 -4.7
v 0.3 0.8 -4.8
v 0.3 0.8 -5
v 0.3 0.8 -5.2
v 0.3 0.8 -5.3
v 0.3 0.9 -4.6
v 0.3 0.9 -4.8
v 0.3 0.9 -5
v 0.3 0.9 -5.2
v 0.4 0.1 -4.8
v 0.4 0.1 -5
v 0.4 0.2 -4.6
v 0.4 0.2 -4.8
v 0.4 0.2 -4.9
v 0.4 0.2 -5
v 0.4 0.2 -5.2
v 0.4 0.3 -4.7
v 0.4 0.3 -4.9
v 0.4 0.3 -5
v 0.4 0.3 -5.1
v 0.4 0.4 -4.5
v 0.4 0.4 -4.6
v 0.4 0.4 -4.7
v 0.4 0.4 -5.2
v 0.4 0.4 -5.3
v 0.4 0.5 -4.7
v 0.4 0.6 -4.5
v 0.4 0.6 -4.6
v 0.4 0.6 -5.1
v 0.4 0.6 -5.2
v 0.4 0.6 -5.3
v 0.4 0.7 -4.7
v 0.4 0.7 -4.8
v 0.4 0.7 -4.9
v 0.4 0.7 -5
v 0.4 0.7 -5.1
v 0.4 0.8 -4.6
v 0.4 0.8 -4.7
v 0.4 0.8 -4.8
v 0.4 0.8 -4.9
v 0.4 0.8 -5
v 0.4 0.8 -5.2
v 0.4 0.9 -4.8
v 0.4 0.9 -5
v 0.5 0.3 -4.7
v 0.5 0.3 -5.1
v 0.5 0.4 -4.7
v 0.5 0.4 -4.8
v 0.5 0.5 -4.7
v 0.5 0.5 -4.8
v 0.5 0.6 -5
v 0.5 0.6 -5.1
v 0.5 0.7 -4.7
v 0.5 0.7 -5
v 0.5 0.7 -5.1
v -0.2 0.3 -4.4
v -0.2 0.7 -4.4
v 0 0.4 -4.4
v 0 0.5 -4.4
v 0.1 0.4 -4.4
v 0.1 0.5 -4.4
v 0.2 0.3 -4.4
v 0.2 0.7 -4.4
v -0.4 0.4 -4.5
v -0.4 0.5 -4.5
v -0.4 0.6 -4.5
v -0.3 0.2 -4.5
v -0.3 0.4 -4.5
v -0.3 0.5 -4.5
v -0.3 0.6 -4.5
v -0.3 0.7 -4.5
v -0.3 0.8 -4.5
v -0.2 0.3 -4.5
v -0.2 0.7 -4.5
v -0.2 0.8 -4.5
v -0.1 0.1 -4.5
v -0.1 0.2 -4.5
v -0.1 0.8 -4.5
v -0.1 0.9 -4.5
v 0 0.1 -4.5
v 0 0.2 -4.5
v 0.1 0.1 -4.5
v 0.1 0.2 -4.5
v 0.1 0.8 -4.5
v 0.1 0.9 -4.5
v 0.2 0.3 -4.5
v 0.2 0.7 -4.5
v 0.3 0.2 -4.5
v 0.3 0.4 -4.5
v 0.3 0.6 -4.5
v 0.3 0.8 -4.5
v 0.4 0.4 -4.5
v 0.4 0.6 -4.5
v -0.4 0.2 -4.6
v -0.4 0.4 -4.6
v -0.4 0.6 -4.6
v -0.4 0.8 -4.6
v -0.3 0.1 -4.6
v -0.3 0.2 -4.6
v -0.3 0.4 -4.6
v -0.3 0.6 -4.6
v -0.3 0.7 -4.6
v -0.3 0.8 -4.6
v -0.3 0.9 -4.6
v -0.2 0.1 -4.6
v -0.2 0.2 -4.6
v -0.2 0.8 -4.6
v -0.1 0.1 -4.6
v -0.1 0.2 -4.6
v -0.1 0.8 -4.6
v -0.1 0.9 -4.6
v 0.1 0.1 -4.6
v 0.1 0.2 -4.6
v 0.1 0.8 -4.6
v 0.1 0.9 -4.6
v 0.3 0.1 -4.6
v 0.3 0.2 -4.6
v 0.3 0.4 -4.6
v 0.3 0.6 -4.6
v 0.3 0.8 -4.6
v 0.3 0.9 -4.6
v 0.4 0.2 -4.6
v 0.4 0.4 -4.6
v 0.4 0.6 -4.6
v 0.4 0.8 -4.6
v -0.5 0.3 -4.7
v -0.5 0.6 -4.7
v -0.5 0.7 -4.7
v -0.4 0.3 -4.7
v -0.4 0.6 -4.7
v -0.4 0.7 -4.7
v -0.2 0 -4.7
v -0.2 0.1 -4.7
v -0.2 0.9 -4.7
v -0.2 1 -4.7
v 0.2 0 -4.7
v 0.2 0.1 -4.7
v 0.2 0.9 -4.7
v 0.2 1 -4.7
v 0.4 0.3 -4.7
v 0.4 0.4 -4.7
v 0.4 0.5 -4.7
v 0.4 0.7 -4.7
v 0.5 0.3 -4.7
v 0.5 0.4 -4.7
v 0.5 0.5 -4.7
v 0.5 0.7 -4.7
v -0.4 0.1 -4.8
v -0.4 0.2 -4.8
v -0.4 0.8 -4.8
v -0.4 0.9 -4.8
v -0.3 0.1 -4.8
v -0.3 0.2 -4.8
v -0.3 0.8 -4.8
v -0.3 0.9 -4.8
v 0.3 0.1 -4.8
v 0.3 0.2 -4.8
v 0.3 0.8 -4.8
v 0.3 0.9 -4.8
v 0.4 0.1 -4.8
v 0.4 0.2 -4.8
v 0.4 0.8 -4.8
v 0.4 0.9 -4.8
v -0.4 0.1 -5
v -0.4 0.2 -5
v -0.4 0.8 -5
v -0.4 0.9 -5
v -0.3 0.1 -5
v -0.3 0.2 -5
v -0.3 0.8 -5
v -0.3 0.9 -5
v 0.3 0.1 -5
v 0.3 0.2 -5
v 0.3 0.8 -5
v 0.3 0.9 -5
v 0.4 0.1 -5
v 0.4 0.2 -5
v 0.4 0.8 -5
v 0.4 0.9 -5
v -0.5 0.3 -5.1
v -0.5 0.7 -5.1
v -0.4 0.3 -5.1
v -0.4 0.7 -5.1
v -0.2 0 -5.1
v -0.2 0.1 -5.1
v -0.2 0.9 -5.1
v -0.2 1 -5.1
v -0.1 0 -5.1
v -0.1 0.1 -5.1
v 0.2 0 -5.1
v 0.2 0.1 -5.1
v 0.2 0.9 -5.1
v 0.2 1 -5.1
v 0.4 0.3 -5.1
v 0.4 0.6 -5.1
v 0.4 0.7 -5.1
v 0.5 0.3 -5.1
v 0.5 0.6 -5.1
v 0.5 0.7 -5.1
v -0.4 0.2 -5.2
v -0.4 0.4 -5.2
v -0.4 0.6 -5.2
v -0.4 0.8 -5.2
v -0.3 0.1 -5.2
v -0.3 0.2 -5.2
v -0.3 0.4 -5.2
v -0.3 0.6 -5.2
v -0.3 0.8 -5.2
v -0.3 0.9 -5.2
v -0.2 0.1 -5.2
v -0.2 0.2 -5.2
v -0.1 0.1 -5.2
v -0.1 0.2 -5.2
v -0.1 0.8 -5.2
v -0.1 0.9 -5.2
v 0.1 0.1 -5.2
v 0.1 0.2 -5.2
v 0.1 0.8 -5.2
v 0.1 0.9 -5.2
v 0.2 0.8 -5.2
v 0.3 0.1 -5.2
v 0.3 0.2 -5.2
v 0.3 0.4 -5.2
v 0.3 0.6 -5.2
v 0.3 0.7 -5.2
v 0.3 0.8 -5.2
v 0.3 0.9 -5.2
v 0.4 0.2 -5.2
v 0.4 0.4 -5.2
v 0.4 0.6 -5.2
v 0.4 0.8 -5.2
v -0.4 0.4 -5.3
v -0.4 0.6 -5.3
v -0.3 0.2 -5.3
v -0.3 0.4 -5.3
v -0.3 0.6 -5.3
v -0.3 0.8 -5.3
v -0.2 0.3 -5.3
v -0.2 0.7 -5.3
v -0.1 0.1 -5.3
v -0.1 0.2 -5.3
v -0.1 0.8 -5.3
v -0.1 0.9 -5.3
v 0 0.8 -5.3
v 0 0.9 -5.3
v 0.1 0.1 -5.3
v 0.1 0.2 -5.3
v 0.1 0.8 -5.3
v 0.1 0.9 -5.3
v 0.2 0.3 -5.3
v 0.2 0.7 -5.3
v 0.2 0.8 -5.3
v 0.3 0.2 -5.3
v 0.3 0.4 -5.3
v 0.3 0.6 -5.3
v 0.3 0.7 -5.3
v 0.3 0.8 -5.3
v 0.4 0.4 -5.3
v 0.4 0.6 -5.3
v -0.2 0.3 -5.4
v -0.2 0.7 -5.4
v -0.1 0.4 -5.4
v -0.1 0.5 -5.4
v 0 0.4 -5.4
v 0 0.5 -5.4
v 0.2 0.3 -5.4
v 0.2 0.7 -5.4
v -0.2 0 -4.7
v 0.2 0 -4.7
v 0.1 0 -4.8
v 0.2 0 -4.8
v 0.1 0 -4.9
v 0.2 0 -4.9
v -0.2 0 -5
v -0.1 0 -5
v -0.2 0 -5.1
v -0.1 0 -5.1
v 0.2 0 -5.1
v -0.1 0.1 -4.5
v 0 0.1 -4.5
v 0.1 0.1 -4.5
v -0.3 0.1 -4.6
v -0.2 0.1 -4.6
v -0.1 0.1 -4.6
v 0 0.1 -4.6
v 0.1 0.1 -4.6
v 0.3 0.1 -4.6
v -0.3 0.1 -4.7
v -0.2 0.1 -4.7
v 0.2 0.1 -4.7
v -0.4 0.1 -4.8
v -0.3 0.1 -4.8
v 0.2 0.1 -4.8
v 0.3 0.1 -4.8
v 0.4 0.1 -4.8
v 0.2 0.1 -4.9
v -0.4 0.1 -5
v -0.3 0.1 -5
v -0.2 0.1 -5
v 0.3 0.1 -5
v 0.4 0.1 -5
v -0.3 0.1 -5.1
v -0.2 0.1 -5.1
v -0.1 0.1 -5.1
v 0.2 0.1 -5.1
v -0.3 0.1 -5.2
v -0.2 0.1 -5.2
v -0.1 0.1 -5.2
v 0.1 0.1 -5.2
v 0.3 0.1 -5.2
v -0.1 0.1 -5.3
v 0.1 0.1 -5.3
v -0.3 0.2 -4.5
v -0.1 0.2 -4.5
v 0.1 0.2 -4.5
v 0.3 0.2 -4.5
v -0.4 0.2 -4.6
v -0.3 0.2 -4.6
v -0.2 0.2 -4.6
v -0.1 0.2 -4.6
v 0.1 0.2 -4.6
v 0.3 0.2 -4.6
v 0.4 0.2 -4.6
v -0.3 0.2 -4.7
v -0.4 0.2 -4.8
v -0.3 0.2 -4.8
v 0.3 0.2 -4.8
v 0.4 0.2 -4.8
v -0.4 0.2 -5
v -0.3 0.2 -5
v 0.3 0.2 -5
v 0.4 0.2 -5
v -0.3 0.2 -5.1
v -0.4 0.2 -5.2
v -0.3 0.2 -5.2
v -0.2 0.2 -5.2
v -0.1 0.2 -5.2
v 0.1 0.2 -5.2
v 0.3 0.2 -5.2
v 0.4 0.2 -5.2
v -0.3 0.2 -5.3
v -0.1 0.2 -5.3
v 0.1 0.2 -5.3
v 0.3 0.2 -5.3
v -0.2 0.3 -4.4
v 0.2 0.3 -4.4
v -0.2 0.3 -4.5
v 0.2 0.3 -4.5
v -0.5 0.3 -4.7
v -0.4 0.3 -4.7
v 0.4 0.3 -4.7
v 0.5 0.3 -4.7
v 0.4 0.3 -4.9
v 0.4 0.3 -5
v -0.5 0.3 -5.1
v -0.4 0.3 -5.1
v 0.4 0.3 -5.1
v 0.5 0.3 -5.1
v -0.2 0.3 -5.3
v 0.2 0.3 -5.3
v -0.2 0.3 -5.4
v 0.2 0.3 -5.4
v -0.4 0.4 -4.5
v -0.3 0.4 -4.5
v 0.3 0.4 -4.5
v 0.4 0.4 -4.5
v -0.4 0.4 -4.6
v -0.3 0.4 -4.6
v 0.3 0.4 -4.6
v 0.4 0.4 -4.6
v -0.4 0.4 -5.2
v -0.3 0.4 -5.2
v 0.3 0.4 -5.2
v 0.4 0.4 -5.2
v -0.4 0.4 -5.3
v -0.3 0.4 -5.3
v 0.3 0.4 -5.3
v 0.4 0.4 -5.3
v -0.4 0.6 -4.5
v -0.3 0.6 -4.5
v 0.3 0.6 -4.5
v 0.4 0.6 -4.5
v -0.4 0.6 -4.6
v -0.3 0.6 -4.6
v 0.3 0.6 -4.6
v 0.4 0.6 -4.6
v -0.4 0.6 -5.2
v -0.3 0.6 -5.2
v 0.3 0.6 -5.2
v 0.4 0.6 -5.2
v -0.4 0.6 -5.3
v -0.3 0.6 -5.3
v 0.3 0.6 -5.3
v 0.4 0.6 -5.3
v -0.2 0.7 -4.4
v 0.2 0.7 -4.4
v -0.2 0.7 -4.5
v 0.2 0.7 -4.5
v -0.5 0.7 -4.7
v -0.4 0.7 -4.7
v 0.4 0.7 -4.7
v 0.5 0.7 -4.7
v -0.5 0.7 -4.8
v -0.4 0.7 -4.8
v 0.4 0.7 -4.8
v 0.4 0.7 -4.9
v 0.4 0.7 -5
v 0.5 0.7 -5
v -0.5 0.7 -5.1
v -0.4 0.7 -5.1
v 0.4 0.7 -5.1
v 0.5 0.7 -5.1
v -0.2 0.7 -5.3
v 0.2 0.7 -5.3
v -0.2 0.7 -5.4
v 0.2 0.7 -5.4
v -0.3 0.8 -4.5
v -0.2 0.8 -4.5
v -0.1 0.8 -4.5
v 0.1 0.8 -4.5
v 0.3 0.8 -4.5
v -0.4 0.8 -4.6
v -0.3 0.8 -4.6
v -0.2 0.8 -4.6
v -0.1 0.8 -4.6
v 0.1 0.8 -4.6
v 0.3 0.8 -4.6
v 0.4 0.8 -4.6
v 0.3 0.8 -4.7
v 0.4 0.8 -4.7
v -0.4 0.8 -4.8
v -0.3 0.8 -4.8
v 0.3 0.8 -4.8
v 0.4 0.8 -4.8
v -0.4 0.8 -5
v -0.3 0.8 -5
v 0.3 0.8 -5
v 0.4 0.8 -5
v -0.4 0.8 -5.2
v -0.3 0.8 -5.2
v -0.1 0.8 -5.2
v 0.1 0.8 -5.2
v 0.2 0.8 -5.2
v 0.3 0.8 -5.2
v 0.4 0.8 -5.2
v -0.3 0.8 -5.3
v -0.1 0.8 -5.3
v 0.1 0.8 -5.3
v 0.2 0.8 -5.3
v 0.3 0.8 -5.3
v -0.1 0.9 -4.5
v 0.1 0.9 -4.5
v -0.3 0.9 -4.6
v -0.1 0.9 -4.6
v 0.1 0.9 -4.6
v 0.3 0.9 -4.6
v -0.2 0.9 -4.7
v 0.2 0.9 -4.7
v -0.4 0.9 -4.8
v -0.3 0.9 -4.8
v 0.3 0.9 -4.8
v 0.4 0.9 -4.8
v -0.4 0.9 -5
v -0.3 0.9 -5
v 0.3 0.9 -5
v 0.4 0.9 -5
v -0.2 0.9 -5.1
v 0.2 0.9 -5.1
v -0.3 0.9 -5.2
v -0.1 0.9 -5.2
v 0 0.9 -5.2
v 0.1 0.9 -5.2
v 0.3 0.9 -5.2
v -0.1 0.9 -5.3
v 0 0.9 -5.3
v 0.1 0.9 -5.3
v -0.2 1 -4.7
v 0.2 1 -4.7
v 0 1 -4.8
v 0.1 1 -4.8
v 0 1 -4.9
v 0.1 1 -4.9
v -0.2 1 -5.1
v 0.2 1 -5.1

# faces
f 3/3/1 2/3/1 1/3/1
f 4/3/1 2/3/1 3/3/1
f 5/3/1 3/3/1 1/3/1
f 5/2/1 4/2/1 3/2/1
f 6/3/1 2/3/1 4/3/1
f 6/2/1 4/2/1 5/2/1
f 7/3/1 5/3/1 1/3/1
f 7/3/1 6/3/1 5/3/1
f 8/3/1 6/3/1 7/3/1
f 9/2/1 8/2/1 7/2/1
f 10/3/1 6/3/1 8/3/1
f 10/2/1 8/2/1 9/2/1
f 11/3/1 2/3/1 6/3/1
f 11/3/1 6/3/1 10/3/1
f 15/3/1 13/3/1 12/3/1
f 16/3/1 13/3/1 15/3/1
f 18/3/1 15/3/1 14/3/1
f 18/3/1 17/3/1 16/3/1
f 18/3/1 16/3/1 15/3/1
f 19/3/1 17/3/1 18/3/1
f 21/3/1 18/3/1 14/3/1
f 22/3/1 17/3/1 19/3/1
f 24/3/1 21/3/1 20/3/1
f 25/3/1 18/3/1 21/3/1
f 25/3/1 21/3/1 24/3/1
f 26/2/1 25/2/1 24/2/1
f 27/3/1 18/3/1 25/3/1
f 27/2/1 25/2/1 26/2/1
f 28/3/1 18/3/1 27/3/1
f 29/3/1 23/3/1 22/3/1
f 29/3/1 22/3/1 19/3/1
f 30/3/1 23/3/1 29/3/1
f 31/3/1 28/3/1 27/3/1
f 33/3/1 29/3/1 19/3/1
f 34/3/1 32/3/1 31/3/1
f 34/3/1 33/3/1 32/3/1
f 34/3/1 31/3/1 27/3/1
f 35/3/1 33/3/1 34/3/1
f 36/3/1 33/3/1 35/3/1
f 37/3/1 29/3/1 33/3/1
f 37/3/1 33/3/1 36/3/1
f 38/3/1 36/3/1 35/3/1
f 39/3/1 36/3/1 38/3/1
f 47/2/1 41/2/1 40/2/1
f 48/3/1 42/3/1 41/3/1
f 48/2/1 41/2/1 47/2/1
f 49/3/1 42/3/1 48/3/1
f 50/3/1 44/3/1 43/3/1
f 51/2/1 45/2/1 44/2/1
f 51/3/1 44/3/1 50/3/1
f 52/2/1 45/2/1 51/2/1
f 54/3/1 47/3/1 46/3/1
f 55/3/1 47/3/1 54/3/1
f 56/3/1 53/3/1 52/3/1
f 57/3/1 53/3/1 56/3/1
f 62/3/1 59/3/1 58/3/1
f 63/3/1 59/3/1 62/3/1
f 64/2/1 63/2/1 62/2/1
f 65/2/1 63/2/1 64/2/1
f 68/3/1 61/3/1 60/3/1
f 69/3/1 61/3/1 68/3/1
f 70/3/1 66/3/1 65/3/1
f 71/3/1 66/3/1 70/3/1
f 72/3/1 68/3/1 67/3/1
f 73/3/1 68/3/1 72/3/1
f 77/3/1 75/3/1 74/3/1
f 78/2/1 76/2/1 75/2/1
f 78/3/1 75/3/1 77/3/1
f 79/2/1 76/2/1 78/2/1
f 84/3/1 81/3/1 80/3/1
f 85/3/1 81/3/1 84/3/1
f 86/3/1 83/3/1 82/3/1
f 87/3/1 83/3/1 86/3/1
f 90/3/1 89/3/1 88/3/1
f 91/3/1 89/3/1 90/3/1
f 96/3/1 93/3/1 92/3/1
f 97/3/1 93/3/1 96/3/1
f 98/3/1 95/3/1 94/3/1
f 99/3/1 95/3/1 98/3/1
f 104/3/1 101/3/1 100/3/1
f 105/3/1 101/3/1 104/3/1
f 106/3/1 103/3/1 102/3/1
f 107/3/1 103/3/1 106/3/1
f 108/2/2 109/2/2 112/2/2
f 112/2/2 109/2/2 113/2/2
f 110/3/2 111/3/2 114/3/2
f 114/3/2 111/3/2 115/3/2
f 116/3/2 117/3/2 120/3/2
f 120/3/2 117/3/2 121/3/2
f 118/2/2 119/2/2 122/2/2
f 122/2/2 119/2/2 123/2/2
f 124/3/2 125/3/2 128/3/2
f 125/2/2 126/2/2 129/2/2
f 128/3/2 125/3/2 129/3/2
f 126/3/2 127/3/2 130/3/2
f 129/2/2 126/2/2 130/2/2
f 130/3/2 127/3/2 131/3/2
f 132/3/2 133/3/2 136/3/2
f 136/3/2 133/3/2 137/3/2
f 134/3/2 135/3/2 138/3/2
f 138/3/2 135/3/2 139/3/2
f 140/3/2 141/3/2 142/3/2
f 142/3/2 141/3/2 143/3/2
f 144/3/2 145/3/2 149/3/2
f 149/3/2 145/3/2 150/3/2
f 146/3/2 147/3/2 151/3/2
f 151/3/2 147/3/2 152/3/2
f 148/3/2 149/3/2 154/3/2
f 154/3/2 149/3/2 155/3/2
f 152/3/2 153/3/2 156/3/2
f 156/3/2 153/3/2 157/3/2
f 160/3/2 161/3/2 162/3/2
f 162/3/2 161/3/2 163/3/2
f 158/3/2 159/3/2 164/3/2
f 164/3/2 159/3/2 165/3/2
f 162/2/2 163/2/2 169/2/2
f 169/2/2 163/2/2 170/2/2
f 166/3/2 167/3/2 171/3/2
f 165/3/2 166/3/2 171/3/2
f 171/3/2 167/3/2 172/3/2
f 168/3/2 169/3/2 173/3/2
f 173/3/2 169/3/2 174/3/2
f 175/3/2 176/3/2 178/3/2
f 178/3/2 176/3/2 179/3/2
f 179/3/2 176/3/2 180/3/2
f 177/3/2 178/3/2 182/3/2
f 178/3/2 179/3/2 182/3/2
f 179/2/2 180/2/2 183/2/2
f 182/3/2 179/3/2 183/3/2
f 180/3/2 181/3/2 184/3/2
f 183/2/2 180/2/2 184/2/2
f 184/3/2 181/3/2 185/3/2
f 177/3/2 182/3/2 187/3/2
f 187/3/2 182/3/2 188/3/2
f 185/3/2 181/3/2 189/3/2
f 187/3/2 188/3/2 191/3/2
f 186/3/2 187/3/2 191/3/2
f 186/3/2 191/3/2 192/3/2
f 192/3/2 191/3/2 193/3/2
f 189/3/2 190/3/2 194/3/2
f 185/3/2 189/3/2 194/3/2
f 194/3/2 190/3/2 195/3/2
f 195/3/2 190/3/2 196/3/2
f 193/3/2 191/3/2 197/3/2
f 194/3/2 195/3/2 201/3/2
f 193/3/2 197/3/2 202/3/2
f 197/2/2 198/2/2 203/2/2
f 202/3/2 197/3/2 203/3/2
f 198/3/2 199/3/2 204/3/2
f 203/2/2 198/2/2 204/2/2
f 199/1/2 200/1/2 205/1/2
f 204/3/2 199/3/2 205/3/2
f 200/3/2 201/3/2 206/3/2
f 205/1/2 200/1/2 206/1/2
f 201/3/2 195/3/2 207/3/2
f 206/3/2 201/3/2 207/3/2
f 204/3/2 205/3/2 208/3/2
f 205/3/2 206/3/2 208/3/2
f 208/3/2 206/3/2 209/3/2
f 210/3/2 211/3/2 212/3/2
f 212/3/2 211/3/2 213/3/2
f 212/2/2 213/2/2 214/2/2
f 213/3/2 211/3/2 215/3/2
f 214/2/2 213/2/2 215/2/2
f 214/3/2 215/3/2 216/3/2
f 215/3/2 211/3/2 216/3/2
f 216/3/2 211/3/2 217/3/2
f 214/3/2 216/3/2 218/3/2
f 216/2/2 217/2/2 219/2/2
f 218/3/2 216/3/2 219/3/2
f 219/2/2 217/2/2 220/2/2
f 223/3/3 222/3/3 221/3/3
f 224/3/3 222/3/3 223/3/3
f 225/3/3 223/3/3 221/3/3
f 225/2/3 224/2/3 223/2/3
f 226/3/3 222/3/3 224/3/3
f 226/2/3 224/2/3 225/2/3
f 227/3/3 225/3/3 221/3/3
f 227/3/3 226/3/3 225/3/3
f 228/3/3 222/3/3 226/3/3
f 228/3/3 226/3/3 227/3/3
f 233/3/3 230/3/3 229/3/3
f 234/2/3 231/2/3 230/2/3
f 234/3/3 230/3/3 233/3/3
f 235/2/3 231/2/3 234/2/3
f 238/3/3 233/3/3 232/3/3
f 238/3/3 234/3/3 233/3/3
f 238/3/3 236/3/3 235/3/3
f 238/3/3 235/3/3 234/3/3
f 239/2/3 237/2/3 236/2/3
f 239/3/3 236/3/3 238/3/3
f 240/2/3 237/2/3 239/2/3
f 242/3/3 238/3/3 232/3/3
f 243/3/3 240/3/3 239/3/3
f 245/3/3 242/3/3 241/3/3
f 246/3/3 238/3/3 242/3/3
f 246/3/3 242/3/3 245/3/3
f 247/2/3 246/2/3 245/2/3
f 248/3/3 238/3/3 246/3/3
f 248/2/3 246/2/3 247/2/3
f 249/3/3 244/3/3 243/3/3
f 249/3/3 243/3/3 239/3/3
f 250/3/3 244/3/3 249/3/3
f 251/3/3 238/3/3 248/3/3
f 252/3/3 249/3/3 239/3/3
f 253/3/3 251/3/3 248/3/3
f 253/3/3 252/3/3 251/3/3
f 254/3/3 252/3/3 253/3/3
f 255/3/3 252/3/3 254/3/3
f 256/3/3 249/3/3 252/3/3
f 256/3/3 252/3/3 255/3/3
f 257/3/3 255/3/3 254/3/3
f 258/3/3 255/3/3 257/3/3
f 264/3/3 260/3/3 259/3/3
f 265/3/3 260/3/3 264/3/3
f 266/3/3 262/3/3 261/3/3
f 267/3/3 262/3/3 266/3/3
f 268/3/3 262/3/3 267/3/3
f 270/2/3 264/2/3 263/2/3
f 271/2/3 264/2/3 270/2/3
f 272/3/3 269/3/3 268/3/3
f 273/3/3 271/3/3 270/3/3
f 274/3/3 271/3/3 273/3/3
f 275/3/3 269/3/3 272/3/3
f 276/3/3 269/3/3 275/3/3
f 281/3/3 278/3/3 277/3/3
f 282/3/3 278/3/3 281/3/3
f 285/3/3 280/3/3 279/3/3
f 286/3/3 280/3/3 285/3/3
f 287/3/3 283/3/3 282/3/3
f 288/3/3 283/3/3 287/3/3
f 289/3/3 285/3/3 284/3/3
f 290/3/3 285/3/3 289/3/3
f 294/3/3 292/3/3 291/3/3
f 295/2/3 293/2/3 292/2/3
f 295/3/3 292/3/3 294/3/3
f 296/2/3 293/2/3 295/2/3
f 301/3/3 298/3/3 297/3/3
f 302/3/3 298/3/3 301/3/3
f 303/3/3 300/3/3 299/3/3
f 304/3/3 300/3/3 303/3/3
f 309/3/3 306/3/3 305/3/3
f 310/2/3 307/2/3 306/2/3
f 310/3/3 306/3/3 309/3/3
f 311/3/3 308/3/3 307/3/3
f 311/2/3 307/2/3 310/2/3
f 312/3/3 308/3/3 311/3/3
f 317/3/3 314/3/3 313/3/3
f 318/3/3 314/3/3 317/3/3
f 319/3/3 316/3/3 315/3/3
f 320/3/3 316/3/3 319/3/3
f 325/3/3 322/3/3 321/3/3
f 326/3/3 322/3/3 325/3/3
f 327/3/3 324/3/3 323/3/3
f 328/3/3 324/3/3 327/3/3
f 329/3/4 330/3/4 333/3/4
f 333/3/4 330/3/4 334/3/4
f 331/3/4 332/3/4 335/3/4
f 335/3/4 332/3/4 336/3/4
f 337/3/4 338/3/4 341/3/4
f 341/3/4 338/3/4 342/3/4
f 339/3/4 340/3/4 343/3/4
f 343/3/4 340/3/4 344/3/4
f 345/3/4 346/3/4 347/3/4
f 347/3/4 346/3/4 348/3/4
f 349/2/4 350/2/4 353/2/4
f 353/2/4 350/2/4 354/2/4
f 353/3/4 354/3/4 355/3/4
f 355/3/4 354/3/4 356/3/4
f 351/3/4 352/3/4 357/3/4
f 357/3/4 352/3/4 358/3/4
f 359/3/4 360/3/4 362/3/4
f 360/2/4 361/2/4 363/2/4
f 362/3/4 360/3/4 363/3/4
f 363/2/4 361/2/4 364/2/4
f 365/3/4 366/3/4 370/3/4
f 370/3/4 366/3/4 371/3/4
f 367/3/4 368/3/4 372/3/4
f 372/3/4 368/3/4 373/3/4
f 369/2/4 370/2/4 375/2/4
f 375/2/4 370/2/4 376/2/4
f 375/3/4 376/3/4 377/3/4
f 377/3/4 376/3/4 378/3/4
f 373/3/4 374/3/4 379/3/4
f 379/3/4 374/3/4 380/3/4
f 383/3/4 384/3/4 385/3/4
f 381/3/4 382/3/4 386/3/4
f 386/3/4 382/3/4 387/3/4
f 385/3/4 384/3/4 391/3/4
f 391/3/4 384/3/4 392/3/4
f 387/3/4 388/3/4 393/3/4
f 393/3/4 388/3/4 394/3/4
f 389/3/4 390/3/4 395/3/4
f 390/3/4 391/3/4 395/3/4
f 395/3/4 391/3/4 396/3/4
f 397/3/4 398/3/4 400/3/4
f 400/3/4 398/3/4 401/3/4
f 399/3/4 400/3/4 403/3/4
f 401/3/4 402/3/4 403/3/4
f 400/3/4 401/3/4 403/3/4
f 403/3/4 402/3/4 404/3/4
f 399/3/4 403/3/4 406/3/4
f 404/3/4 402/3/4 407/3/4
f 404/3/4 407/3/4 409/3/4
f 407/3/4 408/3/4 409/3/4
f 409/3/4 408/3/4 410/3/4
f 405/3/4 406/3/4 411/3/4
f 406/3/4 403/3/4 412/3/4
f 411/3/4 406/3/4 412/3/4
f 404/3/4 409/3/4 413/3/4
f 409/2/4 410/2/4 413/2/4
f 413/2/4 410/2/4 414/2/4
f 412/3/4 403/3/4 415/3/4
f 404/3/4 413/3/4 416/3/4
f 416/3/4 413/3/4 417/3/4
f 412/3/4 415/3/4 418/3/4
f 415/3/4 416/3/4 418/3/4
f 418/3/4 416/3/4 419/3/4
f 419/3/4 416/3/4 420/3/4
f 416/2/4 417/2/4 421/2/4
f 420/3/4 416/3/4 421/3/4
f 421/2/4 417/2/4 422/2/4
f 419/3/4 420/3/4 423/3/4
f 423/3/4 420/3/4 424/3/4
f 425/3/4 426/3/4 427/3/4
f 427/3/4 426/3/4 428/3/4
f 425/3/4 427/3/4 429/3/4
f 427/2/4 428/2/4 429/2/4
f 428/3/4 426/3/4 430/3/4
f 429/2/4 428/2/4 430/2/4
f 425/3/4 429/3/4 431/3/4
f 429/3/4 430/3/4 431/3/4
f 430/3/4 426/3/4 432/3/4
f 431/3/4 430/3/4 432/3/4
f 435/3/5 434/3/5 433/3/5
f 436/3/5 434/3/5 435/3/5
f 437/3/5 435/3/5 433/3/5
f 437/2/5 436/2/5 435/2/5
f 438/2/5 436/2/5 437/2/5
f 439/3/5 437/3/5 433/3/5
f 439/3/5 438/3/5 437/3/5
f 440/3/5 438/3/5 439/3/5
f 441/2/5 440/2/5 439/2/5
f 442/3/5 438/3/5 440/3/5
f 442/2/5 440/2/5 441/2/5
f 443/3/5 438/3/5 442/3/5
f 449/3/5 445/3/5 444/3/5
f 450/2/5 446/2/5 445/2/5
f 450/3/5 445/3/5 449/3/5
f 451/2/5 446/2/5 450/2/5
f 453/2/5 448/2/5 447/2/5
f 454/3/5 452/3/5 451/3/5
f 454/2/5 448/2/5 453/2/5
f 454/3/5 449/3/5 448/3/5
f 454/3/5 451/3/5 450/3/5
f 454/3/5 450/3/5 449/3/5
f 455/3/5 452/3/5 454/3/5
f 457/3/5 454/3/5 453/3/5
f 458/3/5 452/3/5 455/3/5
f 459/3/5 452/3/5 458/3/5
f 461/3/5 459/3/5 458/3/5
f 461/3/5 460/3/5 459/3/5
f 462/3/5 457/3/5 456/3/5
f 463/3/5 454/3/5 457/3/5
f 463/3/5 457/3/5 462/3/5
f 464/3/5 454/3/5 463/3/5
f 465/3/5 460/3/5 461/3/5
f 466/3/5 460/3/5 465/3/5
f 467/3/5 464/3/5 463/3/5
f 468/3/5 464/3/5 467/3/5
f 470/3/5 465/3/5 461/3/5
f 471/2/5 468/2/5 467/2/5
f 472/3/5 469/3/5 468/3/5
f 472/2/5 468/2/5 471/2/5
f 472/3/5 470/3/5 469/3/5
f 473/3/5 470/3/5 472/3/5
f 474/3/5 470/3/5 473/3/5
f 475/3/5 465/3/5 470/3/5
f 475/3/5 470/3/5 474/3/5
f 476/3/5 474/3/5 473/3/5
f 477/3/5 474/3/5 476/3/5
f 483/3/5 479/3/5 478/3/5
f 484/3/5 479/3/5 483/3/5
f 485/3/5 479/3/5 484/3/5
f 486/3/5 481/3/5 480/3/5
f 487/3/5 481/3/5 486/3/5
f 489/3/5 483/3/5 482/3/5
f 490/3/5 489/3/5 482/3/5
f 491/3/5 489/3/5 490/3/5
f 492/3/5 488/3/5 487/3/5
f 493/3/5 488/3/5 492/3/5
f 498/3/5 495/3/5 494/3/5
f 499/3/5 498/3/5 494/3/5
f 500/3/5 498/3/5 499/3/5
f 504/3/5 497/3/5 496/3/5
f 505/3/5 497/3/5 504/3/5
f 506/3/5 502/3/5 501/3/5
f 506/3/5 501/3/5 500/3/5
f 507/3/5 502/3/5 506/3/5
f 508/3/5 504/3/5 503/3/5
f 509/3/5 504/3/5 508/3/5
f 512/3/5 511/3/5 510/3/5
f 513/3/5 511/3/5 512/3/5
f 518/3/5 517/3/5 516/3/5
f 519/3/5 517/3/5 518/3/5
f 520/3/5 515/3/5 514/3/5
f 521/3/5 515/3/5 520/3/5
f 522/3/5 517/3/5 519/3/5
f 523/3/5 517/3/5 522/3/5
f 526/3/5 525/3/5 524/3/5
f 527/3/5 525/3/5 526/3/5
f 532/3/5 529/3/5 528/3/5
f 533/3/5 529/3/5 532/3/5
f 534/3/5 531/3/5 530/3/5
f 535/3/5 531/3/5 534/3/5
f 540/3/5 537/3/5 536/3/5
f 541/3/5 537/3/5 540/3/5
f 542/3/5 539/3/5 538/3/5
f 543/3/5 539/3/5 542/3/5
f 544/2/6 545/2/6 548/2/6
f 548/2/6 545/2/6 549/2/6
f 546/3/6 547/3/6 550/3/6
f 550/3/6 547/3/6 551/3/6
f 552/3/6 553/3/6 556/3/6
f 556/3/6 553/3/6 557/3/6
f 554/3/6 555/3/6 558/3/6
f 558/3/6 555/3/6 559/3/6
f 560/3/6 561/3/6 562/3/6
f 562/3/6 561/3/6 563/3/6
f 564/2/6 565/2/6 568/2/6
f 568/2/6 565/2/6 569/2/6
f 566/3/6 567/3/6 570/3/6
f 570/3/6 567/3/6 571/3/6
f 571/3/6 567/3/6 572/3/6
f 572/3/6 567/3/6 573/3/6
f 568/3/6 569/3/6 574/3/6
f 574/3/6 569/3/6 575/3/6
f 572/2/6 573/2/6 576/2/6
f 576/2/6 573/2/6 577/2/6
f 578/3/6 579/3/6 580/3/6
f 580/3/6 579/3/6 581/3/6
f 582/2/6 583/2/6 588/2/6
f 583/3/6 584/3/6 589/3/6
f 588/2/6 583/2/6 589/2/6
f 589/3/6 584/3/6 590/3/6
f 585/3/6 586/3/6 591/3/6
f 591/3/6 586/3/6 592/3/6
f 592/3/6 593/3/6 594/3/6
f 594/3/6 593/3/6 595/3/6
f 587/3/6 588/3/6 596/3/6
f 596/3/6 588/3/6 597/3/6
f 594/2/6 595/2/6 598/2/6
f 598/2/6 595/2/6 599/2/6
f 600/3/6 601/3/6 604/3/6
f 604/3/6 601/3/6 605/3/6
f 602/3/6 603/3/6 609/3/6
f 609/3/6 603/3/6 610/3/6
f 605/3/6 606/3/6 611/3/6
f 611/3/6 606/3/6 612/3/6
f 607/3/6 608/3/6 613/3/6
f 608/2/6 609/2/6 614/2/6
f 613/3/6 608/3/6 614/3/6
f 614/2/6 609/2/6 615/2/6
f 616/3/6 617/3/6 619/3/6
f 619/3/6 617/3/6 620/3/6
f 618/3/6 619/3/6 622/3/6
f 620/3/6 621/3/6 622/3/6
f 619/3/6 620/3/6 622/3/6
f 622/3/6 621/3/6 623/3/6
f 618/3/6 622/3/6 625/3/6
f 623/3/6 621/3/6 626/3/6
f 624/3/6 625/3/6 628/3/6
f 625/3/6 622/3/6 629/3/6
f 628/3/6 625/3/6 629/3/6
f 626/3/6 627/3/6 630/3/6
f 623/3/6 626/3/6 630/3/6
f 630/3/6 627/3/6 631/3/6
f 629/3/6 622/3/6 632/3/6
f 623/3/6 630/3/6 633/3/6
f 629/3/6 632/3/6 634/3/6
f 632/3/6 633/3/6 634/3/6
f 634/3/6 633/3/6 635/3/6
f 635/3/6 633/3/6 636/3/6
f 636/3/6 633/3/6 637/3/6
f 633/3/6 630/3/6 638/3/6
f 637/3/6 633/3/6 638/3/6
f 635/3/6 636/3/6 639/3/6
f 636/2/6 637/2/6 640/2/6
f 639/3/6 636/3/6 640/3/6
f 640/2/6 637/2/6 641/2/6
f 642/3/6 643/3/6 644/3/6
f 644/3/6 643/3/6 645/3/6
f 642/3/6 644/3/6 646/3/6
f 644/2/6 645/2/6 646/2/6
f 645/3/6 643/3/6 647/3/6
f 646/2/6 645/2/6 647/2/6
f 642/3/6 646/3/6 648/3/6
f 646/3/6 647/3/6 648/3/6
f 647/3/6 643/3/6 649/3/6
f 648/3/6 647/3/6 649/3/6
