# MagicaVoxel @ Ephtracy

# group
o 

# material
mtllib planetas-0.mtl
usemtl palette

# normals
vn -1 0 0
vn 1 0 0
vn 0 0 1
vn 0 0 -1
vn 0 -1 0
vn 0 1 0

# texcoords
vt 0.0800781 0.5
vt 0.0839844 0.5

# verts
v 9.6 0.1 -29.6
v 9.6 0.1 -29.8
v 9.6 0.2 -29.5
v 9.6 0.2 -29.6
v 9.6 0.2 -29.8
v 9.6 0.2 -29.9
v 9.6 0.3 -29.5
v 9.6 0.3 -29.9
v 9.6 0.4 -29.5
v 9.6 0.4 -29.6
v 9.6 0.4 -29.8
v 9.6 0.4 -29.9
v 9.6 0.5 -29.6
v 9.6 0.5 -29.8
v 9.7 0 -29.6
v 9.7 0 -29.7
v 9.7 0 -29.8
v 9.7 0.1 -29.5
v 9.7 0.1 -29.6
v 9.7 0.1 -29.7
v 9.7 0.1 -29.8
v 9.7 0.1 -29.9
v 9.7 0.2 -29.4
v 9.7 0.2 -29.5
v 9.7 0.2 -29.6
v 9.7 0.2 -29.8
v 9.7 0.2 -29.9
v 9.7 0.2 -30
v 9.7 0.3 -29.5
v 9.7 0.3 -29.9
v 9.7 0.4 -29.4
v 9.7 0.4 -29.5
v 9.7 0.4 -29.6
v 9.7 0.4 -29.8
v 9.7 0.4 -29.9
v 9.7 0.4 -30
v 9.7 0.5 -29.5
v 9.7 0.5 -29.6
v 9.7 0.5 -29.7
v 9.7 0.5 -29.8
v 9.7 0.5 -29.9
v 9.7 0.6 -29.6
v 9.7 0.6 -29.7
v 9.7 0.6 -29.8
v 9.8 0 -29.5
v 9.8 0 -29.6
v 9.8 0 -29.8
v 9.8 0 -29.9
v 9.8 0.1 -29.4
v 9.8 0.1 -29.5
v 9.8 0.1 -29.6
v 9.8 0.1 -29.8
v 9.8 0.1 -29.9
v 9.8 0.1 -30
v 9.8 0.2 -29.4
v 9.8 0.2 -29.5
v 9.8 0.2 -29.9
v 9.8 0.2 -30
v 9.8 0.4 -29.4
v 9.8 0.4 -29.5
v 9.8 0.4 -29.9
v 9.8 0.4 -30
v 9.8 0.5 -29.4
v 9.8 0.5 -29.5
v 9.8 0.5 -29.6
v 9.8 0.5 -29.8
v 9.8 0.5 -29.9
v 9.8 0.5 -30
v 9.8 0.6 -29.5
v 9.8 0.6 -29.6
v 9.8 0.6 -29.8
v 9.8 0.6 -29.9
v 10 0 -29.5
v 10 0 -29.6
v 10 0 -29.8
v 10 0 -29.9
v 10 0.1 -29.4
v 10 0.1 -29.5
v 10 0.1 -29.6
v 10 0.1 -29.8
v 10 0.1 -29.9
v 10 0.1 -30
v 10 0.2 -29.4
v 10 0.2 -29.5
v 10 0.2 -29.9
v 10 0.2 -30
v 10 0.4 -29.4
v 10 0.4 -29.5
v 10 0.4 -29.9
v 10 0.4 -30
v 10 0.5 -29.4
v 10 0.5 -29.5
v 10 0.5 -29.6
v 10 0.5 -29.8
v 10 0.5 -29.9
v 10 0.5 -30
v 10 0.6 -29.5
v 10 0.6 -29.6
v 10 0.6 -29.8
v 10 0.6 -29.9
v 10.1 0 -29.6
v 10.1 0 -29.8
v 10.1 0.1 -29.5
v 10.1 0.1 -29.6
v 10.1 0.1 -29.8
v 10.1 0.1 -29.9
v 10.1 0.2 -29.4
v 10.1 0.2 -29.5
v 10.1 0.2 -29.6
v 10.1 0.2 -29.8
v 10.1 0.2 -29.9
v 10.1 0.2 -30
v 10.1 0.3 -29.4
v 10.1 0.3 -29.5
v 10.1 0.4 -29.4
v 10.1 0.4 -29.5
v 10.1 0.4 -29.6
v 10.1 0.4 -29.8
v 10.1 0.4 -29.9
v 10.1 0.4 -30
v 10.1 0.5 -29.5
v 10.1 0.5 -29.6
v 10.1 0.5 -29.7
v 10.1 0.5 -29.8
v 10.1 0.5 -29.9
v 10.1 0.6 -29.6
v 10.1 0.6 -29.7
v 10.1 0.6 -29.8
v 10.2 0.1 -29.6
v 10.2 0.1 -29.8
v 10.2 0.2 -29.5
v 10.2 0.2 -29.6
v 10.2 0.2 -29.7
v 10.2 0.2 -29.8
v 10.2 0.2 -29.9
v 10.2 0.3 -29.5
v 10.2 0.3 -29.7
v 10.2 0.4 -29.5
v 10.2 0.4 -29.6
v 10.2 0.4 -29.7
v 10.2 0.4 -29.8
v 10.2 0.4 -29.9
v 10.2 0.5 -29.6
v 10.2 0.5 -29.7
v 10.2 0.5 -29.8
v 9.7 0.2 -29.4
v 9.7 0.4 -29.4
v 9.8 0.1 -29.4
v 9.8 0.2 -29.4
v 9.8 0.3 -29.4
v 9.8 0.4 -29.4
v 9.8 0.5 -29.4
v 9.9 0.4 -29.4
v 9.9 0.5 -29.4
v 10 0.1 -29.4
v 10 0.2 -29.4
v 10 0.4 -29.4
v 10 0.5 -29.4
v 10.1 0.2 -29.4
v 10.1 0.3 -29.4
v 10.1 0.4 -29.4
v 9.6 0.2 -29.5
v 9.6 0.3 -29.5
v 9.6 0.4 -29.5
v 9.7 0.1 -29.5
v 9.7 0.2 -29.5
v 9.7 0.3 -29.5
v 9.7 0.4 -29.5
v 9.7 0.5 -29.5
v 9.8 0 -29.5
v 9.8 0.1 -29.5
v 9.8 0.2 -29.5
v 9.8 0.4 -29.5
v 9.8 0.5 -29.5
v 9.8 0.6 -29.5
v 9.9 0.5 -29.5
v 10 0 -29.5
v 10 0.1 -29.5
v 10 0.2 -29.5
v 10 0.4 -29.5
v 10 0.5 -29.5
v 10 0.6 -29.5
v 10.1 0.1 -29.5
v 10.1 0.2 -29.5
v 10.1 0.3 -29.5
v 10.1 0.4 -29.5
v 10.1 0.5 -29.5
v 10.2 0.2 -29.5
v 10.2 0.3 -29.5
v 10.2 0.4 -29.5
v 9.6 0.1 -29.6
v 9.6 0.2 -29.6
v 9.6 0.4 -29.6
v 9.6 0.5 -29.6
v 9.7 0 -29.6
v 9.7 0.1 -29.6
v 9.7 0.2 -29.6
v 9.7 0.4 -29.6
v 9.7 0.5 -29.6
v 9.7 0.6 -29.6
v 9.8 0 -29.6
v 9.8 0.1 -29.6
v 9.8 0.5 -29.6
v 9.8 0.6 -29.6
v 10 0 -29.6
v 10 0.1 -29.6
v 10 0.5 -29.6
v 10 0.6 -29.6
v 10.1 0 -29.6
v 10.1 0.1 -29.6
v 10.1 0.2 -29.6
v 10.1 0.4 -29.6
v 10.1 0.5 -29.6
v 10.1 0.6 -29.6
v 10.2 0.1 -29.6
v 10.2 0.2 -29.6
v 10.2 0.4 -29.6
v 10.2 0.5 -29.6
v 9.6 0.1 -29.8
v 9.6 0.2 -29.8
v 9.6 0.4 -29.8
v 9.6 0.5 -29.8
v 9.7 0 -29.8
v 9.7 0.1 -29.8
v 9.7 0.2 -29.8
v 9.7 0.4 -29.8
v 9.7 0.5 -29.8
v 9.7 0.6 -29.8
v 9.8 0 -29.8
v 9.8 0.1 -29.8
v 9.8 0.5 -29.8
v 9.8 0.6 -29.8
v 10 0 -29.8
v 10 0.1 -29.8
v 10 0.5 -29.8
v 10 0.6 -29.8
v 10.1 0 -29.8
v 10.1 0.1 -29.8
v 10.1 0.2 -29.8
v 10.1 0.4 -29.8
v 10.1 0.5 -29.8
v 10.1 0.6 -29.8
v 10.2 0.1 -29.8
v 10.2 0.2 -29.8
v 10.2 0.4 -29.8
v 10.2 0.5 -29.8
v 9.6 0.2 -29.9
v 9.6 0.3 -29.9
v 9.6 0.4 -29.9
v 9.7 0.1 -29.9
v 9.7 0.2 -29.9
v 9.7 0.3 -29.9
v 9.7 0.4 -29.9
v 9.7 0.5 -29.9
v 9.8 0 -29.9
v 9.8 0.1 -29.9
v 9.8 0.2 -29.9
v 9.8 0.4 -29.9
v 9.8 0.5 -29.9
v 9.8 0.6 -29.9
v 9.9 0.5 -29.9
v 9.9 0.6 -29.9
v 10 0 -29.9
v 10 0.1 -29.9
v 10 0.2 -29.9
v 10 0.4 -29.9
v 10 0.5 -29.9
v 10 0.6 -29.9
v 10.1 0.1 -29.9
v 10.1 0.2 -29.9
v 10.1 0.4 -29.9
v 10.1 0.5 -29.9
v 10.2 0.2 -29.9
v 10.2 0.4 -29.9
v 9.7 0.2 -30
v 9.7 0.4 -30
v 9.8 0.1 -30
v 9.8 0.2 -30
v 9.8 0.3 -30
v 9.8 0.4 -30
v 9.8 0.5 -30
v 10 0.1 -30
v 10 0.2 -30
v 10 0.3 -30
v 10 0.4 -30
v 10 0.5 -30
v 10.1 0.2 -30
v 10.1 0.4 -30
v 9.8 0 -29.5
v 10 0 -29.5
v 9.7 0 -29.6
v 9.8 0 -29.6
v 10 0 -29.6
v 10.1 0 -29.6
v 9.7 0 -29.7
v 9.9 0 -29.7
v 9.7 0 -29.8
v 9.8 0 -29.8
v 9.9 0 -29.8
v 10 0 -29.8
v 10.1 0 -29.8
v 9.8 0 -29.9
v 10 0 -29.9
v 9.8 0.1 -29.4
v 10 0.1 -29.4
v 9.7 0.1 -29.5
v 9.8 0.1 -29.5
v 10 0.1 -29.5
v 10.1 0.1 -29.5
v 9.6 0.1 -29.6
v 9.7 0.1 -29.6
v 9.8 0.1 -29.6
v 10 0.1 -29.6
v 10.1 0.1 -29.6
v 10.2 0.1 -29.6
v 9.7 0.1 -29.7
v 9.6 0.1 -29.8
v 9.7 0.1 -29.8
v 9.8 0.1 -29.8
v 10 0.1 -29.8
v 10.1 0.1 -29.8
v 10.2 0.1 -29.8
v 9.7 0.1 -29.9
v 9.8 0.1 -29.9
v 10 0.1 -29.9
v 10.1 0.1 -29.9
v 9.8 0.1 -30
v 10 0.1 -30
v 9.7 0.2 -29.4
v 9.8 0.2 -29.4
v 10 0.2 -29.4
v 10.1 0.2 -29.4
v 9.6 0.2 -29.5
v 9.7 0.2 -29.5
v 9.8 0.2 -29.5
v 10 0.2 -29.5
v 10.1 0.2 -29.5
v 10.2 0.2 -29.5
v 9.6 0.2 -29.6
v 9.7 0.2 -29.6
v 10.1 0.2 -29.6
v 10.2 0.2 -29.6
v 9.6 0.2 -29.8
v 9.7 0.2 -29.8
v 10.1 0.2 -29.8
v 10.2 0.2 -29.8
v 9.6 0.2 -29.9
v 9.7 0.2 -29.9
v 9.8 0.2 -29.9
v 10 0.2 -29.9
v 10.1 0.2 -29.9
v 10.2 0.2 -29.9
v 9.7 0.2 -30
v 9.8 0.2 -30
v 10 0.2 -30
v 10.1 0.2 -30
v 9.7 0.4 -29.4
v 9.8 0.4 -29.4
v 10 0.4 -29.4
v 10.1 0.4 -29.4
v 9.6 0.4 -29.5
v 9.7 0.4 -29.5
v 9.8 0.4 -29.5
v 10 0.4 -29.5
v 10.1 0.4 -29.5
v 10.2 0.4 -29.5
v 9.6 0.4 -29.6
v 9.7 0.4 -29.6
v 10.1 0.4 -29.6
v 10.2 0.4 -29.6
v 9.6 0.4 -29.8
v 9.7 0.4 -29.8
v 10.1 0.4 -29.8
v 10.2 0.4 -29.8
v 9.6 0.4 -29.9
v 9.7 0.4 -29.9
v 9.8 0.4 -29.9
v 10 0.4 -29.9
v 10.1 0.4 -29.9
v 10.2 0.4 -29.9
v 9.7 0.4 -30
v 9.8 0.4 -30
v 10 0.4 -30
v 10.1 0.4 -30
v 9.8 0.5 -29.4
v 9.9 0.5 -29.4
v 10 0.5 -29.4
v 9.7 0.5 -29.5
v 9.8 0.5 -29.5
v 9.9 0.5 -29.5
v 10 0.5 -29.5
v 10.1 0.5 -29.5
v 9.6 0.5 -29.6
v 9.7 0.5 -29.6
v 9.8 0.5 -29.6
v 10 0.5 -29.6
v 10.1 0.5 -29.6
v 10.2 0.5 -29.6
v 9.7 0.5 -29.7
v 10.1 0.5 -29.7
v 10.2 0.5 -29.7
v 9.6 0.5 -29.8
v 9.7 0.5 -29.8
v 9.8 0.5 -29.8
v 10 0.5 -29.8
v 10.1 0.5 -29.8
v 10.2 0.5 -29.8
v 9.7 0.5 -29.9
v 9.8 0.5 -29.9
v 9.9 0.5 -29.9
v 10 0.5 -29.9
v 10.1 0.5 -29.9
v 9.8 0.5 -30
v 10 0.5 -30
v 9.8 0.6 -29.5
v 10 0.6 -29.5
v 9.7 0.6 -29.6
v 9.8 0.6 -29.6
v 10 0.6 -29.6
v 10.1 0.6 -29.6
v 9.7 0.6 -29.7
v 9.8 0.6 -29.7
v 9.9 0.6 -29.7
v 10 0.6 -29.7
v 10.1 0.6 -29.7
v 9.7 0.6 -29.8
v 9.8 0.6 -29.8
v 10 0.6 -29.8
v 10.1 0.6 -29.8
v 9.8 0.6 -29.9
v 9.9 0.6 -29.9
v 10 0.6 -29.9

# faces
f 4/1/1 2/1/1 1/1/1
f 5/1/1 2/1/1 4/1/1
f 7/1/1 4/1/1 3/1/1
f 7/1/1 6/1/1 5/1/1
f 7/1/1 5/1/1 4/1/1
f 8/1/1 6/1/1 7/1/1
f 9/2/1 8/2/1 7/2/1
f 10/2/1 8/2/1 9/2/1
f 11/2/1 8/2/1 10/2/1
f 12/2/1 8/2/1 11/2/1
f 13/1/1 11/1/1 10/1/1
f 14/1/1 11/1/1 13/1/1
f 19/2/1 16/2/1 15/2/1
f 20/1/1 17/1/1 16/1/1
f 20/2/1 16/2/1 19/2/1
f 21/1/1 17/1/1 20/1/1
f 24/1/1 19/1/1 18/1/1
f 25/1/1 19/1/1 24/1/1
f 26/1/1 22/1/1 21/1/1
f 27/1/1 22/1/1 26/1/1
f 29/1/1 24/1/1 23/1/1
f 30/1/1 28/1/1 27/1/1
f 31/1/1 29/1/1 23/1/1
f 32/1/1 29/1/1 31/1/1
f 35/1/1 28/1/1 30/1/1
f 36/1/1 28/1/1 35/1/1
f 37/1/1 33/1/1 32/1/1
f 38/1/1 33/1/1 37/1/1
f 40/1/1 35/1/1 34/1/1
f 41/1/1 35/1/1 40/1/1
f 42/2/1 39/2/1 38/2/1
f 43/1/1 40/1/1 39/1/1
f 43/2/1 39/2/1 42/2/1
f 44/1/1 40/1/1 43/1/1
f 50/1/1 46/1/1 45/1/1
f 51/1/1 46/1/1 50/1/1
f 52/1/1 48/1/1 47/1/1
f 53/1/1 48/1/1 52/1/1
f 55/2/1 50/2/1 49/2/1
f 56/2/1 50/2/1 55/2/1
f 57/1/1 54/1/1 53/1/1
f 58/1/1 54/1/1 57/1/1
f 63/1/1 60/1/1 59/1/1
f 64/1/1 60/1/1 63/1/1
f 67/1/1 62/1/1 61/1/1
f 68/1/1 62/1/1 67/1/1
f 69/2/1 65/2/1 64/2/1
f 70/2/1 65/2/1 69/2/1
f 71/2/1 67/2/1 66/2/1
f 72/2/1 67/2/1 71/2/1
f 73/1/2 74/1/2 78/1/2
f 78/1/2 74/1/2 79/1/2
f 75/1/2 76/1/2 80/1/2
f 80/1/2 76/1/2 81/1/2
f 77/2/2 78/2/2 83/2/2
f 83/2/2 78/2/2 84/2/2
f 81/1/2 82/1/2 85/1/2
f 85/1/2 82/1/2 86/1/2
f 87/2/2 88/2/2 91/2/2
f 91/2/2 88/2/2 92/2/2
f 89/1/2 90/1/2 95/1/2
f 95/1/2 90/1/2 96/1/2
f 92/2/2 93/2/2 97/2/2
f 97/2/2 93/2/2 98/2/2
f 94/1/2 95/1/2 99/1/2
f 99/1/2 95/1/2 100/1/2
f 101/2/2 102/2/2 104/2/2
f 104/2/2 102/2/2 105/2/2
f 103/2/2 104/2/2 108/2/2
f 108/2/2 104/2/2 109/2/2
f 105/2/2 106/2/2 110/2/2
f 110/2/2 106/2/2 111/2/2
f 107/2/2 108/2/2 113/2/2
f 113/2/2 108/2/2 114/2/2
f 113/1/2 114/1/2 115/1/2
f 115/1/2 114/1/2 116/1/2
f 111/2/2 112/2/2 119/2/2
f 119/2/2 112/2/2 120/2/2
f 116/1/2 117/1/2 121/1/2
f 121/1/2 117/1/2 122/1/2
f 118/1/2 119/1/2 124/1/2
f 124/1/2 119/1/2 125/1/2
f 122/1/2 123/1/2 126/1/2
f 123/2/2 124/2/2 127/2/2
f 126/1/2 123/1/2 127/1/2
f 127/2/2 124/2/2 128/2/2
f 129/1/2 130/1/2 132/1/2
f 132/1/2 130/1/2 133/1/2
f 133/1/2 130/1/2 134/1/2
f 131/2/2 132/2/2 136/2/2
f 132/2/2 133/2/2 136/2/2
f 134/1/2 135/1/2 137/1/2
f 136/2/2 133/2/2 137/2/2
f 133/1/2 134/1/2 137/1/2
f 136/1/2 137/1/2 138/1/2
f 138/1/2 137/1/2 139/1/2
f 137/1/2 135/1/2 140/1/2
f 139/1/2 137/1/2 140/1/2
f 140/1/2 135/1/2 141/1/2
f 141/1/2 135/1/2 142/1/2
f 139/1/2 140/1/2 143/1/2
f 140/2/2 141/2/2 144/2/2
f 143/1/2 140/1/2 144/1/2
f 144/2/2 141/2/2 145/2/2
f 149/1/3 147/1/3 146/1/3
f 150/1/3 147/1/3 149/1/3
f 151/1/3 147/1/3 150/1/3
f 153/1/3 151/1/3 150/1/3
f 153/1/3 152/1/3 151/1/3
f 154/1/3 152/1/3 153/1/3
f 155/2/3 149/2/3 148/2/3
f 155/2/3 150/2/3 149/2/3
f 156/2/3 150/2/3 155/2/3
f 157/2/3 154/2/3 153/2/3
f 157/1/3 153/1/3 150/1/3
f 158/2/3 154/2/3 157/2/3
f 159/2/3 150/2/3 156/2/3
f 160/1/3 157/1/3 150/1/3
f 160/2/3 150/2/3 159/2/3
f 161/1/3 157/1/3 160/1/3
f 166/1/3 163/1/3 162/1/3
f 167/2/3 164/2/3 163/2/3
f 167/1/3 163/1/3 166/1/3
f 168/2/3 164/2/3 167/2/3
f 171/1/3 166/1/3 165/1/3
f 172/1/3 166/1/3 171/1/3
f 173/1/3 169/1/3 168/1/3
f 174/1/3 169/1/3 173/1/3
f 176/2/3 175/2/3 174/2/3
f 177/1/3 171/1/3 170/1/3
f 178/1/3 171/1/3 177/1/3
f 181/2/3 175/2/3 176/2/3
f 182/2/3 175/2/3 181/2/3
f 183/2/3 179/2/3 178/2/3
f 184/2/3 179/2/3 183/2/3
f 186/1/3 181/1/3 180/1/3
f 187/1/3 181/1/3 186/1/3
f 188/2/3 185/2/3 184/2/3
f 189/1/3 186/1/3 185/1/3
f 189/2/3 185/2/3 188/2/3
f 190/1/3 186/1/3 189/1/3
f 196/1/3 192/1/3 191/1/3
f 197/1/3 192/1/3 196/1/3
f 198/1/3 194/1/3 193/1/3
f 199/1/3 194/1/3 198/1/3
f 201/2/3 196/2/3 195/2/3
f 202/2/3 196/2/3 201/2/3
f 203/2/3 200/2/3 199/2/3
f 204/2/3 200/2/3 203/2/3
f 209/2/3 206/2/3 205/2/3
f 210/2/3 206/2/3 209/2/3
f 213/1/3 208/1/3 207/1/3
f 214/1/3 208/1/3 213/1/3
f 215/1/3 211/1/3 210/1/3
f 216/1/3 211/1/3 215/1/3
f 217/1/3 213/1/3 212/1/3
f 218/1/3 213/1/3 217/1/3
f 219/1/4 220/1/4 224/1/4
f 224/1/4 220/1/4 225/1/4
f 221/1/4 222/1/4 226/1/4
f 226/1/4 222/1/4 227/1/4
f 223/1/4 224/1/4 229/1/4
f 229/1/4 224/1/4 230/1/4
f 227/1/4 228/1/4 231/1/4
f 231/1/4 228/1/4 232/1/4
f 233/2/4 234/2/4 237/2/4
f 237/2/4 234/2/4 238/2/4
f 235/2/4 236/2/4 241/2/4
f 241/2/4 236/2/4 242/2/4
f 238/1/4 239/1/4 243/1/4
f 243/1/4 239/1/4 244/1/4
f 240/2/4 241/2/4 245/2/4
f 245/2/4 241/2/4 246/2/4
f 247/1/4 248/1/4 251/1/4
f 248/2/4 249/2/4 252/2/4
f 251/1/4 248/1/4 252/1/4
f 252/2/4 249/2/4 253/2/4
f 250/1/4 251/1/4 256/1/4
f 256/1/4 251/1/4 257/1/4
f 253/1/4 254/1/4 258/1/4
f 258/1/4 254/1/4 259/1/4
f 259/2/4 260/2/4 261/2/4
f 261/2/4 260/2/4 262/2/4
f 255/1/4 256/1/4 263/1/4
f 263/1/4 256/1/4 264/1/4
f 261/1/4 262/1/4 267/1/4
f 267/1/4 262/1/4 268/1/4
f 264/2/4 265/2/4 269/2/4
f 269/2/4 265/2/4 270/2/4
f 266/1/4 267/1/4 271/1/4
f 271/1/4 267/1/4 272/1/4
f 270/1/4 271/1/4 273/1/4
f 273/1/4 271/1/4 274/1/4
f 275/1/4 276/1/4 278/1/4
f 278/1/4 276/1/4 279/1/4
f 279/1/4 276/1/4 280/1/4
f 277/1/4 278/1/4 282/1/4
f 278/2/4 279/2/4 283/2/4
f 282/1/4 278/1/4 283/1/4
f 280/1/4 281/1/4 284/1/4
f 283/2/4 279/2/4 284/2/4
f 279/1/4 280/1/4 284/1/4
f 284/1/4 281/1/4 285/1/4
f 285/1/4 281/1/4 286/1/4
f 283/2/4 284/2/4 287/2/4
f 284/2/4 285/2/4 287/2/4
f 287/2/4 285/2/4 288/2/4
f 292/1/5 290/1/5 289/1/5
f 293/1/5 290/1/5 292/1/5
f 295/2/5 292/2/5 291/2/5
f 295/2/5 294/2/5 293/2/5
f 295/2/5 293/2/5 292/2/5
f 296/2/5 294/2/5 295/2/5
f 297/1/5 296/1/5 295/1/5
f 298/1/5 296/1/5 297/1/5
f 299/2/5 294/2/5 296/2/5
f 299/1/5 296/1/5 298/1/5
f 300/2/5 294/2/5 299/2/5
f 301/2/5 294/2/5 300/2/5
f 302/1/5 299/1/5 298/1/5
f 302/1/5 300/1/5 299/1/5
f 303/1/5 300/1/5 302/1/5
f 307/2/5 305/2/5 304/2/5
f 308/2/5 305/2/5 307/2/5
f 311/1/5 307/1/5 306/1/5
f 312/1/5 307/1/5 311/1/5
f 313/2/5 309/2/5 308/2/5
f 314/2/5 309/2/5 313/2/5
f 316/1/5 311/1/5 310/1/5
f 317/1/5 316/1/5 310/1/5
f 318/1/5 316/1/5 317/1/5
f 321/1/5 315/1/5 314/1/5
f 322/1/5 315/1/5 321/1/5
f 323/1/5 319/1/5 318/1/5
f 324/1/5 319/1/5 323/1/5
f 325/2/5 321/2/5 320/2/5
f 326/2/5 321/2/5 325/2/5
f 327/1/5 325/1/5 324/1/5
f 328/1/5 325/1/5 327/1/5
f 334/1/5 330/1/5 329/1/5
f 335/1/5 330/1/5 334/1/5
f 336/2/5 332/2/5 331/2/5
f 337/2/5 332/2/5 336/2/5
f 339/1/5 334/1/5 333/1/5
f 340/1/5 334/1/5 339/1/5
f 341/2/5 338/2/5 337/2/5
f 342/2/5 338/2/5 341/2/5
f 347/1/5 344/1/5 343/1/5
f 348/1/5 344/1/5 347/1/5
f 351/1/5 346/1/5 345/1/5
f 352/1/5 346/1/5 351/1/5
f 353/1/5 349/1/5 348/1/5
f 354/1/5 349/1/5 353/1/5
f 355/2/5 351/2/5 350/2/5
f 356/2/5 351/2/5 355/2/5
f 357/1/6 358/1/6 362/1/6
f 362/1/6 358/1/6 363/1/6
f 359/1/6 360/1/6 364/1/6
f 364/1/6 360/1/6 365/1/6
f 361/2/6 362/2/6 367/2/6
f 367/2/6 362/2/6 368/2/6
f 365/1/6 366/1/6 369/1/6
f 369/1/6 366/1/6 370/1/6
f 371/2/6 372/2/6 375/2/6
f 375/2/6 372/2/6 376/2/6
f 373/1/6 374/1/6 379/1/6
f 379/1/6 374/1/6 380/1/6
f 376/1/6 377/1/6 381/1/6
f 381/1/6 377/1/6 382/1/6
f 378/2/6 379/2/6 383/2/6
f 383/2/6 379/2/6 384/2/6
f 385/1/6 386/1/6 389/1/6
f 386/2/6 387/2/6 390/2/6
f 389/1/6 386/1/6 390/1/6
f 390/2/6 387/2/6 391/2/6
f 388/1/6 389/1/6 394/1/6
f 394/1/6 389/1/6 395/1/6
f 391/1/6 392/1/6 396/1/6
f 396/1/6 392/1/6 397/1/6
f 393/1/6 394/1/6 399/1/6
f 397/1/6 398/1/6 400/1/6
f 400/1/6 398/1/6 401/1/6
f 393/1/6 399/1/6 402/1/6
f 402/1/6 399/1/6 403/1/6
f 400/2/6 401/2/6 406/2/6
f 406/2/6 401/2/6 407/2/6
f 403/1/6 404/1/6 408/1/6
f 408/1/6 404/1/6 409/1/6
f 405/1/6 406/1/6 411/1/6
f 411/1/6 406/1/6 412/1/6
f 409/1/6 410/1/6 413/1/6
f 410/1/6 411/1/6 413/1/6
f 413/1/6 411/1/6 414/1/6
f 415/2/6 416/2/6 418/2/6
f 418/2/6 416/2/6 419/2/6
f 417/2/6 418/2/6 421/2/6
f 418/2/6 419/2/6 421/2/6
f 421/2/6 419/2/6 422/2/6
f 422/2/6 419/2/6 423/2/6
f 419/1/6 420/1/6 424/1/6
f 423/2/6 419/2/6 424/2/6
f 424/1/6 420/1/6 425/1/6
f 421/1/6 422/1/6 426/1/6
f 422/2/6 423/2/6 427/2/6
f 426/1/6 422/1/6 427/1/6
f 423/1/6 424/1/6 428/1/6
f 424/2/6 425/2/6 428/2/6
f 428/2/6 425/2/6 429/2/6
f 427/2/6 423/2/6 430/2/6
f 423/1/6 428/1/6 431/1/6
f 430/2/6 423/2/6 431/2/6
f 431/1/6 428/1/6 432/1/6
