# MagicaVoxel @ Ephtracy

# group
o 

# material
mtllib planetas-40.mtl
usemtl palette

# normals
vn -1 0 0
vn 1 0 0
vn 0 0 1
vn 0 0 -1
vn 0 -1 0
vn 0 1 0

# texcoords
vt 0.0957031 0.5
vt 0.0996094 0.5
vt 0.103516 0.5
vt 0.107422 0.5
vt 0.986328 0.5

# verts
v -0.3 0.1 -6.9
v -0.3 0.1 -7.1
v -0.3 0.2 -6.8
v -0.3 0.2 -6.9
v -0.3 0.2 -7.1
v -0.3 0.2 -7.2
v -0.3 0.3 -6.8
v -0.3 0.3 -7.2
v -0.3 0.4 -6.8
v -0.3 0.4 -6.9
v -0.3 0.4 -7.1
v -0.3 0.4 -7.2
v -0.3 0.5 -6.9
v -0.3 0.5 -7.1
v -0.2 0 -6.9
v -0.2 0 -7.1
v -0.2 0.1 -6.8
v -0.2 0.1 -6.9
v -0.2 0.1 -7.1
v -0.2 0.1 -7.2
v -0.2 0.2 -6.7
v -0.2 0.2 -6.8
v -0.2 0.2 -6.9
v -0.2 0.2 -7.1
v -0.2 0.2 -7.2
v -0.2 0.2 -7.3
v -0.2 0.3 -6.7
v -0.2 0.3 -6.8
v -0.2 0.3 -7.2
v -0.2 0.3 -7.3
v -0.2 0.4 -6.7
v -0.2 0.4 -6.8
v -0.2 0.4 -6.9
v -0.2 0.4 -7.1
v -0.2 0.4 -7.2
v -0.2 0.4 -7.3
v -0.2 0.5 -6.8
v -0.2 0.5 -6.9
v -0.2 0.5 -7.1
v -0.2 0.5 -7.2
v -0.2 0.6 -6.9
v -0.2 0.6 -7.1
v -0.1 0 -6.8
v -0.1 0 -6.9
v -0.1 0 -7.1
v -0.1 0 -7.2
v -0.1 0.1 -6.7
v -0.1 0.1 -6.8
v -0.1 0.1 -6.9
v -0.1 0.1 -7.1
v -0.1 0.1 -7.2
v -0.1 0.1 -7.3
v -0.1 0.2 -6.7
v -0.1 0.2 -6.8
v -0.1 0.2 -7.2
v -0.1 0.2 -7.3
v -0.1 0.4 -6.7
v -0.1 0.4 -6.8
v -0.1 0.4 -7.2
v -0.1 0.4 -7.3
v -0.1 0.5 -6.7
v -0.1 0.5 -6.8
v -0.1 0.5 -6.9
v -0.1 0.5 -7.1
v -0.1 0.5 -7.2
v -0.1 0.5 -7.3
v -0.1 0.6 -6.8
v -0.1 0.6 -6.9
v -0.1 0.6 -7.1
v -0.1 0.6 -7.2
v 0.1 0 -6.8
v 0.1 0 -6.9
v 0.1 0 -7.1
v 0.1 0 -7.2
v 0.1 0.1 -6.7
v 0.1 0.1 -6.8
v 0.1 0.1 -6.9
v 0.1 0.1 -7.1
v 0.1 0.1 -7.2
v 0.1 0.1 -7.3
v 0.1 0.2 -6.7
v 0.1 0.2 -6.8
v 0.1 0.2 -7.2
v 0.1 0.2 -7.3
v 0.1 0.4 -6.7
v 0.1 0.4 -6.8
v 0.1 0.4 -7.2
v 0.1 0.4 -7.3
v 0.1 0.5 -6.7
v 0.1 0.5 -6.8
v 0.1 0.5 -6.9
v 0.1 0.5 -7.1
v 0.1 0.5 -7.2
v 0.1 0.5 -7.3
v 0.1 0.6 -6.8
v 0.1 0.6 -6.9
v 0.1 0.6 -7.1
v 0.1 0.6 -7.2
v 0.2 0 -6.9
v 0.2 0 -7.1
v 0.2 0.1 -6.8
v 0.2 0.1 -6.9
v 0.2 0.1 -7.1
v 0.2 0.1 -7.2
v 0.2 0.2 -6.7
v 0.2 0.2 -6.8
v 0.2 0.2 -6.9
v 0.2 0.2 -7.1
v 0.2 0.2 -7.2
v 0.2 0.2 -7.3
v 0.2 0.3 -6.7
v 0.2 0.3 -6.8
v 0.2 0.3 -7.2
v 0.2 0.3 -7.3
v 0.2 0.4 -6.7
v 0.2 0.4 -6.8
v 0.2 0.4 -6.9
v 0.2 0.4 -7.1
v 0.2 0.4 -7.2
v 0.2 0.4 -7.3
v 0.2 0.5 -6.8
v 0.2 0.5 -6.9
v 0.2 0.5 -7.1
v 0.2 0.5 -7.2
v 0.2 0.6 -6.9
v 0.2 0.6 -7.1
v 0.3 0.1 -6.9
v 0.3 0.1 -7.1
v 0.3 0.2 -6.8
v 0.3 0.2 -6.9
v 0.3 0.2 -7.1
v 0.3 0.2 -7.2
v 0.3 0.3 -6.8
v 0.3 0.3 -7.2
v 0.3 0.4 -6.8
v 0.3 0.4 -6.9
v 0.3 0.4 -7.1
v 0.3 0.4 -7.2
v 0.3 0.5 -6.9
v 0.3 0.5 -7.1
v -0.2 0.2 -6.7
v -0.2 0.3 -6.7
v -0.2 0.4 -6.7
v -0.1 0.1 -6.7
v -0.1 0.2 -6.7
v -0.1 0.4 -6.7
v -0.1 0.5 -6.7
v 0.1 0.1 -6.7
v 0.1 0.2 -6.7
v 0.1 0.4 -6.7
v 0.1 0.5 -6.7
v 0.2 0.2 -6.7
v 0.2 0.3 -6.7
v 0.2 0.4 -6.7
v -0.3 0.2 -6.8
v -0.3 0.3 -6.8
v -0.3 0.4 -6.8
v -0.2 0.1 -6.8
v -0.2 0.2 -6.8
v -0.2 0.3 -6.8
v -0.2 0.4 -6.8
v -0.2 0.5 -6.8
v -0.1 0 -6.8
v -0.1 0.1 -6.8
v -0.1 0.2 -6.8
v -0.1 0.4 -6.8
v -0.1 0.5 -6.8
v -0.1 0.6 -6.8
v 0.1 0 -6.8
v 0.1 0.1 -6.8
v 0.1 0.2 -6.8
v 0.1 0.4 -6.8
v 0.1 0.5 -6.8
v 0.1 0.6 -6.8
v 0.2 0.1 -6.8
v 0.2 0.2 -6.8
v 0.2 0.3 -6.8
v 0.2 0.4 -6.8
v 0.2 0.5 -6.8
v 0.3 0.2 -6.8
v 0.3 0.3 -6.8
v 0.3 0.4 -6.8
v -0.3 0.1 -6.9
v -0.3 0.2 -6.9
v -0.3 0.4 -6.9
v -0.3 0.5 -6.9
v -0.2 0 -6.9
v -0.2 0.1 -6.9
v -0.2 0.2 -6.9
v -0.2 0.4 -6.9
v -0.2 0.5 -6.9
v -0.2 0.6 -6.9
v -0.1 0 -6.9
v -0.1 0.1 -6.9
v -0.1 0.5 -6.9
v -0.1 0.6 -6.9
v 0.1 0 -6.9
v 0.1 0.1 -6.9
v 0.1 0.5 -6.9
v 0.1 0.6 -6.9
v 0.2 0 -6.9
v 0.2 0.1 -6.9
v 0.2 0.2 -6.9
v 0.2 0.4 -6.9
v 0.2 0.5 -6.9
v 0.2 0.6 -6.9
v 0.3 0.1 -6.9
v 0.3 0.2 -6.9
v 0.3 0.4 -6.9
v 0.3 0.5 -6.9
v -0.3 0.1 -7.1
v -0.3 0.2 -7.1
v -0.3 0.4 -7.1
v -0.3 0.5 -7.1
v -0.2 0 -7.1
v -0.2 0.1 -7.1
v -0.2 0.2 -7.1
v -0.2 0.4 -7.1
v -0.2 0.5 -7.1
v -0.2 0.6 -7.1
v -0.1 0 -7.1
v -0.1 0.1 -7.1
v -0.1 0.5 -7.1
v -0.1 0.6 -7.1
v 0.1 0 -7.1
v 0.1 0.1 -7.1
v 0.1 0.5 -7.1
v 0.1 0.6 -7.1
v 0.2 0 -7.1
v 0.2 0.1 -7.1
v 0.2 0.2 -7.1
v 0.2 0.4 -7.1
v 0.2 0.5 -7.1
v 0.2 0.6 -7.1
v 0.3 0.1 -7.1
v 0.3 0.2 -7.1
v 0.3 0.4 -7.1
v 0.3 0.5 -7.1
v -0.3 0.2 -7.2
v -0.3 0.3 -7.2
v -0.3 0.4 -7.2
v -0.2 0.1 -7.2
v -0.2 0.2 -7.2
v -0.2 0.3 -7.2
v -0.2 0.4 -7.2
v -0.2 0.5 -7.2
v -0.1 0 -7.2
v -0.1 0.1 -7.2
v -0.1 0.2 -7.2
v -0.1 0.4 -7.2
v -0.1 0.5 -7.2
v -0.1 0.6 -7.2
v 0.1 0 -7.2
v 0.1 0.1 -7.2
v 0.1 0.2 -7.2
v 0.1 0.4 -7.2
v 0.1 0.5 -7.2
v 0.1 0.6 -7.2
v 0.2 0.1 -7.2
v 0.2 0.2 -7.2
v 0.2 0.3 -7.2
v 0.2 0.4 -7.2
v 0.2 0.5 -7.2
v 0.3 0.2 -7.2
v 0.3 0.3 -7.2
v 0.3 0.4 -7.2
v -0.2 0.2 -7.3
v -0.2 0.3 -7.3
v -0.2 0.4 -7.3
v -0.1 0.1 -7.3
v -0.1 0.2 -7.3
v -0.1 0.4 -7.3
v -0.1 0.5 -7.3
v 0.1 0.1 -7.3
v 0.1 0.2 -7.3
v 0.1 0.4 -7.3
v 0.1 0.5 -7.3
v 0.2 0.2 -7.3
v 0.2 0.3 -7.3
v 0.2 0.4 -7.3
v -0.1 0 -6.8
v 0.1 0 -6.8
v -0.2 0 -6.9
v -0.1 0 -6.9
v 0.1 0 -6.9
v 0.2 0 -6.9
v -0.2 0 -7.1
v -0.1 0 -7.1
v 0.1 0 -7.1
v 0.2 0 -7.1
v -0.1 0 -7.2
v 0.1 0 -7.2
v -0.1 0.1 -6.7
v 0.1 0.1 -6.7
v -0.2 0.1 -6.8
v -0.1 0.1 -6.8
v 0.1 0.1 -6.8
v 0.2 0.1 -6.8
v -0.3 0.1 -6.9
v -0.2 0.1 -6.9
v -0.1 0.1 -6.9
v 0.1 0.1 -6.9
v 0.2 0.1 -6.9
v 0.3 0.1 -6.9
v -0.3 0.1 -7.1
v -0.2 0.1 -7.1
v -0.1 0.1 -7.1
v 0.1 0.1 -7.1
v 0.2 0.1 -7.1
v 0.3 0.1 -7.1
v -0.2 0.1 -7.2
v -0.1 0.1 -7.2
v 0.1 0.1 -7.2
v 0.2 0.1 -7.2
v -0.1 0.1 -7.3
v 0.1 0.1 -7.3
v -0.2 0.2 -6.7
v -0.1 0.2 -6.7
v 0.1 0.2 -6.7
v 0.2 0.2 -6.7
v -0.3 0.2 -6.8
v -0.2 0.2 -6.8
v -0.1 0.2 -6.8
v 0.1 0.2 -6.8
v 0.2 0.2 -6.8
v 0.3 0.2 -6.8
v -0.3 0.2 -6.9
v -0.2 0.2 -6.9
v 0.2 0.2 -6.9
v 0.3 0.2 -6.9
v -0.3 0.2 -7.1
v -0.2 0.2 -7.1
v 0.2 0.2 -7.1
v 0.3 0.2 -7.1
v -0.3 0.2 -7.2
v -0.2 0.2 -7.2
v -0.1 0.2 -7.2
v 0.1 0.2 -7.2
v 0.2 0.2 -7.2
v 0.3 0.2 -7.2
v -0.2 0.2 -7.3
v -0.1 0.2 -7.3
v 0.1 0.2 -7.3
v 0.2 0.2 -7.3
v -0.2 0.4 -6.7
v -0.1 0.4 -6.7
v 0.1 0.4 -6.7
v 0.2 0.4 -6.7
v -0.3 0.4 -6.8
v -0.2 0.4 -6.8
v -0.1 0.4 -6.8
v 0.1 0.4 -6.8
v 0.2 0.4 -6.8
v 0.3 0.4 -6.8
v -0.3 0.4 -6.9
v -0.2 0.4 -6.9
v 0.2 0.4 -6.9
v 0.3 0.4 -6.9
v -0.3 0.4 -7.1
v -0.2 0.4 -7.1
v 0.2 0.4 -7.1
v 0.3 0.4 -7.1
v -0.3 0.4 -7.2
v -0.2 0.4 -7.2
v -0.1 0.4 -7.2
v 0.1 0.4 -7.2
v 0.2 0.4 -7.2
v 0.3 0.4 -7.2
v -0.2 0.4 -7.3
v -0.1 0.4 -7.3
v 0.1 0.4 -7.3
v 0.2 0.4 -7.3
v -0.1 0.5 -6.7
v 0.1 0.5 -6.7
v -0.2 0.5 -6.8
v -0.1 0.5 -6.8
v 0.1 0.5 -6.8
v 0.2 0.5 -6.8
v -0.3 0.5 -6.9
v -0.2 0.5 -6.9
v -0.1 0.5 -6.9
v 0.1 0.5 -6.9
v 0.2 0.5 -6.9
v 0.3 0.5 -6.9
v -0.3 0.5 -7.1
v -0.2 0.5 -7.1
v -0.1 0.5 -7.1
v 0.1 0.5 -7.1
v 0.2 0.5 -7.1
v 0.3 0.5 -7.1
v -0.2 0.5 -7.2
v -0.1 0.5 -7.2
v 0.1 0.5 -7.2
v 0.2 0.5 -7.2
v -0.1 0.5 -7.3
v 0.1 0.5 -7.3
v -0.1 0.6 -6.8
v 0.1 0.6 -6.8
v -0.2 0.6 -6.9
v -0.1 0.6 -6.9
v 0.1 0.6 -6.9
v 0.2 0.6 -6.9
v -0.2 0.6 -7.1
v -0.1 0.6 -7.1
v 0.1 0.6 -7.1
v 0.2 0.6 -7.1
v -0.1 0.6 -7.2
v 0.1 0.6 -7.2

# faces
f 4/4/1 2/4/1 1/4/1
f 5/4/1 2/4/1 4/4/1
f 7/1/1 4/1/1 3/1/1
f 7/1/1 6/1/1 5/1/1
f 7/1/1 5/1/1 4/1/1
f 8/1/1 6/1/1 7/1/1
f 9/2/1 8/2/1 7/2/1
f 10/2/1 8/2/1 9/2/1
f 11/2/1 8/2/1 10/2/1
f 12/2/1 8/2/1 11/2/1
f 13/4/1 11/4/1 10/4/1
f 14/4/1 11/4/1 13/4/1
f 18/3/1 16/3/1 15/3/1
f 19/3/1 16/3/1 18/3/1
f 22/4/1 18/4/1 17/4/1
f 23/4/1 18/4/1 22/4/1
f 24/4/1 20/4/1 19/4/1
f 25/4/1 20/4/1 24/4/1
f 27/1/1 22/1/1 21/1/1
f 28/1/1 22/1/1 27/1/1
f 29/1/1 26/1/1 25/1/1
f 30/1/1 26/1/1 29/1/1
f 31/2/1 28/2/1 27/2/1
f 32/2/1 28/2/1 31/2/1
f 35/2/1 30/2/1 29/2/1
f 36/2/1 30/2/1 35/2/1
f 37/4/1 33/4/1 32/4/1
f 38/4/1 33/4/1 37/4/1
f 39/4/1 35/4/1 34/4/1
f 40/4/1 35/4/1 39/4/1
f 41/3/1 39/3/1 38/3/1
f 42/3/1 39/3/1 41/3/1
f 48/3/1 44/3/1 43/3/1
f 49/3/1 44/3/1 48/3/1
f 50/3/1 46/3/1 45/3/1
f 51/3/1 46/3/1 50/3/1
f 53/4/1 48/4/1 47/4/1
f 54/4/1 48/4/1 53/4/1
f 55/4/1 52/4/1 51/4/1
f 56/4/1 52/4/1 55/4/1
f 61/4/1 58/4/1 57/4/1
f 62/4/1 58/4/1 61/4/1
f 65/4/1 60/4/1 59/4/1
f 66/4/1 60/4/1 65/4/1
f 67/3/1 63/3/1 62/3/1
f 68/3/1 63/3/1 67/3/1
f 69/3/1 65/3/1 64/3/1
f 70/3/1 65/3/1 69/3/1
f 71/3/2 72/3/2 76/3/2
f 76/3/2 72/3/2 77/3/2
f 73/3/2 74/3/2 78/3/2
f 78/3/2 74/3/2 79/3/2
f 75/4/2 76/4/2 81/4/2
f 81/4/2 76/4/2 82/4/2
f 79/4/2 80/4/2 83/4/2
f 83/4/2 80/4/2 84/4/2
f 85/4/2 86/4/2 89/4/2
f 89/4/2 86/4/2 90/4/2
f 87/4/2 88/4/2 93/4/2
f 93/4/2 88/4/2 94/4/2
f 90/3/2 91/3/2 95/3/2
f 95/3/2 91/3/2 96/3/2
f 92/3/2 93/3/2 97/3/2
f 97/3/2 93/3/2 98/3/2
f 99/3/2 100/3/2 102/3/2
f 102/3/2 100/3/2 103/3/2
f 101/4/2 102/4/2 106/4/2
f 106/4/2 102/4/2 107/4/2
f 103/4/2 104/4/2 108/4/2
f 108/4/2 104/4/2 109/4/2
f 105/1/2 106/1/2 111/1/2
f 111/1/2 106/1/2 112/1/2
f 109/1/2 110/1/2 113/1/2
f 113/1/2 110/1/2 114/1/2
f 111/2/2 112/2/2 115/2/2
f 115/2/2 112/2/2 116/2/2
f 113/2/2 114/2/2 119/2/2
f 119/2/2 114/2/2 120/2/2
f 116/4/2 117/4/2 121/4/2
f 121/4/2 117/4/2 122/4/2
f 118/4/2 119/4/2 123/4/2
f 123/4/2 119/4/2 124/4/2
f 122/3/2 123/3/2 125/3/2
f 125/3/2 123/3/2 126/3/2
f 127/4/2 128/4/2 130/4/2
f 130/4/2 128/4/2 131/4/2
f 129/1/2 130/1/2 133/1/2
f 131/1/2 132/1/2 133/1/2
f 130/1/2 131/1/2 133/1/2
f 133/1/2 132/1/2 134/1/2
f 133/2/2 134/2/2 135/2/2
f 135/2/2 134/2/2 136/2/2
f 136/2/2 134/2/2 137/2/2
f 137/2/2 134/2/2 138/2/2
f 136/4/2 137/4/2 139/4/2
f 139/4/2 137/4/2 140/4/2
f 145/1/3 142/1/3 141/1/3
f 146/2/3 143/2/3 142/2/3
f 148/4/3 145/4/3 144/4/3
f 149/1/3 142/1/3 145/1/3
f 149/4/3 145/4/3 148/4/3
f 150/4/3 147/4/3 146/4/3
f 150/2/3 146/2/3 142/2/3
f 151/4/3 147/4/3 150/4/3
f 152/1/3 142/1/3 149/1/3
f 153/2/3 150/2/3 142/2/3
f 153/1/3 142/1/3 152/1/3
f 154/2/3 150/2/3 153/2/3
f 159/1/3 156/1/3 155/1/3
f 160/2/3 157/2/3 156/2/3
f 160/1/3 156/1/3 159/1/3
f 161/2/3 157/2/3 160/2/3
f 164/4/3 159/4/3 158/4/3
f 165/4/3 159/4/3 164/4/3
f 166/4/3 162/4/3 161/4/3
f 167/4/3 162/4/3 166/4/3
f 169/3/3 164/3/3 163/3/3
f 170/3/3 164/3/3 169/3/3
f 173/3/3 168/3/3 167/3/3
f 174/3/3 168/3/3 173/3/3
f 175/4/3 171/4/3 170/4/3
f 176/4/3 171/4/3 175/4/3
f 178/4/3 173/4/3 172/4/3
f 179/4/3 173/4/3 178/4/3
f 180/1/3 177/1/3 176/1/3
f 181/2/3 178/2/3 177/2/3
f 181/1/3 177/1/3 180/1/3
f 182/2/3 178/2/3 181/2/3
f 188/4/3 184/4/3 183/4/3
f 189/4/3 184/4/3 188/4/3
f 190/4/3 186/4/3 185/4/3
f 191/4/3 186/4/3 190/4/3
f 193/3/3 188/3/3 187/3/3
f 194/3/3 188/3/3 193/3/3
f 195/3/3 192/3/3 191/3/3
f 196/3/3 192/3/3 195/3/3
f 201/3/3 198/3/3 197/3/3
f 202/3/3 198/3/3 201/3/3
f 205/3/3 200/3/3 199/3/3
f 206/3/3 200/3/3 205/3/3
f 207/4/3 203/4/3 202/4/3
f 208/4/3 203/4/3 207/4/3
f 209/4/3 205/4/3 204/4/3
f 210/4/3 205/4/3 209/4/3
f 211/4/4 212/4/4 216/4/4
f 216/4/4 212/4/4 217/4/4
f 213/4/4 214/4/4 218/4/4
f 218/4/4 214/4/4 219/4/4
f 215/3/4 216/3/4 221/3/4
f 221/3/4 216/3/4 222/3/4
f 219/3/4 220/3/4 223/3/4
f 223/3/4 220/3/4 224/3/4
f 225/3/4 226/3/4 229/3/4
f 229/3/4 226/3/4 230/3/4
f 227/3/4 228/3/4 233/3/4
f 233/3/4 228/3/4 234/3/4
f 230/4/4 231/4/4 235/4/4
f 235/4/4 231/4/4 236/4/4
f 232/4/4 233/4/4 237/4/4
f 237/4/4 233/4/4 238/4/4
f 239/1/4 240/1/4 243/1/4
f 240/2/4 241/2/4 244/2/4
f 243/1/4 240/1/4 244/1/4
f 244/2/4 241/2/4 245/2/4
f 242/4/4 243/4/4 248/4/4
f 248/4/4 243/4/4 249/4/4
f 245/4/4 246/4/4 250/4/4
f 250/4/4 246/4/4 251/4/4
f 247/3/4 248/3/4 253/3/4
f 253/3/4 248/3/4 254/3/4
f 251/3/4 252/3/4 257/3/4
f 257/3/4 252/3/4 258/3/4
f 254/4/4 255/4/4 259/4/4
f 259/4/4 255/4/4 260/4/4
f 256/4/4 257/4/4 262/4/4
f 262/4/4 257/4/4 263/4/4
f 260/1/4 261/1/4 264/1/4
f 261/2/4 262/2/4 265/2/4
f 264/1/4 261/1/4 265/1/4
f 265/2/4 262/2/4 266/2/4
f 267/1/4 268/1/4 271/1/4
f 268/2/4 269/2/4 272/2/4
f 270/4/4 271/4/4 274/4/4
f 271/1/4 268/1/4 275/1/4
f 274/4/4 271/4/4 275/4/4
f 272/4/4 273/4/4 276/4/4
f 268/2/4 272/2/4 276/2/4
f 276/4/4 273/4/4 277/4/4
f 275/1/4 268/1/4 278/1/4
f 268/2/4 276/2/4 279/2/4
f 278/1/4 268/1/4 279/1/4
f 279/2/4 276/2/4 280/2/4
f 284/3/5 282/3/5 281/3/5
f 285/3/5 282/3/5 284/3/5
f 287/3/5 284/3/5 283/3/5
f 287/3/5 286/3/5 285/3/5
f 287/3/5 285/3/5 284/3/5
f 288/3/5 286/3/5 287/3/5
f 289/3/5 286/3/5 288/3/5
f 290/3/5 286/3/5 289/3/5
f 291/3/5 289/3/5 288/3/5
f 292/3/5 289/3/5 291/3/5
f 296/4/5 294/4/5 293/4/5
f 297/4/5 294/4/5 296/4/5
f 300/4/5 296/4/5 295/4/5
f 301/4/5 296/4/5 300/4/5
f 302/4/5 298/4/5 297/4/5
f 303/4/5 298/4/5 302/4/5
f 305/4/5 300/4/5 299/4/5
f 306/4/5 300/4/5 305/4/5
f 309/4/5 304/4/5 303/4/5
f 310/4/5 304/4/5 309/4/5
f 311/4/5 307/4/5 306/4/5
f 312/4/5 307/4/5 311/4/5
f 313/4/5 309/4/5 308/4/5
f 314/4/5 309/4/5 313/4/5
f 315/4/5 313/4/5 312/4/5
f 316/4/5 313/4/5 315/4/5
f 322/1/5 318/1/5 317/1/5
f 323/1/5 318/1/5 322/1/5
f 324/1/5 320/1/5 319/1/5
f 325/1/5 320/1/5 324/1/5
f 327/1/5 322/1/5 321/1/5
f 328/1/5 322/1/5 327/1/5
f 329/1/5 326/1/5 325/1/5
f 330/1/5 326/1/5 329/1/5
f 335/1/5 332/1/5 331/1/5
f 336/1/5 332/1/5 335/1/5
f 339/1/5 334/1/5 333/1/5
f 340/1/5 334/1/5 339/1/5
f 341/1/5 337/1/5 336/1/5
f 342/1/5 337/1/5 341/1/5
f 343/1/5 339/1/5 338/1/5
f 344/1/5 339/1/5 343/1/5
f 345/2/6 346/2/6 350/2/6
f 350/2/6 346/2/6 351/2/6
f 347/2/6 348/2/6 352/2/6
f 352/2/6 348/2/6 353/2/6
f 349/2/6 350/2/6 355/2/6
f 355/2/6 350/2/6 356/2/6
f 353/2/6 354/2/6 357/2/6
f 357/2/6 354/2/6 358/2/6
f 359/2/6 360/2/6 363/2/6
f 363/2/6 360/2/6 364/2/6
f 361/2/6 362/2/6 367/2/6
f 367/2/6 362/2/6 368/2/6
f 364/2/6 365/2/6 369/2/6
f 369/2/6 365/2/6 370/2/6
f 366/2/6 367/2/6 371/2/6
f 371/2/6 367/2/6 372/2/6
f 373/4/6 374/4/6 376/4/6
f 376/4/6 374/4/6 377/4/6
f 375/4/6 376/4/6 380/4/6
f 380/4/6 376/4/6 381/4/6
f 377/4/6 378/4/6 382/4/6
f 382/4/6 378/4/6 383/4/6
f 379/4/6 380/4/6 385/4/6
f 385/4/6 380/4/6 386/4/6
f 383/4/6 384/4/6 389/4/6
f 389/4/6 384/4/6 390/4/6
f 386/4/6 387/4/6 391/4/6
f 391/4/6 387/4/6 392/4/6
f 388/4/6 389/4/6 393/4/6
f 393/4/6 389/4/6 394/4/6
f 392/4/6 393/4/6 395/4/6
f 395/4/6 393/4/6 396/4/6
f 397/3/6 398/3/6 400/3/6
f 400/3/6 398/3/6 401/3/6
f 399/3/6 400/3/6 403/3/6
f 401/3/6 402/3/6 403/3/6
f 400/3/6 401/3/6 403/3/6
f 403/3/6 402/3/6 404/3/6
f 404/3/6 402/3/6 405/3/6
f 405/3/6 402/3/6 406/3/6
f 404/3/6 405/3/6 407/3/6
f 407/3/6 405/3/6 408/3/6
