# Blender v2.91.2 OBJ File: ''
# www.blender.org
mtllib item extra-estrela3.mtl
o ObjObject
v -0.554110 0.043151 0.050000
v -0.554110 -0.056849 -0.050000
v -0.554110 -0.056849 0.050000
v -0.554110 0.043151 -0.050000
v -0.454110 -0.056849 0.050000
v -0.454110 -0.156849 -0.050000
v -0.454110 -0.156849 0.050000
v -0.454110 -0.056849 -0.050000
v -0.454110 0.143151 0.050000
v -0.454110 0.043151 -0.050000
v -0.454110 0.043151 0.050000
v -0.454110 0.143151 -0.050000
v -0.354110 -0.156849 0.050000
v -0.354110 -0.256849 -0.050000
v -0.354110 -0.256849 0.050000
v -0.354110 -0.156849 -0.050000
v -0.354110 0.243151 0.050000
v -0.354110 0.143151 -0.050000
v -0.354110 0.143151 0.050000
v -0.354110 0.243151 -0.050000
v -0.254110 -0.256849 0.050000
v -0.254110 -0.356849 -0.050000
v -0.254110 -0.356849 0.050000
v -0.254110 -0.256849 -0.050000
v -0.254110 0.343151 0.050000
v -0.254110 0.243151 -0.050000
v -0.254110 0.243151 0.050000
v -0.254110 0.343151 -0.050000
v -0.154110 -0.356849 0.050000
v -0.154110 -0.456849 -0.050000
v -0.154110 -0.456849 0.050000
v -0.154110 -0.356849 -0.050000
v -0.154110 0.443151 0.050000
v -0.154110 0.343151 -0.050000
v -0.154110 0.343151 0.050000
v -0.154110 0.443151 -0.050000
v -0.054110 -0.456849 0.050000
v -0.054110 -0.556849 -0.050000
v -0.054110 -0.556849 0.050000
v -0.054110 -0.456849 -0.050000
v -0.054110 0.543151 0.050000
v -0.054110 0.443151 -0.050000
v -0.054110 0.443151 0.050000
v -0.054110 0.543151 -0.050000
v 0.045890 -0.556849 0.050000
v 0.045890 -0.556849 -0.050000
v 0.045890 -0.456849 0.050000
v 0.045890 -0.456849 -0.050000
v 0.045890 0.443151 0.050000
v 0.045890 0.443151 -0.050000
v 0.045890 0.543151 0.050000
v 0.045890 0.543151 -0.050000
v 0.145890 -0.456849 0.050000
v 0.145890 -0.456849 -0.050000
v 0.145890 -0.356849 0.050000
v 0.145890 -0.356849 -0.050000
v 0.145890 0.343151 0.050000
v 0.145890 0.343151 -0.050000
v 0.145890 0.443151 0.050000
v 0.145890 0.443151 -0.050000
v 0.245890 -0.356849 0.050000
v 0.245890 -0.356849 -0.050000
v 0.245890 -0.256849 0.050000
v 0.245890 -0.256849 -0.050000
v 0.245890 0.243151 0.050000
v 0.245890 0.243151 -0.050000
v 0.245890 0.343151 0.050000
v 0.245890 0.343151 -0.050000
v 0.345890 -0.256849 0.050000
v 0.345890 -0.256849 -0.050000
v 0.345890 -0.156849 0.050000
v 0.345890 -0.156849 -0.050000
v 0.345890 0.143151 0.050000
v 0.345890 0.143151 -0.050000
v 0.345890 0.243151 0.050000
v 0.345890 0.243151 -0.050000
v 0.445890 -0.156849 0.050000
v 0.445890 -0.156849 -0.050000
v 0.445890 -0.056849 0.050000
v 0.445890 -0.056849 -0.050000
v 0.445890 0.043151 0.050000
v 0.445890 0.043151 -0.050000
v 0.445890 0.143151 0.050000
v 0.445890 0.143151 -0.050000
v 0.545890 -0.056849 0.050000
v 0.545890 -0.056849 -0.050000
v 0.545890 0.043151 0.050000
v 0.545890 0.043151 -0.050000
v -0.454110 -0.056849 0.050000
v -0.554110 0.043151 0.050000
v -0.554110 -0.056849 0.050000
v -0.454110 0.043151 0.050000
v -0.354110 -0.156849 0.050000
v -0.454110 0.143151 0.050000
v -0.454110 -0.156849 0.050000
v -0.354110 -0.056849 0.050000
v -0.354110 0.143151 0.050000
v -0.254110 -0.256849 0.050000
v -0.354110 -0.256849 0.050000
v -0.254110 0.243151 0.050000
v -0.354110 0.243151 0.050000
v -0.154110 -0.356849 0.050000
v -0.254110 -0.356849 0.050000
v -0.154110 -0.256849 0.050000
v -0.154110 -0.056849 0.050000
v -0.154110 0.243151 0.050000
v -0.254110 0.343151 0.050000
v -0.154110 0.343151 0.050000
v -0.054110 -0.456849 0.050000
v -0.154110 0.443151 0.050000
v -0.154110 -0.456849 0.050000
v -0.054110 0.343151 0.050000
v -0.054110 0.443151 0.050000
v 0.045890 -0.556849 0.050000
v -0.054110 -0.556849 0.050000
v 0.045890 -0.456849 0.050000
v 0.045890 0.143151 0.050000
v 0.045890 0.343151 0.050000
v 0.045890 0.443151 0.050000
v -0.054110 0.543151 0.050000
v 0.045890 0.543151 0.050000
v 0.145890 -0.456849 0.050000
v 0.145890 -0.356849 0.050000
v 0.145890 0.243151 0.050000
v 0.145890 0.343151 0.050000
v 0.145890 0.443151 0.050000
v 0.245890 -0.356849 0.050000
v 0.245890 -0.256849 0.050000
v 0.245890 -0.056849 0.050000
v 0.245890 0.143151 0.050000
v 0.245890 0.243151 0.050000
v 0.245890 0.343151 0.050000
v 0.345890 -0.256849 0.050000
v 0.345890 -0.156849 0.050000
v 0.345890 -0.056849 0.050000
v 0.345890 0.043151 0.050000
v 0.345890 0.143151 0.050000
v 0.345890 0.243151 0.050000
v 0.445890 -0.156849 0.050000
v 0.445890 -0.056849 0.050000
v 0.445890 0.043151 0.050000
v 0.445890 0.143151 0.050000
v 0.545890 -0.056849 0.050000
v 0.545890 0.043151 0.050000
v -0.554110 -0.056849 -0.050000
v -0.554110 0.043151 -0.050000
v -0.454110 -0.056849 -0.050000
v -0.454110 0.043151 -0.050000
v -0.454110 0.143151 -0.050000
v -0.354110 -0.156849 -0.050000
v -0.454110 -0.156849 -0.050000
v -0.354110 -0.056849 -0.050000
v -0.354110 0.143151 -0.050000
v -0.354110 -0.256849 -0.050000
v -0.254110 -0.256849 -0.050000
v -0.354110 0.243151 -0.050000
v -0.254110 0.243151 -0.050000
v -0.254110 -0.356849 -0.050000
v -0.154110 -0.356849 -0.050000
v -0.154110 -0.256849 -0.050000
v -0.154110 -0.056849 -0.050000
v -0.254110 0.343151 -0.050000
v -0.154110 0.243151 -0.050000
v -0.154110 0.343151 -0.050000
v -0.054110 -0.456849 -0.050000
v -0.154110 0.443151 -0.050000
v -0.154110 -0.456849 -0.050000
v -0.054110 0.343151 -0.050000
v -0.054110 0.443151 -0.050000
v -0.054110 -0.556849 -0.050000
v 0.045890 -0.556849 -0.050000
v 0.045890 -0.456849 -0.050000
v 0.045890 0.143151 -0.050000
v 0.045890 0.343151 -0.050000
v -0.054110 0.543151 -0.050000
v 0.045890 0.443151 -0.050000
v 0.045890 0.543151 -0.050000
v 0.145890 -0.456849 -0.050000
v 0.145890 -0.356849 -0.050000
v 0.145890 0.243151 -0.050000
v 0.145890 0.343151 -0.050000
v 0.145890 0.443151 -0.050000
v 0.245890 -0.356849 -0.050000
v 0.245890 -0.256849 -0.050000
v 0.245890 -0.056849 -0.050000
v 0.245890 0.143151 -0.050000
v 0.245890 0.243151 -0.050000
v 0.245890 0.343151 -0.050000
v 0.345890 -0.256849 -0.050000
v 0.345890 -0.156849 -0.050000
v 0.345890 -0.056849 -0.050000
v 0.345890 0.043151 -0.050000
v 0.345890 0.143151 -0.050000
v 0.345890 0.243151 -0.050000
v 0.445890 -0.156849 -0.050000
v 0.445890 -0.056849 -0.050000
v 0.445890 0.043151 -0.050000
v 0.445890 0.143151 -0.050000
v 0.545890 -0.056849 -0.050000
v 0.545890 0.043151 -0.050000
v -0.054110 -0.556849 -0.050000
v 0.045890 -0.556849 0.050000
v -0.054110 -0.556849 0.050000
v 0.045890 -0.556849 -0.050000
v -0.154110 -0.456849 -0.050000
v -0.054110 -0.456849 0.050000
v -0.154110 -0.456849 0.050000
v -0.054110 -0.456849 -0.050000
v 0.045890 -0.456849 -0.050000
v 0.145890 -0.456849 0.050000
v 0.045890 -0.456849 0.050000
v 0.145890 -0.456849 -0.050000
v -0.254110 -0.356849 -0.050000
v -0.154110 -0.356849 0.050000
v -0.254110 -0.356849 0.050000
v -0.154110 -0.356849 -0.050000
v 0.145890 -0.356849 -0.050000
v 0.245890 -0.356849 0.050000
v 0.145890 -0.356849 0.050000
v 0.245890 -0.356849 -0.050000
v -0.354110 -0.256849 -0.050000
v -0.254110 -0.256849 0.050000
v -0.354110 -0.256849 0.050000
v -0.254110 -0.256849 -0.050000
v 0.245890 -0.256849 -0.050000
v 0.345890 -0.256849 0.050000
v 0.245890 -0.256849 0.050000
v 0.345890 -0.256849 -0.050000
v -0.454110 -0.156849 -0.050000
v -0.354110 -0.156849 0.050000
v -0.454110 -0.156849 0.050000
v -0.354110 -0.156849 -0.050000
v 0.345890 -0.156849 -0.050000
v 0.445890 -0.156849 0.050000
v 0.345890 -0.156849 0.050000
v 0.445890 -0.156849 -0.050000
v -0.554110 -0.056849 -0.050000
v -0.454110 -0.056849 0.050000
v -0.554110 -0.056849 0.050000
v -0.454110 -0.056849 -0.050000
v 0.445890 -0.056849 -0.050000
v 0.545890 -0.056849 0.050000
v 0.445890 -0.056849 0.050000
v 0.545890 -0.056849 -0.050000
v -0.554110 0.043151 0.050000
v -0.454110 0.043151 0.050000
v -0.554110 0.043151 -0.050000
v -0.454110 0.043151 -0.050000
v 0.445890 0.043151 0.050000
v 0.545890 0.043151 0.050000
v 0.445890 0.043151 -0.050000
v 0.545890 0.043151 -0.050000
v -0.454110 0.143151 0.050000
v -0.354110 0.143151 0.050000
v -0.454110 0.143151 -0.050000
v -0.354110 0.143151 -0.050000
v 0.345890 0.143151 0.050000
v 0.445890 0.143151 0.050000
v 0.345890 0.143151 -0.050000
v 0.445890 0.143151 -0.050000
v -0.354110 0.243151 0.050000
v -0.254110 0.243151 0.050000
v -0.354110 0.243151 -0.050000
v -0.254110 0.243151 -0.050000
v 0.245890 0.243151 0.050000
v 0.345890 0.243151 0.050000
v 0.245890 0.243151 -0.050000
v 0.345890 0.243151 -0.050000
v -0.254110 0.343151 0.050000
v -0.154110 0.343151 0.050000
v -0.254110 0.343151 -0.050000
v -0.154110 0.343151 -0.050000
v 0.145890 0.343151 0.050000
v 0.245890 0.343151 0.050000
v 0.145890 0.343151 -0.050000
v 0.245890 0.343151 -0.050000
v -0.154110 0.443151 0.050000
v -0.054110 0.443151 0.050000
v -0.154110 0.443151 -0.050000
v -0.054110 0.443151 -0.050000
v 0.045890 0.443151 0.050000
v 0.145890 0.443151 0.050000
v 0.045890 0.443151 -0.050000
v 0.145890 0.443151 -0.050000
v -0.054110 0.543151 0.050000
v 0.045890 0.543151 0.050000
v -0.054110 0.543151 -0.050000
v 0.045890 0.543151 -0.050000
vt 0.974609 0.500000
vt 0.974609 0.500000
vt 0.974609 0.500000
vt 0.974609 0.500000
vt 0.974609 0.500000
vt 0.974609 0.500000
vt 0.974609 0.500000
vt 0.974609 0.500000
vt 0.974609 0.500000
vt 0.974609 0.500000
vt 0.974609 0.500000
vt 0.974609 0.500000
vt 0.974609 0.500000
vt 0.974609 0.500000
vt 0.974609 0.500000
vt 0.974609 0.500000
vt 0.974609 0.500000
vt 0.974609 0.500000
vt 0.974609 0.500000
vt 0.974609 0.500000
vt 0.982422 0.500000
vt 0.982422 0.500000
vt 0.982422 0.500000
vt 0.982422 0.500000
vt 0.982422 0.500000
vt 0.982422 0.500000
vt 0.982422 0.500000
vt 0.982422 0.500000
vt 0.974609 0.500000
vt 0.974609 0.500000
vt 0.974609 0.500000
vt 0.974609 0.500000
vt 0.974609 0.500000
vt 0.974609 0.500000
vt 0.974609 0.500000
vt 0.974609 0.500000
vt 0.982422 0.500000
vt 0.982422 0.500000
vt 0.982422 0.500000
vt 0.982422 0.500000
vt 0.974609 0.500000
vt 0.974609 0.500000
vt 0.974609 0.500000
vt 0.974609 0.500000
vt 0.982422 0.500000
vt 0.982422 0.500000
vt 0.982422 0.500000
vt 0.982422 0.500000
vt 0.974609 0.500000
vt 0.974609 0.500000
vt 0.974609 0.500000
vt 0.974609 0.500000
vt 0.974609 0.500000
vt 0.974609 0.500000
vt 0.974609 0.500000
vt 0.974609 0.500000
vt 0.974609 0.500000
vt 0.974609 0.500000
vt 0.974609 0.500000
vt 0.974609 0.500000
vt 0.974609 0.500000
vt 0.974609 0.500000
vt 0.974609 0.500000
vt 0.974609 0.500000
vt 0.974609 0.500000
vt 0.974609 0.500000
vt 0.974609 0.500000
vt 0.974609 0.500000
vt 0.974609 0.500000
vt 0.974609 0.500000
vt 0.974609 0.500000
vt 0.974609 0.500000
vt 0.974609 0.500000
vt 0.974609 0.500000
vt 0.974609 0.500000
vt 0.974609 0.500000
vt 0.982422 0.500000
vt 0.982422 0.500000
vt 0.982422 0.500000
vt 0.982422 0.500000
vt 0.974609 0.500000
vt 0.974609 0.500000
vt 0.974609 0.500000
vt 0.974609 0.500000
vt 0.974609 0.500000
vt 0.974609 0.500000
vt 0.974609 0.500000
vt 0.974609 0.500000
vt 0.974609 0.500000
vt 0.974609 0.500000
vt 0.974609 0.500000
vt 0.974609 0.500000
vt 0.974609 0.500000
vt 0.974609 0.500000
vt 0.974609 0.500000
vt 0.974609 0.500000
vt 0.974609 0.500000
vt 0.974609 0.500000
vt 0.974609 0.500000
vt 0.974609 0.500000
vt 0.974609 0.500000
vt 0.974609 0.500000
vt 0.974609 0.500000
vt 0.974609 0.500000
vt 0.974609 0.500000
vt 0.974609 0.500000
vt 0.974609 0.500000
vt 0.974609 0.500000
vt 0.974609 0.500000
vt 0.978516 0.500000
vt 0.978516 0.500000
vt 0.974609 0.500000
vt 0.974609 0.500000
vt 0.982422 0.500000
vt 0.982422 0.500000
vt 0.974609 0.500000
vt 0.974609 0.500000
vt 0.982422 0.500000
vt 0.982422 0.500000
vt 0.982422 0.500000
vt 0.982422 0.500000
vt 0.982422 0.500000
vt 0.982422 0.500000
vt 0.974609 0.500000
vt 0.974609 0.500000
vt 0.982422 0.500000
vt 0.974609 0.500000
vt 0.974609 0.500000
vt 0.974609 0.500000
vt 0.974609 0.500000
vt 0.974609 0.500000
vt 0.974609 0.500000
vt 0.974609 0.500000
vt 0.982422 0.500000
vt 0.982422 0.500000
vt 0.982422 0.500000
vt 0.982422 0.500000
vt 0.974609 0.500000
vt 0.982422 0.500000
vt 0.974609 0.500000
vt 0.974609 0.500000
vt 0.974609 0.500000
vt 0.974609 0.500000
vt 0.974609 0.500000
vt 0.974609 0.500000
vt 0.974609 0.500000
vt 0.978516 0.500000
vt 0.974609 0.500000
vt 0.974609 0.500000
vt 0.974609 0.500000
vt 0.974609 0.500000
vt 0.974609 0.500000
vt 0.974609 0.500000
vt 0.974609 0.500000
vt 0.974609 0.500000
vt 0.974609 0.500000
vt 0.982422 0.500000
vt 0.982422 0.500000
vt 0.974609 0.500000
vt 0.974609 0.500000
vt 0.974609 0.500000
vt 0.982422 0.500000
vt 0.982422 0.500000
vt 0.982422 0.500000
vt 0.982422 0.500000
vt 0.974609 0.500000
vt 0.974609 0.500000
vt 0.974609 0.500000
vt 0.974609 0.500000
vt 0.974609 0.500000
vt 0.974609 0.500000
vt 0.974609 0.500000
vt 0.974609 0.500000
vt 0.974609 0.500000
vt 0.974609 0.500000
vt 0.974609 0.500000
vt 0.974609 0.500000
vt 0.982422 0.500000
vt 0.982422 0.500000
vt 0.974609 0.500000
vt 0.974609 0.500000
vt 0.978516 0.500000
vt 0.978516 0.500000
vt 0.974609 0.500000
vt 0.974609 0.500000
vt 0.974609 0.500000
vt 0.974609 0.500000
vt 0.974609 0.500000
vt 0.974609 0.500000
vt 0.974609 0.500000
vt 0.974609 0.500000
vt 0.974609 0.500000
vt 0.974609 0.500000
vt 0.974609 0.500000
vt 0.982422 0.500000
vt 0.982422 0.500000
vt 0.982422 0.500000
vt 0.982422 0.500000
vt 0.982422 0.500000
vt 0.982422 0.500000
vt 0.974609 0.500000
vt 0.974609 0.500000
vt 0.974609 0.500000
vt 0.974609 0.500000
vt 0.974609 0.500000
vt 0.974609 0.500000
vt 0.974609 0.500000
vt 0.982422 0.500000
vt 0.982422 0.500000
vt 0.982422 0.500000
vt 0.982422 0.500000
vt 0.974609 0.500000
vt 0.982422 0.500000
vt 0.982422 0.500000
vt 0.974609 0.500000
vt 0.974609 0.500000
vt 0.974609 0.500000
vt 0.974609 0.500000
vt 0.974609 0.500000
vt 0.974609 0.500000
vt 0.974609 0.500000
vt 0.978516 0.500000
vt 0.978516 0.500000
vt 0.974609 0.500000
vt 0.974609 0.500000
vt 0.974609 0.500000
vt 0.982422 0.500000
vt 0.982422 0.500000
vt 0.982422 0.500000
vt 0.982422 0.500000
vt 0.974609 0.500000
vt 0.974609 0.500000
vt 0.974609 0.500000
vt 0.974609 0.500000
vt 0.982422 0.500000
vt 0.982422 0.500000
vt 0.982422 0.500000
vt 0.982422 0.500000
vt 0.974609 0.500000
vt 0.974609 0.500000
vt 0.974609 0.500000
vt 0.974609 0.500000
vt 0.974609 0.500000
vt 0.974609 0.500000
vt 0.974609 0.500000
vt 0.974609 0.500000
vt 0.982422 0.500000
vt 0.982422 0.500000
vt 0.982422 0.500000
vt 0.982422 0.500000
vt 0.974609 0.500000
vt 0.974609 0.500000
vt 0.974609 0.500000
vt 0.974609 0.500000
vt 0.974609 0.500000
vt 0.974609 0.500000
vt 0.974609 0.500000
vt 0.974609 0.500000
vt 0.974609 0.500000
vt 0.974609 0.500000
vt 0.974609 0.500000
vt 0.974609 0.500000
vt 0.974609 0.500000
vt 0.974609 0.500000
vt 0.974609 0.500000
vt 0.974609 0.500000
vt 0.982422 0.500000
vt 0.982422 0.500000
vt 0.982422 0.500000
vt 0.982422 0.500000
vt 0.974609 0.500000
vt 0.974609 0.500000
vt 0.974609 0.500000
vt 0.974609 0.500000
vt 0.974609 0.500000
vt 0.974609 0.500000
vt 0.974609 0.500000
vt 0.974609 0.500000
vt 0.974609 0.500000
vt 0.974609 0.500000
vt 0.974609 0.500000
vt 0.974609 0.500000
vt 0.974609 0.500000
vt 0.974609 0.500000
vt 0.974609 0.500000
vt 0.974609 0.500000
vt 0.974609 0.500000
vt 0.974609 0.500000
vt 0.974609 0.500000
vt 0.974609 0.500000
vt 0.974609 0.500000
vt 0.974609 0.500000
vt 0.974609 0.500000
vt 0.974609 0.500000
vt 0.974609 0.500000
vt 0.974609 0.500000
vt 0.974609 0.500000
vt 0.974609 0.500000
vt 0.974609 0.500000
vt 0.974609 0.500000
vt 0.974609 0.500000
vt 0.974609 0.500000
vt 0.982422 0.500000
vt 0.982422 0.500000
vt 0.982422 0.500000
vt 0.982422 0.500000
vt 0.974609 0.500000
vt 0.974609 0.500000
vt 0.974609 0.500000
vt 0.974609 0.500000
vt 0.974609 0.500000
vt 0.974609 0.500000
vt 0.974609 0.500000
vt 0.974609 0.500000
vt 0.974609 0.500000
vt 0.974609 0.500000
vt 0.974609 0.500000
vt 0.974609 0.500000
vt 0.974609 0.500000
vt 0.974609 0.500000
vt 0.974609 0.500000
vt 0.974609 0.500000
vn -1.0000 0.0000 0.0000
vn 1.0000 -0.0000 0.0000
vn 0.0000 -0.0000 1.0000
vn -0.0000 0.0000 -1.0000
vn 0.0000 -1.0000 0.0000
vn 0.0000 1.0000 0.0000
usemtl Material.001
s 1
f 1/1/1 2/2/1 3/3/1
f 4/4/1 2/2/1 1/1/1
f 5/5/1 6/6/1 7/7/1
f 8/8/1 6/6/1 5/5/1
f 9/9/1 10/10/1 11/11/1
f 12/12/1 10/10/1 9/9/1
f 13/13/1 14/14/1 15/15/1
f 16/16/1 14/14/1 13/13/1
f 17/17/1 18/18/1 19/19/1
f 20/20/1 18/18/1 17/17/1
f 21/21/1 22/22/1 23/23/1
f 24/24/1 22/22/1 21/21/1
f 25/25/1 26/26/1 27/27/1
f 28/28/1 26/26/1 25/25/1
f 29/29/1 30/30/1 31/31/1
f 32/32/1 30/30/1 29/29/1
f 33/33/1 34/34/1 35/35/1
f 36/36/1 34/34/1 33/33/1
f 37/37/1 38/38/1 39/39/1
f 40/40/1 38/38/1 37/37/1
f 41/41/1 42/42/1 43/43/1
f 44/44/1 42/42/1 41/41/1
f 45/45/2 46/46/2 47/47/2
f 47/47/2 46/46/2 48/48/2
f 49/49/2 50/50/2 51/51/2
f 51/51/2 50/50/2 52/52/2
f 53/53/2 54/54/2 55/55/2
f 55/55/2 54/54/2 56/56/2
f 57/57/2 58/58/2 59/59/2
f 59/59/2 58/58/2 60/60/2
f 61/61/2 62/62/2 63/63/2
f 63/63/2 62/62/2 64/64/2
f 65/65/2 66/66/2 67/67/2
f 67/67/2 66/66/2 68/68/2
f 69/69/2 70/70/2 71/71/2
f 71/71/2 70/70/2 72/72/2
f 73/73/2 74/74/2 75/75/2
f 75/75/2 74/74/2 76/76/2
f 77/77/2 78/78/2 79/79/2
f 79/79/2 78/78/2 80/80/2
f 81/81/2 82/82/2 83/83/2
f 83/83/2 82/82/2 84/84/2
f 85/85/2 86/86/2 87/87/2
f 87/87/2 86/86/2 88/88/2
f 89/89/3 90/90/3 91/91/3
f 92/92/3 90/90/3 89/89/3
f 93/93/3 94/94/3 92/92/3
f 93/93/3 92/92/3 89/89/3
f 93/93/3 89/89/3 95/95/3
f 97/96/3 94/94/3 96/97/3
f 98/98/3 93/93/3 99/99/3
f 112/100/3 116/101/3 117/102/3 128/103/3 129/104/3 134/105/3 135/106/3 140/107/3 137/108/3 136/109/3 130/110/3 124/111/3 125/112/3 119/113/3 118/114/3 113/115/3
f 100/116/3 101/117/3 97/96/3
f 100/116/3 97/96/3 96/97/3
f 102/118/3 98/119/3 103/120/3
f 106/121/3 107/122/3 100/123/3
f 106/124/3 100/116/3 105/125/3
f 108/126/3 107/122/3 106/121/3
f 109/127/3 104/128/3 102/129/3
f 109/127/3 110/130/3 108/131/3
f 109/127/3 108/131/3 106/124/3
f 109/127/3 102/129/3 111/132/3
f 112/100/3 110/130/3 109/127/3
f 113/133/3 110/130/3 112/100/3
f 114/134/3 109/135/3 115/136/3
f 116/101/3 112/100/3 109/127/3
f 116/137/3 109/135/3 114/134/3
f 119/113/3 120/138/3 113/133/3
f 119/139/3 113/115/3 118/114/3
f 121/140/3 120/138/3 119/113/3
f 122/141/3 117/102/3 116/101/3
f 123/142/3 117/102/3 122/141/3
f 126/143/3 119/113/3 125/112/3
f 127/144/3 117/102/3 123/142/3
f 128/103/3 117/102/3 127/144/3
f 131/145/3 125/112/3 124/146/3
f 131/147/3 124/111/3 130/110/3
f 132/148/3 125/112/3 131/145/3
f 133/149/3 129/104/3 128/103/3
f 134/105/3 129/104/3 133/149/3
f 150/150/4 149/151/4 152/152/4 157/153/4 161/154/4 163/155/4 165/156/4 160/157/4 159/158/4 155/159/4
f 136/109/3 131/145/3 130/160/3
f 137/108/3 131/145/3 136/109/3
f 138/161/3 131/145/3 137/108/3
f 139/162/3 135/163/3 134/164/3
f 140/165/3 135/163/3 139/162/3
f 141/166/3 137/108/3 140/107/3
f 142/167/3 137/108/3 141/166/3
f 143/168/3 141/166/3 140/107/3
f 144/169/3 141/166/3 143/168/3
f 145/170/4 146/171/4 147/172/4
f 147/172/4 146/171/4 148/173/4
f 148/173/4 149/151/4 150/150/4
f 147/172/4 148/173/4 150/150/4
f 151/174/4 147/172/4 150/150/4
f 152/152/4 149/151/4 153/175/4
f 154/176/4 150/150/4 155/159/4
f 172/177/4 168/178/4 169/179/4 174/180/4 176/181/4 181/182/4 180/183/4 186/184/4 187/185/4 192/186/4 193/187/4 196/188/4 191/189/4 190/190/4 185/191/4 184/192/4 173/193/4
f 153/175/4 156/194/4 157/153/4
f 152/152/4 153/175/4 157/153/4
f 158/195/4 155/196/4 159/158/4
f 157/197/4 162/198/4 163/199/4
f 161/154/4 157/153/4 163/155/4
f 163/199/4 162/198/4 164/200/4
f 159/201/4 160/202/4 165/156/4
f 164/203/4 166/204/4 165/156/4
f 163/155/4 164/203/4 165/156/4
f 167/205/4 159/201/4 165/156/4
f 165/156/4 166/204/4 168/206/4
f 168/206/4 166/204/4 169/207/4
f 170/208/4 165/209/4 171/210/4
f 165/156/4 168/206/4 172/177/4
f 171/210/4 165/209/4 172/211/4
f 169/207/4 175/212/4 176/181/4
f 174/213/4 169/179/4 176/214/4
f 176/181/4 175/212/4 177/215/4
f 172/177/4 173/193/4 178/216/4
f 178/216/4 173/193/4 179/217/4
f 181/218/4 176/181/4 182/219/4
f 179/217/4 173/193/4 183/220/4
f 183/220/4 173/193/4 184/192/4
f 180/221/4 181/218/4 187/185/4
f 186/222/4 180/183/4 187/223/4
f 187/185/4 181/218/4 188/224/4
f 184/192/4 185/191/4 189/225/4
f 189/225/4 185/191/4 190/190/4
f 192/186/4 187/185/4 193/187/4
f 193/187/4 187/185/4 194/226/4
f 190/227/4 191/228/4 195/229/4
f 195/229/4 191/228/4 196/230/4
f 196/188/4 193/187/4 197/231/4
f 197/231/4 193/187/4 198/232/4
f 196/188/4 197/231/4 199/233/4
f 199/233/4 197/231/4 200/234/4
f 201/235/5 202/236/5 203/237/5
f 204/238/5 202/236/5 201/235/5
f 205/239/5 206/240/5 207/241/5
f 208/242/5 206/240/5 205/239/5
f 209/243/5 210/244/5 211/245/5
f 212/246/5 210/244/5 209/243/5
f 213/247/5 214/248/5 215/249/5
f 216/250/5 214/248/5 213/247/5
f 217/251/5 218/252/5 219/253/5
f 220/254/5 218/252/5 217/251/5
f 221/255/5 222/256/5 223/257/5
f 224/258/5 222/256/5 221/255/5
f 225/259/5 226/260/5 227/261/5
f 228/262/5 226/260/5 225/259/5
f 229/263/5 230/264/5 231/265/5
f 232/266/5 230/264/5 229/263/5
f 233/267/5 234/268/5 235/269/5
f 236/270/5 234/268/5 233/267/5
f 237/271/5 238/272/5 239/273/5
f 240/274/5 238/272/5 237/271/5
f 241/275/5 242/276/5 243/277/5
f 244/278/5 242/276/5 241/275/5
f 245/279/6 246/280/6 247/281/6
f 247/281/6 246/280/6 248/282/6
f 249/283/6 250/284/6 251/285/6
f 251/285/6 250/284/6 252/286/6
f 253/287/6 254/288/6 255/289/6
f 255/289/6 254/288/6 256/290/6
f 257/291/6 258/292/6 259/293/6
f 259/293/6 258/292/6 260/294/6
f 261/295/6 262/296/6 263/297/6
f 263/297/6 262/296/6 264/298/6
f 265/299/6 266/300/6 267/301/6
f 267/301/6 266/300/6 268/302/6
f 269/303/6 270/304/6 271/305/6
f 271/305/6 270/304/6 272/306/6
f 273/307/6 274/308/6 275/309/6
f 275/309/6 274/308/6 276/310/6
f 277/311/6 278/312/6 279/313/6
f 279/313/6 278/312/6 280/314/6
f 281/315/6 282/316/6 283/317/6
f 283/317/6 282/316/6 284/318/6
f 285/319/6 286/320/6 287/321/6
f 287/321/6 286/320/6 288/322/6
f 96/97/3 94/94/3 93/93/3 98/119/3 102/118/3 104/128/3 109/127/3 106/124/3 105/125/3 100/116/3
