# MagicaVoxel @ Ephtracy

# group
o 

# material
mtllib planetasiluminados-14.mtl
usemtl palette

# normals
vn -1 0 0
vn 1 0 0
vn 0 0 1
vn 0 0 -1
vn 0 -1 0
vn 0 1 0

# texcoords
vt 0.0214844 0.5
vt 0.0800781 0.5

# verts
v 1.4 0.1 -29.6
v 1.4 0.1 -29.8
v 1.4 0.2 -29.5
v 1.4 0.2 -29.6
v 1.4 0.2 -29.8
v 1.4 0.3 -29.5
v 1.4 0.3 -29.8
v 1.4 0.3 -29.9
v 1.4 0.4 -29.5
v 1.4 0.4 -29.7
v 1.4 0.4 -29.8
v 1.4 0.4 -29.9
v 1.4 0.5 -29.7
v 1.4 0.5 -29.8
v 1.5 0 -29.6
v 1.5 0 -29.8
v 1.5 0.1 -29.5
v 1.5 0.1 -29.6
v 1.5 0.1 -29.8
v 1.5 0.1 -29.9
v 1.5 0.2 -29.4
v 1.5 0.2 -29.5
v 1.5 0.2 -29.6
v 1.5 0.2 -29.8
v 1.5 0.2 -29.9
v 1.5 0.3 -29.5
v 1.5 0.4 -29.4
v 1.5 0.4 -29.5
v 1.5 0.4 -29.8
v 1.5 0.4 -29.9
v 1.5 0.5 -29.8
v 1.5 0.5 -29.9
v 1.6 0 -29.5
v 1.6 0 -29.6
v 1.6 0.1 -29.5
v 1.6 0.1 -29.6
v 1.6 0.1 -29.9
v 1.6 0.1 -30
v 1.6 0.2 -29.9
v 1.6 0.2 -30
v 1.6 0.4 -29.4
v 1.6 0.4 -29.6
v 1.6 0.4 -29.7
v 1.6 0.4 -29.9
v 1.6 0.4 -30
v 1.6 0.5 -29.4
v 1.6 0.5 -29.6
v 1.6 0.5 -29.7
v 1.6 0.5 -29.9
v 1.6 0.5 -30
v 1.6 0.6 -29.6
v 1.6 0.6 -29.9
v 1.7 0.2 -29.6
v 1.7 0.2 -29.8
v 1.7 0.3 -29.9
v 1.7 0.3 -30
v 1.7 0.4 -29.6
v 1.7 0.4 -29.8
v 1.7 0.4 -29.9
v 1.7 0.4 -30
v 1.8 0.2 -29.9
v 1.8 0.2 -30
v 1.8 0.3 -29.9
v 1.8 0.3 -30
v 1.9 0.2 -29.5
v 1.9 0.2 -29.6
v 1.9 0.2 -29.8
v 1.9 0.2 -29.9
v 1.9 0.3 -29.9
v 1.9 0.4 -29.5
v 1.9 0.4 -29.6
v 1.9 0.4 -29.8
v 1.9 0.4 -29.9
v 1.5 0.2 -29.5
v 1.5 0.2 -29.8
v 1.5 0.3 -29.5
v 1.5 0.3 -29.8
v 1.6 0.3 -29.5
v 1.6 0.3 -29.9
v 1.6 0.4 -29.5
v 1.6 0.4 -29.6
v 1.6 0.4 -29.9
v 1.7 0.2 -29.4
v 1.7 0.2 -29.5
v 1.7 0.3 -29.4
v 1.7 0.3 -29.5
v 1.8 0 -29.5
v 1.8 0 -29.8
v 1.8 0.1 -29.5
v 1.8 0.1 -29.7
v 1.8 0.1 -29.8
v 1.8 0.1 -29.9
v 1.8 0.1 -30
v 1.8 0.2 -29.9
v 1.8 0.2 -30
v 1.8 0.3 -29.4
v 1.8 0.3 -29.5
v 1.8 0.4 -29.5
v 1.8 0.4 -29.9
v 1.8 0.4 -30
v 1.8 0.5 -29.4
v 1.8 0.5 -29.5
v 1.8 0.5 -29.8
v 1.8 0.5 -29.9
v 1.8 0.5 -30
v 1.8 0.6 -29.8
v 1.8 0.6 -29.9
v 1.9 0.1 -29.5
v 1.9 0.1 -29.6
v 1.9 0.1 -29.8
v 1.9 0.1 -29.9
v 1.9 0.2 -29.5
v 1.9 0.2 -29.6
v 1.9 0.2 -29.8
v 1.9 0.2 -29.9
v 1.9 0.2 -30
v 1.9 0.3 -29.9
v 1.9 0.3 -30
v 1.9 0.4 -29.5
v 1.9 0.4 -29.6
v 1.9 0.4 -29.8
v 1.9 0.4 -29.9
v 1.9 0.4 -30
v 1.9 0.5 -29.5
v 1.9 0.5 -29.6
v 1.9 0.5 -29.8
v 1.9 0.5 -29.9
v 1.9 0.6 -29.6
v 1.9 0.6 -29.8
v 2 0.1 -29.6
v 2 0.1 -29.7
v 2 0.1 -29.8
v 2 0.2 -29.5
v 2 0.2 -29.6
v 2 0.2 -29.7
v 2 0.2 -29.8
v 2 0.2 -29.9
v 2 0.4 -29.5
v 2 0.4 -29.6
v 2 0.4 -29.8
v 2 0.4 -29.9
v 2 0.5 -29.6
v 2 0.5 -29.8
v 1.5 0.2 -29.4
v 1.5 0.4 -29.4
v 1.6 0.4 -29.4
v 1.6 0.5 -29.4
v 1.7 0.2 -29.4
v 1.7 0.3 -29.4
v 1.8 0.3 -29.4
v 1.8 0.5 -29.4
v 1.4 0.2 -29.5
v 1.4 0.3 -29.5
v 1.4 0.4 -29.5
v 1.5 0.1 -29.5
v 1.5 0.2 -29.5
v 1.5 0.3 -29.5
v 1.5 0.4 -29.5
v 1.6 0 -29.5
v 1.6 0.1 -29.5
v 1.7 0.2 -29.5
v 1.8 0 -29.5
v 1.8 0.1 -29.5
v 1.8 0.4 -29.5
v 1.8 0.5 -29.5
v 1.9 0.1 -29.5
v 1.9 0.2 -29.5
v 1.9 0.4 -29.5
v 1.9 0.5 -29.5
v 2 0.2 -29.5
v 2 0.4 -29.5
v 1.4 0.1 -29.6
v 1.4 0.2 -29.6
v 1.5 0 -29.6
v 1.5 0.1 -29.6
v 1.5 0.2 -29.6
v 1.6 0 -29.6
v 1.6 0.1 -29.6
v 1.6 0.5 -29.6
v 1.6 0.6 -29.6
v 1.7 0.2 -29.6
v 1.7 0.4 -29.6
v 1.9 0.1 -29.6
v 1.9 0.2 -29.6
v 1.9 0.4 -29.6
v 1.9 0.5 -29.6
v 1.9 0.6 -29.6
v 2 0.1 -29.6
v 2 0.2 -29.6
v 2 0.4 -29.6
v 2 0.5 -29.6
v 1.4 0.4 -29.7
v 1.4 0.5 -29.7
v 1.6 0.4 -29.7
v 1.6 0.5 -29.7
v 1.7 0.3 -29.9
v 1.7 0.4 -29.9
v 1.8 0.2 -29.9
v 1.8 0.3 -29.9
v 1.8 0.4 -29.9
v 1.9 0.2 -29.9
v 1.9 0.3 -29.9
v 1.9 0.4 -29.9
v 1.5 0.2 -29.5
v 1.5 0.3 -29.5
v 1.6 0.3 -29.5
v 1.6 0.4 -29.5
v 1.7 0.2 -29.5
v 1.7 0.3 -29.5
v 1.8 0.3 -29.5
v 1.8 0.4 -29.5
v 1.4 0.1 -29.8
v 1.4 0.2 -29.8
v 1.4 0.3 -29.8
v 1.4 0.4 -29.8
v 1.4 0.5 -29.8
v 1.5 0 -29.8
v 1.5 0.1 -29.8
v 1.5 0.2 -29.8
v 1.5 0.3 -29.8
v 1.5 0.4 -29.8
v 1.5 0.5 -29.8
v 1.7 0.1 -29.8
v 1.7 0.2 -29.8
v 1.7 0.4 -29.8
v 1.8 0 -29.8
v 1.8 0.1 -29.8
v 1.8 0.4 -29.8
v 1.8 0.5 -29.8
v 1.8 0.6 -29.8
v 1.9 0.1 -29.8
v 1.9 0.2 -29.8
v 1.9 0.4 -29.8
v 1.9 0.5 -29.8
v 1.9 0.6 -29.8
v 2 0.1 -29.8
v 2 0.2 -29.8
v 2 0.4 -29.8
v 2 0.5 -29.8
v 1.4 0.3 -29.9
v 1.4 0.4 -29.9
v 1.5 0.1 -29.9
v 1.5 0.2 -29.9
v 1.5 0.4 -29.9
v 1.5 0.5 -29.9
v 1.6 0.1 -29.9
v 1.6 0.2 -29.9
v 1.6 0.3 -29.9
v 1.6 0.4 -29.9
v 1.6 0.5 -29.9
v 1.6 0.6 -29.9
v 1.8 0.1 -29.9
v 1.8 0.2 -29.9
v 1.8 0.4 -29.9
v 1.8 0.5 -29.9
v 1.8 0.6 -29.9
v 1.9 0.1 -29.9
v 1.9 0.2 -29.9
v 1.9 0.3 -29.9
v 1.9 0.4 -29.9
v 1.9 0.5 -29.9
v 2 0.2 -29.9
v 2 0.4 -29.9
v 1.6 0.1 -30
v 1.6 0.2 -30
v 1.6 0.4 -30
v 1.6 0.5 -30
v 1.7 0.1 -30
v 1.7 0.2 -30
v 1.7 0.3 -30
v 1.7 0.4 -30
v 1.8 0.1 -30
v 1.8 0.2 -30
v 1.8 0.3 -30
v 1.8 0.4 -30
v 1.8 0.5 -30
v 1.9 0.2 -30
v 1.9 0.3 -30
v 1.9 0.4 -30
v 1.6 0 -29.5
v 1.8 0 -29.5
v 1.5 0 -29.6
v 1.6 0 -29.6
v 1.5 0 -29.8
v 1.8 0 -29.8
v 1.5 0.1 -29.5
v 1.6 0.1 -29.5
v 1.8 0.1 -29.5
v 1.9 0.1 -29.5
v 1.4 0.1 -29.6
v 1.5 0.1 -29.6
v 1.6 0.1 -29.6
v 1.9 0.1 -29.6
v 2 0.1 -29.6
v 1.8 0.1 -29.7
v 2 0.1 -29.7
v 1.4 0.1 -29.8
v 1.5 0.1 -29.8
v 1.7 0.1 -29.8
v 1.8 0.1 -29.8
v 1.9 0.1 -29.8
v 2 0.1 -29.8
v 1.5 0.1 -29.9
v 1.6 0.1 -29.9
v 1.8 0.1 -29.9
v 1.9 0.1 -29.9
v 1.6 0.1 -30
v 1.7 0.1 -30
v 1.8 0.1 -30
v 1.5 0.2 -29.4
v 1.7 0.2 -29.4
v 1.4 0.2 -29.5
v 1.5 0.2 -29.5
v 1.7 0.2 -29.5
v 1.9 0.2 -29.5
v 2 0.2 -29.5
v 1.4 0.2 -29.6
v 1.5 0.2 -29.6
v 1.9 0.2 -29.6
v 2 0.2 -29.6
v 1.9 0.2 -29.8
v 2 0.2 -29.8
v 1.8 0.2 -29.9
v 1.9 0.2 -29.9
v 2 0.2 -29.9
v 1.8 0.2 -30
v 1.9 0.2 -30
v 1.7 0.3 -29.4
v 1.8 0.3 -29.4
v 1.5 0.3 -29.5
v 1.6 0.3 -29.5
v 1.7 0.3 -29.5
v 1.8 0.3 -29.5
v 1.4 0.3 -29.8
v 1.5 0.3 -29.8
v 1.4 0.3 -29.9
v 1.6 0.3 -29.9
v 1.7 0.3 -29.9
v 1.8 0.3 -29.9
v 1.7 0.3 -30
v 1.8 0.3 -30
v 1.6 0.4 -29.5
v 1.8 0.4 -29.5
v 1.9 0.4 -29.5
v 1.6 0.4 -29.6
v 1.7 0.4 -29.6
v 1.9 0.4 -29.6
v 1.7 0.4 -29.8
v 1.8 0.4 -29.8
v 1.9 0.4 -29.8
v 1.6 0.4 -29.9
v 1.7 0.4 -29.9
v 1.8 0.4 -29.9
v 1.9 0.4 -29.9
v 1.6 0.4 -30
v 1.7 0.4 -30
v 1.5 0.2 -29.5
v 1.7 0.2 -29.5
v 1.9 0.2 -29.5
v 1.7 0.2 -29.6
v 1.9 0.2 -29.6
v 1.5 0.2 -29.8
v 1.7 0.2 -29.8
v 1.9 0.2 -29.8
v 1.5 0.2 -29.9
v 1.6 0.2 -29.9
v 1.8 0.2 -29.9
v 1.9 0.2 -29.9
v 1.6 0.2 -30
v 1.7 0.2 -30
v 1.8 0.2 -30
v 1.5 0.4 -29.4
v 1.6 0.4 -29.4
v 1.4 0.4 -29.5
v 1.5 0.4 -29.5
v 1.9 0.4 -29.5
v 2 0.4 -29.5
v 1.6 0.4 -29.6
v 1.9 0.4 -29.6
v 2 0.4 -29.6
v 1.4 0.4 -29.7
v 1.6 0.4 -29.7
v 1.4 0.4 -29.8
v 1.5 0.4 -29.8
v 1.9 0.4 -29.8
v 2 0.4 -29.8
v 1.4 0.4 -29.9
v 1.5 0.4 -29.9
v 1.8 0.4 -29.9
v 1.9 0.4 -29.9
v 2 0.4 -29.9
v 1.8 0.4 -30
v 1.9 0.4 -30
v 1.6 0.5 -29.4
v 1.8 0.5 -29.4
v 1.8 0.5 -29.5
v 1.9 0.5 -29.5
v 1.6 0.5 -29.6
v 1.9 0.5 -29.6
v 2 0.5 -29.6
v 1.4 0.5 -29.7
v 1.6 0.5 -29.7
v 1.4 0.5 -29.8
v 1.5 0.5 -29.8
v 1.8 0.5 -29.8
v 1.9 0.5 -29.8
v 2 0.5 -29.8
v 1.5 0.5 -29.9
v 1.6 0.5 -29.9
v 1.8 0.5 -29.9
v 1.9 0.5 -29.9
v 1.6 0.5 -30
v 1.8 0.5 -30
v 1.6 0.6 -29.6
v 1.9 0.6 -29.6
v 1.8 0.6 -29.8
v 1.9 0.6 -29.8
v 1.6 0.6 -29.9
v 1.8 0.6 -29.9

# faces
f 4/2/1 2/2/1 1/2/1
f 5/2/1 2/2/1 4/2/1
f 6/1/1 4/1/1 3/1/1
f 6/1/1 5/1/1 4/1/1
f 7/1/1 5/1/1 6/1/1
f 9/2/1 7/2/1 6/2/1
f 9/2/1 8/2/1 7/2/1
f 10/2/1 8/2/1 9/2/1
f 11/2/1 8/2/1 10/2/1
f 12/2/1 8/2/1 11/2/1
f 13/2/1 11/2/1 10/2/1
f 14/2/1 11/2/1 13/2/1
f 18/2/1 16/2/1 15/2/1
f 19/2/1 16/2/1 18/2/1
f 22/2/1 18/2/1 17/2/1
f 23/2/1 18/2/1 22/2/1
f 24/2/1 20/2/1 19/2/1
f 25/2/1 20/2/1 24/2/1
f 26/2/1 22/2/1 21/2/1
f 27/2/1 26/2/1 21/2/1
f 28/2/1 26/2/1 27/2/1
f 31/2/1 30/2/1 29/2/1
f 32/2/1 30/2/1 31/2/1
f 35/2/1 34/2/1 33/2/1
f 36/2/1 34/2/1 35/2/1
f 39/2/1 38/2/1 37/2/1
f 40/2/1 38/2/1 39/2/1
f 46/2/1 42/2/1 41/2/1
f 47/1/1 43/1/1 42/1/1
f 47/2/1 42/2/1 46/2/1
f 48/1/1 43/1/1 47/1/1
f 49/1/1 45/1/1 44/1/1
f 50/1/1 45/1/1 49/1/1
f 51/1/1 48/1/1 47/1/1
f 51/1/1 49/1/1 48/1/1
f 52/1/1 49/1/1 51/1/1
f 57/1/1 54/1/1 53/1/1
f 58/1/1 54/1/1 57/1/1
f 59/2/1 56/2/1 55/2/1
f 60/2/1 56/2/1 59/2/1
f 63/1/1 62/1/1 61/1/1
f 64/1/1 62/1/1 63/1/1
f 69/2/1 68/2/1 67/2/1
f 70/1/1 66/1/1 65/1/1
f 71/1/1 66/1/1 70/1/1
f 72/2/1 69/2/1 67/2/1
f 73/2/1 69/2/1 72/2/1
f 74/1/2 75/1/2 76/1/2
f 76/1/2 75/1/2 77/1/2
f 78/2/2 79/2/2 80/2/2
f 80/2/2 79/2/2 81/2/2
f 81/2/2 79/2/2 82/2/2
f 83/2/2 84/2/2 85/2/2
f 85/2/2 84/2/2 86/2/2
f 87/2/2 88/2/2 89/2/2
f 89/2/2 88/2/2 90/2/2
f 90/2/2 88/2/2 91/2/2
f 92/1/2 93/1/2 94/1/2
f 94/1/2 93/1/2 95/1/2
f 96/2/2 97/2/2 98/2/2
f 96/2/2 98/2/2 101/2/2
f 101/2/2 98/2/2 102/2/2
f 99/1/2 100/1/2 104/1/2
f 104/1/2 100/1/2 105/1/2
f 103/1/2 104/1/2 106/1/2
f 106/1/2 104/1/2 107/1/2
f 108/2/2 109/2/2 112/2/2
f 112/2/2 109/2/2 113/2/2
f 110/1/2 111/1/2 114/1/2
f 114/1/2 111/1/2 115/1/2
f 115/1/2 116/1/2 117/1/2
f 117/1/2 116/1/2 118/1/2
f 117/2/2 118/2/2 122/2/2
f 122/2/2 118/2/2 123/2/2
f 119/2/2 120/2/2 124/2/2
f 124/2/2 120/2/2 125/2/2
f 121/2/2 122/2/2 126/2/2
f 126/2/2 122/2/2 127/2/2
f 125/1/2 126/1/2 128/1/2
f 128/1/2 126/1/2 129/1/2
f 130/2/2 131/2/2 134/2/2
f 131/1/2 132/1/2 135/1/2
f 134/2/2 131/2/2 135/2/2
f 135/1/2 132/1/2 136/1/2
f 133/1/2 134/1/2 138/1/2
f 136/2/2 137/2/2 139/2/2
f 138/1/2 134/1/2 139/1/2
f 134/2/2 135/2/2 139/2/2
f 135/2/2 136/2/2 139/2/2
f 139/2/2 137/2/2 140/2/2
f 140/2/2 137/2/2 141/2/2
f 139/1/2 140/1/2 142/1/2
f 142/1/2 140/1/2 143/1/2
f 146/2/3 145/2/3 144/2/3
f 148/2/3 146/2/3 144/2/3
f 148/2/3 147/2/3 146/2/3
f 149/2/3 147/2/3 148/2/3
f 150/2/3 147/2/3 149/2/3
f 151/2/3 147/2/3 150/2/3
f 156/1/3 153/1/3 152/1/3
f 157/2/3 154/2/3 153/2/3
f 157/1/3 153/1/3 156/1/3
f 158/2/3 154/2/3 157/2/3
f 160/2/3 156/2/3 155/2/3
f 161/2/3 156/2/3 160/2/3
f 161/2/3 160/2/3 159/2/3
f 162/2/3 161/2/3 159/2/3
f 163/2/3 161/2/3 162/2/3
f 166/2/3 161/2/3 163/2/3
f 167/2/3 161/2/3 166/2/3
f 168/2/3 165/2/3 164/2/3
f 169/2/3 165/2/3 168/2/3
f 170/1/3 168/1/3 167/1/3
f 171/1/3 168/1/3 170/1/3
f 175/2/3 173/2/3 172/2/3
f 176/2/3 173/2/3 175/2/3
f 177/2/3 175/2/3 174/2/3
f 178/2/3 175/2/3 177/2/3
f 184/1/3 182/1/3 181/1/3
f 185/1/3 182/1/3 184/1/3
f 186/1/3 180/1/3 179/1/3
f 187/1/3 180/1/3 186/1/3
f 188/2/3 184/2/3 183/2/3
f 189/2/3 184/2/3 188/2/3
f 190/1/3 186/1/3 185/1/3
f 191/1/3 186/1/3 190/1/3
f 194/2/3 193/2/3 192/2/3
f 195/2/3 193/2/3 194/2/3
f 199/2/3 197/2/3 196/2/3
f 200/2/3 197/2/3 199/2/3
f 201/1/3 199/1/3 198/1/3
f 202/2/3 200/2/3 199/2/3
f 202/1/3 199/1/3 201/1/3
f 203/2/3 200/2/3 202/2/3
f 204/2/4 205/2/4 206/2/4
f 204/2/4 206/2/4 208/2/4
f 206/2/4 207/2/4 208/2/4
f 208/2/4 207/2/4 209/2/4
f 209/2/4 207/2/4 210/2/4
f 210/2/4 207/2/4 211/2/4
f 212/2/4 213/2/4 218/2/4
f 213/1/4 214/1/4 219/1/4
f 218/2/4 213/2/4 219/2/4
f 219/1/4 214/1/4 220/1/4
f 215/2/4 216/2/4 221/2/4
f 221/2/4 216/2/4 222/2/4
f 217/2/4 218/2/4 223/2/4
f 217/2/4 223/2/4 226/2/4
f 226/2/4 223/2/4 227/2/4
f 224/1/4 225/1/4 228/1/4
f 224/1/4 228/1/4 232/1/4
f 232/1/4 228/1/4 233/1/4
f 229/1/4 230/1/4 234/1/4
f 234/1/4 230/1/4 235/1/4
f 231/1/4 232/1/4 236/1/4
f 236/1/4 232/1/4 237/1/4
f 233/1/4 234/1/4 238/1/4
f 238/1/4 234/1/4 239/1/4
f 240/2/4 241/2/4 244/2/4
f 242/2/4 243/2/4 246/2/4
f 246/2/4 243/2/4 247/2/4
f 244/2/4 245/2/4 248/2/4
f 240/2/4 244/2/4 248/2/4
f 248/2/4 245/2/4 249/2/4
f 249/2/4 245/2/4 250/2/4
f 250/1/4 251/1/4 255/1/4
f 255/1/4 251/1/4 256/1/4
f 252/1/4 253/1/4 257/1/4
f 257/1/4 253/1/4 258/1/4
f 254/2/4 255/2/4 260/2/4
f 260/2/4 255/2/4 261/2/4
f 258/2/4 259/2/4 262/2/4
f 259/2/4 260/2/4 262/2/4
f 262/2/4 260/2/4 263/2/4
f 264/2/4 265/2/4 268/2/4
f 268/2/4 265/2/4 269/2/4
f 266/1/4 267/1/4 271/1/4
f 268/1/4 269/1/4 272/1/4
f 272/1/4 269/1/4 273/1/4
f 270/2/4 271/2/4 274/2/4
f 271/1/4 267/1/4 275/1/4
f 274/2/4 271/2/4 275/2/4
f 275/1/4 267/1/4 276/1/4
f 273/1/4 274/1/4 277/1/4
f 274/2/4 275/2/4 278/2/4
f 277/1/4 274/1/4 278/1/4
f 278/2/4 275/2/4 279/2/4
f 283/2/5 281/2/5 280/2/5
f 284/2/5 283/2/5 282/2/5
f 285/2/5 281/2/5 283/2/5
f 285/2/5 283/2/5 284/2/5
f 291/2/5 287/2/5 286/2/5
f 292/2/5 287/2/5 291/2/5
f 293/2/5 289/2/5 288/2/5
f 295/2/5 294/2/5 293/2/5
f 295/2/5 293/2/5 288/2/5
f 296/2/5 294/2/5 295/2/5
f 297/2/5 291/2/5 290/2/5
f 298/2/5 291/2/5 297/2/5
f 300/1/5 296/1/5 295/1/5
f 301/1/5 296/1/5 300/1/5
f 302/1/5 296/1/5 301/1/5
f 303/2/5 299/2/5 298/2/5
f 304/2/5 299/2/5 303/2/5
f 305/1/5 301/1/5 300/1/5
f 305/1/5 300/1/5 299/1/5
f 306/1/5 301/1/5 305/1/5
f 307/2/5 299/2/5 304/2/5
f 308/1/5 305/1/5 299/1/5
f 308/2/5 299/2/5 307/2/5
f 309/1/5 305/1/5 308/1/5
f 313/2/5 311/2/5 310/2/5
f 314/2/5 311/2/5 313/2/5
f 317/1/5 313/1/5 312/1/5
f 318/1/5 313/1/5 317/1/5
f 319/1/5 316/1/5 315/1/5
f 320/1/5 316/1/5 319/1/5
f 324/2/5 322/2/5 321/2/5
f 325/2/5 322/2/5 324/2/5
f 326/1/5 324/1/5 323/1/5
f 327/1/5 324/1/5 326/1/5
f 332/2/5 329/2/5 328/2/5
f 333/2/5 329/2/5 332/2/5
f 335/2/5 331/2/5 330/2/5
f 336/2/5 335/2/5 334/2/5
f 337/2/5 331/2/5 335/2/5
f 337/2/5 335/2/5 336/2/5
f 340/2/5 339/2/5 338/2/5
f 341/2/5 339/2/5 340/2/5
f 345/2/5 343/2/5 342/2/5
f 345/2/5 344/2/5 343/2/5
f 346/2/5 344/2/5 345/2/5
f 347/2/5 344/2/5 346/2/5
f 348/1/5 346/1/5 345/1/5
f 351/1/5 348/1/5 345/1/5
f 351/1/5 349/1/5 348/1/5
f 352/1/5 349/1/5 351/1/5
f 353/2/5 350/2/5 349/2/5
f 353/1/5 349/1/5 352/1/5
f 354/2/5 350/2/5 353/2/5
f 355/1/5 352/1/5 351/1/5
f 356/1/5 352/1/5 355/1/5
f 357/2/6 358/2/6 360/2/6
f 358/2/6 359/2/6 360/2/6
f 360/2/6 359/2/6 361/2/6
f 357/2/6 360/2/6 362/2/6
f 362/2/6 360/2/6 363/2/6
f 362/2/6 363/2/6 365/2/6
f 365/2/6 363/2/6 366/2/6
f 363/1/6 364/1/6 367/1/6
f 367/1/6 364/1/6 368/1/6
f 366/2/6 363/2/6 369/2/6
f 363/1/6 367/1/6 370/1/6
f 369/2/6 363/2/6 370/2/6
f 370/1/6 367/1/6 371/1/6
f 372/2/6 373/2/6 375/2/6
f 375/2/6 373/2/6 378/2/6
f 374/2/6 375/2/6 378/2/6
f 376/1/6 377/1/6 379/1/6
f 379/1/6 377/1/6 380/1/6
f 374/2/6 378/2/6 381/2/6
f 381/2/6 378/2/6 382/2/6
f 383/2/6 384/2/6 387/2/6
f 387/2/6 384/2/6 388/2/6
f 385/2/6 386/2/6 390/2/6
f 390/2/6 386/2/6 391/2/6
f 389/2/6 390/2/6 392/2/6
f 392/2/6 390/2/6 393/2/6
f 394/2/6 395/2/6 396/2/6
f 394/2/6 396/2/6 398/2/6
f 396/2/6 397/2/6 398/2/6
f 398/2/6 397/2/6 399/2/6
f 401/2/6 402/2/6 403/2/6
f 403/2/6 402/2/6 404/2/6
f 399/1/6 400/1/6 406/1/6
f 406/1/6 400/1/6 407/1/6
f 404/2/6 402/2/6 408/2/6
f 408/2/6 402/2/6 409/2/6
f 405/2/6 406/2/6 410/2/6
f 410/2/6 406/2/6 411/2/6
f 409/1/6 410/1/6 412/1/6
f 412/1/6 410/1/6 413/1/6
f 414/1/6 415/1/6 416/1/6
f 416/1/6 415/1/6 417/1/6
f 414/1/6 416/1/6 418/1/6
f 418/1/6 416/1/6 419/1/6
