# MagicaVoxel @ Ephtracy

# group
o 

# material
mtllib blocoarcoris.mtl
usemtl palette

# normals
vn -1 0 0
vn 1 0 0
vn 0 0 1
vn 0 0 -1
vn 0 -1 0
vn 0 1 0

# texcoords
vt 0.0410156 0.5
vt 0.0957031 0.5
vt 0.0996094 0.5
vt 0.103516 0.5
vt 0.107422 0.5
vt 0.111328 0.5
vt 0.115234 0.5
vt 0.119141 0.5
vt 0.986328 0.5

# verts
v -0.8 0.2 0.7
v -0.8 0.2 -0.7
v -0.8 1.4 0.7
v -0.8 1.4 -0.7
v -0.7 0.1 0.7
v -0.7 0.1 -0.7
v -0.7 0.2 0.8
v -0.7 0.2 0.7
v -0.7 0.2 -0.7
v -0.7 0.2 -0.8
v -0.7 1.4 0.8
v -0.7 1.4 0.7
v -0.7 1.4 -0.7
v -0.7 1.4 -0.8
v -0.7 1.5 0.7
v -0.7 1.5 -0.7
v -0.6 0 0.6
v -0.6 0 -0.6
v -0.6 0.1 0.6
v -0.6 0.1 -0.6
v -0.6 1.5 0.6
v -0.6 1.5 -0.6
v -0.6 1.6 0.6
v -0.6 1.6 -0.6
v 0.6 0 0.6
v 0.6 0 -0.6
v 0.6 0.1 0.6
v 0.6 0.1 -0.6
v 0.6 1.5 0.6
v 0.6 1.5 -0.6
v 0.6 1.6 0.6
v 0.6 1.6 -0.6
v 0.7 0.1 0.7
v 0.7 0.1 -0.7
v 0.7 0.2 0.8
v 0.7 0.2 0.7
v 0.7 0.2 -0.7
v 0.7 0.2 -0.8
v 0.7 1.4 0.8
v 0.7 1.4 0.7
v 0.7 1.4 -0.7
v 0.7 1.4 -0.8
v 0.7 1.5 0.7
v 0.7 1.5 -0.7
v 0.8 0.2 0.7
v 0.8 0.2 -0.7
v 0.8 1.4 0.7
v 0.8 1.4 -0.7
v -0.7 0.2 0.8
v -0.7 1.4 0.8
v -0.5 0.2 0.8
v -0.5 1.4 0.8
v -0.3 0.2 0.8
v -0.3 1.4 0.8
v -0.1 0.2 0.8
v -0.1 1.4 0.8
v 0.1 0.2 0.8
v 0.1 1.4 0.8
v 0.3 0.2 0.8
v 0.3 1.4 0.8
v 0.5 0.2 0.8
v 0.5 1.4 0.8
v 0.7 0.2 0.8
v 0.7 1.4 0.8
v -0.8 0.2 0.7
v -0.8 1.4 0.7
v -0.7 0.1 0.7
v -0.7 0.2 0.7
v -0.7 1.4 0.7
v -0.7 1.5 0.7
v -0.5 0.1 0.7
v -0.5 0.2 0.7
v -0.5 1.4 0.7
v -0.5 1.5 0.7
v -0.3 0.1 0.7
v -0.3 0.2 0.7
v -0.3 1.4 0.7
v -0.3 1.5 0.7
v -0.1 0.1 0.7
v -0.1 0.2 0.7
v -0.1 1.4 0.7
v -0.1 1.5 0.7
v 0.1 0.1 0.7
v 0.1 0.2 0.7
v 0.1 1.4 0.7
v 0.1 1.5 0.7
v 0.3 0.1 0.7
v 0.3 0.2 0.7
v 0.3 1.4 0.7
v 0.3 1.5 0.7
v 0.5 0.1 0.7
v 0.5 0.2 0.7
v 0.5 1.4 0.7
v 0.5 1.5 0.7
v 0.7 0.1 0.7
v 0.7 0.2 0.7
v 0.7 1.4 0.7
v 0.7 1.5 0.7
v 0.8 0.2 0.7
v 0.8 1.4 0.7
v -0.6 0 0.6
v -0.6 0.1 0.6
v -0.6 1.5 0.6
v -0.6 1.6 0.6
v -0.5 0 0.6
v -0.5 0.1 0.6
v -0.5 1.5 0.6
v -0.5 1.6 0.6
v -0.3 0 0.6
v -0.3 0.1 0.6
v -0.3 1.5 0.6
v -0.3 1.6 0.6
v -0.1 0 0.6
v -0.1 0.1 0.6
v -0.1 1.5 0.6
v -0.1 1.6 0.6
v 0.1 0 0.6
v 0.1 0.1 0.6
v 0.1 1.5 0.6
v 0.1 1.6 0.6
v 0.3 0 0.6
v 0.3 0.1 0.6
v 0.3 1.5 0.6
v 0.3 1.6 0.6
v 0.5 0 0.6
v 0.5 0.1 0.6
v 0.5 1.5 0.6
v 0.5 1.6 0.6
v 0.6 0 0.6
v 0.6 0.1 0.6
v 0.6 1.5 0.6
v 0.6 1.6 0.6
v -0.6 0 -0.6
v -0.6 0.1 -0.6
v -0.6 1.5 -0.6
v -0.6 1.6 -0.6
v -0.5 0 -0.6
v -0.5 0.1 -0.6
v -0.5 1.5 -0.6
v -0.5 1.6 -0.6
v -0.3 0 -0.6
v -0.3 0.1 -0.6
v -0.3 1.5 -0.6
v -0.3 1.6 -0.6
v -0.1 0 -0.6
v -0.1 0.1 -0.6
v -0.1 1.5 -0.6
v -0.1 1.6 -0.6
v 0.1 0 -0.6
v 0.1 0.1 -0.6
v 0.1 1.5 -0.6
v 0.1 1.6 -0.6
v 0.3 0 -0.6
v 0.3 0.1 -0.6
v 0.3 1.5 -0.6
v 0.3 1.6 -0.6
v 0.5 0 -0.6
v 0.5 0.1 -0.6
v 0.5 1.5 -0.6
v 0.5 1.6 -0.6
v 0.6 0 -0.6
v 0.6 0.1 -0.6
v 0.6 1.5 -0.6
v 0.6 1.6 -0.6
v -0.8 0.2 -0.7
v -0.8 1.4 -0.7
v -0.7 0.1 -0.7
v -0.7 0.2 -0.7
v -0.7 1.4 -0.7
v -0.7 1.5 -0.7
v -0.5 0.1 -0.7
v -0.5 0.2 -0.7
v -0.5 1.4 -0.7
v -0.5 1.5 -0.7
v -0.3 0.1 -0.7
v -0.3 0.2 -0.7
v -0.3 1.4 -0.7
v -0.3 1.5 -0.7
v -0.1 0.1 -0.7
v -0.1 0.2 -0.7
v -0.1 1.4 -0.7
v -0.1 1.5 -0.7
v 0.1 0.1 -0.7
v 0.1 0.2 -0.7
v 0.1 1.4 -0.7
v 0.1 1.5 -0.7
v 0.3 0.1 -0.7
v 0.3 0.2 -0.7
v 0.3 1.4 -0.7
v 0.3 1.5 -0.7
v 0.5 0.1 -0.7
v 0.5 0.2 -0.7
v 0.5 1.4 -0.7
v 0.5 1.5 -0.7
v 0.7 0.1 -0.7
v 0.7 0.2 -0.7
v 0.7 1.4 -0.7
v 0.7 1.5 -0.7
v 0.8 0.2 -0.7
v 0.8 1.4 -0.7
v -0.7 0.2 -0.8
v -0.7 1.4 -0.8
v -0.5 0.2 -0.8
v -0.5 1.4 -0.8
v -0.3 0.2 -0.8
v -0.3 1.4 -0.8
v -0.1 0.2 -0.8
v -0.1 1.4 -0.8
v 0.1 0.2 -0.8
v 0.1 1.4 -0.8
v 0.3 0.2 -0.8
v 0.3 1.4 -0.8
v 0.5 0.2 -0.8
v 0.5 1.4 -0.8
v 0.7 0.2 -0.8
v 0.7 1.4 -0.8
v -0.6 0 0.6
v -0.5 0 0.6
v -0.3 0 0.6
v -0.1 0 0.6
v 0.1 0 0.6
v 0.3 0 0.6
v 0.5 0 0.6
v 0.6 0 0.6
v -0.6 0 -0.6
v -0.5 0 -0.6
v -0.3 0 -0.6
v -0.1 0 -0.6
v 0.1 0 -0.6
v 0.3 0 -0.6
v 0.5 0 -0.6
v 0.6 0 -0.6
v -0.7 0.1 0.7
v -0.5 0.1 0.7
v -0.3 0.1 0.7
v -0.1 0.1 0.7
v 0.1 0.1 0.7
v 0.3 0.1 0.7
v 0.5 0.1 0.7
v 0.7 0.1 0.7
v -0.6 0.1 0.6
v -0.5 0.1 0.6
v -0.3 0.1 0.6
v -0.1 0.1 0.6
v 0.1 0.1 0.6
v 0.3 0.1 0.6
v 0.5 0.1 0.6
v 0.6 0.1 0.6
v -0.6 0.1 -0.6
v -0.5 0.1 -0.6
v -0.3 0.1 -0.6
v -0.1 0.1 -0.6
v 0.1 0.1 -0.6
v 0.3 0.1 -0.6
v 0.5 0.1 -0.6
v 0.6 0.1 -0.6
v -0.7 0.1 -0.7
v -0.5 0.1 -0.7
v -0.3 0.1 -0.7
v -0.1 0.1 -0.7
v 0.1 0.1 -0.7
v 0.3 0.1 -0.7
v 0.5 0.1 -0.7
v 0.7 0.1 -0.7
v -0.7 0.2 0.8
v -0.5 0.2 0.8
v -0.3 0.2 0.8
v -0.1 0.2 0.8
v 0.1 0.2 0.8
v 0.3 0.2 0.8
v 0.5 0.2 0.8
v 0.7 0.2 0.8
v -0.8 0.2 0.7
v -0.7 0.2 0.7
v -0.5 0.2 0.7
v -0.3 0.2 0.7
v -0.1 0.2 0.7
v 0.1 0.2 0.7
v 0.3 0.2 0.7
v 0.5 0.2 0.7
v 0.7 0.2 0.7
v 0.8 0.2 0.7
v -0.8 0.2 -0.7
v -0.7 0.2 -0.7
v -0.5 0.2 -0.7
v -0.3 0.2 -0.7
v -0.1 0.2 -0.7
v 0.1 0.2 -0.7
v 0.3 0.2 -0.7
v 0.5 0.2 -0.7
v 0.7 0.2 -0.7
v 0.8 0.2 -0.7
v -0.7 0.2 -0.8
v -0.5 0.2 -0.8
v -0.3 0.2 -0.8
v -0.1 0.2 -0.8
v 0.1 0.2 -0.8
v 0.3 0.2 -0.8
v 0.5 0.2 -0.8
v 0.7 0.2 -0.8
v -0.7 1.4 0.8
v -0.5 1.4 0.8
v -0.3 1.4 0.8
v -0.1 1.4 0.8
v 0.1 1.4 0.8
v 0.3 1.4 0.8
v 0.5 1.4 0.8
v 0.7 1.4 0.8
v -0.8 1.4 0.7
v -0.7 1.4 0.7
v -0.5 1.4 0.7
v -0.3 1.4 0.7
v -0.1 1.4 0.7
v 0.1 1.4 0.7
v 0.3 1.4 0.7
v 0.5 1.4 0.7
v 0.7 1.4 0.7
v 0.8 1.4 0.7
v -0.8 1.4 -0.7
v -0.7 1.4 -0.7
v -0.5 1.4 -0.7
v -0.3 1.4 -0.7
v -0.1 1.4 -0.7
v 0.1 1.4 -0.7
v 0.3 1.4 -0.7
v 0.5 1.4 -0.7
v 0.7 1.4 -0.7
v 0.8 1.4 -0.7
v -0.7 1.4 -0.8
v -0.5 1.4 -0.8
v -0.3 1.4 -0.8
v -0.1 1.4 -0.8
v 0.1 1.4 -0.8
v 0.3 1.4 -0.8
v 0.5 1.4 -0.8
v 0.7 1.4 -0.8
v -0.7 1.5 0.7
v -0.5 1.5 0.7
v -0.3 1.5 0.7
v -0.1 1.5 0.7
v 0.1 1.5 0.7
v 0.3 1.5 0.7
v 0.5 1.5 0.7
v 0.7 1.5 0.7
v -0.6 1.5 0.6
v -0.5 1.5 0.6
v -0.3 1.5 0.6
v -0.1 1.5 0.6
v 0.1 1.5 0.6
v 0.3 1.5 0.6
v 0.5 1.5 0.6
v 0.6 1.5 0.6
v -0.6 1.5 -0.6
v -0.5 1.5 -0.6
v -0.3 1.5 -0.6
v -0.1 1.5 -0.6
v 0.1 1.5 -0.6
v 0.3 1.5 -0.6
v 0.5 1.5 -0.6
v 0.6 1.5 -0.6
v -0.7 1.5 -0.7
v -0.5 1.5 -0.7
v -0.3 1.5 -0.7
v -0.1 1.5 -0.7
v 0.1 1.5 -0.7
v 0.3 1.5 -0.7
v 0.5 1.5 -0.7
v 0.7 1.5 -0.7
v -0.6 1.6 0.6
v -0.5 1.6 0.6
v -0.3 1.6 0.6
v -0.1 1.6 0.6
v 0.1 1.6 0.6
v 0.3 1.6 0.6
v 0.5 1.6 0.6
v 0.6 1.6 0.6
v -0.6 1.6 -0.6
v -0.5 1.6 -0.6
v -0.3 1.6 -0.6
v -0.1 1.6 -0.6
v 0.1 1.6 -0.6
v 0.3 1.6 -0.6
v 0.5 1.6 -0.6
v 0.6 1.6 -0.6

# faces
f 3/1/1 2/1/1 1/1/1
f 4/1/1 2/1/1 3/1/1
f 8/2/1 6/2/1 5/2/1
f 9/2/1 6/2/1 8/2/1
f 11/2/1 8/2/1 7/2/1
f 12/2/1 8/2/1 11/2/1
f 13/2/1 10/2/1 9/2/1
f 14/2/1 10/2/1 13/2/1
f 15/2/1 13/2/1 12/2/1
f 16/2/1 13/2/1 15/2/1
f 19/2/1 18/2/1 17/2/1
f 20/2/1 18/2/1 19/2/1
f 23/2/1 22/2/1 21/2/1
f 24/2/1 22/2/1 23/2/1
f 25/3/2 26/3/2 27/3/2
f 27/3/2 26/3/2 28/3/2
f 29/3/2 30/3/2 31/3/2
f 31/3/2 30/3/2 32/3/2
f 33/3/2 34/3/2 36/3/2
f 36/3/2 34/3/2 37/3/2
f 35/3/2 36/3/2 39/3/2
f 39/3/2 36/3/2 40/3/2
f 37/3/2 38/3/2 41/3/2
f 41/3/2 38/3/2 42/3/2
f 40/3/2 41/3/2 43/3/2
f 43/3/2 41/3/2 44/3/2
f 45/1/2 46/1/2 47/1/2
f 47/1/2 46/1/2 48/1/2
f 51/2/3 50/2/3 49/2/3
f 52/2/3 50/2/3 51/2/3
f 53/8/3 52/8/3 51/8/3
f 54/8/3 52/8/3 53/8/3
f 55/7/3 54/7/3 53/7/3
f 56/7/3 54/7/3 55/7/3
f 57/6/3 56/6/3 55/6/3
f 58/6/3 56/6/3 57/6/3
f 59/5/3 58/5/3 57/5/3
f 60/5/3 58/5/3 59/5/3
f 61/4/3 60/4/3 59/4/3
f 62/4/3 60/4/3 61/4/3
f 63/3/3 62/3/3 61/3/3
f 64/3/3 62/3/3 63/3/3
f 68/1/3 66/1/3 65/1/3
f 69/1/3 66/1/3 68/1/3
f 71/2/3 68/2/3 67/2/3
f 72/2/3 68/2/3 71/2/3
f 73/2/3 70/2/3 69/2/3
f 74/2/3 70/2/3 73/2/3
f 75/8/3 72/8/3 71/8/3
f 76/8/3 72/8/3 75/8/3
f 77/8/3 74/8/3 73/8/3
f 78/8/3 74/8/3 77/8/3
f 79/7/3 76/7/3 75/7/3
f 80/7/3 76/7/3 79/7/3
f 81/7/3 78/7/3 77/7/3
f 82/7/3 78/7/3 81/7/3
f 83/6/3 80/6/3 79/6/3
f 84/6/3 80/6/3 83/6/3
f 85/6/3 82/6/3 81/6/3
f 86/6/3 82/6/3 85/6/3
f 87/5/3 84/5/3 83/5/3
f 88/5/3 84/5/3 87/5/3
f 89/5/3 86/5/3 85/5/3
f 90/5/3 86/5/3 89/5/3
f 91/4/3 88/4/3 87/4/3
f 92/4/3 88/4/3 91/4/3
f 93/4/3 90/4/3 89/4/3
f 94/4/3 90/4/3 93/4/3
f 95/3/3 92/3/3 91/3/3
f 96/3/3 92/3/3 95/3/3
f 97/3/3 94/3/3 93/3/3
f 98/3/3 94/3/3 97/3/3
f 99/1/3 97/1/3 96/1/3
f 100/1/3 97/1/3 99/1/3
f 105/2/3 102/2/3 101/2/3
f 106/2/3 102/2/3 105/2/3
f 107/2/3 104/2/3 103/2/3
f 108/2/3 104/2/3 107/2/3
f 109/8/3 106/8/3 105/8/3
f 110/8/3 106/8/3 109/8/3
f 111/8/3 108/8/3 107/8/3
f 112/8/3 108/8/3 111/8/3
f 113/7/3 110/7/3 109/7/3
f 114/7/3 110/7/3 113/7/3
f 115/7/3 112/7/3 111/7/3
f 116/7/3 112/7/3 115/7/3
f 117/6/3 114/6/3 113/6/3
f 118/6/3 114/6/3 117/6/3
f 119/6/3 116/6/3 115/6/3
f 120/6/3 116/6/3 119/6/3
f 121/5/3 118/5/3 117/5/3
f 122/5/3 118/5/3 121/5/3
f 123/5/3 120/5/3 119/5/3
f 124/5/3 120/5/3 123/5/3
f 125/4/3 122/4/3 121/4/3
f 126/4/3 122/4/3 125/4/3
f 127/4/3 124/4/3 123/4/3
f 128/4/3 124/4/3 127/4/3
f 129/3/3 126/3/3 125/3/3
f 130/3/3 126/3/3 129/3/3
f 131/3/3 128/3/3 127/3/3
f 132/3/3 128/3/3 131/3/3
f 133/2/4 134/2/4 137/2/4
f 137/2/4 134/2/4 138/2/4
f 135/2/4 136/2/4 139/2/4
f 139/2/4 136/2/4 140/2/4
f 137/8/4 138/8/4 141/8/4
f 141/8/4 138/8/4 142/8/4
f 139/8/4 140/8/4 143/8/4
f 143/8/4 140/8/4 144/8/4
f 141/7/4 142/7/4 145/7/4
f 145/7/4 142/7/4 146/7/4
f 143/7/4 144/7/4 147/7/4
f 147/7/4 144/7/4 148/7/4
f 145/6/4 146/6/4 149/6/4
f 149/6/4 146/6/4 150/6/4
f 147/6/4 148/6/4 151/6/4
f 151/6/4 148/6/4 152/6/4
f 149/5/4 150/5/4 153/5/4
f 153/5/4 150/5/4 154/5/4
f 151/5/4 152/5/4 155/5/4
f 155/5/4 152/5/4 156/5/4
f 153/4/4 154/4/4 157/4/4
f 157/4/4 154/4/4 158/4/4
f 155/4/4 156/4/4 159/4/4
f 159/4/4 156/4/4 160/4/4
f 157/3/4 158/3/4 161/3/4
f 161/3/4 158/3/4 162/3/4
f 159/3/4 160/3/4 163/3/4
f 163/3/4 160/3/4 164/3/4
f 165/1/4 166/1/4 168/1/4
f 168/1/4 166/1/4 169/1/4
f 167/2/4 168/2/4 171/2/4
f 171/2/4 168/2/4 172/2/4
f 169/2/4 170/2/4 173/2/4
f 173/2/4 170/2/4 174/2/4
f 171/8/4 172/8/4 175/8/4
f 175/8/4 172/8/4 176/8/4
f 173/8/4 174/8/4 177/8/4
f 177/8/4 174/8/4 178/8/4
f 175/7/4 176/7/4 179/7/4
f 179/7/4 176/7/4 180/7/4
f 177/7/4 178/7/4 181/7/4
f 181/7/4 178/7/4 182/7/4
f 179/6/4 180/6/4 183/6/4
f 183/6/4 180/6/4 184/6/4
f 181/6/4 182/6/4 185/6/4
f 185/6/4 182/6/4 186/6/4
f 183/5/4 184/5/4 187/5/4
f 187/5/4 184/5/4 188/5/4
f 185/5/4 186/5/4 189/5/4
f 189/5/4 186/5/4 190/5/4
f 187/4/4 188/4/4 191/4/4
f 191/4/4 188/4/4 192/4/4
f 189/4/4 190/4/4 193/4/4
f 193/4/4 190/4/4 194/4/4
f 191/3/4 192/3/4 195/3/4
f 195/3/4 192/3/4 196/3/4
f 193/3/4 194/3/4 197/3/4
f 197/3/4 194/3/4 198/3/4
f 196/1/4 197/1/4 199/1/4
f 199/1/4 197/1/4 200/1/4
f 201/2/4 202/2/4 203/2/4
f 203/2/4 202/2/4 204/2/4
f 203/8/4 204/8/4 205/8/4
f 205/8/4 204/8/4 206/8/4
f 205/7/4 206/7/4 207/7/4
f 207/7/4 206/7/4 208/7/4
f 207/6/4 208/6/4 209/6/4
f 209/6/4 208/6/4 210/6/4
f 209/5/4 210/5/4 211/5/4
f 211/5/4 210/5/4 212/5/4
f 211/4/4 212/4/4 213/4/4
f 213/4/4 212/4/4 214/4/4
f 213/3/4 214/3/4 215/3/4
f 215/3/4 214/3/4 216/3/4
f 225/2/5 218/2/5 217/2/5
f 226/8/5 219/8/5 218/8/5
f 226/2/5 218/2/5 225/2/5
f 227/7/5 220/7/5 219/7/5
f 227/8/5 219/8/5 226/8/5
f 228/6/5 221/6/5 220/6/5
f 228/7/5 220/7/5 227/7/5
f 229/5/5 222/5/5 221/5/5
f 229/6/5 221/6/5 228/6/5
f 230/4/5 223/4/5 222/4/5
f 230/5/5 222/5/5 229/5/5
f 231/3/5 224/3/5 223/3/5
f 231/4/5 223/4/5 230/4/5
f 232/3/5 224/3/5 231/3/5
f 241/2/5 234/2/5 233/2/5
f 242/8/5 235/8/5 234/8/5
f 242/2/5 234/2/5 241/2/5
f 243/7/5 236/7/5 235/7/5
f 243/8/5 235/8/5 242/8/5
f 244/6/5 237/6/5 236/6/5
f 244/7/5 236/7/5 243/7/5
f 245/5/5 238/5/5 237/5/5
f 245/6/5 237/6/5 244/6/5
f 246/4/5 239/4/5 238/4/5
f 246/5/5 238/5/5 245/5/5
f 247/3/5 240/3/5 239/3/5
f 247/4/5 239/4/5 246/4/5
f 248/3/5 240/3/5 247/3/5
f 249/2/5 241/2/5 233/2/5
f 256/3/5 240/3/5 248/3/5
f 257/2/5 249/2/5 233/2/5
f 257/2/5 250/2/5 249/2/5
f 258/8/5 251/8/5 250/8/5
f 258/2/5 250/2/5 257/2/5
f 259/7/5 252/7/5 251/7/5
f 259/8/5 251/8/5 258/8/5
f 260/6/5 253/6/5 252/6/5
f 260/7/5 252/7/5 259/7/5
f 261/5/5 254/5/5 253/5/5
f 261/6/5 253/6/5 260/6/5
f 262/4/5 255/4/5 254/4/5
f 262/5/5 254/5/5 261/5/5
f 263/3/5 256/3/5 255/3/5
f 263/4/5 255/4/5 262/4/5
f 264/3/5 240/3/5 256/3/5
f 264/3/5 256/3/5 263/3/5
f 274/2/5 266/2/5 265/2/5
f 275/8/5 267/8/5 266/8/5
f 275/2/5 266/2/5 274/2/5
f 276/7/5 268/7/5 267/7/5
f 276/8/5 267/8/5 275/8/5
f 277/6/5 269/6/5 268/6/5
f 277/7/5 268/7/5 276/7/5
f 278/5/5 270/5/5 269/5/5
f 278/6/5 269/6/5 277/6/5
f 279/4/5 271/4/5 270/4/5
f 279/5/5 270/5/5 278/5/5
f 280/3/5 272/3/5 271/3/5
f 280/4/5 271/4/5 279/4/5
f 281/3/5 272/3/5 280/3/5
f 283/1/5 274/1/5 273/1/5
f 284/1/5 274/1/5 283/1/5
f 291/1/5 282/1/5 281/1/5
f 292/1/5 282/1/5 291/1/5
f 293/2/5 285/2/5 284/2/5
f 294/8/5 286/8/5 285/8/5
f 294/2/5 285/2/5 293/2/5
f 295/7/5 287/7/5 286/7/5
f 295/8/5 286/8/5 294/8/5
f 296/6/5 288/6/5 287/6/5
f 296/7/5 287/7/5 295/7/5
f 297/5/5 289/5/5 288/5/5
f 297/6/5 288/6/5 296/6/5
f 298/4/5 290/4/5 289/4/5
f 298/5/5 289/5/5 297/5/5
f 299/3/5 291/3/5 290/3/5
f 299/4/5 290/4/5 298/4/5
f 300/3/5 291/3/5 299/3/5
f 301/2/6 302/2/6 310/2/6
f 302/8/6 303/8/6 311/8/6
f 310/2/6 302/2/6 311/2/6
f 303/7/6 304/7/6 312/7/6
f 311/8/6 303/8/6 312/8/6
f 304/6/6 305/6/6 313/6/6
f 312/7/6 304/7/6 313/7/6
f 305/5/6 306/5/6 314/5/6
f 313/6/6 305/6/6 314/6/6
f 306/4/6 307/4/6 315/4/6
f 314/5/6 306/5/6 315/5/6
f 307/3/6 308/3/6 316/3/6
f 315/4/6 307/4/6 316/4/6
f 316/3/6 308/3/6 317/3/6
f 309/1/6 310/1/6 319/1/6
f 319/1/6 310/1/6 320/1/6
f 317/1/6 318/1/6 327/1/6
f 327/1/6 318/1/6 328/1/6
f 320/2/6 321/2/6 329/2/6
f 321/8/6 322/8/6 330/8/6
f 329/2/6 321/2/6 330/2/6
f 322/7/6 323/7/6 331/7/6
f 330/8/6 322/8/6 331/8/6
f 323/6/6 324/6/6 332/6/6
f 331/7/6 323/7/6 332/7/6
f 324/5/6 325/5/6 333/5/6
f 332/6/6 324/6/6 333/6/6
f 325/4/6 326/4/6 334/4/6
f 333/5/6 325/5/6 334/5/6
f 326/3/6 327/3/6 335/3/6
f 334/4/6 326/4/6 335/4/6
f 335/3/6 327/3/6 336/3/6
f 337/2/6 338/2/6 345/2/6
f 338/8/6 339/8/6 346/8/6
f 345/2/6 338/2/6 346/2/6
f 339/7/6 340/7/6 347/7/6
f 346/8/6 339/8/6 347/8/6
f 340/6/6 341/6/6 348/6/6
f 347/7/6 340/7/6 348/7/6
f 341/5/6 342/5/6 349/5/6
f 348/6/6 341/6/6 349/6/6
f 342/4/6 343/4/6 350/4/6
f 349/5/6 342/5/6 350/5/6
f 343/3/6 344/3/6 351/3/6
f 350/4/6 343/4/6 351/4/6
f 351/3/6 344/3/6 352/3/6
f 337/2/6 345/2/6 353/2/6
f 352/3/6 344/3/6 360/3/6
f 337/2/6 353/2/6 361/2/6
f 353/2/6 354/2/6 361/2/6
f 354/8/6 355/8/6 362/8/6
f 361/2/6 354/2/6 362/2/6
f 355/7/6 356/7/6 363/7/6
f 362/8/6 355/8/6 363/8/6
f 356/6/6 357/6/6 364/6/6
f 363/7/6 356/7/6 364/7/6
f 357/5/6 358/5/6 365/5/6
f 364/6/6 357/6/6 365/6/6
f 358/4/6 359/4/6 366/4/6
f 365/5/6 358/5/6 366/5/6
f 359/3/6 360/3/6 367/3/6
f 366/4/6 359/4/6 367/4/6
f 360/3/6 344/3/6 368/3/6
f 367/3/6 360/3/6 368/3/6
f 369/2/6 370/2/6 377/2/6
f 370/8/6 371/8/6 378/8/6
f 377/2/6 370/2/6 378/2/6
f 371/7/6 372/7/6 379/7/6
f 378/8/6 371/8/6 379/8/6
f 372/6/6 373/6/6 380/6/6
f 379/7/6 372/7/6 380/7/6
f 373/5/6 374/5/6 381/5/6
f 380/6/6 373/6/6 381/6/6
f 374/4/6 375/4/6 382/4/6
f 381/5/6 374/5/6 382/5/6
f 375/3/6 376/3/6 383/3/6
f 382/4/6 375/4/6 383/4/6
f 383/3/6 376/3/6 384/3/6
