# Blender v2.91.2 OBJ File: ''
# www.blender.org
mtllib socapacete.mtl
o ObjObject
v -0.400000 -0.108095 -0.108094
v -0.400000 -0.108095 -0.208094
v -0.400000 -0.208096 -0.208095
v -0.400000 0.091905 -0.108094
v -0.400000 0.191905 -0.208094
v -0.400000 0.091905 -0.208094
v -0.400000 -0.208096 0.091905
v -0.400000 0.191905 0.091906
v -0.300000 -0.308095 0.091905
v -0.300000 -0.208096 -0.208095
v -0.300000 -0.308095 -0.208095
v -0.300000 -0.208096 0.091905
v -0.300000 0.191905 0.091906
v -0.300000 0.291904 -0.208094
v -0.300000 0.191905 -0.208094
v -0.300000 0.291904 0.091906
v -0.300000 -0.208096 0.191905
v -0.300000 0.191905 0.191906
v 0.200000 -0.208096 -0.108094
v 0.200000 -0.208096 -0.208095
v 0.200000 -0.308095 -0.208095
v 0.200000 0.191905 -0.108094
v 0.200000 0.291904 -0.208094
v 0.200000 0.191905 -0.208094
v 0.200000 0.291904 -0.108094
v 0.200000 -0.308095 -0.008095
v 0.200000 -0.108095 -0.108094
v 0.200000 -0.108095 -0.008095
v 0.300000 -0.208096 -0.108094
v 0.300000 -0.108095 -0.208094
v 0.300000 -0.208096 -0.208095
v 0.300000 -0.108095 -0.108094
v 0.300000 0.091905 -0.108094
v 0.300000 0.191905 -0.208094
v 0.300000 0.091905 -0.208094
v 0.300000 -0.108095 -0.008095
v 0.300000 0.191905 -0.008094
v -0.300000 -0.208096 -0.208095
v -0.300000 -0.108095 -0.208094
v -0.300000 -0.208096 -0.108094
v -0.300000 -0.108095 -0.108094
v -0.300000 0.091905 -0.208094
v -0.300000 0.191905 -0.208094
v -0.300000 0.091905 -0.108094
v -0.300000 -0.108095 -0.008095
v -0.300000 0.191905 -0.008094
v -0.200000 -0.308095 -0.208095
v -0.200000 -0.208096 -0.208095
v -0.200000 -0.208096 -0.108094
v -0.200000 0.191905 -0.208094
v -0.200000 0.291904 -0.208094
v -0.200000 0.191905 -0.108094
v -0.200000 0.291904 -0.108094
v -0.200000 -0.108095 -0.108094
v -0.200000 -0.308095 -0.008095
v -0.200000 -0.108095 -0.008095
v 0.300000 -0.308095 -0.208095
v 0.300000 -0.208096 -0.208095
v 0.300000 -0.308095 0.091905
v 0.300000 -0.208096 0.091905
v 0.300000 0.191905 -0.208094
v 0.300000 0.291904 -0.208094
v 0.300000 0.191905 0.091906
v 0.300000 0.291904 0.091906
v 0.300000 -0.208096 0.191905
v 0.300000 0.191905 0.191906
v 0.400000 -0.208096 -0.208095
v 0.400000 -0.108095 -0.208094
v 0.400000 -0.108095 -0.108094
v 0.400000 0.091905 -0.208094
v 0.400000 0.191905 -0.208094
v 0.400000 0.091905 -0.108094
v 0.400000 -0.208096 0.091905
v 0.400000 0.191905 0.091906
v -0.200000 -0.308095 -0.208095
v -0.300000 -0.308095 0.091905
v -0.300000 -0.308095 -0.208095
v -0.200000 -0.308095 -0.008095
v 0.200000 -0.308095 -0.008095
v 0.300000 -0.308095 -0.208095
v 0.200000 -0.308095 -0.208095
v 0.300000 -0.308095 0.091905
v -0.300000 -0.208096 -0.208095
v -0.400000 -0.208096 0.091905
v -0.400000 -0.208096 -0.208095
v -0.300000 -0.208096 0.091905
v 0.300000 -0.208096 0.091905
v -0.300000 -0.208096 0.191905
v 0.300000 -0.208096 0.191905
v 0.400000 -0.208096 -0.208095
v 0.300000 -0.208096 -0.208095
v 0.400000 -0.208096 0.091905
v -0.300000 0.091905 -0.208094
v -0.400000 0.091905 -0.108094
v -0.400000 0.091905 -0.208094
v -0.300000 0.091905 -0.108094
v 0.400000 0.091905 -0.208094
v 0.300000 0.091905 -0.108094
v 0.300000 0.091905 -0.208094
v 0.400000 0.091905 -0.108094
v -0.200000 0.191905 -0.208094
v -0.300000 0.191905 -0.008094
v -0.300000 0.191905 -0.208094
v -0.200000 0.191905 -0.108094
v 0.200000 0.191905 -0.108094
v 0.300000 0.191905 -0.208094
v 0.200000 0.191905 -0.208094
v 0.300000 0.191905 -0.008094
v -0.300000 -0.208096 -0.208095
v -0.300000 -0.208096 -0.108094
v -0.200000 -0.208096 -0.208095
v -0.200000 -0.208096 -0.108094
v 0.200000 -0.208096 -0.208095
v 0.200000 -0.208096 -0.108094
v 0.300000 -0.208096 -0.208095
v 0.300000 -0.208096 -0.108094
v -0.400000 -0.108095 -0.208094
v -0.400000 -0.108095 -0.108094
v -0.300000 -0.108095 -0.208094
v -0.300000 -0.108095 -0.108094
v -0.300000 -0.108095 -0.008095
v -0.200000 -0.108095 -0.108094
v -0.200000 -0.108095 -0.008095
v 0.200000 -0.108095 -0.108094
v 0.200000 -0.108095 -0.008095
v 0.300000 -0.108095 -0.108094
v 0.300000 -0.108095 -0.008095
v 0.300000 -0.108095 -0.208094
v 0.400000 -0.108095 -0.208094
v 0.400000 -0.108095 -0.108094
v -0.400000 0.191905 -0.208094
v -0.400000 0.191905 0.091906
v -0.300000 0.191905 -0.208094
v -0.300000 0.191905 0.091906
v -0.300000 0.191905 0.191906
v 0.300000 0.191905 0.091906
v 0.300000 0.191905 0.191906
v 0.300000 0.191905 -0.208094
v 0.400000 0.191905 -0.208094
v 0.400000 0.191905 0.091906
v -0.300000 0.291904 -0.208094
v -0.300000 0.291904 0.091906
v -0.200000 0.291904 -0.208094
v -0.200000 0.291904 -0.108094
v 0.200000 0.291904 -0.108094
v 0.200000 0.291904 -0.208094
v 0.300000 0.291904 -0.208094
v 0.300000 0.291904 0.091906
v -0.300000 -0.208096 -0.208095
v -0.200000 -0.308095 -0.208095
v -0.300000 -0.308095 -0.208095
v -0.200000 -0.208096 -0.208095
v 0.200000 -0.208096 -0.208095
v 0.300000 -0.308095 -0.208095
v 0.200000 -0.308095 -0.208095
v 0.300000 -0.208096 -0.208095
v -0.400000 -0.108095 -0.208094
v -0.400000 -0.208096 -0.208095
v -0.300000 -0.108095 -0.208094
v 0.300000 -0.108095 -0.208094
v 0.400000 -0.208096 -0.208095
v 0.400000 -0.108095 -0.208094
v -0.400000 0.191905 -0.208094
v -0.300000 0.091905 -0.208094
v -0.400000 0.091905 -0.208094
v -0.300000 0.191905 -0.208094
v 0.300000 0.191905 -0.208094
v 0.400000 0.091905 -0.208094
v 0.300000 0.091905 -0.208094
v 0.400000 0.191905 -0.208094
v -0.300000 0.291904 -0.208094
v -0.200000 0.191905 -0.208094
v -0.200000 0.291904 -0.208094
v 0.200000 0.291904 -0.208094
v 0.200000 0.191905 -0.208094
v 0.300000 0.291904 -0.208094
v -0.300000 -0.108095 -0.108094
v -0.200000 -0.208096 -0.108094
v -0.300000 -0.208096 -0.108094
v -0.200000 -0.108095 -0.108094
v 0.200000 -0.108095 -0.108094
v 0.300000 -0.208096 -0.108094
v 0.200000 -0.208096 -0.108094
v 0.300000 -0.108095 -0.108094
v -0.400000 0.091905 -0.108094
v -0.400000 -0.108095 -0.108094
v -0.300000 0.091905 -0.108094
v 0.300000 0.091905 -0.108094
v 0.400000 -0.108095 -0.108094
v 0.400000 0.091905 -0.108094
v -0.200000 0.291904 -0.108094
v 0.200000 0.191905 -0.108094
v -0.200000 0.191905 -0.108094
v 0.200000 0.291904 -0.108094
v -0.200000 -0.108095 -0.008095
v 0.200000 -0.308095 -0.008095
v -0.200000 -0.308095 -0.008095
v 0.200000 -0.108095 -0.008095
v -0.300000 0.191905 -0.008094
v -0.300000 -0.108095 -0.008095
v 0.300000 -0.108095 -0.008095
v 0.300000 0.191905 -0.008094
v -0.300000 -0.308095 0.091905
v 0.300000 -0.308095 0.091905
v -0.300000 -0.208096 0.091905
v 0.300000 -0.208096 0.091905
v -0.400000 -0.208096 0.091905
v -0.400000 0.191905 0.091906
v -0.300000 0.191905 0.091906
v 0.400000 -0.208096 0.091905
v 0.300000 0.191905 0.091906
v 0.400000 0.191905 0.091906
v -0.300000 0.291904 0.091906
v 0.300000 0.291904 0.091906
v -0.300000 -0.208096 0.191905
v 0.300000 -0.208096 0.191905
v -0.300000 0.191905 0.191906
v 0.300000 0.191905 0.191906
vt 0.591797 0.500000
vt 0.591797 0.500000
vt 0.591797 0.500000
vt 0.591797 0.500000
vt 0.591797 0.500000
vt 0.591797 0.500000
vt 0.591797 0.500000
vt 0.591797 0.500000
vt 0.591797 0.500000
vt 0.591797 0.500000
vt 0.591797 0.500000
vt 0.591797 0.500000
vt 0.591797 0.500000
vt 0.591797 0.500000
vt 0.591797 0.500000
vt 0.591797 0.500000
vt 0.591797 0.500000
vt 0.591797 0.500000
vt 0.591797 0.500000
vt 0.591797 0.500000
vt 0.591797 0.500000
vt 0.591797 0.500000
vt 0.591797 0.500000
vt 0.591797 0.500000
vt 0.591797 0.500000
vt 0.591797 0.500000
vt 0.591797 0.500000
vt 0.591797 0.500000
vt 0.591797 0.500000
vt 0.591797 0.500000
vt 0.591797 0.500000
vt 0.591797 0.500000
vt 0.591797 0.500000
vt 0.591797 0.500000
vt 0.591797 0.500000
vt 0.591797 0.500000
vt 0.591797 0.500000
vt 0.591797 0.500000
vt 0.591797 0.500000
vt 0.591797 0.500000
vt 0.591797 0.500000
vt 0.591797 0.500000
vt 0.591797 0.500000
vt 0.591797 0.500000
vt 0.591797 0.500000
vt 0.591797 0.500000
vt 0.591797 0.500000
vt 0.591797 0.500000
vt 0.591797 0.500000
vt 0.591797 0.500000
vt 0.591797 0.500000
vt 0.591797 0.500000
vt 0.591797 0.500000
vt 0.591797 0.500000
vt 0.591797 0.500000
vt 0.591797 0.500000
vt 0.591797 0.500000
vt 0.591797 0.500000
vt 0.591797 0.500000
vt 0.591797 0.500000
vt 0.591797 0.500000
vt 0.591797 0.500000
vt 0.591797 0.500000
vt 0.591797 0.500000
vt 0.591797 0.500000
vt 0.591797 0.500000
vt 0.591797 0.500000
vt 0.591797 0.500000
vt 0.591797 0.500000
vt 0.591797 0.500000
vt 0.591797 0.500000
vt 0.591797 0.500000
vt 0.591797 0.500000
vt 0.591797 0.500000
vt 0.591797 0.500000
vt 0.591797 0.500000
vt 0.591797 0.500000
vt 0.591797 0.500000
vt 0.591797 0.500000
vt 0.591797 0.500000
vt 0.591797 0.500000
vt 0.591797 0.500000
vt 0.591797 0.500000
vt 0.591797 0.500000
vt 0.591797 0.500000
vt 0.591797 0.500000
vt 0.591797 0.500000
vt 0.591797 0.500000
vt 0.591797 0.500000
vt 0.591797 0.500000
vt 0.591797 0.500000
vt 0.591797 0.500000
vt 0.591797 0.500000
vt 0.591797 0.500000
vt 0.591797 0.500000
vt 0.591797 0.500000
vt 0.591797 0.500000
vt 0.591797 0.500000
vt 0.591797 0.500000
vt 0.591797 0.500000
vt 0.591797 0.500000
vt 0.591797 0.500000
vt 0.591797 0.500000
vt 0.591797 0.500000
vt 0.591797 0.500000
vt 0.591797 0.500000
vt 0.591797 0.500000
vt 0.591797 0.500000
vt 0.591797 0.500000
vt 0.591797 0.500000
vt 0.591797 0.500000
vt 0.591797 0.500000
vt 0.591797 0.500000
vt 0.591797 0.500000
vt 0.591797 0.500000
vt 0.591797 0.500000
vt 0.591797 0.500000
vt 0.591797 0.500000
vt 0.591797 0.500000
vt 0.591797 0.500000
vt 0.591797 0.500000
vt 0.591797 0.500000
vt 0.591797 0.500000
vt 0.591797 0.500000
vt 0.591797 0.500000
vt 0.591797 0.500000
vt 0.591797 0.500000
vt 0.591797 0.500000
vt 0.591797 0.500000
vt 0.591797 0.500000
vt 0.591797 0.500000
vt 0.591797 0.500000
vt 0.591797 0.500000
vt 0.591797 0.500000
vt 0.591797 0.500000
vt 0.591797 0.500000
vt 0.591797 0.500000
vt 0.591797 0.500000
vt 0.591797 0.500000
vt 0.591797 0.500000
vt 0.591797 0.500000
vt 0.591797 0.500000
vt 0.591797 0.500000
vt 0.591797 0.500000
vt 0.591797 0.500000
vt 0.591797 0.500000
vt 0.591797 0.500000
vt 0.591797 0.500000
vt 0.591797 0.500000
vt 0.591797 0.500000
vt 0.591797 0.500000
vt 0.591797 0.500000
vt 0.591797 0.500000
vt 0.591797 0.500000
vt 0.591797 0.500000
vt 0.591797 0.500000
vt 0.591797 0.500000
vt 0.591797 0.500000
vt 0.591797 0.500000
vt 0.591797 0.500000
vt 0.591797 0.500000
vt 0.591797 0.500000
vt 0.591797 0.500000
vt 0.591797 0.500000
vt 0.591797 0.500000
vt 0.591797 0.500000
vt 0.591797 0.500000
vt 0.591797 0.500000
vt 0.591797 0.500000
vt 0.591797 0.500000
vt 0.591797 0.500000
vt 0.591797 0.500000
vt 0.591797 0.500000
vt 0.591797 0.500000
vt 0.591797 0.500000
vt 0.591797 0.500000
vt 0.591797 0.500000
vt 0.591797 0.500000
vt 0.591797 0.500000
vt 0.591797 0.500000
vt 0.591797 0.500000
vt 0.591797 0.500000
vt 0.591797 0.500000
vt 0.591797 0.500000
vt 0.591797 0.500000
vt 0.591797 0.500000
vt 0.591797 0.500000
vt 0.591797 0.500000
vt 0.591797 0.500000
vt 0.591797 0.500000
vt 0.591797 0.500000
vt 0.591797 0.500000
vt 0.591797 0.500000
vt 0.591797 0.500000
vt 0.591797 0.500000
vt 0.591797 0.500000
vt 0.591797 0.500000
vt 0.591797 0.500000
vt 0.591797 0.500000
vt 0.591797 0.500000
vt 0.591797 0.500000
vt 0.591797 0.500000
vt 0.591797 0.500000
vt 0.591797 0.500000
vt 0.591797 0.500000
vt 0.591797 0.500000
vt 0.591797 0.500000
vt 0.591797 0.500000
vt 0.591797 0.500000
vt 0.591797 0.500000
vt 0.591797 0.500000
vt 0.591797 0.500000
vt 0.591797 0.500000
vt 0.591797 0.500000
vt 0.591797 0.500000
vt 0.591797 0.500000
vt 0.591797 0.500000
vt 0.591797 0.500000
vn -1.0000 0.0000 0.0000
vn 1.0000 0.0000 0.0000
vn 0.0000 -1.0000 -0.0000
vn 0.0000 1.0000 0.0000
vn 0.0000 0.0000 -1.0000
vn 0.0000 -0.0000 1.0000
usemtl palette
s 1
f 1/1/1 2/2/1 3/3/1
f 4/4/1 5/5/1 6/6/1
f 7/7/1 1/1/1 3/3/1
f 7/7/1 4/4/1 1/1/1
f 8/8/1 5/5/1 4/4/1
f 8/8/1 4/4/1 7/7/1
f 9/9/1 10/10/1 11/11/1
f 12/12/1 10/10/1 9/9/1
f 13/13/1 14/14/1 15/15/1
f 16/16/1 14/14/1 13/13/1
f 17/17/1 13/13/1 12/12/1
f 18/18/1 13/13/1 17/17/1
f 19/19/1 20/20/1 21/21/1
f 22/22/1 23/23/1 24/24/1
f 25/25/1 23/23/1 22/22/1
f 26/26/1 27/27/1 19/19/1
f 26/26/1 19/19/1 21/21/1
f 28/28/1 27/27/1 26/26/1
f 29/29/1 30/30/1 31/31/1
f 32/32/1 30/30/1 29/29/1
f 33/33/1 34/34/1 35/35/1
f 36/36/1 33/33/1 32/32/1
f 37/37/1 34/34/1 33/33/1
f 37/37/1 33/33/1 36/36/1
f 38/38/2 39/39/2 40/40/2
f 40/40/2 39/39/2 41/41/2
f 42/42/2 43/43/2 44/44/2
f 41/41/2 44/44/2 45/45/2
f 44/44/2 43/43/2 46/46/2
f 45/45/2 44/44/2 46/46/2
f 47/47/2 48/48/2 49/49/2
f 50/50/2 51/51/2 52/52/2
f 52/52/2 51/51/2 53/53/2
f 49/49/2 54/54/2 55/55/2
f 47/47/2 49/49/2 55/55/2
f 55/55/2 54/54/2 56/56/2
f 57/57/2 58/58/2 59/59/2
f 59/59/2 58/58/2 60/60/2
f 61/61/2 62/62/2 63/63/2
f 63/63/2 62/62/2 64/64/2
f 60/60/2 63/63/2 65/65/2
f 65/65/2 63/63/2 66/66/2
f 67/67/2 68/68/2 69/69/2
f 70/70/2 71/71/2 72/72/2
f 67/67/2 69/69/2 73/73/2
f 69/69/2 72/72/2 73/73/2
f 72/72/2 71/71/2 74/74/2
f 73/73/2 72/72/2 74/74/2
f 75/75/3 76/76/3 77/77/3
f 78/78/3 76/76/3 75/75/3
f 79/79/3 76/76/3 78/78/3
f 80/80/3 79/79/3 81/81/3
f 82/82/3 76/76/3 79/79/3
f 82/82/3 79/79/3 80/80/3
f 83/83/3 84/84/3 85/85/3
f 86/86/3 84/84/3 83/83/3
f 87/87/3 88/88/3 86/86/3
f 89/89/3 88/88/3 87/87/3
f 90/90/3 87/87/3 91/91/3
f 92/92/3 87/87/3 90/90/3
f 93/93/3 94/94/3 95/95/3
f 96/96/3 94/94/3 93/93/3
f 97/97/3 98/98/3 99/99/3
f 100/100/3 98/98/3 97/97/3
f 101/101/3 102/102/3 103/103/3
f 104/104/3 102/102/3 101/101/3
f 105/105/3 102/102/3 104/104/3
f 106/106/3 105/105/3 107/107/3
f 108/108/3 102/102/3 105/105/3
f 108/108/3 105/105/3 106/106/3
f 109/109/4 110/110/4 111/111/4
f 111/111/4 110/110/4 112/112/4
f 113/113/4 114/114/4 115/115/4
f 115/115/4 114/114/4 116/116/4
f 117/117/4 118/118/4 119/119/4
f 119/119/4 118/118/4 120/120/4
f 120/120/4 121/121/4 122/122/4
f 122/122/4 121/121/4 123/123/4
f 124/124/4 125/125/4 126/126/4
f 126/126/4 125/125/4 127/127/4
f 128/128/4 126/126/4 129/129/4
f 129/129/4 126/126/4 130/130/4
f 131/131/4 132/132/4 133/133/4
f 133/133/4 132/132/4 134/134/4
f 134/134/4 135/135/4 136/136/4
f 136/136/4 135/135/4 137/137/4
f 138/138/4 136/136/4 139/139/4
f 139/139/4 136/136/4 140/140/4
f 141/141/4 142/142/4 143/143/4
f 143/143/4 142/142/4 144/144/4
f 144/144/4 142/142/4 145/145/4
f 146/146/4 145/145/4 147/147/4
f 145/145/4 142/142/4 148/148/4
f 147/147/4 145/145/4 148/148/4
f 149/149/5 150/150/5 151/151/5
f 152/152/5 150/150/5 149/149/5
f 153/153/5 154/154/5 155/155/5
f 156/156/5 154/154/5 153/153/5
f 157/157/5 149/149/5 158/158/5
f 159/159/5 149/149/5 157/157/5
f 160/160/5 161/161/5 156/156/5
f 162/162/5 161/161/5 160/160/5
f 163/163/5 164/164/5 165/165/5
f 166/166/5 164/164/5 163/163/5
f 167/167/5 168/168/5 169/169/5
f 170/170/5 168/168/5 167/167/5
f 171/171/5 172/172/5 166/166/5
f 173/173/5 172/172/5 171/171/5
f 174/174/5 167/167/5 175/175/5
f 176/176/5 167/167/5 174/174/5
f 177/177/5 178/178/5 179/179/5
f 180/180/5 178/178/5 177/177/5
f 181/181/5 182/182/5 183/183/5
f 184/184/5 182/182/5 181/181/5
f 185/185/5 177/177/5 186/186/5
f 187/187/5 177/177/5 185/185/5
f 188/188/5 189/189/5 184/184/5
f 190/190/5 189/189/5 188/188/5
f 191/191/5 192/192/5 193/193/5
f 194/194/5 192/192/5 191/191/5
f 195/195/5 196/196/5 197/197/5
f 198/198/5 196/196/5 195/195/5
f 199/199/5 195/195/5 200/200/5
f 199/199/5 201/201/5 198/198/5
f 199/199/5 198/198/5 195/195/5
f 202/202/5 201/201/5 199/199/5
f 203/203/6 204/204/6 205/205/6
f 205/205/6 204/204/6 206/206/6
f 207/207/6 205/205/6 208/208/6
f 208/208/6 205/205/6 209/209/6
f 206/206/6 210/210/6 211/211/6
f 211/211/6 210/210/6 212/212/6
f 209/209/6 211/211/6 213/213/6
f 213/213/6 211/211/6 214/214/6
f 215/215/6 216/216/6 217/217/6
f 217/217/6 216/216/6 218/218/6
