# MagicaVoxel @ Ephtracy

# group
o 

# material
mtllib cometas-1.mtl
usemtl palette

# normals
vn -1 0 0
vn 1 0 0
vn 0 0 1
vn 0 0 -1
vn 0 -1 0
vn 0 1 0

# texcoords
vt 0.00195313 0.5
vt 0.00585938 0.5
vt 0.0410156 0.5
vt 0.0449219 0.5
vt 0.0839844 0.5

# verts
v -0.3 1.2 -0.4
v -0.3 1.2 -0.6
v -0.3 1.2 -0.7
v -0.3 1.2 -0.8
v -0.3 1.3 -0.4
v -0.3 1.3 -0.5
v -0.3 1.3 -0.6
v -0.3 1.3 -0.7
v -0.3 1.3 -0.8
v -0.3 1.4 -0.5
v -0.3 1.4 -0.6
v -0.2 0.3 0.3
v -0.2 0.3 0.2
v -0.2 0.4 0.3
v -0.2 0.4 0.2
v -0.2 0.4 0.1
v -0.2 0.5 0.2
v -0.2 0.5 0.1
v -0.2 0.5 0
v -0.2 0.7 0.1
v -0.2 0.7 0
v -0.2 0.8 0.1
v -0.2 0.8 0
v -0.2 0.8 -0.1
v -0.2 1 0
v -0.2 1 -0.1
v -0.2 1 -0.2
v -0.2 1 -0.4
v -0.2 1.1 -0.2
v -0.2 1.1 -0.3
v -0.2 1.1 -0.5
v -0.2 1.1 -0.6
v -0.2 1.1 -0.7
v -0.2 1.2 -0.2
v -0.2 1.2 -0.3
v -0.2 1.2 -0.4
v -0.2 1.2 -0.5
v -0.2 1.2 -0.6
v -0.2 1.2 -0.7
v -0.2 1.3 -0.2
v -0.2 1.3 -0.3
v -0.2 1.3 -0.4
v -0.2 1.3 -0.5
v -0.2 1.3 -0.6
v -0.2 1.3 -0.7
v -0.2 1.3 -0.8
v -0.2 1.4 -0.3
v -0.2 1.4 -0.4
v -0.2 1.4 -0.5
v -0.2 1.4 -0.6
v -0.2 1.4 -0.7
v -0.2 1.4 -0.8
v -0.2 1.5 -0.5
v -0.2 1.5 -0.6
v -0.2 1.5 -0.7
v -0.1 0.2 0.4
v -0.1 0.2 0.2
v -0.1 0.3 0.4
v -0.1 0.3 0.3
v -0.1 0.3 0.2
v -0.1 0.3 0.1
v -0.1 0.4 0.3
v -0.1 0.4 0.2
v -0.1 0.4 0.1
v -0.1 0.4 0
v -0.1 0.5 0.3
v -0.1 0.5 0.2
v -0.1 0.5 0.1
v -0.1 0.5 0
v -0.1 0.6 0.2
v -0.1 0.6 0.1
v -0.1 0.7 0.1
v -0.1 0.7 0
v -0.1 0.7 -0.1
v -0.1 0.8 0.2
v -0.1 0.8 0.1
v -0.1 0.8 0
v -0.1 0.8 -0.1
v -0.1 0.9 -0.1
v -0.1 0.9 -0.2
v -0.1 1 0.1
v -0.1 1 0
v -0.1 1 -0.1
v -0.1 1 -0.2
v -0.1 1.1 0
v -0.1 1.1 -0.2
v -0.1 1.1 -0.3
v -0.1 1.1 -0.4
v -0.1 1.1 -0.5
v -0.1 1.2 -0.2
v -0.1 1.2 -0.3
v -0.1 1.2 -0.4
v -0.1 1.2 -0.5
v -0.1 1.4 -0.7
v -0.1 1.4 -0.8
v -0.1 1.5 -0.6
v -0.1 1.5 -0.7
v -0.1 1.5 -0.8
v -0.1 1.6 -0.6
v -0.1 1.6 -0.7
v 0 1 -0.4
v 0 1 -0.6
v 0 1.1 -0.4
v 0 1.1 -0.6
v 0 1.4 -0.5
v 0 1.4 -0.6
v 0 1.5 -0.5
v 0 1.5 -0.6
v 0.1 1.2 -0.7
v 0.1 1.2 -0.8
v 0.1 1.3 -0.4
v 0.1 1.3 -0.5
v 0.1 1.3 -0.7
v 0.1 1.3 -0.8
v 0.1 1.4 -0.4
v 0.1 1.4 -0.5
v -0.1 1.3 -0.3
v -0.1 1.3 -0.4
v -0.1 1.4 -0.3
v -0.1 1.4 -0.4
v -0.1 1.4 -0.5
v -0.1 1.4 -0.6
v -0.1 1.5 -0.5
v -0.1 1.5 -0.6
v 0 1.2 -0.2
v 0 1.2 -0.3
v 0 1.2 -0.7
v 0 1.2 -0.8
v 0 1.3 -0.2
v 0 1.3 -0.3
v 0 1.3 -0.4
v 0 1.3 -0.5
v 0 1.3 -0.7
v 0 1.3 -0.8
v 0 1.4 -0.4
v 0 1.4 -0.5
v 0 1.4 -0.7
v 0 1.4 -0.8
v 0 1.5 -0.6
v 0 1.5 -0.7
v 0 1.5 -0.8
v 0 1.6 -0.6
v 0 1.6 -0.7
v 0.1 0.2 0.4
v 0.1 0.2 0.2
v 0.1 0.3 0.4
v 0.1 0.3 0.3
v 0.1 0.3 0.2
v 0.1 0.3 0.1
v 0.1 0.4 0.3
v 0.1 0.4 0.2
v 0.1 0.4 0.1
v 0.1 0.4 0
v 0.1 0.5 0.3
v 0.1 0.5 0.2
v 0.1 0.5 0.1
v 0.1 0.5 0
v 0.1 0.6 0.2
v 0.1 0.6 0.1
v 0.1 0.7 0.1
v 0.1 0.7 0
v 0.1 0.7 -0.1
v 0.1 0.8 0.2
v 0.1 0.8 0.1
v 0.1 0.8 0
v 0.1 0.8 -0.1
v 0.1 0.9 -0.1
v 0.1 0.9 -0.2
v 0.1 1 0.1
v 0.1 1 0
v 0.1 1 -0.1
v 0.1 1 -0.2
v 0.1 1.1 0
v 0.1 1.1 -0.2
v 0.1 1.1 -0.3
v 0.1 1.1 -0.6
v 0.1 1.1 -0.7
v 0.1 1.2 -0.2
v 0.1 1.2 -0.3
v 0.1 1.2 -0.6
v 0.1 1.2 -0.7
v 0.1 1.3 -0.5
v 0.1 1.3 -0.6
v 0.1 1.3 -0.7
v 0.1 1.3 -0.8
v 0.1 1.4 -0.5
v 0.1 1.4 -0.6
v 0.1 1.4 -0.7
v 0.1 1.4 -0.8
v 0.1 1.5 -0.5
v 0.1 1.5 -0.7
v 0.2 0.3 0.3
v 0.2 0.3 0.2
v 0.2 0.4 0.3
v 0.2 0.4 0.2
v 0.2 0.4 0.1
v 0.2 0.5 0.2
v 0.2 0.5 0.1
v 0.2 0.5 0
v 0.2 0.7 0.1
v 0.2 0.7 0
v 0.2 0.8 0.1
v 0.2 0.8 0
v 0.2 0.8 -0.1
v 0.2 1 0
v 0.2 1 -0.1
v 0.2 1 -0.2
v 0.2 1 -0.4
v 0.2 1 -0.5
v 0.2 1 -0.6
v 0.2 1.1 -0.2
v 0.2 1.1 -0.3
v 0.2 1.1 -0.4
v 0.2 1.1 -0.5
v 0.2 1.1 -0.6
v 0.2 1.2 -0.3
v 0.2 1.2 -0.4
v 0.2 1.2 -0.6
v 0.2 1.2 -0.7
v 0.2 1.2 -0.8
v 0.2 1.3 -0.3
v 0.2 1.3 -0.4
v 0.2 1.3 -0.5
v 0.2 1.3 -0.6
v 0.2 1.3 -0.7
v 0.2 1.3 -0.8
v 0.2 1.4 -0.4
v 0.2 1.4 -0.5
v 0.2 1.4 -0.6
v 0.2 1.4 -0.7
v 0.3 1.1 -0.4
v 0.3 1.1 -0.6
v 0.3 1.2 -0.4
v 0.3 1.2 -0.6
v -0.1 0.2 0.4
v -0.1 0.3 0.4
v 0.1 0.2 0.4
v 0.1 0.3 0.4
v -0.2 0.3 0.3
v -0.2 0.4 0.3
v -0.1 0.3 0.3
v -0.1 0.4 0.3
v -0.1 0.5 0.3
v 0.1 0.3 0.3
v 0.1 0.4 0.3
v 0.1 0.5 0.3
v 0.2 0.3 0.3
v 0.2 0.4 0.3
v -0.2 0.4 0.2
v -0.2 0.5 0.2
v -0.1 0.4 0.2
v -0.1 0.5 0.2
v -0.1 0.6 0.2
v -0.1 0.8 0.2
v 0.1 0.4 0.2
v 0.1 0.5 0.2
v 0.1 0.6 0.2
v 0.1 0.8 0.2
v 0.2 0.4 0.2
v 0.2 0.5 0.2
v -0.2 0.5 0.1
v -0.2 0.7 0.1
v -0.2 0.8 0.1
v -0.1 0.5 0.1
v -0.1 0.6 0.1
v -0.1 0.7 0.1
v -0.1 0.8 0.1
v -0.1 1 0.1
v 0.1 0.5 0.1
v 0.1 0.6 0.1
v 0.1 0.7 0.1
v 0.1 0.8 0.1
v 0.1 1 0.1
v 0.2 0.5 0.1
v 0.2 0.7 0.1
v 0.2 0.8 0.1
v -0.2 0.8 0
v -0.2 1 0
v -0.1 0.8 0
v -0.1 1 0
v -0.1 1.1 0
v 0.1 0.8 0
v 0.1 1 0
v 0.1 1.1 0
v 0.2 0.8 0
v 0.2 1 0
v -0.2 1 -0.2
v -0.2 1.1 -0.2
v -0.2 1.2 -0.2
v -0.2 1.3 -0.2
v -0.1 1 -0.2
v -0.1 1.1 -0.2
v -0.1 1.2 -0.2
v -0.1 1.3 -0.2
v 0 1.2 -0.2
v 0 1.3 -0.2
v 0.1 1 -0.2
v 0.1 1.1 -0.2
v 0.1 1.2 -0.2
v 0.2 1 -0.2
v 0.2 1.1 -0.2
v -0.2 1.1 -0.3
v -0.2 1.2 -0.3
v -0.2 1.3 -0.3
v -0.2 1.4 -0.3
v -0.1 1.1 -0.3
v -0.1 1.2 -0.3
v -0.1 1.3 -0.3
v -0.1 1.4 -0.3
v 0 1.2 -0.3
v 0 1.3 -0.3
v 0.1 1.1 -0.3
v 0.1 1.2 -0.3
v 0.2 1.1 -0.3
v 0.2 1.2 -0.3
v 0.2 1.3 -0.3
v -0.3 1.2 -0.4
v -0.3 1.3 -0.4
v -0.2 1.2 -0.4
v -0.2 1.3 -0.4
v -0.1 1.3 -0.4
v -0.1 1.4 -0.4
v 0 1.3 -0.4
v 0 1.4 -0.4
v 0.1 1.3 -0.4
v 0.1 1.4 -0.4
v 0.2 1.1 -0.4
v 0.2 1.2 -0.4
v 0.2 1.3 -0.4
v 0.2 1.4 -0.4
v 0.3 1.1 -0.4
v 0.3 1.2 -0.4
v -0.3 1.3 -0.5
v -0.3 1.4 -0.5
v -0.2 1.1 -0.5
v -0.2 1.2 -0.5
v -0.2 1.3 -0.5
v -0.2 1.4 -0.5
v -0.2 1.5 -0.5
v -0.1 1.1 -0.5
v -0.1 1.2 -0.5
v -0.1 1.4 -0.5
v -0.1 1.5 -0.5
v 0 1.3 -0.5
v 0 1.4 -0.5
v 0 1.5 -0.5
v 0.1 1.3 -0.5
v 0.1 1.4 -0.5
v 0.1 1.5 -0.5
v -0.1 1.4 -0.6
v -0.1 1.5 -0.6
v -0.1 1.6 -0.6
v 0 1.4 -0.6
v 0 1.5 -0.6
v 0 1.6 -0.6
v 0.1 1.3 -0.6
v 0.1 1.4 -0.6
v 0.2 1.3 -0.6
v 0.2 1.4 -0.6
v -0.2 0.3 0.2
v -0.2 0.4 0.2
v -0.1 0.2 0.2
v -0.1 0.3 0.2
v -0.1 0.4 0.2
v 0.1 0.2 0.2
v 0.1 0.3 0.2
v 0.1 0.4 0.2
v 0.2 0.3 0.2
v 0.2 0.4 0.2
v -0.2 0.4 0.1
v -0.2 0.5 0.1
v -0.1 0.3 0.1
v -0.1 0.4 0.1
v -0.1 0.5 0.1
v 0.1 0.3 0.1
v 0.1 0.4 0.1
v 0.1 0.5 0.1
v 0.2 0.4 0.1
v 0.2 0.5 0.1
v -0.2 0.5 0
v -0.2 0.7 0
v -0.2 0.8 0
v -0.1 0.4 0
v -0.1 0.5 0
v -0.1 0.6 0
v -0.1 0.7 0
v -0.1 0.8 0
v 0.1 0.4 0
v 0.1 0.5 0
v 0.1 0.6 0
v 0.1 0.7 0
v 0.1 0.8 0
v 0.2 0.5 0
v 0.2 0.7 0
v 0.2 0.8 0
v -0.2 0.8 -0.1
v -0.2 1 -0.1
v -0.1 0.7 -0.1
v -0.1 0.8 -0.1
v -0.1 0.9 -0.1
v -0.1 1 -0.1
v 0.1 0.7 -0.1
v 0.1 0.8 -0.1
v 0.1 0.9 -0.1
v 0.1 1 -0.1
v 0.2 0.8 -0.1
v 0.2 1 -0.1
v -0.1 0.9 -0.2
v -0.1 1 -0.2
v 0.1 0.9 -0.2
v 0.1 1 -0.2
v -0.2 1 -0.4
v -0.2 1.2 -0.4
v -0.1 1.1 -0.4
v -0.1 1.2 -0.4
v 0 1 -0.4
v 0 1.1 -0.4
v 0.1 1.3 -0.5
v 0.1 1.4 -0.5
v 0.2 1.3 -0.5
v 0.2 1.4 -0.5
v -0.3 1.3 -0.6
v -0.3 1.4 -0.6
v -0.2 1.3 -0.6
v -0.2 1.4 -0.6
v 0 1 -0.6
v 0 1.1 -0.6
v 0.1 1.1 -0.6
v 0.1 1.2 -0.6
v 0.2 1 -0.6
v 0.2 1.1 -0.6
v 0.2 1.2 -0.6
v 0.3 1.1 -0.6
v 0.3 1.2 -0.6
v -0.2 1.1 -0.7
v -0.2 1.2 -0.7
v -0.2 1.4 -0.7
v -0.2 1.5 -0.7
v -0.1 1.2 -0.7
v -0.1 1.4 -0.7
v -0.1 1.5 -0.7
v -0.1 1.6 -0.7
v 0 1.2 -0.7
v 0 1.3 -0.7
v 0 1.4 -0.7
v 0 1.5 -0.7
v 0 1.6 -0.7
v 0.1 1.1 -0.7
v 0.1 1.2 -0.7
v 0.1 1.3 -0.7
v 0.1 1.4 -0.7
v 0.1 1.5 -0.7
v 0.2 1.3 -0.7
v 0.2 1.4 -0.7
v -0.3 1.2 -0.8
v -0.3 1.3 -0.8
v -0.2 1.2 -0.8
v -0.2 1.3 -0.8
v -0.2 1.4 -0.8
v -0.1 1.2 -0.8
v -0.1 1.3 -0.8
v -0.1 1.4 -0.8
v -0.1 1.5 -0.8
v 0 1.2 -0.8
v 0 1.3 -0.8
v 0 1.4 -0.8
v 0 1.5 -0.8
v 0.1 1.2 -0.8
v 0.1 1.3 -0.8
v 0.1 1.4 -0.8
v 0.2 1.2 -0.8
v 0.2 1.3 -0.8
v -0.1 0.2 0.4
v 0.1 0.2 0.4
v -0.1 0.2 0.2
v 0.1 0.2 0.2
v -0.2 0.3 0.3
v -0.1 0.3 0.3
v 0.1 0.3 0.3
v 0.2 0.3 0.3
v -0.2 0.3 0.2
v -0.1 0.3 0.2
v 0.1 0.3 0.2
v 0.2 0.3 0.2
v -0.1 0.3 0.1
v 0.1 0.3 0.1
v -0.2 0.4 0.2
v -0.1 0.4 0.2
v 0.1 0.4 0.2
v 0.2 0.4 0.2
v -0.2 0.4 0.1
v -0.1 0.4 0.1
v 0.1 0.4 0.1
v 0.2 0.4 0.1
v -0.1 0.4 0
v 0.1 0.4 0
v -0.2 0.5 0.1
v -0.1 0.5 0.1
v 0.1 0.5 0.1
v 0.2 0.5 0.1
v -0.2 0.5 0
v -0.1 0.5 0
v 0.1 0.5 0
v 0.2 0.5 0
v -0.1 0.7 0
v 0.1 0.7 0
v -0.1 0.7 -0.1
v 0.1 0.7 -0.1
v -0.2 0.8 0
v -0.1 0.8 0
v 0.1 0.8 0
v 0.2 0.8 0
v -0.2 0.8 -0.1
v -0.1 0.8 -0.1
v 0.1 0.8 -0.1
v 0.2 0.8 -0.1
v -0.1 0.9 -0.1
v 0.1 0.9 -0.1
v -0.1 0.9 -0.2
v 0.1 0.9 -0.2
v -0.2 1 -0.2
v -0.1 1 -0.2
v 0.1 1 -0.2
v 0.2 1 -0.2
v -0.2 1 -0.4
v 0 1 -0.4
v 0.1 1 -0.4
v 0.2 1 -0.4
v 0.1 1 -0.5
v 0.2 1 -0.5
v 0 1 -0.6
v 0.2 1 -0.6
v -0.1 1.1 -0.4
v 0 1.1 -0.4
v 0.2 1.1 -0.4
v 0.3 1.1 -0.4
v -0.2 1.1 -0.5
v -0.1 1.1 -0.5
v 0.2 1.1 -0.5
v -0.2 1.1 -0.6
v -0.1 1.1 -0.6
v 0 1.1 -0.6
v 0.1 1.1 -0.6
v 0.2 1.1 -0.6
v 0.3 1.1 -0.6
v -0.2 1.1 -0.7
v 0.1 1.1 -0.7
v -0.2 1.2 -0.2
v -0.1 1.2 -0.2
v -0.2 1.2 -0.3
v -0.1 1.2 -0.3
v -0.3 1.2 -0.4
v -0.2 1.2 -0.4
v -0.1 1.2 -0.4
v -0.2 1.2 -0.5
v -0.1 1.2 -0.5
v -0.3 1.2 -0.6
v -0.2 1.2 -0.6
v 0.1 1.2 -0.6
v 0.2 1.2 -0.6
v -0.3 1.2 -0.7
v -0.2 1.2 -0.7
v -0.1 1.2 -0.7
v 0 1.2 -0.7
v 0.1 1.2 -0.7
v 0.2 1.2 -0.7
v -0.3 1.2 -0.8
v -0.2 1.2 -0.8
v -0.1 1.2 -0.8
v 0 1.2 -0.8
v 0.1 1.2 -0.8
v 0.2 1.2 -0.8
v 0 1.3 -0.7
v 0.1 1.3 -0.7
v 0 1.3 -0.8
v 0.1 1.3 -0.8
v -0.1 0.3 0.4
v 0.1 0.3 0.4
v -0.1 0.3 0.3
v 0.1 0.3 0.3
v -0.2 0.4 0.3
v -0.1 0.4 0.3
v 0.1 0.4 0.3
v 0.2 0.4 0.3
v -0.2 0.4 0.2
v -0.1 0.4 0.2
v 0.1 0.4 0.2
v 0.2 0.4 0.2
v -0.1 0.5 0.3
v 0.1 0.5 0.3
v -0.2 0.5 0.2
v -0.1 0.5 0.2
v 0.1 0.5 0.2
v 0.2 0.5 0.2
v -0.2 0.5 0.1
v -0.1 0.5 0.1
v 0.1 0.5 0.1
v 0.2 0.5 0.1
v -0.1 0.8 0.2
v 0.1 0.8 0.2
v -0.2 0.8 0.1
v -0.1 0.8 0.1
v 0.1 0.8 0.1
v 0.2 0.8 0.1
v -0.2 0.8 0
v -0.1 0.8 0
v 0.1 0.8 0
v 0.2 0.8 0
v -0.1 1 0.1
v 0.1 1 0.1
v -0.2 1 0
v -0.1 1 0
v 0.1 1 0
v 0.2 1 0
v -0.2 1 -0.1
v -0.1 1 -0.1
v 0.1 1 -0.1
v 0.2 1 -0.1
v -0.1 1.1 0
v 0.1 1.1 0
v -0.2 1.1 -0.2
v -0.1 1.1 -0.2
v 0.1 1.1 -0.2
v 0.2 1.1 -0.2
v -0.2 1.1 -0.3
v -0.1 1.1 -0.3
v 0.1 1.1 -0.3
v 0.2 1.1 -0.3
v 0 1.2 -0.2
v 0.1 1.2 -0.2
v 0 1.2 -0.3
v 0.1 1.2 -0.3
v 0.2 1.2 -0.4
v 0.3 1.2 -0.4
v 0.2 1.2 -0.6
v 0.3 1.2 -0.6
v -0.2 1.3 -0.2
v -0.1 1.3 -0.2
v 0 1.3 -0.2
v -0.2 1.3 -0.3
v -0.1 1.3 -0.3
v 0 1.3 -0.3
v 0.2 1.3 -0.3
v -0.3 1.3 -0.4
v -0.2 1.3 -0.4
v -0.1 1.3 -0.4
v 0 1.3 -0.4
v 0.1 1.3 -0.4
v 0.2 1.3 -0.4
v -0.3 1.3 -0.5
v -0.2 1.3 -0.5
v 0 1.3 -0.5
v 0.1 1.3 -0.5
v 0.2 1.3 -0.5
v -0.3 1.3 -0.6
v -0.2 1.3 -0.6
v 0.1 1.3 -0.6
v 0.2 1.3 -0.6
v -0.3 1.3 -0.7
v -0.2 1.3 -0.7
v 0.1 1.3 -0.7
v 0.2 1.3 -0.7
v -0.3 1.3 -0.8
v -0.2 1.3 -0.8
v 0.1 1.3 -0.8
v 0.2 1.3 -0.8
v -0.2 1.4 -0.3
v -0.1 1.4 -0.3
v -0.2 1.4 -0.4
v -0.1 1.4 -0.4
v 0 1.4 -0.4
v 0.1 1.4 -0.4
v 0.2 1.4 -0.4
v -0.3 1.4 -0.5
v -0.2 1.4 -0.5
v -0.1 1.4 -0.5
v 0 1.4 -0.5
v 0.1 1.4 -0.5
v 0.2 1.4 -0.5
v -0.3 1.4 -0.6
v -0.2 1.4 -0.6
v -0.1 1.4 -0.6
v 0 1.4 -0.6
v 0.1 1.4 -0.6
v 0.2 1.4 -0.6
v -0.2 1.4 -0.7
v -0.1 1.4 -0.7
v 0 1.4 -0.7
v 0.1 1.4 -0.7
v 0.2 1.4 -0.7
v -0.2 1.4 -0.8
v -0.1 1.4 -0.8
v 0 1.4 -0.8
v 0.1 1.4 -0.8
v -0.2 1.5 -0.5
v -0.1 1.5 -0.5
v 0 1.5 -0.5
v 0.1 1.5 -0.5
v -0.2 1.5 -0.6
v -0.1 1.5 -0.6
v 0 1.5 -0.6
v -0.2 1.5 -0.7
v -0.1 1.5 -0.7
v 0 1.5 -0.7
v 0.1 1.5 -0.7
v -0.1 1.5 -0.8
v 0 1.5 -0.8
v -0.1 1.6 -0.6
v 0 1.6 -0.6
v -0.1 1.6 -0.7
v 0 1.6 -0.7

# faces
f 5/1/1 2/1/1 1/1/1
f 6/1/1 2/1/1 5/1/1
f 7/2/1 3/2/1 2/2/1
f 7/1/1 2/1/1 6/1/1
f 8/1/1 4/1/1 3/1/1
f 8/2/1 3/2/1 7/2/1
f 9/1/1 4/1/1 8/1/1
f 10/1/1 7/1/1 6/1/1
f 11/1/1 7/1/1 10/1/1
f 14/5/1 13/5/1 12/5/1
f 15/5/1 13/5/1 14/5/1
f 17/5/1 16/5/1 15/5/1
f 18/5/1 16/5/1 17/5/1
f 20/5/1 19/5/1 18/5/1
f 21/5/1 19/5/1 20/5/1
f 22/3/1 21/3/1 20/3/1
f 23/3/1 21/3/1 22/3/1
f 25/3/1 24/3/1 23/3/1
f 26/3/1 24/3/1 25/3/1
f 29/4/1 28/4/1 27/4/1
f 30/4/1 28/4/1 29/4/1
f 35/4/1 28/4/1 30/4/1
f 36/4/1 28/4/1 35/4/1
f 37/2/1 32/2/1 31/2/1
f 38/1/1 33/1/1 32/1/1
f 38/2/1 32/2/1 37/2/1
f 39/1/1 33/1/1 38/1/1
f 40/1/1 36/1/1 35/1/1
f 40/1/1 35/1/1 34/1/1
f 41/1/1 36/1/1 40/1/1
f 42/1/1 36/1/1 41/1/1
f 47/2/1 42/2/1 41/2/1
f 48/1/1 43/1/1 42/1/1
f 48/2/1 42/2/1 47/2/1
f 49/1/1 43/1/1 48/1/1
f 50/1/1 45/1/1 44/1/1
f 50/1/1 46/1/1 45/1/1
f 51/1/1 46/1/1 50/1/1
f 52/1/1 46/1/1 51/1/1
f 53/1/1 50/1/1 49/1/1
f 54/2/1 51/2/1 50/2/1
f 54/1/1 50/1/1 53/1/1
f 55/2/1 51/2/1 54/2/1
f 58/5/1 57/5/1 56/5/1
f 59/5/1 57/5/1 58/5/1
f 60/5/1 57/5/1 59/5/1
f 63/5/1 61/5/1 60/5/1
f 64/5/1 61/5/1 63/5/1
f 66/5/1 63/5/1 62/5/1
f 67/5/1 63/5/1 66/5/1
f 68/5/1 65/5/1 64/5/1
f 69/5/1 65/5/1 68/5/1
f 70/5/1 68/5/1 67/5/1
f 71/5/1 68/5/1 70/5/1
f 72/3/1 71/3/1 70/3/1
f 75/3/1 72/3/1 70/3/1
f 76/3/1 72/3/1 75/3/1
f 77/3/1 74/3/1 73/3/1
f 78/3/1 74/3/1 77/3/1
f 81/3/1 77/3/1 76/3/1
f 82/3/1 77/3/1 81/3/1
f 83/3/1 80/3/1 79/3/1
f 84/3/1 80/3/1 83/3/1
f 85/4/1 83/4/1 82/4/1
f 85/4/1 84/4/1 83/4/1
f 86/4/1 84/4/1 85/4/1
f 90/4/1 87/4/1 86/4/1
f 91/4/1 87/4/1 90/4/1
f 92/1/1 89/1/1 88/1/1
f 93/1/1 89/1/1 92/1/1
f 97/1/1 95/1/1 94/1/1
f 98/1/1 95/1/1 97/1/1
f 99/2/1 97/2/1 96/2/1
f 100/2/1 97/2/1 99/2/1
f 103/1/1 102/1/1 101/1/1
f 104/1/1 102/1/1 103/1/1
f 107/1/1 106/1/1 105/1/1
f 108/1/1 106/1/1 107/1/1
f 113/2/1 110/2/1 109/2/1
f 114/2/1 110/2/1 113/2/1
f 115/2/1 112/2/1 111/2/1
f 116/2/1 112/2/1 115/2/1
f 117/2/2 118/2/2 119/2/2
f 119/2/2 118/2/2 120/2/2
f 121/1/2 122/1/2 123/1/2
f 123/1/2 122/1/2 124/1/2
f 125/2/2 126/2/2 129/2/2
f 129/2/2 126/2/2 130/2/2
f 127/1/2 128/1/2 133/1/2
f 133/1/2 128/1/2 134/1/2
f 131/1/2 132/1/2 135/1/2
f 135/1/2 132/1/2 136/1/2
f 137/1/2 138/1/2 140/1/2
f 140/1/2 138/1/2 141/1/2
f 139/2/2 140/2/2 142/2/2
f 142/2/2 140/2/2 143/2/2
f 144/5/2 145/5/2 146/5/2
f 146/5/2 145/5/2 147/5/2
f 147/5/2 145/5/2 148/5/2
f 148/5/2 149/5/2 151/5/2
f 151/5/2 149/5/2 152/5/2
f 150/5/2 151/5/2 154/5/2
f 154/5/2 151/5/2 155/5/2
f 152/5/2 153/5/2 156/5/2
f 156/5/2 153/5/2 157/5/2
f 155/5/2 156/5/2 158/5/2
f 158/5/2 156/5/2 159/5/2
f 158/3/2 159/3/2 160/3/2
f 158/3/2 160/3/2 163/3/2
f 163/3/2 160/3/2 164/3/2
f 161/3/2 162/3/2 165/3/2
f 165/3/2 162/3/2 166/3/2
f 164/3/2 165/3/2 169/3/2
f 169/3/2 165/3/2 170/3/2
f 167/3/2 168/3/2 171/3/2
f 171/3/2 168/3/2 172/3/2
f 170/4/2 171/4/2 173/4/2
f 171/4/2 172/4/2 173/4/2
f 173/4/2 172/4/2 174/4/2
f 174/4/2 175/4/2 178/4/2
f 178/4/2 175/4/2 179/4/2
f 176/1/2 177/1/2 180/1/2
f 180/1/2 177/1/2 181/1/2
f 182/1/2 183/1/2 186/1/2
f 186/1/2 183/1/2 187/1/2
f 184/2/2 185/2/2 188/2/2
f 188/2/2 185/2/2 189/2/2
f 186/1/2 187/1/2 190/1/2
f 187/1/2 188/1/2 190/1/2
f 190/1/2 188/1/2 191/1/2
f 192/5/2 193/5/2 194/5/2
f 194/5/2 193/5/2 195/5/2
f 195/5/2 196/5/2 197/5/2
f 197/5/2 196/5/2 198/5/2
f 198/5/2 199/5/2 200/5/2
f 200/5/2 199/5/2 201/5/2
f 200/3/2 201/3/2 202/3/2
f 202/3/2 201/3/2 203/3/2
f 203/3/2 204/3/2 205/3/2
f 205/3/2 204/3/2 206/3/2
f 207/4/2 208/4/2 211/4/2
f 211/4/2 208/4/2 212/4/2
f 208/2/2 209/2/2 213/2/2
f 212/4/2 208/4/2 213/4/2
f 209/1/2 210/1/2 214/1/2
f 213/2/2 209/2/2 214/2/2
f 214/1/2 210/1/2 215/1/2
f 212/4/2 213/4/2 216/4/2
f 216/4/2 213/4/2 217/4/2
f 217/1/2 218/1/2 221/1/2
f 216/1/2 217/1/2 221/1/2
f 218/1/2 219/1/2 221/1/2
f 221/1/2 219/1/2 222/1/2
f 222/1/2 219/1/2 223/1/2
f 223/1/2 219/1/2 224/1/2
f 219/2/2 220/2/2 225/2/2
f 224/1/2 219/1/2 225/1/2
f 225/2/2 220/2/2 226/2/2
f 222/2/2 223/2/2 227/2/2
f 227/2/2 223/2/2 228/2/2
f 224/2/2 225/2/2 229/2/2
f 229/2/2 225/2/2 230/2/2
f 231/2/2 232/2/2 233/2/2
f 233/2/2 232/2/2 234/2/2
f 237/5/3 236/5/3 235/5/3
f 238/5/3 236/5/3 237/5/3
f 241/5/3 240/5/3 239/5/3
f 242/5/3 240/5/3 241/5/3
f 244/5/3 242/5/3 241/5/3
f 244/5/3 243/5/3 242/5/3
f 245/5/3 243/5/3 244/5/3
f 246/5/3 243/5/3 245/5/3
f 247/5/3 245/5/3 244/5/3
f 248/5/3 245/5/3 247/5/3
f 251/5/3 250/5/3 249/5/3
f 252/5/3 250/5/3 251/5/3
f 256/5/3 253/5/3 252/5/3
f 257/3/3 254/3/3 253/3/3
f 257/5/3 253/5/3 256/5/3
f 258/3/3 254/3/3 257/3/3
f 259/5/3 256/5/3 255/5/3
f 260/5/3 256/5/3 259/5/3
f 264/5/3 262/5/3 261/5/3
f 265/5/3 262/5/3 264/5/3
f 266/3/3 263/3/3 262/3/3
f 266/5/3 262/5/3 265/5/3
f 267/3/3 263/3/3 266/3/3
f 272/3/3 268/3/3 267/3/3
f 273/3/3 268/3/3 272/3/3
f 274/5/3 271/5/3 270/5/3
f 274/5/3 270/5/3 269/5/3
f 275/3/3 272/3/3 271/3/3
f 275/5/3 271/5/3 274/5/3
f 276/3/3 272/3/3 275/3/3
f 279/3/3 278/3/3 277/3/3
f 280/3/3 278/3/3 279/3/3
f 283/4/3 281/4/3 280/4/3
f 284/4/3 281/4/3 283/4/3
f 285/3/3 283/3/3 282/3/3
f 286/3/3 283/3/3 285/3/3
f 291/4/3 288/4/3 287/4/3
f 292/4/3 288/4/3 291/4/3
f 293/1/3 290/1/3 289/1/3
f 294/1/3 290/1/3 293/1/3
f 295/4/3 293/4/3 292/4/3
f 295/2/3 294/2/3 293/2/3
f 296/2/3 294/2/3 295/2/3
f 298/4/3 295/4/3 292/4/3
f 299/4/3 295/4/3 298/4/3
f 300/4/3 298/4/3 297/4/3
f 301/4/3 298/4/3 300/4/3
f 306/4/3 303/4/3 302/4/3
f 307/4/3 303/4/3 306/4/3
f 308/2/3 305/2/3 304/2/3
f 309/2/3 305/2/3 308/2/3
f 313/1/3 311/1/3 310/1/3
f 314/4/3 313/4/3 312/4/3
f 315/1/3 311/1/3 313/1/3
f 315/4/3 313/4/3 314/4/3
f 316/1/3 311/1/3 315/1/3
f 319/1/3 318/1/3 317/1/3
f 320/1/3 318/1/3 319/1/3
f 323/1/3 322/1/3 321/1/3
f 324/1/3 322/1/3 323/1/3
f 329/2/3 326/2/3 325/2/3
f 330/2/3 326/2/3 329/2/3
f 331/2/3 328/2/3 327/2/3
f 332/2/3 328/2/3 331/2/3
f 337/1/3 334/1/3 333/1/3
f 338/1/3 334/1/3 337/1/3
f 340/2/3 336/2/3 335/2/3
f 341/2/3 336/2/3 340/2/3
f 342/1/3 339/1/3 338/1/3
f 343/1/3 339/1/3 342/1/3
f 347/1/3 345/1/3 344/1/3
f 347/1/3 346/1/3 345/1/3
f 348/1/3 346/1/3 347/1/3
f 349/1/3 346/1/3 348/1/3
f 353/1/3 351/1/3 350/1/3
f 354/2/3 352/2/3 351/2/3
f 354/1/3 351/1/3 353/1/3
f 355/2/3 352/2/3 354/2/3
f 358/2/3 357/2/3 356/2/3
f 359/2/3 357/2/3 358/2/3
f 360/5/4 361/5/4 363/5/4
f 363/5/4 361/5/4 364/5/4
f 362/5/4 363/5/4 365/5/4
f 365/5/4 363/5/4 366/5/4
f 366/5/4 367/5/4 368/5/4
f 368/5/4 367/5/4 369/5/4
f 370/5/4 371/5/4 373/5/4
f 373/5/4 371/5/4 374/5/4
f 372/5/4 373/5/4 375/5/4
f 375/5/4 373/5/4 376/5/4
f 376/5/4 377/5/4 378/5/4
f 378/5/4 377/5/4 379/5/4
f 380/5/4 381/5/4 384/5/4
f 384/5/4 381/5/4 385/5/4
f 381/3/4 382/3/4 386/3/4
f 385/5/4 381/5/4 386/5/4
f 386/3/4 382/3/4 387/3/4
f 384/5/4 385/5/4 388/5/4
f 383/5/4 384/5/4 388/5/4
f 388/5/4 385/5/4 389/5/4
f 385/3/4 386/3/4 390/3/4
f 389/5/4 385/5/4 390/5/4
f 390/3/4 386/3/4 391/3/4
f 389/5/4 390/5/4 393/5/4
f 390/5/4 391/5/4 393/5/4
f 391/3/4 392/3/4 394/3/4
f 393/5/4 391/5/4 394/5/4
f 394/3/4 392/3/4 395/3/4
f 396/3/4 397/3/4 399/3/4
f 399/3/4 397/3/4 400/3/4
f 400/3/4 397/3/4 401/3/4
f 398/3/4 399/3/4 402/3/4
f 399/3/4 400/3/4 402/3/4
f 402/3/4 400/3/4 403/3/4
f 403/3/4 400/3/4 404/3/4
f 404/3/4 405/3/4 406/3/4
f 403/3/4 404/3/4 406/3/4
f 406/3/4 405/3/4 407/3/4
f 408/3/4 409/3/4 410/3/4
f 410/3/4 409/3/4 411/3/4
f 412/4/4 413/4/4 414/4/4
f 414/4/4 413/4/4 415/4/4
f 412/4/4 414/4/4 416/4/4
f 416/4/4 414/4/4 417/4/4
f 418/2/4 419/2/4 420/2/4
f 420/2/4 419/2/4 421/2/4
f 422/1/4 423/1/4 424/1/4
f 424/1/4 423/1/4 425/1/4
f 426/1/4 427/1/4 428/1/4
f 426/1/4 428/1/4 430/1/4
f 428/1/4 429/1/4 430/1/4
f 430/1/4 429/1/4 431/1/4
f 431/1/4 429/1/4 432/1/4
f 431/2/4 432/2/4 433/2/4
f 433/2/4 432/2/4 434/2/4
f 435/1/4 436/1/4 439/1/4
f 437/2/4 438/2/4 440/2/4
f 440/2/4 438/2/4 441/2/4
f 435/1/4 439/1/4 443/1/4
f 441/2/4 442/2/4 446/2/4
f 446/2/4 442/2/4 447/2/4
f 443/1/4 444/1/4 448/1/4
f 435/1/4 443/1/4 448/1/4
f 448/1/4 444/1/4 449/1/4
f 449/1/4 444/1/4 450/1/4
f 445/1/4 446/1/4 451/1/4
f 451/1/4 446/1/4 452/1/4
f 450/2/4 451/2/4 453/2/4
f 453/2/4 451/2/4 454/2/4
f 455/1/4 456/1/4 457/1/4
f 457/1/4 456/1/4 458/1/4
f 457/2/4 458/2/4 460/2/4
f 458/1/4 459/1/4 461/1/4
f 460/2/4 458/2/4 461/2/4
f 461/1/4 459/1/4 462/1/4
f 460/1/4 461/1/4 464/1/4
f 462/1/4 463/1/4 464/1/4
f 461/1/4 462/1/4 464/1/4
f 464/1/4 463/1/4 465/1/4
f 465/1/4 463/1/4 466/1/4
f 466/1/4 463/1/4 467/1/4
f 465/2/4 466/2/4 469/2/4
f 469/2/4 466/2/4 470/2/4
f 468/2/4 469/2/4 471/2/4
f 471/2/4 469/2/4 472/2/4
f 475/5/5 474/5/5 473/5/5
f 476/5/5 474/5/5 475/5/5
f 481/5/5 478/5/5 477/5/5
f 482/5/5 478/5/5 481/5/5
f 483/5/5 480/5/5 479/5/5
f 484/5/5 480/5/5 483/5/5
f 485/5/5 483/5/5 482/5/5
f 486/5/5 483/5/5 485/5/5
f 491/5/5 488/5/5 487/5/5
f 492/5/5 488/5/5 491/5/5
f 493/5/5 490/5/5 489/5/5
f 494/5/5 490/5/5 493/5/5
f 495/5/5 493/5/5 492/5/5
f 496/5/5 493/5/5 495/5/5
f 501/5/5 498/5/5 497/5/5
f 502/5/5 498/5/5 501/5/5
f 503/5/5 500/5/5 499/5/5
f 504/5/5 500/5/5 503/5/5
f 507/3/5 506/3/5 505/3/5
f 508/3/5 506/3/5 507/3/5
f 513/3/5 510/3/5 509/3/5
f 514/3/5 510/3/5 513/3/5
f 515/3/5 512/3/5 511/3/5
f 516/3/5 512/3/5 515/3/5
f 519/3/5 518/3/5 517/3/5
f 520/3/5 518/3/5 519/3/5
f 525/4/5 522/4/5 521/4/5
f 525/4/5 524/4/5 523/4/5
f 525/4/5 523/4/5 522/4/5
f 526/4/5 524/4/5 525/4/5
f 527/4/5 524/4/5 526/4/5
f 528/4/5 524/4/5 527/4/5
f 529/1/5 527/1/5 526/1/5
f 529/2/5 528/2/5 527/2/5
f 530/2/5 528/2/5 529/2/5
f 531/1/5 529/1/5 526/1/5
f 531/1/5 530/1/5 529/1/5
f 532/1/5 530/1/5 531/1/5
f 538/1/5 534/1/5 533/1/5
f 539/2/5 536/2/5 535/2/5
f 540/2/5 538/2/5 537/2/5
f 541/1/5 534/1/5 538/1/5
f 541/2/5 538/2/5 540/2/5
f 542/1/5 534/1/5 541/1/5
f 544/2/5 536/2/5 539/2/5
f 545/2/5 536/2/5 544/2/5
f 546/1/5 543/1/5 542/1/5
f 546/1/5 541/1/5 540/1/5
f 546/1/5 542/1/5 541/1/5
f 547/1/5 543/1/5 546/1/5
f 550/1/5 549/1/5 548/1/5
f 551/1/5 549/1/5 550/1/5
f 555/1/5 553/1/5 552/1/5
f 555/1/5 554/1/5 553/1/5
f 556/1/5 554/1/5 555/1/5
f 557/1/5 555/1/5 552/1/5
f 558/1/5 555/1/5 557/1/5
f 561/2/5 558/2/5 557/2/5
f 562/2/5 558/2/5 561/2/5
f 565/1/5 560/1/5 559/1/5
f 566/1/5 560/1/5 565/1/5
f 567/1/5 562/1/5 561/1/5
f 568/2/5 563/2/5 562/2/5
f 568/1/5 562/1/5 567/1/5
f 569/1/5 564/1/5 563/1/5
f 569/2/5 563/2/5 568/2/5
f 570/1/5 564/1/5 569/1/5
f 571/2/5 566/2/5 565/2/5
f 572/2/5 566/2/5 571/2/5
f 575/2/5 574/2/5 573/2/5
f 576/2/5 574/2/5 575/2/5
f 577/5/6 578/5/6 579/5/6
f 579/5/6 578/5/6 580/5/6
f 581/5/6 582/5/6 585/5/6
f 585/5/6 582/5/6 586/5/6
f 583/5/6 584/5/6 587/5/6
f 587/5/6 584/5/6 588/5/6
f 589/5/6 590/5/6 592/5/6
f 592/5/6 590/5/6 593/5/6
f 591/5/6 592/5/6 595/5/6
f 595/5/6 592/5/6 596/5/6
f 593/5/6 594/5/6 597/5/6
f 597/5/6 594/5/6 598/5/6
f 599/3/6 600/3/6 602/3/6
f 602/3/6 600/3/6 603/3/6
f 601/3/6 602/3/6 605/3/6
f 605/3/6 602/3/6 606/3/6
f 603/3/6 604/3/6 607/3/6
f 607/3/6 604/3/6 608/3/6
f 609/3/6 610/3/6 612/3/6
f 612/3/6 610/3/6 613/3/6
f 611/3/6 612/3/6 615/3/6
f 615/3/6 612/3/6 616/3/6
f 613/3/6 614/3/6 617/3/6
f 617/3/6 614/3/6 618/3/6
f 619/4/6 620/4/6 622/4/6
f 622/4/6 620/4/6 623/4/6
f 621/4/6 622/4/6 625/4/6
f 625/4/6 622/4/6 626/4/6
f 623/4/6 624/4/6 627/4/6
f 627/4/6 624/4/6 628/4/6
f 629/4/6 630/4/6 631/4/6
f 631/4/6 630/4/6 632/4/6
f 633/2/6 634/2/6 635/2/6
f 635/2/6 634/2/6 636/2/6
f 637/1/6 638/1/6 640/1/6
f 638/2/6 639/2/6 641/2/6
f 640/1/6 638/1/6 641/1/6
f 641/2/6 639/2/6 642/2/6
f 642/1/6 643/1/6 646/1/6
f 641/1/6 642/1/6 646/1/6
f 646/1/6 643/1/6 647/1/6
f 647/1/6 643/1/6 648/1/6
f 648/1/6 643/1/6 649/1/6
f 644/1/6 645/1/6 650/1/6
f 650/1/6 645/1/6 651/1/6
f 647/1/6 648/1/6 652/1/6
f 652/1/6 648/1/6 653/1/6
f 653/1/6 654/1/6 657/1/6
f 657/1/6 654/1/6 658/1/6
f 655/2/6 656/2/6 659/2/6
f 659/2/6 656/2/6 660/2/6
f 659/1/6 660/1/6 663/1/6
f 663/1/6 660/1/6 664/1/6
f 661/2/6 662/2/6 665/2/6
f 665/2/6 662/2/6 666/2/6
f 667/2/6 668/2/6 669/2/6
f 669/2/6 668/2/6 670/2/6
f 669/1/6 670/1/6 675/1/6
f 670/1/6 671/1/6 675/1/6
f 675/1/6 671/1/6 676/1/6
f 676/1/6 671/1/6 677/1/6
f 672/2/6 673/2/6 678/2/6
f 678/2/6 673/2/6 679/2/6
f 674/1/6 675/1/6 680/1/6
f 680/1/6 675/1/6 681/1/6
f 676/1/6 677/1/6 682/1/6
f 682/1/6 677/1/6 683/1/6
f 684/2/6 685/2/6 689/2/6
f 689/2/6 685/2/6 690/2/6
f 686/1/6 687/1/6 691/1/6
f 691/1/6 687/1/6 692/1/6
f 688/2/6 689/2/6 693/2/6
f 693/2/6 689/2/6 694/2/6
f 695/1/6 696/1/6 699/1/6
f 699/1/6 696/1/6 700/1/6
f 697/1/6 698/1/6 701/1/6
f 699/2/6 700/2/6 702/2/6
f 702/2/6 700/2/6 703/2/6
f 701/1/6 698/1/6 704/1/6
f 704/1/6 698/1/6 705/1/6
f 703/1/6 704/1/6 706/1/6
f 706/1/6 704/1/6 707/1/6
f 708/2/6 709/2/6 710/2/6
f 710/2/6 709/2/6 711/2/6
