# MagicaVoxel @ Ephtracy

# group
o 

# material
mtllib meteoro-1.mtl
usemtl palette

# normals
vn -1 0 0
vn 1 0 0
vn 0 0 1
vn 0 0 -1
vn 0 -1 0
vn 0 1 0

# texcoords
vt 0.00195313 0.5
vt 0.00585938 0.5

# verts
v 1.7 0.9 -0.1
v 1.7 0.9 -0.2
v 1.7 1.1 -0.1
v 1.7 1.1 -0.2
v 1.8 0.6 -0.1
v 1.8 0.6 -0.2
v 1.8 0.7 -0.2
v 1.8 0.7 -0.3
v 1.8 0.8 -0.2
v 1.8 0.8 -0.3
v 1.8 0.9 -0.1
v 1.8 0.9 -0.2
v 1.8 1.1 -0.2
v 1.8 1.2 -0.2
v 1.8 1.2 -0.3
v 1.9 0.4 -0.1
v 1.9 0.4 -0.3
v 1.9 0.6 -0.1
v 1.9 0.6 -0.2
v 1.9 0.6 -0.5
v 1.9 0.6 -0.7
v 1.9 0.7 -0.2
v 1.9 0.7 -0.3
v 1.9 0.7 -0.5
v 1.9 0.7 -0.6
v 1.9 0.8 2.98023e-008
v 1.9 0.8 -0.1
v 1.9 0.8 -0.3
v 1.9 0.8 -0.4
v 1.9 0.8 -0.6
v 1.9 0.8 -0.7
v 1.9 0.9 -0.1
v 1.9 0.9 -0.3
v 1.9 0.9 -0.4
v 1.9 1 -0.3
v 1.9 1 -0.4
v 1.9 1.1 2.98023e-008
v 1.9 1.1 -0.1
v 1.9 1.1 -0.2
v 1.9 1.2 -0.1
v 1.9 1.2 -0.2
v 2 0.5 -0.3
v 2 0.5 -0.5
v 2 0.6 2.98023e-008
v 2 0.6 -0.1
v 2 0.6 -0.5
v 2 0.7 -0.5
v 2 0.7 -0.6
v 2 0.8 2.98023e-008
v 2 0.8 -0.1
v 2 0.8 -0.3
v 2 0.8 -0.4
v 2 0.8 -0.6
v 2 0.8 -0.7
v 2 0.9 -0.4
v 2 0.9 -0.5
v 2 0.9 -0.6
v 2 0.9 -0.7
v 2 1 -0.4
v 2 1 -0.5
v 2.1 0.5 0.1
v 2.1 0.5 -0.1
v 2.1 0.5 -0.5
v 2.1 0.5 -0.7
v 2.1 0.6 0.1
v 2.1 0.6 2.98023e-008
v 2.1 0.6 -0.1
v 2.1 0.6 -0.5
v 2.1 0.6 -0.7
v 2.1 0.8 0.1
v 2.1 0.8 2.98023e-008
v 2.1 0.9 0.1
v 2.1 0.9 2.98023e-008
v 2.1 1 -0.3
v 2.1 1 -0.4
v 2.1 1.1 0.1
v 2.1 1.1 2.98023e-008
v 2.1 1.1 -0.1
v 2.1 1.1 -0.3
v 2.1 1.1 -0.4
v 2.1 1.2 2.98023e-008
v 2.1 1.2 -0.1
v 2.1 1.2 -0.3
v 2.1 1.3 -0.1
v 2.1 1.3 -0.3
v 2.2 0.6 0.2
v 2.2 0.6 0.1
v 2.2 0.6 -0.7
v 2.2 0.6 -0.8
v 2.2 0.7 0.2
v 2.2 0.7 0.1
v 2.2 0.7 -0.7
v 2.2 0.7 -0.8
v 2.2 0.8 0.2
v 2.2 0.8 0.1
v 2.2 0.8 2.98023e-008
v 2.2 0.8 -0.7
v 2.2 0.8 -0.8
v 2.2 0.9 0.1
v 2.2 0.9 2.98023e-008
v 2.2 1 0.2
v 2.2 1 0.1
v 2.2 1.1 0.1
v 2.2 1.1 2.98023e-008
v 2.2 1.2 0.1
v 2.2 1.2 2.98023e-008
v 2.3 0.5 0.2
v 2.3 0.5 0.1
v 2.3 0.6 0.3
v 2.3 0.6 0.2
v 2.3 0.6 0.1
v 2.3 0.7 0.2
v 2.3 0.8 0.3
v 2.3 0.8 0.2
v 2.3 1 0.2
v 2.3 1 0.1
v 2.3 1.1 0.2
v 2.3 1.1 0.1
v 2.3 1.2 0.1
v 2.3 1.2 -0.1
v 2.3 1.3 0.1
v 2.3 1.3 -0.1
v 2.3 1.3 -0.2
v 2.3 1.3 -0.3
v 2.3 1.4 -0.1
v 2.3 1.4 -0.2
v 2.3 1.4 -0.3
v 2.4 1.1 -0.3
v 2.4 1.1 -0.4
v 2.4 1.2 -0.3
v 2.4 1.2 -0.4
v 2 0.4 -0.2
v 2 0.4 -0.3
v 2 0.5 -0.2
v 2 0.5 -0.3
v 2.1 0.4 -0.1
v 2.1 0.4 -0.2
v 2.1 0.5 -0.1
v 2.1 0.5 -0.2
v 2.2 0.5 -0.6
v 2.2 0.5 -0.7
v 2.2 0.6 -0.6
v 2.2 0.6 -0.7
v 2.3 0.5 -0.4
v 2.3 0.5 -0.6
v 2.3 0.6 -0.4
v 2.3 0.6 -0.6
v 2.3 0.7 -0.7
v 2.3 0.7 -0.8
v 2.3 0.8 -0.7
v 2.3 0.8 -0.8
v 2.4 0.5 0.2
v 2.4 0.5 -0.4
v 2.4 0.6 0.3
v 2.4 0.6 0.2
v 2.4 0.6 -0.1
v 2.4 0.6 -0.4
v 2.4 0.6 -0.8
v 2.4 0.7 2.98023e-008
v 2.4 0.7 -0.1
v 2.4 0.7 -0.4
v 2.4 0.7 -0.6
v 2.4 0.7 -0.7
v 2.4 0.7 -0.8
v 2.4 0.8 0.3
v 2.4 0.8 0.2
v 2.4 0.8 0.1
v 2.4 0.8 2.98023e-008
v 2.4 0.8 -0.5
v 2.4 0.8 -0.6
v 2.4 0.9 -0.5
v 2.4 0.9 -0.7
v 2.4 1 0.2
v 2.4 1 0.1
v 2.4 1 2.98023e-008
v 2.4 1.1 0.2
v 2.4 1.1 0.1
v 2.4 1.1 2.98023e-008
v 2.4 1.1 -0.1
v 2.4 1.3 0.1
v 2.4 1.3 -0.1
v 2.4 1.3 -0.2
v 2.4 1.4 -0.1
v 2.4 1.4 -0.2
v 2.5 0.6 -0.1
v 2.5 0.6 -0.2
v 2.5 0.6 -0.3
v 2.5 0.6 -0.4
v 2.5 0.7 2.98023e-008
v 2.5 0.7 -0.1
v 2.5 0.7 -0.2
v 2.5 0.7 -0.3
v 2.5 0.7 -0.4
v 2.5 0.7 -0.6
v 2.5 0.8 0.1
v 2.5 0.8 2.98023e-008
v 2.5 0.8 -0.1
v 2.5 0.8 -0.3
v 2.5 0.8 -0.4
v 2.5 0.8 -0.5
v 2.5 0.8 -0.6
v 2.5 0.9 2.98023e-008
v 2.5 0.9 -0.4
v 2.5 0.9 -0.5
v 2.5 1 0.1
v 2.5 1 2.98023e-008
v 2.5 1 -0.1
v 2.5 1.1 2.98023e-008
v 2.5 1.1 -0.1
v 2.5 1.1 -0.3
v 2.5 1.1 -0.4
v 2.5 1.2 -0.1
v 2.5 1.2 -0.2
v 2.5 1.2 -0.3
v 2.5 1.2 -0.4
v 2.5 1.3 -0.1
v 2.5 1.3 -0.2
v 2.5 1.3 -0.3
v 2.5 1.4 -0.2
v 2.5 1.4 -0.3
v 2.6 0.6 -0.2
v 2.6 0.6 -0.3
v 2.6 0.7 -0.1
v 2.6 0.7 -0.2
v 2.6 0.7 -0.3
v 2.6 0.8 2.98023e-008
v 2.6 0.8 -0.1
v 2.6 0.8 -0.3
v 2.6 0.8 -0.4
v 2.6 0.9 2.98023e-008
v 2.6 0.9 -0.4
v 2.6 0.9 -0.5
v 2.6 1 2.98023e-008
v 2.6 1 -0.1
v 2.6 1 -0.4
v 2.6 1 -0.5
v 2.6 1.1 -0.3
v 2.6 1.1 -0.4
v 2.6 1.2 -0.1
v 2.6 1.2 -0.2
v 2.6 1.3 -0.2
v 2.6 1.3 -0.3
v 2.3 0.6 0.3
v 2.3 0.8 0.3
v 2.4 0.6 0.3
v 2.4 0.8 0.3
v 2.2 0.6 0.2
v 2.2 0.7 0.2
v 2.2 0.8 0.2
v 2.2 1 0.2
v 2.3 0.5 0.2
v 2.3 0.6 0.2
v 2.3 0.7 0.2
v 2.3 0.8 0.2
v 2.3 1 0.2
v 2.3 1.1 0.2
v 2.4 0.5 0.2
v 2.4 0.6 0.2
v 2.4 0.8 0.2
v 2.4 1 0.2
v 2.4 1.1 0.2
v 2.1 0.5 0.1
v 2.1 0.6 0.1
v 2.1 0.8 0.1
v 2.1 0.9 0.1
v 2.1 1.1 0.1
v 2.2 0.6 0.1
v 2.2 0.7 0.1
v 2.2 0.8 0.1
v 2.2 0.9 0.1
v 2.2 1 0.1
v 2.2 1.1 0.1
v 2.2 1.2 0.1
v 2.3 0.5 0.1
v 2.3 0.6 0.1
v 2.3 1 0.1
v 2.3 1.1 0.1
v 2.3 1.2 0.1
v 2.3 1.3 0.1
v 2.4 0.8 0.1
v 2.4 1 0.1
v 2.4 1.1 0.1
v 2.4 1.3 0.1
v 2.5 0.8 0.1
v 2.5 1 0.1
v 1.9 0.8 2.98023e-008
v 1.9 1.1 2.98023e-008
v 2 0.6 2.98023e-008
v 2 0.8 2.98023e-008
v 2.1 0.6 2.98023e-008
v 2.1 0.8 2.98023e-008
v 2.1 0.9 2.98023e-008
v 2.1 1.1 2.98023e-008
v 2.1 1.2 2.98023e-008
v 2.2 0.8 2.98023e-008
v 2.2 0.9 2.98023e-008
v 2.2 1.1 2.98023e-008
v 2.2 1.2 2.98023e-008
v 2.4 0.7 2.98023e-008
v 2.4 0.8 2.98023e-008
v 2.4 1 2.98023e-008
v 2.4 1.1 2.98023e-008
v 2.5 0.7 2.98023e-008
v 2.5 0.8 2.98023e-008
v 2.5 0.9 2.98023e-008
v 2.5 1 2.98023e-008
v 2.5 1.1 2.98023e-008
v 2.6 0.8 2.98023e-008
v 2.6 0.9 2.98023e-008
v 2.6 1 2.98023e-008
v 1.7 0.9 -0.1
v 1.7 1.1 -0.1
v 1.8 0.6 -0.1
v 1.8 0.9 -0.1
v 1.9 0.4 -0.1
v 1.9 0.6 -0.1
v 1.9 0.8 -0.1
v 1.9 0.9 -0.1
v 1.9 1.1 -0.1
v 1.9 1.2 -0.1
v 2 0.6 -0.1
v 2 0.8 -0.1
v 2 1.1 -0.1
v 2 1.2 -0.1
v 2.1 0.4 -0.1
v 2.1 0.5 -0.1
v 2.1 0.6 -0.1
v 2.1 1.1 -0.1
v 2.1 1.2 -0.1
v 2.1 1.3 -0.1
v 2.3 1.2 -0.1
v 2.3 1.3 -0.1
v 2.3 1.4 -0.1
v 2.4 0.6 -0.1
v 2.4 0.7 -0.1
v 2.4 1.1 -0.1
v 2.4 1.3 -0.1
v 2.4 1.4 -0.1
v 2.5 0.6 -0.1
v 2.5 0.7 -0.1
v 2.5 0.8 -0.1
v 2.5 1 -0.1
v 2.5 1.1 -0.1
v 2.5 1.2 -0.1
v 2.5 1.3 -0.1
v 2.6 0.7 -0.1
v 2.6 0.8 -0.1
v 2.6 1 -0.1
v 2.6 1.2 -0.1
v 1.8 1.1 -0.2
v 1.8 1.2 -0.2
v 1.9 1.1 -0.2
v 1.9 1.2 -0.2
v 2.4 1.3 -0.2
v 2.4 1.4 -0.2
v 2.5 0.6 -0.2
v 2.5 0.7 -0.2
v 2.5 1.2 -0.2
v 2.5 1.3 -0.2
v 2.5 1.4 -0.2
v 2.6 0.6 -0.2
v 2.6 0.7 -0.2
v 2.6 1.2 -0.2
v 2.6 1.3 -0.2
v 1.9 0.6 -0.5
v 1.9 0.7 -0.5
v 2 0.6 -0.5
v 2 0.7 -0.5
v 1.9 0.7 -0.6
v 1.9 0.8 -0.6
v 2 0.7 -0.6
v 2 0.8 -0.6
v 1.7 0.9 -0.2
v 1.7 1.1 -0.2
v 1.8 0.6 -0.2
v 1.8 0.7 -0.2
v 1.8 0.9 -0.2
v 1.8 1.1 -0.2
v 1.9 0.6 -0.2
v 1.9 0.7 -0.2
v 2 0.4 -0.2
v 2 0.5 -0.2
v 2.1 0.4 -0.2
v 2.1 0.5 -0.2
v 1.8 0.7 -0.3
v 1.8 0.8 -0.3
v 1.8 1.2 -0.3
v 1.9 0.4 -0.3
v 1.9 0.7 -0.3
v 1.9 0.8 -0.3
v 1.9 0.9 -0.3
v 1.9 1 -0.3
v 1.9 1.2 -0.3
v 2 0.4 -0.3
v 2 0.5 -0.3
v 2 0.8 -0.3
v 2 1 -0.3
v 2 1.2 -0.3
v 2.1 1 -0.3
v 2.1 1.1 -0.3
v 2.1 1.2 -0.3
v 2.1 1.3 -0.3
v 2.2 1.2 -0.3
v 2.2 1.3 -0.3
v 2.3 1.3 -0.3
v 2.3 1.4 -0.3
v 2.4 1.1 -0.3
v 2.4 1.2 -0.3
v 2.5 0.6 -0.3
v 2.5 0.7 -0.3
v 2.5 0.8 -0.3
v 2.5 1.1 -0.3
v 2.5 1.2 -0.3
v 2.5 1.3 -0.3
v 2.5 1.4 -0.3
v 2.6 0.6 -0.3
v 2.6 0.7 -0.3
v 2.6 0.8 -0.3
v 2.6 1.1 -0.3
v 2.6 1.3 -0.3
v 1.9 0.8 -0.4
v 1.9 0.9 -0.4
v 1.9 1 -0.4
v 2 0.8 -0.4
v 2 0.9 -0.4
v 2 1 -0.4
v 2.1 1 -0.4
v 2.1 1.1 -0.4
v 2.2 1 -0.4
v 2.3 0.5 -0.4
v 2.3 0.6 -0.4
v 2.3 1 -0.4
v 2.4 0.5 -0.4
v 2.4 0.6 -0.4
v 2.4 0.7 -0.4
v 2.4 1 -0.4
v 2.4 1.1 -0.4
v 2.4 1.2 -0.4
v 2.5 0.6 -0.4
v 2.5 0.7 -0.4
v 2.5 0.8 -0.4
v 2.5 0.9 -0.4
v 2.5 1 -0.4
v 2.5 1.1 -0.4
v 2.5 1.2 -0.4
v 2.6 0.8 -0.4
v 2.6 0.9 -0.4
v 2.6 1 -0.4
v 2.6 1.1 -0.4
v 2 0.5 -0.5
v 2 0.6 -0.5
v 2 0.9 -0.5
v 2 1 -0.5
v 2.1 0.5 -0.5
v 2.1 0.6 -0.5
v 2.2 0.9 -0.5
v 2.2 1 -0.5
v 2.3 0.9 -0.5
v 2.3 1 -0.5
v 2.4 0.8 -0.5
v 2.4 0.9 -0.5
v 2.4 1 -0.5
v 2.5 0.8 -0.5
v 2.5 0.9 -0.5
v 2.5 1 -0.5
v 2.6 0.9 -0.5
v 2.6 1 -0.5
v 2.2 0.5 -0.6
v 2.2 0.6 -0.6
v 2.3 0.5 -0.6
v 2.3 0.6 -0.6
v 2.4 0.7 -0.6
v 2.4 0.8 -0.6
v 2.5 0.7 -0.6
v 2.5 0.8 -0.6
v 1.9 0.6 -0.7
v 1.9 0.8 -0.7
v 2 0.8 -0.7
v 2 0.9 -0.7
v 2.1 0.5 -0.7
v 2.1 0.6 -0.7
v 2.2 0.5 -0.7
v 2.2 0.6 -0.7
v 2.2 0.7 -0.7
v 2.2 0.8 -0.7
v 2.3 0.7 -0.7
v 2.3 0.8 -0.7
v 2.3 0.9 -0.7
v 2.4 0.7 -0.7
v 2.4 0.9 -0.7
v 2.2 0.6 -0.8
v 2.2 0.7 -0.8
v 2.2 0.8 -0.8
v 2.3 0.7 -0.8
v 2.3 0.8 -0.8
v 2.4 0.6 -0.8
v 2.4 0.7 -0.8
v 1.9 0.4 -0.1
v 2.1 0.4 -0.1
v 2 0.4 -0.2
v 2.1 0.4 -0.2
v 1.9 0.4 -0.3
v 2 0.4 -0.3
v 2.3 0.5 0.2
v 2.4 0.5 0.2
v 2.1 0.5 0.1
v 2.3 0.5 0.1
v 2.1 0.5 -0.1
v 2 0.5 -0.2
v 2.1 0.5 -0.2
v 2 0.5 -0.3
v 2.3 0.5 -0.4
v 2.4 0.5 -0.4
v 2 0.5 -0.5
v 2.1 0.5 -0.5
v 2.2 0.5 -0.6
v 2.3 0.5 -0.6
v 2.1 0.5 -0.7
v 2.2 0.5 -0.7
v 2.3 0.6 0.3
v 2.4 0.6 0.3
v 2.2 0.6 0.2
v 2.3 0.6 0.2
v 2.4 0.6 0.2
v 2.2 0.6 0.1
v 2.3 0.6 0.1
v 2 0.6 2.98023e-008
v 2.1 0.6 2.98023e-008
v 1.8 0.6 -0.1
v 1.9 0.6 -0.1
v 2 0.6 -0.1
v 2.1 0.6 -0.1
v 2.4 0.6 -0.1
v 2.5 0.6 -0.1
v 1.8 0.6 -0.2
v 1.9 0.6 -0.2
v 2.5 0.6 -0.2
v 2.6 0.6 -0.2
v 2.5 0.6 -0.3
v 2.6 0.6 -0.3
v 2.3 0.6 -0.4
v 2.4 0.6 -0.4
v 2.5 0.6 -0.4
v 1.9 0.6 -0.5
v 2 0.6 -0.5
v 2.1 0.6 -0.5
v 2.2 0.6 -0.6
v 2.3 0.6 -0.6
v 1.9 0.6 -0.7
v 2.1 0.6 -0.7
v 2.2 0.6 -0.7
v 2.2 0.6 -0.8
v 2.4 0.6 -0.8
v 2.4 0.7 2.98023e-008
v 2.5 0.7 2.98023e-008
v 2.4 0.7 -0.1
v 2.5 0.7 -0.1
v 2.6 0.7 -0.1
v 1.8 0.7 -0.2
v 1.9 0.7 -0.2
v 2.5 0.7 -0.2
v 2.6 0.7 -0.2
v 1.8 0.7 -0.3
v 1.9 0.7 -0.3
v 2.4 0.7 -0.4
v 2.5 0.7 -0.4
v 2.4 0.7 -0.6
v 2.5 0.7 -0.6
v 2.4 0.8 0.1
v 2.5 0.8 0.1
v 1.9 0.8 2.98023e-008
v 2 0.8 2.98023e-008
v 2.4 0.8 2.98023e-008
v 2.5 0.8 2.98023e-008
v 2.6 0.8 2.98023e-008
v 1.9 0.8 -0.1
v 2 0.8 -0.1
v 2.5 0.8 -0.1
v 2.6 0.8 -0.1
v 1.9 0.8 -0.3
v 2 0.8 -0.3
v 2.5 0.8 -0.3
v 2.6 0.8 -0.3
v 1.9 0.8 -0.4
v 2 0.8 -0.4
v 2.5 0.8 -0.4
v 2.6 0.8 -0.4
v 2.1 0.9 0.1
v 2.2 0.9 0.1
v 2.1 0.9 2.98023e-008
v 2.2 0.9 2.98023e-008
v 1.7 0.9 -0.1
v 1.8 0.9 -0.1
v 1.7 0.9 -0.2
v 1.8 0.9 -0.2
v 2.5 0.9 -0.4
v 2.6 0.9 -0.4
v 2.5 0.9 -0.5
v 2.6 0.9 -0.5
v 1.9 0.7 -0.5
v 2 0.7 -0.5
v 1.9 0.7 -0.6
v 2 0.7 -0.6
v 2.3 0.7 -0.7
v 2.4 0.7 -0.7
v 2.3 0.7 -0.8
v 2.4 0.7 -0.8
v 2.3 0.8 0.3
v 2.4 0.8 0.3
v 2.3 0.8 0.2
v 2.4 0.8 0.2
v 2.1 0.8 0.1
v 2.2 0.8 0.1
v 2.1 0.8 2.98023e-008
v 2.2 0.8 2.98023e-008
v 2.4 0.8 -0.5
v 2.5 0.8 -0.5
v 1.9 0.8 -0.6
v 2 0.8 -0.6
v 2.4 0.8 -0.6
v 2.5 0.8 -0.6
v 1.9 0.8 -0.7
v 2 0.8 -0.7
v 2.2 0.8 -0.7
v 2.3 0.8 -0.7
v 2.2 0.8 -0.8
v 2.3 0.8 -0.8
v 2 0.9 -0.5
v 2.2 0.9 -0.5
v 2.3 0.9 -0.5
v 2.4 0.9 -0.5
v 2 0.9 -0.6
v 2.3 0.9 -0.6
v 2 0.9 -0.7
v 2.3 0.9 -0.7
v 2.4 0.9 -0.7
v 2.2 1 0.2
v 2.3 1 0.2
v 2.2 1 0.1
v 2.3 1 0.1
v 2.4 1 0.1
v 2.5 1 0.1
v 2.4 1 2.98023e-008
v 2.5 1 2.98023e-008
v 2.6 1 2.98023e-008
v 2.5 1 -0.1
v 2.6 1 -0.1
v 1.9 1 -0.3
v 2 1 -0.3
v 2.1 1 -0.3
v 1.9 1 -0.4
v 2 1 -0.4
v 2.1 1 -0.4
v 2.2 1 -0.4
v 2.3 1 -0.4
v 2.4 1 -0.4
v 2.5 1 -0.4
v 2.6 1 -0.4
v 2 1 -0.5
v 2.2 1 -0.5
v 2.3 1 -0.5
v 2.4 1 -0.5
v 2.5 1 -0.5
v 2.6 1 -0.5
v 2.3 1.1 0.2
v 2.4 1.1 0.2
v 2.1 1.1 0.1
v 2.2 1.1 0.1
v 2.3 1.1 0.1
v 2.4 1.1 0.1
v 1.9 1.1 2.98023e-008
v 2.1 1.1 2.98023e-008
v 2.2 1.1 2.98023e-008
v 2.4 1.1 2.98023e-008
v 2.5 1.1 2.98023e-008
v 1.7 1.1 -0.1
v 1.9 1.1 -0.1
v 2 1.1 -0.1
v 2.1 1.1 -0.1
v 2.4 1.1 -0.1
v 2.5 1.1 -0.1
v 1.7 1.1 -0.2
v 1.8 1.1 -0.2
v 1.9 1.1 -0.2
v 2.1 1.1 -0.3
v 2.4 1.1 -0.3
v 2.5 1.1 -0.3
v 2.6 1.1 -0.3
v 2.1 1.1 -0.4
v 2.4 1.1 -0.4
v 2.5 1.1 -0.4
v 2.6 1.1 -0.4
v 2.2 1.2 0.1
v 2.3 1.2 0.1
v 2.1 1.2 2.98023e-008
v 2.2 1.2 2.98023e-008
v 1.9 1.2 -0.1
v 2 1.2 -0.1
v 2.1 1.2 -0.1
v 2.3 1.2 -0.1
v 2.5 1.2 -0.1
v 2.6 1.2 -0.1
v 1.8 1.2 -0.2
v 1.9 1.2 -0.2
v 2.5 1.2 -0.2
v 2.6 1.2 -0.2
v 1.8 1.2 -0.3
v 1.9 1.2 -0.3
v 2 1.2 -0.3
v 2.1 1.2 -0.3
v 2.4 1.2 -0.3
v 2.5 1.2 -0.3
v 2.4 1.2 -0.4
v 2.5 1.2 -0.4
v 2.3 1.3 0.1
v 2.4 1.3 0.1
v 2.1 1.3 -0.1
v 2.3 1.3 -0.1
v 2.4 1.3 -0.1
v 2.5 1.3 -0.1
v 2.2 1.3 -0.2
v 2.3 1.3 -0.2
v 2.4 1.3 -0.2
v 2.5 1.3 -0.2
v 2.6 1.3 -0.2
v 2.1 1.3 -0.3
v 2.2 1.3 -0.3
v 2.3 1.3 -0.3
v 2.5 1.3 -0.3
v 2.6 1.3 -0.3
v 2.3 1.4 -0.1
v 2.4 1.4 -0.1
v 2.3 1.4 -0.2
v 2.4 1.4 -0.2
v 2.5 1.4 -0.2
v 2.3 1.4 -0.3
v 2.5 1.4 -0.3

# faces
f 3/1/1 2/1/1 1/1/1
f 4/1/1 2/1/1 3/1/1
f 7/2/1 6/2/1 5/2/1
f 9/2/1 7/2/1 5/2/1
f 9/2/1 8/2/1 7/2/1
f 10/2/1 8/2/1 9/2/1
f 11/2/1 9/2/1 5/2/1
f 12/1/1 10/1/1 9/1/1
f 12/2/1 9/2/1 11/2/1
f 13/1/1 10/1/1 12/1/1
f 14/1/1 10/1/1 13/1/1
f 15/1/1 10/1/1 14/1/1
f 18/1/1 17/1/1 16/1/1
f 19/1/1 17/1/1 18/1/1
f 22/1/1 17/1/1 19/1/1
f 23/1/1 17/1/1 22/1/1
f 24/1/1 21/1/1 20/1/1
f 25/1/1 21/1/1 24/1/1
f 30/1/1 21/1/1 25/1/1
f 31/1/1 21/1/1 30/1/1
f 32/2/1 27/2/1 26/2/1
f 33/1/1 29/1/1 28/1/1
f 34/1/1 29/1/1 33/1/1
f 35/2/1 34/2/1 33/2/1
f 36/2/1 34/2/1 35/2/1
f 37/2/1 32/2/1 26/2/1
f 38/2/1 32/2/1 37/2/1
f 40/2/1 39/2/1 38/2/1
f 41/2/1 39/2/1 40/2/1
f 46/1/1 43/1/1 42/1/1
f 47/1/1 46/1/1 42/1/1
f 49/2/1 45/2/1 44/2/1
f 50/2/1 45/2/1 49/2/1
f 51/1/1 48/1/1 47/1/1
f 51/1/1 47/1/1 42/1/1
f 52/1/1 48/1/1 51/1/1
f 53/1/1 48/1/1 52/1/1
f 55/1/1 53/1/1 52/1/1
f 56/1/1 53/1/1 55/1/1
f 57/2/1 54/2/1 53/2/1
f 57/1/1 53/1/1 56/1/1
f 58/2/1 54/2/1 57/2/1
f 59/1/1 56/1/1 55/1/1
f 60/1/1 56/1/1 59/1/1
f 65/1/1 62/1/1 61/1/1
f 66/1/1 62/1/1 65/1/1
f 67/1/1 62/1/1 66/1/1
f 68/1/1 64/1/1 63/1/1
f 69/1/1 64/1/1 68/1/1
f 70/2/1 66/2/1 65/2/1
f 71/2/1 66/2/1 70/2/1
f 76/2/1 73/2/1 72/2/1
f 77/2/1 73/2/1 76/2/1
f 79/1/1 75/1/1 74/1/1
f 80/1/1 75/1/1 79/1/1
f 81/2/1 78/2/1 77/2/1
f 82/2/1 78/2/1 81/2/1
f 84/1/1 83/1/1 82/1/1
f 85/1/1 83/1/1 84/1/1
f 90/1/1 87/1/1 86/1/1
f 91/1/1 87/1/1 90/1/1
f 92/1/1 89/1/1 88/1/1
f 93/1/1 89/1/1 92/1/1
f 94/2/1 91/2/1 90/2/1
f 95/2/1 91/2/1 94/2/1
f 97/2/1 93/2/1 92/2/1
f 98/2/1 93/2/1 97/2/1
f 99/1/1 96/1/1 95/1/1
f 99/1/1 95/1/1 94/1/1
f 100/1/1 96/1/1 99/1/1
f 101/1/1 99/1/1 94/1/1
f 102/1/1 99/1/1 101/1/1
f 105/2/1 104/2/1 103/2/1
f 106/2/1 104/2/1 105/2/1
f 110/1/1 108/1/1 107/1/1
f 111/1/1 108/1/1 110/1/1
f 112/1/1 110/1/1 109/1/1
f 113/1/1 112/1/1 109/1/1
f 114/1/1 112/1/1 113/1/1
f 117/2/1 116/2/1 115/2/1
f 118/2/1 116/2/1 117/2/1
f 121/1/1 120/1/1 119/1/1
f 122/1/1 120/1/1 121/1/1
f 125/1/1 123/1/1 122/1/1
f 126/2/1 124/2/1 123/2/1
f 126/1/1 123/1/1 125/1/1
f 127/2/1 124/2/1 126/2/1
f 130/2/1 129/2/1 128/2/1
f 131/2/1 129/2/1 130/2/1
f 132/1/2 133/1/2 134/1/2
f 134/1/2 133/1/2 135/1/2
f 136/1/2 137/1/2 138/1/2
f 138/1/2 137/1/2 139/1/2
f 140/1/2 141/1/2 142/1/2
f 142/1/2 141/1/2 143/1/2
f 144/1/2 145/1/2 146/1/2
f 146/1/2 145/1/2 147/1/2
f 148/2/2 149/2/2 150/2/2
f 150/2/2 149/2/2 151/2/2
f 152/1/2 153/1/2 155/1/2
f 155/1/2 153/1/2 156/1/2
f 156/1/2 153/1/2 157/1/2
f 154/1/2 155/1/2 159/1/2
f 155/1/2 156/1/2 159/1/2
f 159/1/2 156/1/2 160/1/2
f 157/1/2 158/1/2 161/1/2
f 161/1/2 158/1/2 162/1/2
f 162/1/2 158/1/2 163/1/2
f 163/1/2 158/1/2 164/1/2
f 154/1/2 159/1/2 165/1/2
f 165/1/2 159/1/2 166/1/2
f 166/1/2 159/1/2 167/1/2
f 167/1/2 159/1/2 168/1/2
f 162/1/2 163/1/2 170/1/2
f 169/1/2 170/1/2 171/1/2
f 170/1/2 163/1/2 172/1/2
f 171/1/2 170/1/2 172/1/2
f 166/1/2 167/1/2 173/1/2
f 173/1/2 167/1/2 174/1/2
f 173/2/2 174/2/2 176/2/2
f 174/2/2 175/2/2 176/2/2
f 176/2/2 175/2/2 177/2/2
f 177/2/2 175/2/2 178/2/2
f 178/1/2 179/1/2 180/1/2
f 177/1/2 178/1/2 180/1/2
f 180/1/2 179/1/2 181/1/2
f 181/1/2 182/1/2 183/1/2
f 183/1/2 182/1/2 184/1/2
f 185/1/2 186/1/2 190/1/2
f 190/1/2 186/1/2 191/1/2
f 187/1/2 188/1/2 192/1/2
f 192/1/2 188/1/2 193/1/2
f 189/1/2 190/1/2 196/1/2
f 196/1/2 190/1/2 197/1/2
f 193/1/2 194/1/2 198/1/2
f 192/1/2 193/1/2 198/1/2
f 198/1/2 194/1/2 199/1/2
f 199/1/2 194/1/2 200/1/2
f 200/1/2 194/1/2 201/1/2
f 195/1/2 196/1/2 202/1/2
f 199/2/2 200/2/2 203/2/2
f 203/2/2 200/2/2 204/2/2
f 195/1/2 202/1/2 205/1/2
f 205/1/2 202/1/2 206/1/2
f 206/1/2 207/1/2 208/1/2
f 208/1/2 207/1/2 209/1/2
f 210/2/2 211/2/2 214/2/2
f 214/2/2 211/2/2 215/2/2
f 212/1/2 213/1/2 216/1/2
f 216/1/2 213/1/2 217/1/2
f 217/2/2 218/2/2 219/2/2
f 219/2/2 218/2/2 220/2/2
f 221/1/2 222/1/2 224/1/2
f 224/1/2 222/1/2 225/1/2
f 223/2/2 224/2/2 227/2/2
f 224/2/2 225/2/2 227/2/2
f 227/2/2 225/2/2 228/2/2
f 227/2/2 228/2/2 230/2/2
f 228/2/2 229/2/2 230/2/2
f 226/2/2 227/2/2 230/2/2
f 230/2/2 229/2/2 231/2/2
f 230/1/2 231/1/2 233/1/2
f 231/1/2 232/1/2 233/1/2
f 233/1/2 232/1/2 234/1/2
f 234/1/2 232/1/2 235/1/2
f 235/1/2 232/1/2 236/1/2
f 234/1/2 235/1/2 237/1/2
f 237/1/2 235/1/2 238/1/2
f 234/1/2 237/1/2 239/1/2
f 239/1/2 237/1/2 240/1/2
f 240/1/2 237/1/2 241/1/2
f 241/1/2 237/1/2 242/1/2
f 245/1/3 244/1/3 243/1/3
f 246/1/3 244/1/3 245/1/3
f 252/1/3 248/1/3 247/1/3
f 253/2/3 249/2/3 248/2/3
f 253/1/3 248/1/3 252/1/3
f 254/1/3 250/1/3 249/1/3
f 254/2/3 249/2/3 253/2/3
f 255/1/3 250/1/3 254/1/3
f 257/1/3 252/1/3 251/1/3
f 258/1/3 252/1/3 257/1/3
f 259/1/3 255/1/3 254/1/3
f 260/2/3 256/2/3 255/2/3
f 260/1/3 255/1/3 259/1/3
f 261/2/3 256/2/3 260/2/3
f 267/1/3 263/1/3 262/1/3
f 267/2/3 264/2/3 263/2/3
f 268/2/3 264/2/3 267/2/3
f 269/2/3 264/2/3 268/2/3
f 270/2/3 266/2/3 265/2/3
f 271/2/3 266/2/3 270/2/3
f 272/2/3 266/2/3 271/2/3
f 274/1/3 267/1/3 262/1/3
f 275/1/3 267/1/3 274/1/3
f 276/2/3 273/2/3 272/2/3
f 276/2/3 272/2/3 271/2/3
f 277/2/3 273/2/3 276/2/3
f 278/2/3 273/2/3 277/2/3
f 282/1/3 279/1/3 278/1/3
f 282/1/3 278/1/3 277/1/3
f 283/1/3 279/1/3 282/1/3
f 284/1/3 281/1/3 280/1/3
f 285/1/3 281/1/3 284/1/3
f 289/2/3 287/2/3 286/2/3
f 290/2/3 289/2/3 288/2/3
f 291/2/3 287/2/3 289/2/3
f 291/2/3 289/2/3 290/2/3
f 292/2/3 287/2/3 291/2/3
f 293/2/3 287/2/3 292/2/3
f 295/2/3 292/2/3 291/2/3
f 296/2/3 292/2/3 295/2/3
f 297/2/3 294/2/3 293/2/3
f 298/2/3 294/2/3 297/2/3
f 303/1/3 300/1/3 299/1/3
f 304/1/3 300/1/3 303/1/3
f 306/1/3 302/1/3 301/1/3
f 307/1/3 302/1/3 306/1/3
f 308/2/3 305/2/3 304/2/3
f 309/1/3 306/1/3 305/1/3
f 309/2/3 305/2/3 308/2/3
f 310/1/3 306/1/3 309/1/3
f 314/1/3 312/1/3 311/1/3
f 316/2/3 314/2/3 313/2/3
f 317/2/3 314/2/3 316/2/3
f 318/1/3 312/1/3 314/1/3
f 318/2/3 314/2/3 317/2/3
f 319/1/3 312/1/3 318/1/3
f 321/2/3 317/2/3 316/2/3
f 321/1/3 316/1/3 315/1/3
f 322/2/3 317/2/3 321/2/3
f 323/2/3 320/2/3 319/2/3
f 324/2/3 320/2/3 323/2/3
f 325/1/3 321/1/3 315/1/3
f 326/1/3 321/1/3 325/1/3
f 327/1/3 321/1/3 326/1/3
f 328/1/3 324/1/3 323/1/3
f 329/1/3 324/1/3 328/1/3
f 331/1/3 330/1/3 329/1/3
f 332/1/3 330/1/3 331/1/3
f 337/1/3 333/1/3 332/1/3
f 338/1/3 333/1/3 337/1/3
f 339/1/3 335/1/3 334/1/3
f 340/1/3 335/1/3 339/1/3
f 343/1/3 337/1/3 336/1/3
f 344/1/3 337/1/3 343/1/3
f 345/1/3 337/1/3 344/1/3
f 346/2/3 341/2/3 340/2/3
f 347/2/3 341/2/3 346/2/3
f 348/1/3 344/1/3 343/1/3
f 348/1/3 343/1/3 342/1/3
f 349/1/3 344/1/3 348/1/3
f 352/1/3 351/1/3 350/1/3
f 353/1/3 351/1/3 352/1/3
f 359/2/3 355/2/3 354/2/3
f 360/2/3 355/2/3 359/2/3
f 361/1/3 357/1/3 356/1/3
f 362/1/3 357/1/3 361/1/3
f 363/1/3 359/1/3 358/1/3
f 364/1/3 359/1/3 363/1/3
f 367/1/3 366/1/3 365/1/3
f 368/1/3 366/1/3 367/1/3
f 371/1/3 370/1/3 369/1/3
f 372/1/3 370/1/3 371/1/3
f 373/1/4 374/1/4 377/1/4
f 377/1/4 374/1/4 378/1/4
f 375/2/4 376/2/4 379/2/4
f 379/2/4 376/2/4 380/2/4
f 381/1/4 382/1/4 383/1/4
f 383/1/4 382/1/4 384/1/4
f 385/2/4 386/2/4 389/2/4
f 386/1/4 387/1/4 390/1/4
f 389/2/4 386/2/4 390/2/4
f 390/1/4 387/1/4 391/1/4
f 391/1/4 387/1/4 392/1/4
f 392/1/4 387/1/4 393/1/4
f 388/1/4 389/1/4 394/1/4
f 389/1/4 390/1/4 394/1/4
f 394/1/4 390/1/4 395/1/4
f 395/1/4 390/1/4 396/1/4
f 392/2/4 393/2/4 397/2/4
f 397/2/4 393/2/4 398/2/4
f 397/1/4 398/1/4 399/1/4
f 399/1/4 398/1/4 400/1/4
f 400/1/4 398/1/4 401/1/4
f 400/1/4 401/1/4 403/1/4
f 401/1/4 402/1/4 403/1/4
f 403/1/4 402/1/4 404/1/4
f 403/2/4 404/2/4 405/2/4
f 400/1/4 403/1/4 407/1/4
f 405/2/4 406/2/4 408/2/4
f 407/1/4 403/1/4 408/1/4
f 403/2/4 405/2/4 408/2/4
f 408/2/4 406/2/4 413/2/4
f 413/2/4 406/2/4 414/2/4
f 414/2/4 406/2/4 415/2/4
f 409/1/4 410/1/4 416/1/4
f 410/2/4 411/2/4 417/2/4
f 416/1/4 410/1/4 417/1/4
f 417/2/4 411/2/4 418/2/4
f 412/1/4 413/1/4 419/1/4
f 413/1/4 414/1/4 419/1/4
f 419/1/4 414/1/4 420/1/4
f 421/1/4 422/1/4 424/1/4
f 422/2/4 423/2/4 425/2/4
f 424/1/4 422/1/4 425/1/4
f 425/2/4 423/2/4 426/2/4
f 427/1/4 428/1/4 429/1/4
f 429/1/4 428/1/4 432/1/4
f 430/1/4 431/1/4 433/1/4
f 433/1/4 431/1/4 434/1/4
f 432/1/4 428/1/4 436/1/4
f 436/1/4 428/1/4 437/1/4
f 434/1/4 435/1/4 439/1/4
f 439/1/4 435/1/4 440/1/4
f 436/1/4 437/1/4 443/1/4
f 437/2/4 438/2/4 444/2/4
f 443/1/4 437/1/4 444/1/4
f 444/2/4 438/2/4 445/2/4
f 441/2/4 442/2/4 446/2/4
f 446/2/4 442/2/4 447/2/4
f 443/1/4 444/1/4 448/1/4
f 448/1/4 444/1/4 449/1/4
f 450/1/4 451/1/4 454/1/4
f 454/1/4 451/1/4 455/1/4
f 452/1/4 453/1/4 456/1/4
f 456/1/4 453/1/4 457/1/4
f 456/2/4 457/2/4 458/2/4
f 458/2/4 457/2/4 459/2/4
f 458/1/4 459/1/4 461/1/4
f 461/1/4 459/1/4 462/1/4
f 460/2/4 461/2/4 463/2/4
f 461/2/4 462/2/4 463/2/4
f 463/2/4 462/2/4 464/2/4
f 464/2/4 462/2/4 465/2/4
f 464/1/4 465/1/4 466/1/4
f 466/1/4 465/1/4 467/1/4
f 468/1/4 469/1/4 470/1/4
f 470/1/4 469/1/4 471/1/4
f 472/1/4 473/1/4 474/1/4
f 474/1/4 473/1/4 475/1/4
f 476/1/4 477/1/4 478/1/4
f 476/1/4 478/1/4 481/1/4
f 480/1/4 481/1/4 482/1/4
f 481/1/4 478/1/4 483/1/4
f 482/1/4 481/1/4 483/1/4
f 483/1/4 478/1/4 484/1/4
f 478/2/4 479/2/4 485/2/4
f 484/1/4 478/1/4 485/1/4
f 485/2/4 479/2/4 487/2/4
f 487/2/4 479/2/4 488/2/4
f 486/1/4 487/1/4 489/1/4
f 487/1/4 488/1/4 489/1/4
f 489/1/4 488/1/4 490/1/4
f 491/1/4 492/1/4 494/1/4
f 492/2/4 493/2/4 494/2/4
f 494/2/4 493/2/4 495/2/4
f 491/1/4 494/1/4 496/1/4
f 496/1/4 494/1/4 497/1/4
f 500/1/5 499/1/5 498/1/5
f 501/1/5 499/1/5 500/1/5
f 502/1/5 500/1/5 498/1/5
f 503/1/5 500/1/5 502/1/5
f 507/1/5 505/1/5 504/1/5
f 508/1/5 507/1/5 506/1/5
f 510/1/5 507/1/5 508/1/5
f 511/1/5 510/1/5 509/1/5
f 512/1/5 505/1/5 507/1/5
f 512/1/5 510/1/5 511/1/5
f 512/1/5 507/1/5 510/1/5
f 513/1/5 505/1/5 512/1/5
f 514/1/5 512/1/5 511/1/5
f 515/1/5 512/1/5 514/1/5
f 516/1/5 512/1/5 515/1/5
f 517/1/5 512/1/5 516/1/5
f 518/1/5 516/1/5 515/1/5
f 519/1/5 516/1/5 518/1/5
f 523/1/5 521/1/5 520/1/5
f 524/1/5 521/1/5 523/1/5
f 525/1/5 523/1/5 522/1/5
f 526/1/5 523/1/5 525/1/5
f 531/2/5 528/2/5 527/2/5
f 532/2/5 528/2/5 531/2/5
f 535/2/5 530/2/5 529/2/5
f 536/2/5 530/2/5 535/2/5
f 537/1/5 534/1/5 533/1/5
f 539/1/5 538/1/5 537/1/5
f 539/1/5 537/1/5 533/1/5
f 540/1/5 538/1/5 539/1/5
f 542/1/5 539/1/5 533/1/5
f 543/1/5 539/1/5 542/1/5
f 548/1/5 542/1/5 541/1/5
f 549/1/5 546/1/5 545/1/5
f 549/1/5 545/1/5 544/1/5
f 550/1/5 546/1/5 549/1/5
f 551/1/5 548/1/5 547/1/5
f 552/1/5 548/1/5 551/1/5
f 553/1/5 542/1/5 548/1/5
f 553/1/5 548/1/5 552/1/5
f 556/1/5 555/1/5 554/1/5
f 557/1/5 555/1/5 556/1/5
f 561/2/5 558/2/5 557/2/5
f 562/2/5 558/2/5 561/2/5
f 563/2/5 560/2/5 559/2/5
f 564/2/5 560/2/5 563/2/5
f 567/1/5 566/1/5 565/1/5
f 568/1/5 566/1/5 567/1/5
f 573/1/5 570/1/5 569/1/5
f 574/1/5 570/1/5 573/1/5
f 576/2/5 572/2/5 571/2/5
f 577/2/5 572/2/5 576/2/5
f 578/2/5 575/2/5 574/2/5
f 579/2/5 575/2/5 578/2/5
f 584/1/5 581/1/5 580/1/5
f 585/1/5 581/1/5 584/1/5
f 586/2/5 583/2/5 582/2/5
f 587/2/5 583/2/5 586/2/5
f 590/2/5 589/2/5 588/2/5
f 591/2/5 589/2/5 590/2/5
f 594/1/5 593/1/5 592/1/5
f 595/1/5 593/1/5 594/1/5
f 598/1/5 597/1/5 596/1/5
f 599/1/5 597/1/5 598/1/5
f 600/1/6 601/1/6 602/1/6
f 602/1/6 601/1/6 603/1/6
f 604/1/6 605/1/6 606/1/6
f 606/1/6 605/1/6 607/1/6
f 608/1/6 609/1/6 610/1/6
f 610/1/6 609/1/6 611/1/6
f 612/2/6 613/2/6 614/2/6
f 614/2/6 613/2/6 615/2/6
f 616/1/6 617/1/6 620/1/6
f 620/1/6 617/1/6 621/1/6
f 618/1/6 619/1/6 622/1/6
f 622/1/6 619/1/6 623/1/6
f 624/2/6 625/2/6 626/2/6
f 626/2/6 625/2/6 627/2/6
f 628/1/6 629/1/6 632/1/6
f 630/1/6 631/1/6 632/1/6
f 629/1/6 630/1/6 632/1/6
f 632/1/6 631/1/6 633/1/6
f 632/2/6 633/2/6 634/2/6
f 633/1/6 631/1/6 635/1/6
f 634/2/6 633/2/6 635/2/6
f 635/1/6 631/1/6 636/1/6
f 637/1/6 638/1/6 639/1/6
f 639/1/6 638/1/6 640/1/6
f 641/1/6 642/1/6 643/1/6
f 643/1/6 642/1/6 644/1/6
f 644/1/6 645/1/6 646/1/6
f 646/1/6 645/1/6 647/1/6
f 648/2/6 649/2/6 651/2/6
f 649/1/6 650/1/6 652/1/6
f 651/2/6 649/2/6 652/2/6
f 652/1/6 650/1/6 653/1/6
f 652/1/6 653/1/6 659/1/6
f 653/1/6 654/1/6 659/1/6
f 654/2/6 655/2/6 660/2/6
f 659/1/6 654/1/6 660/1/6
f 655/1/6 656/1/6 661/1/6
f 660/2/6 655/2/6 661/2/6
f 656/2/6 657/2/6 662/2/6
f 661/1/6 656/1/6 662/1/6
f 657/1/6 658/1/6 663/1/6
f 662/2/6 657/2/6 663/2/6
f 663/1/6 658/1/6 664/1/6
f 665/2/6 666/2/6 669/2/6
f 669/2/6 666/2/6 670/2/6
f 667/2/6 668/2/6 672/2/6
f 672/2/6 668/2/6 673/2/6
f 671/2/6 672/2/6 677/2/6
f 677/2/6 672/2/6 678/2/6
f 678/2/6 672/2/6 679/2/6
f 674/1/6 675/1/6 680/1/6
f 680/1/6 675/1/6 681/1/6
f 676/1/6 677/1/6 682/1/6
f 682/1/6 677/1/6 683/1/6
f 683/1/6 677/1/6 684/1/6
f 685/1/6 686/1/6 689/1/6
f 689/1/6 686/1/6 690/1/6
f 687/1/6 688/1/6 691/1/6
f 691/1/6 688/1/6 692/1/6
f 693/2/6 694/2/6 696/2/6
f 695/2/6 696/2/6 699/2/6
f 696/2/6 694/2/6 700/2/6
f 699/2/6 696/2/6 700/2/6
f 697/2/6 698/2/6 704/2/6
f 701/1/6 702/1/6 705/1/6
f 705/1/6 702/1/6 706/1/6
f 703/1/6 704/1/6 707/1/6
f 704/2/6 698/2/6 708/2/6
f 707/1/6 704/1/6 708/1/6
f 698/1/6 699/1/6 709/1/6
f 708/2/6 698/2/6 709/2/6
f 709/1/6 699/1/6 710/1/6
f 711/2/6 712/2/6 713/2/6
f 713/2/6 712/2/6 714/2/6
f 715/1/6 716/1/6 718/1/6
f 718/1/6 716/1/6 719/1/6
f 717/1/6 718/1/6 721/1/6
f 721/1/6 718/1/6 722/1/6
f 719/1/6 720/1/6 723/1/6
f 723/1/6 720/1/6 724/1/6
f 717/1/6 721/1/6 726/1/6
f 721/2/6 722/2/6 727/2/6
f 726/1/6 721/1/6 727/1/6
f 727/2/6 722/2/6 728/2/6
f 724/1/6 725/1/6 729/1/6
f 729/1/6 725/1/6 730/1/6
f 731/1/6 732/1/6 733/1/6
f 733/1/6 732/1/6 734/1/6
f 733/2/6 734/2/6 736/2/6
f 734/2/6 735/2/6 736/2/6
f 736/2/6 735/2/6 737/2/6
