# Blender v2.91.2 OBJ File: ''
# www.blender.org
mtllib blocoPadrao.mtl
o ObjObject.001
v -0.500000 0.437500 0.437500
v -0.500000 -0.437500 -0.437500
v -0.500000 -0.437500 0.437500
v -0.500000 0.437500 -0.437500
v -0.437500 -0.437500 0.437500
v -0.437500 -0.500000 -0.437500
v -0.437500 -0.500000 0.437500
v -0.437500 -0.437500 -0.437500
v -0.437500 0.437500 0.500000
v -0.437500 -0.437500 0.500000
v -0.437500 0.437500 0.437500
v -0.437500 0.437500 -0.437500
v -0.437500 -0.437500 -0.500000
v -0.437500 0.437500 -0.500000
v -0.437500 0.500000 0.437500
v -0.437500 0.500000 -0.437500
v 0.437500 -0.500000 0.437500
v 0.437500 -0.500000 -0.437500
v 0.437500 -0.437500 0.437500
v 0.437500 -0.437500 -0.437500
v 0.437500 -0.437500 0.500000
v 0.437500 0.437500 0.500000
v 0.437500 0.437500 0.437500
v 0.437500 -0.437500 -0.500000
v 0.437500 0.437500 -0.437500
v 0.437500 0.437500 -0.500000
v 0.437500 0.500000 0.437500
v 0.437500 0.500000 -0.437500
v 0.500000 -0.437500 0.437500
v 0.500000 -0.437500 -0.437500
v 0.500000 0.437500 0.437500
v 0.500000 0.437500 -0.437500
v 0.437500 -0.437500 0.500000
v -0.437500 0.437500 0.500000
v -0.437500 -0.437500 0.500000
v 0.437500 0.437500 0.500000
v -0.437500 -0.437500 0.437500
v -0.500000 0.437500 0.437500
v -0.500000 -0.437500 0.437500
v -0.437500 0.437500 0.437500
v 0.437500 -0.500000 0.437500
v -0.437500 -0.500000 0.437500
v 0.437500 -0.437500 0.437500
v 0.437500 0.437500 0.437500
v -0.437500 0.500000 0.437500
v 0.437500 0.500000 0.437500
v 0.500000 -0.437500 0.437500
v 0.500000 0.437500 0.437500
v -0.500000 -0.437500 -0.437500
v -0.500000 0.437500 -0.437500
v -0.437500 -0.437500 -0.437500
v -0.437500 0.437500 -0.437500
v -0.437500 -0.500000 -0.437500
v 0.437500 -0.500000 -0.437500
v 0.437500 -0.437500 -0.437500
v -0.437500 0.500000 -0.437500
v 0.437500 0.437500 -0.437500
v 0.437500 0.500000 -0.437500
v 0.500000 -0.437500 -0.437500
v 0.500000 0.437500 -0.437500
v -0.437500 -0.437500 -0.500000
v -0.437500 0.437500 -0.500000
v 0.437500 -0.437500 -0.500000
v 0.437500 0.437500 -0.500000
v -0.437500 -0.500000 -0.437500
v 0.437500 -0.500000 0.437500
v -0.437500 -0.500000 0.437500
v 0.437500 -0.500000 -0.437500
v -0.437500 -0.437500 0.437500
v 0.437500 -0.437500 0.500000
v -0.437500 -0.437500 0.500000
v 0.437500 -0.437500 0.437500
v -0.500000 -0.437500 -0.437500
v -0.500000 -0.437500 0.437500
v -0.437500 -0.437500 -0.437500
v 0.437500 -0.437500 -0.437500
v 0.500000 -0.437500 0.437500
v 0.500000 -0.437500 -0.437500
v -0.437500 -0.437500 -0.500000
v 0.437500 -0.437500 -0.500000
v -0.437500 0.437500 0.500000
v 0.437500 0.437500 0.500000
v -0.437500 0.437500 0.437500
v 0.437500 0.437500 0.437500
v -0.500000 0.437500 0.437500
v -0.500000 0.437500 -0.437500
v -0.437500 0.437500 -0.437500
v 0.500000 0.437500 0.437500
v 0.437500 0.437500 -0.437500
v 0.500000 0.437500 -0.437500
v -0.437500 0.437500 -0.500000
v 0.437500 0.437500 -0.500000
v -0.437500 0.500000 0.437500
v 0.437500 0.500000 0.437500
v -0.437500 0.500000 -0.437500
v 0.437500 0.500000 -0.437500
vt 0.986328 0.500000
vt 0.986328 0.500000
vt 0.986328 0.500000
vt 0.986328 0.500000
vt 0.986328 0.500000
vt 0.986328 0.500000
vt 0.986328 0.500000
vt 0.986328 0.500000
vt 0.986328 0.500000
vt 0.986328 0.500000
vt 0.986328 0.500000
vt 0.986328 0.500000
vt 0.986328 0.500000
vt 0.986328 0.500000
vt 0.986328 0.500000
vt 0.986328 0.500000
vt 0.986328 0.500000
vt 0.986328 0.500000
vt 0.986328 0.500000
vt 0.986328 0.500000
vt 0.986328 0.500000
vt 0.986328 0.500000
vt 0.986328 0.500000
vt 0.986328 0.500000
vt 0.986328 0.500000
vt 0.986328 0.500000
vt 0.986328 0.500000
vt 0.986328 0.500000
vt 0.986328 0.500000
vt 0.986328 0.500000
vt 0.986328 0.500000
vt 0.986328 0.500000
vt 0.986328 0.500000
vt 0.986328 0.500000
vt 0.986328 0.500000
vt 0.986328 0.500000
vt 0.986328 0.500000
vt 0.986328 0.500000
vt 0.986328 0.500000
vt 0.986328 0.500000
vt 0.986328 0.500000
vt 0.986328 0.500000
vt 0.986328 0.500000
vt 0.986328 0.500000
vt 0.986328 0.500000
vt 0.986328 0.500000
vt 0.986328 0.500000
vt 0.986328 0.500000
vt 0.986328 0.500000
vt 0.986328 0.500000
vt 0.986328 0.500000
vt 0.986328 0.500000
vt 0.986328 0.500000
vt 0.986328 0.500000
vt 0.986328 0.500000
vt 0.986328 0.500000
vt 0.986328 0.500000
vt 0.986328 0.500000
vt 0.986328 0.500000
vt 0.986328 0.500000
vt 0.986328 0.500000
vt 0.986328 0.500000
vt 0.986328 0.500000
vt 0.986328 0.500000
vt 0.986328 0.500000
vt 0.986328 0.500000
vt 0.986328 0.500000
vt 0.986328 0.500000
vt 0.986328 0.500000
vt 0.986328 0.500000
vt 0.986328 0.500000
vt 0.986328 0.500000
vt 0.986328 0.500000
vt 0.986328 0.500000
vt 0.986328 0.500000
vt 0.986328 0.500000
vt 0.986328 0.500000
vt 0.986328 0.500000
vt 0.986328 0.500000
vt 0.986328 0.500000
vt 0.986328 0.500000
vt 0.986328 0.500000
vt 0.986328 0.500000
vt 0.986328 0.500000
vt 0.986328 0.500000
vt 0.986328 0.500000
vt 0.986328 0.500000
vt 0.986328 0.500000
vt 0.986328 0.500000
vt 0.986328 0.500000
vt 0.986328 0.500000
vt 0.986328 0.500000
vt 0.986328 0.500000
vt 0.986328 0.500000
vt 0.986328 0.500000
vt 0.986328 0.500000
vn 1.0000 0.0000 0.0000
vn 0.0000 -1.0000 -0.0000
vn 0.0000 -0.0000 1.0000
vn -1.0000 0.0000 0.0000
vn 0.0000 0.0000 -1.0000
vn 0.0000 1.0000 0.0000
usemtl palette.001
s 1
f 25/1/1 28/2/1 27/3/1 23/4/1
f 72/5/2 70/6/2 71/7/2 69/8/2
f 48/9/3 44/10/3 43/11/3 47/12/3
f 4/13/4 2/14/4 3/15/4 1/16/4
f 8/17/4 6/18/4 7/19/4 5/20/4
f 36/21/3 34/22/3 35/23/3 33/24/3
f 75/25/2 69/8/2 74/26/2 73/27/2
f 16/28/4 12/29/4 11/30/4 15/31/4
f 19/32/1 23/4/1 22/33/1 21/34/1
f 68/35/2 66/36/2 67/37/2 65/38/2
f 50/39/5 52/40/5 51/41/5 49/42/5
f 57/43/5 60/44/5 59/45/5 55/46/5
f 18/47/1 20/48/1 19/32/1 17/49/1
f 83/50/6 87/51/6 86/52/6 85/53/6
f 46/54/3 45/55/3 40/56/3 44/10/3
f 30/57/1 32/58/1 31/59/1 29/60/1
f 62/61/5 64/62/5 63/63/5 61/64/5
f 82/65/6 84/66/6 83/50/6 81/67/6
f 51/41/5 55/46/5 54/68/5 53/69/5
f 24/70/1 26/71/1 25/1/1 20/48/1
f 11/30/4 5/20/4 10/72/4 9/73/4
f 43/11/3 37/74/3 42/75/3 41/76/3
f 40/56/3 38/77/3 39/78/3 37/74/3
f 14/79/4 13/80/4 8/17/4 12/29/4
f 78/81/2 77/82/2 72/5/2 76/83/2
f 80/84/2 76/83/2 75/25/2 79/85/2
f 89/86/6 92/87/6 91/88/6 87/51/6
f 56/89/5 58/90/5 57/43/5 52/40/5
f 88/91/6 90/92/6 89/86/6 84/66/6
f 94/93/6 96/94/6 95/95/6 93/96/6
