# MagicaVoxel @ Ephtracy

# group
o 

# material
mtllib saturno-7.mtl
usemtl palette

# normals
vn -1 0 0
vn 1 0 0
vn 0 0 1
vn 0 0 -1
vn 0 -1 0
vn 0 1 0

# texcoords
vt 0.0449219 0.5
vt 0.0488281 0.5

# verts
v 5.8 0.8 0.2
v 5.8 0.8 0.1
v 5.8 0.8 -0.1
v 5.8 0.8 -0.3
v 5.8 0.9 0.2
v 5.8 0.9 0.1
v 5.8 0.9 -0.1
v 5.8 0.9 -0.3
v 5.9 0.8 0.4
v 5.9 0.8 0.3
v 5.9 0.8 -0.3
v 5.9 0.8 -0.4
v 5.9 0.9 0.4
v 5.9 0.9 0.3
v 5.9 0.9 -0.3
v 5.9 0.9 -0.4
v 6 0.8 0.5
v 6 0.8 0.4
v 6 0.8 -0.4
v 6 0.8 -0.5
v 6 0.9 0.5
v 6 0.9 0.4
v 6 0.9 -0.4
v 6 0.9 -0.5
v 6.1 0.8 0.6
v 6.1 0.8 0.5
v 6.1 0.8 -0.5
v 6.1 0.8 -0.6
v 6.1 0.9 0.6
v 6.1 0.9 0.5
v 6.1 0.9 -0.5
v 6.1 0.9 -0.6
v 6.3 0.8 -0.6
v 6.3 0.8 -0.7
v 6.3 0.9 -0.6
v 6.3 0.9 -0.7
v 6.4 0.8 0.7
v 6.4 0.8 0.6
v 6.4 0.9 0.7
v 6.4 0.9 0.6
v 6.5 0.8 -0.6
v 6.5 0.8 -0.7
v 6.5 0.9 -0.6
v 6.5 0.9 -0.7
v 6.8 0.8 0.6
v 6.8 0.8 0.5
v 6.8 0.8 -0.5
v 6.8 0.8 -0.6
v 6.8 0.9 0.6
v 6.8 0.9 0.5
v 6.8 0.9 -0.5
v 6.8 0.9 -0.6
v 7 0.8 0.4
v 7 0.8 0.3
v 7 0.9 0.4
v 7 0.9 0.3
v 7.1 0.8 0.1
v 7.1 0.8 0
v 7.1 0.8 -0.1
v 7.1 0.8 -0.2
v 7.1 0.8 -0.3
v 7.1 0.9 0.1
v 7.1 0.9 0
v 7.1 0.9 -0.1
v 7.1 0.9 -0.2
v 7.1 0.9 -0.3
v 5.9 0.8 0.2
v 5.9 0.8 0.1
v 5.9 0.8 -0.1
v 5.9 0.8 -0.3
v 5.9 0.9 0.2
v 5.9 0.9 0.1
v 5.9 0.9 -0.1
v 5.9 0.9 -0.3
v 6 0.8 0.4
v 6 0.8 0.3
v 6 0.8 -0.3
v 6 0.8 -0.4
v 6 0.9 0.4
v 6 0.9 0.3
v 6 0.9 -0.3
v 6 0.9 -0.4
v 6.1 0.8 0.5
v 6.1 0.8 0.4
v 6.1 0.8 -0.4
v 6.1 0.8 -0.5
v 6.1 0.9 0.5
v 6.1 0.9 0.4
v 6.1 0.9 -0.4
v 6.1 0.9 -0.5
v 6.2 0.8 0.6
v 6.2 0.8 0.5
v 6.2 0.8 -0.5
v 6.2 0.8 -0.6
v 6.2 0.9 0.6
v 6.2 0.9 0.5
v 6.2 0.9 -0.5
v 6.2 0.9 -0.6
v 6.4 0.8 -0.6
v 6.4 0.8 -0.7
v 6.4 0.9 -0.6
v 6.4 0.9 -0.7
v 6.8 0.8 0.7
v 6.8 0.8 0.6
v 6.8 0.8 -0.6
v 6.8 0.8 -0.7
v 6.8 0.9 0.7
v 6.8 0.9 0.6
v 6.8 0.9 -0.6
v 6.8 0.9 -0.7
v 6.9 0.8 0.6
v 6.9 0.8 0.5
v 6.9 0.8 -0.5
v 6.9 0.8 -0.6
v 6.9 0.9 0.6
v 6.9 0.9 0.5
v 6.9 0.9 -0.5
v 6.9 0.9 -0.6
v 7.1 0.8 0.4
v 7.1 0.8 0.3
v 7.1 0.9 0.4
v 7.1 0.9 0.3
v 7.2 0.8 0.1
v 7.2 0.8 0
v 7.2 0.8 -0.1
v 7.2 0.8 -0.2
v 7.2 0.8 -0.3
v 7.2 0.9 0.1
v 7.2 0.9 0
v 7.2 0.9 -0.1
v 7.2 0.9 -0.2
v 7.2 0.9 -0.3
v 6.4 0.8 0.7
v 6.4 0.9 0.7
v 6.6 0.8 0.7
v 6.6 0.9 0.7
v 6.7 0.8 0.7
v 6.7 0.9 0.7
v 6.8 0.8 0.7
v 6.8 0.9 0.7
v 6.1 0.8 0.6
v 6.1 0.9 0.6
v 6.2 0.8 0.6
v 6.2 0.9 0.6
v 6.8 0.8 0.6
v 6.8 0.9 0.6
v 6.9 0.8 0.6
v 6.9 0.9 0.6
v 6 0.8 0.5
v 6 0.9 0.5
v 6.1 0.8 0.5
v 6.1 0.9 0.5
v 5.9 0.8 0.4
v 5.9 0.9 0.4
v 6 0.8 0.4
v 6 0.9 0.4
v 7 0.8 0.4
v 7 0.9 0.4
v 7.1 0.8 0.4
v 7.1 0.9 0.4
v 5.8 0.8 0.2
v 5.8 0.9 0.2
v 5.9 0.8 0.2
v 5.9 0.9 0.2
v 7.1 0.8 0.1
v 7.1 0.9 0.1
v 7.2 0.8 0.1
v 7.2 0.9 0.1
v 5.8 0.8 -0.1
v 5.8 0.9 -0.1
v 5.9 0.8 -0.1
v 5.9 0.9 -0.1
v 7.1 0.8 -0.1
v 7.1 0.9 -0.1
v 7.2 0.8 -0.1
v 7.2 0.9 -0.1
v 5.9 0.8 -0.3
v 5.9 0.9 -0.3
v 6 0.8 -0.3
v 6 0.9 -0.3
v 6 0.8 -0.4
v 6 0.9 -0.4
v 6.1 0.8 -0.4
v 6.1 0.9 -0.4
v 6.1 0.8 -0.5
v 6.1 0.9 -0.5
v 6.2 0.8 -0.5
v 6.2 0.9 -0.5
v 6.8 0.8 -0.5
v 6.8 0.9 -0.5
v 6.9 0.8 -0.5
v 6.9 0.9 -0.5
v 6.3 0.8 -0.6
v 6.3 0.9 -0.6
v 6.4 0.8 -0.6
v 6.4 0.9 -0.6
v 6.5 0.8 -0.6
v 6.5 0.9 -0.6
v 6.8 0.8 -0.6
v 6.8 0.9 -0.6
v 6.4 0.8 0.6
v 6.4 0.9 0.6
v 6.6 0.8 0.6
v 6.6 0.9 0.6
v 6.7 0.8 0.6
v 6.7 0.9 0.6
v 6.8 0.8 0.6
v 6.8 0.9 0.6
v 6.1 0.8 0.5
v 6.1 0.9 0.5
v 6.2 0.8 0.5
v 6.2 0.9 0.5
v 6.8 0.8 0.5
v 6.8 0.9 0.5
v 6.9 0.8 0.5
v 6.9 0.9 0.5
v 6 0.8 0.4
v 6 0.9 0.4
v 6.1 0.8 0.4
v 6.1 0.9 0.4
v 5.9 0.8 0.3
v 5.9 0.9 0.3
v 6 0.8 0.3
v 6 0.9 0.3
v 7 0.8 0.3
v 7 0.9 0.3
v 7.1 0.8 0.3
v 7.1 0.9 0.3
v 5.8 0.8 0.1
v 5.8 0.9 0.1
v 5.9 0.8 0.1
v 5.9 0.9 0.1
v 7.1 0.8 0
v 7.1 0.9 0
v 7.2 0.8 0
v 7.2 0.9 0
v 5.8 0.8 -0.3
v 5.8 0.9 -0.3
v 5.9 0.8 -0.3
v 5.9 0.9 -0.3
v 7.1 0.8 -0.3
v 7.1 0.9 -0.3
v 7.2 0.8 -0.3
v 7.2 0.9 -0.3
v 5.9 0.8 -0.4
v 5.9 0.9 -0.4
v 6 0.8 -0.4
v 6 0.9 -0.4
v 6 0.8 -0.5
v 6 0.9 -0.5
v 6.1 0.8 -0.5
v 6.1 0.9 -0.5
v 6.1 0.8 -0.6
v 6.1 0.9 -0.6
v 6.2 0.8 -0.6
v 6.2 0.9 -0.6
v 6.8 0.8 -0.6
v 6.8 0.9 -0.6
v 6.9 0.8 -0.6
v 6.9 0.9 -0.6
v 6.3 0.8 -0.7
v 6.3 0.9 -0.7
v 6.4 0.8 -0.7
v 6.4 0.9 -0.7
v 6.5 0.8 -0.7
v 6.5 0.9 -0.7
v 6.8 0.8 -0.7
v 6.8 0.9 -0.7
v 6.4 0.8 0.7
v 6.6 0.8 0.7
v 6.7 0.8 0.7
v 6.8 0.8 0.7
v 6.1 0.8 0.6
v 6.2 0.8 0.6
v 6.4 0.8 0.6
v 6.6 0.8 0.6
v 6.7 0.8 0.6
v 6.8 0.8 0.6
v 6.9 0.8 0.6
v 6 0.8 0.5
v 6.1 0.8 0.5
v 6.2 0.8 0.5
v 6.8 0.8 0.5
v 6.9 0.8 0.5
v 5.9 0.8 0.4
v 6 0.8 0.4
v 6.1 0.8 0.4
v 7 0.8 0.4
v 7.1 0.8 0.4
v 5.9 0.8 0.3
v 6 0.8 0.3
v 7 0.8 0.3
v 7.1 0.8 0.3
v 5.8 0.8 0.2
v 5.9 0.8 0.2
v 5.8 0.8 0.1
v 5.9 0.8 0.1
v 7.1 0.8 0.1
v 7.2 0.8 0.1
v 7.1 0.8 0
v 7.2 0.8 0
v 5.8 0.8 -0.1
v 5.9 0.8 -0.1
v 7.1 0.8 -0.1
v 7.2 0.8 -0.1
v 7.1 0.8 -0.2
v 7.2 0.8 -0.2
v 5.8 0.8 -0.3
v 5.9 0.8 -0.3
v 6 0.8 -0.3
v 7.1 0.8 -0.3
v 7.2 0.8 -0.3
v 5.9 0.8 -0.4
v 6 0.8 -0.4
v 6.1 0.8 -0.4
v 6 0.8 -0.5
v 6.1 0.8 -0.5
v 6.2 0.8 -0.5
v 6.8 0.8 -0.5
v 6.9 0.8 -0.5
v 6.1 0.8 -0.6
v 6.2 0.8 -0.6
v 6.3 0.8 -0.6
v 6.4 0.8 -0.6
v 6.5 0.8 -0.6
v 6.8 0.8 -0.6
v 6.9 0.8 -0.6
v 6.3 0.8 -0.7
v 6.4 0.8 -0.7
v 6.5 0.8 -0.7
v 6.8 0.8 -0.7
v 6.4 0.9 0.7
v 6.6 0.9 0.7
v 6.7 0.9 0.7
v 6.8 0.9 0.7
v 6.1 0.9 0.6
v 6.2 0.9 0.6
v 6.4 0.9 0.6
v 6.6 0.9 0.6
v 6.7 0.9 0.6
v 6.8 0.9 0.6
v 6.9 0.9 0.6
v 6 0.9 0.5
v 6.1 0.9 0.5
v 6.2 0.9 0.5
v 6.8 0.9 0.5
v 6.9 0.9 0.5
v 5.9 0.9 0.4
v 6 0.9 0.4
v 6.1 0.9 0.4
v 7 0.9 0.4
v 7.1 0.9 0.4
v 5.9 0.9 0.3
v 6 0.9 0.3
v 7 0.9 0.3
v 7.1 0.9 0.3
v 5.8 0.9 0.2
v 5.9 0.9 0.2
v 5.8 0.9 0.1
v 5.9 0.9 0.1
v 7.1 0.9 0.1
v 7.2 0.9 0.1
v 7.1 0.9 0
v 7.2 0.9 0
v 5.8 0.9 -0.1
v 5.9 0.9 -0.1
v 7.1 0.9 -0.1
v 7.2 0.9 -0.1
v 7.1 0.9 -0.2
v 7.2 0.9 -0.2
v 5.8 0.9 -0.3
v 5.9 0.9 -0.3
v 6 0.9 -0.3
v 7.1 0.9 -0.3
v 7.2 0.9 -0.3
v 5.9 0.9 -0.4
v 6 0.9 -0.4
v 6.1 0.9 -0.4
v 6 0.9 -0.5
v 6.1 0.9 -0.5
v 6.2 0.9 -0.5
v 6.8 0.9 -0.5
v 6.9 0.9 -0.5
v 6.1 0.9 -0.6
v 6.2 0.9 -0.6
v 6.3 0.9 -0.6
v 6.4 0.9 -0.6
v 6.5 0.9 -0.6
v 6.8 0.9 -0.6
v 6.9 0.9 -0.6
v 6.3 0.9 -0.7
v 6.4 0.9 -0.7
v 6.5 0.9 -0.7
v 6.8 0.9 -0.7

# faces
f 5/1/1 2/1/1 1/1/1
f 6/1/1 2/1/1 5/1/1
f 7/2/1 4/2/1 3/2/1
f 8/2/1 4/2/1 7/2/1
f 13/2/1 10/2/1 9/2/1
f 14/2/1 10/2/1 13/2/1
f 15/1/1 12/1/1 11/1/1
f 16/1/1 12/1/1 15/1/1
f 21/1/1 18/1/1 17/1/1
f 22/1/1 18/1/1 21/1/1
f 23/2/1 20/2/1 19/2/1
f 24/2/1 20/2/1 23/2/1
f 29/1/1 26/1/1 25/1/1
f 30/1/1 26/1/1 29/1/1
f 31/2/1 28/2/1 27/2/1
f 32/2/1 28/2/1 31/2/1
f 35/2/1 34/2/1 33/2/1
f 36/2/1 34/2/1 35/2/1
f 39/1/1 38/1/1 37/1/1
f 40/1/1 38/1/1 39/1/1
f 43/1/1 42/1/1 41/1/1
f 44/1/1 42/1/1 43/1/1
f 49/1/1 46/1/1 45/1/1
f 50/1/1 46/1/1 49/1/1
f 51/1/1 48/1/1 47/1/1
f 52/1/1 48/1/1 51/1/1
f 55/2/1 54/2/1 53/2/1
f 56/2/1 54/2/1 55/2/1
f 62/1/1 58/1/1 57/1/1
f 63/1/1 58/1/1 62/1/1
f 64/2/1 60/2/1 59/2/1
f 65/1/1 61/1/1 60/1/1
f 65/2/1 60/2/1 64/2/1
f 66/1/1 61/1/1 65/1/1
f 67/1/2 68/1/2 71/1/2
f 71/1/2 68/1/2 72/1/2
f 69/2/2 70/2/2 73/2/2
f 73/2/2 70/2/2 74/2/2
f 75/2/2 76/2/2 79/2/2
f 79/2/2 76/2/2 80/2/2
f 77/1/2 78/1/2 81/1/2
f 81/1/2 78/1/2 82/1/2
f 83/1/2 84/1/2 87/1/2
f 87/1/2 84/1/2 88/1/2
f 85/2/2 86/2/2 89/2/2
f 89/2/2 86/2/2 90/2/2
f 91/1/2 92/1/2 95/1/2
f 95/1/2 92/1/2 96/1/2
f 93/2/2 94/2/2 97/2/2
f 97/2/2 94/2/2 98/2/2
f 99/2/2 100/2/2 101/2/2
f 101/2/2 100/2/2 102/2/2
f 103/1/2 104/1/2 107/1/2
f 107/1/2 104/1/2 108/1/2
f 105/1/2 106/1/2 109/1/2
f 109/1/2 106/1/2 110/1/2
f 111/1/2 112/1/2 115/1/2
f 115/1/2 112/1/2 116/1/2
f 113/1/2 114/1/2 117/1/2
f 117/1/2 114/1/2 118/1/2
f 119/2/2 120/2/2 121/2/2
f 121/2/2 120/2/2 122/2/2
f 123/1/2 124/1/2 128/1/2
f 128/1/2 124/1/2 129/1/2
f 125/2/2 126/2/2 130/2/2
f 126/1/2 127/1/2 131/1/2
f 130/2/2 126/2/2 131/2/2
f 131/1/2 127/1/2 132/1/2
f 135/1/3 134/1/3 133/1/3
f 136/1/3 134/1/3 135/1/3
f 137/2/3 136/2/3 135/2/3
f 138/2/3 136/2/3 137/2/3
f 139/1/3 138/1/3 137/1/3
f 140/1/3 138/1/3 139/1/3
f 143/1/3 142/1/3 141/1/3
f 144/1/3 142/1/3 143/1/3
f 147/1/3 146/1/3 145/1/3
f 148/1/3 146/1/3 147/1/3
f 151/1/3 150/1/3 149/1/3
f 152/1/3 150/1/3 151/1/3
f 155/2/3 154/2/3 153/2/3
f 156/2/3 154/2/3 155/2/3
f 159/2/3 158/2/3 157/2/3
f 160/2/3 158/2/3 159/2/3
f 163/1/3 162/1/3 161/1/3
f 164/1/3 162/1/3 163/1/3
f 167/1/3 166/1/3 165/1/3
f 168/1/3 166/1/3 167/1/3
f 171/2/3 170/2/3 169/2/3
f 172/2/3 170/2/3 171/2/3
f 175/2/3 174/2/3 173/2/3
f 176/2/3 174/2/3 175/2/3
f 179/1/3 178/1/3 177/1/3
f 180/1/3 178/1/3 179/1/3
f 183/2/3 182/2/3 181/2/3
f 184/2/3 182/2/3 183/2/3
f 187/2/3 186/2/3 185/2/3
f 188/2/3 186/2/3 187/2/3
f 191/1/3 190/1/3 189/1/3
f 192/1/3 190/1/3 191/1/3
f 195/2/3 194/2/3 193/2/3
f 196/2/3 194/2/3 195/2/3
f 199/1/3 198/1/3 197/1/3
f 200/1/3 198/1/3 199/1/3
f 201/1/4 202/1/4 203/1/4
f 203/1/4 202/1/4 204/1/4
f 203/2/4 204/2/4 205/2/4
f 205/2/4 204/2/4 206/2/4
f 205/1/4 206/1/4 207/1/4
f 207/1/4 206/1/4 208/1/4
f 209/1/4 210/1/4 211/1/4
f 211/1/4 210/1/4 212/1/4
f 213/1/4 214/1/4 215/1/4
f 215/1/4 214/1/4 216/1/4
f 217/1/4 218/1/4 219/1/4
f 219/1/4 218/1/4 220/1/4
f 221/2/4 222/2/4 223/2/4
f 223/2/4 222/2/4 224/2/4
f 225/2/4 226/2/4 227/2/4
f 227/2/4 226/2/4 228/2/4
f 229/1/4 230/1/4 231/1/4
f 231/1/4 230/1/4 232/1/4
f 233/1/4 234/1/4 235/1/4
f 235/1/4 234/1/4 236/1/4
f 237/2/4 238/2/4 239/2/4
f 239/2/4 238/2/4 240/2/4
f 241/1/4 242/1/4 243/1/4
f 243/1/4 242/1/4 244/1/4
f 245/1/4 246/1/4 247/1/4
f 247/1/4 246/1/4 248/1/4
f 249/2/4 250/2/4 251/2/4
f 251/2/4 250/2/4 252/2/4
f 253/2/4 254/2/4 255/2/4
f 255/2/4 254/2/4 256/2/4
f 257/1/4 258/1/4 259/1/4
f 259/1/4 258/1/4 260/1/4
f 261/2/4 262/2/4 263/2/4
f 263/2/4 262/2/4 264/2/4
f 265/1/4 266/1/4 267/1/4
f 267/1/4 266/1/4 268/1/4
f 275/1/5 270/1/5 269/1/5
f 276/2/5 271/2/5 270/2/5
f 276/1/5 270/1/5 275/1/5
f 277/1/5 272/1/5 271/1/5
f 277/2/5 271/2/5 276/2/5
f 278/1/5 272/1/5 277/1/5
f 281/1/5 274/1/5 273/1/5
f 282/1/5 274/1/5 281/1/5
f 283/1/5 279/1/5 278/1/5
f 284/1/5 279/1/5 283/1/5
f 286/1/5 281/1/5 280/1/5
f 287/1/5 281/1/5 286/1/5
f 290/2/5 286/2/5 285/2/5
f 291/2/5 286/2/5 290/2/5
f 292/2/5 289/2/5 288/2/5
f 293/2/5 289/2/5 292/2/5
f 296/1/5 295/1/5 294/1/5
f 297/1/5 295/1/5 296/1/5
f 300/1/5 299/1/5 298/1/5
f 301/1/5 299/1/5 300/1/5
f 306/2/5 305/2/5 304/2/5
f 307/2/5 305/2/5 306/2/5
f 308/2/5 303/2/5 302/2/5
f 309/2/5 303/2/5 308/2/5
f 311/1/5 307/1/5 306/1/5
f 312/1/5 307/1/5 311/1/5
f 313/1/5 310/1/5 309/1/5
f 314/1/5 310/1/5 313/1/5
f 316/2/5 315/2/5 314/2/5
f 317/2/5 315/2/5 316/2/5
f 321/2/5 318/2/5 317/2/5
f 322/2/5 318/2/5 321/2/5
f 326/1/5 320/1/5 319/1/5
f 327/1/5 320/1/5 326/1/5
f 328/2/5 324/2/5 323/2/5
f 329/2/5 324/2/5 328/2/5
f 330/1/5 326/1/5 325/1/5
f 331/1/5 326/1/5 330/1/5
f 332/1/6 333/1/6 338/1/6
f 333/2/6 334/2/6 339/2/6
f 338/1/6 333/1/6 339/1/6
f 334/1/6 335/1/6 340/1/6
f 339/2/6 334/2/6 340/2/6
f 340/1/6 335/1/6 341/1/6
f 336/1/6 337/1/6 344/1/6
f 344/1/6 337/1/6 345/1/6
f 341/1/6 342/1/6 346/1/6
f 346/1/6 342/1/6 347/1/6
f 343/1/6 344/1/6 349/1/6
f 349/1/6 344/1/6 350/1/6
f 348/2/6 349/2/6 353/2/6
f 353/2/6 349/2/6 354/2/6
f 351/2/6 352/2/6 355/2/6
f 355/2/6 352/2/6 356/2/6
f 357/1/6 358/1/6 359/1/6
f 359/1/6 358/1/6 360/1/6
f 361/1/6 362/1/6 363/1/6
f 363/1/6 362/1/6 364/1/6
f 367/2/6 368/2/6 369/2/6
f 369/2/6 368/2/6 370/2/6
f 365/2/6 366/2/6 371/2/6
f 371/2/6 366/2/6 372/2/6
f 369/1/6 370/1/6 374/1/6
f 374/1/6 370/1/6 375/1/6
f 372/1/6 373/1/6 376/1/6
f 376/1/6 373/1/6 377/1/6
f 377/2/6 378/2/6 379/2/6
f 379/2/6 378/2/6 380/2/6
f 380/2/6 381/2/6 384/2/6
f 384/2/6 381/2/6 385/2/6
f 382/1/6 383/1/6 389/1/6
f 389/1/6 383/1/6 390/1/6
f 386/2/6 387/2/6 391/2/6
f 391/2/6 387/2/6 392/2/6
f 388/1/6 389/1/6 393/1/6
f 393/1/6 389/1/6 394/1/6
