# MagicaVoxel @ Ephtracy

# group
o 

# material
mtllib saturno-10.mtl
usemtl palette

# normals
vn -1 0 0
vn 1 0 0
vn 0 0 1
vn 0 0 -1
vn 0 -1 0
vn 0 1 0

# texcoords
vt 0.0175781 0.5
vt 0.0253906 0.5

# verts
v -6.5 0.7 0.3
v -6.5 0.7 0
v -6.5 0.8 0.3
v -6.5 0.8 0
v -6.4 0.7 0.5
v -6.4 0.7 0.4
v -6.4 0.7 -0.3
v -6.4 0.7 -0.4
v -6.4 0.8 0.5
v -6.4 0.8 0.4
v -6.4 0.8 -0.3
v -6.4 0.8 -0.4
v -6.3 0.7 0.6
v -6.3 0.7 0.5
v -6.3 0.7 -0.5
v -6.3 0.7 -0.6
v -6.3 0.8 0.6
v -6.3 0.8 0.5
v -6.3 0.8 -0.5
v -6.3 0.8 -0.6
v -6.2 0.7 0.7
v -6.2 0.7 0.6
v -6.2 0.8 0.7
v -6.2 0.8 0.6
v -6.1 0.7 -0.6
v -6.1 0.7 -0.7
v -6.1 0.8 -0.6
v -6.1 0.8 -0.7
v -6 0.7 0.8
v -6 0.7 0.7
v -6 0.8 0.8
v -6 0.8 0.7
v -5.7 0.6 0.8
v -5.7 0.6 0.7
v -5.7 0.7 0.8
v -5.7 0.7 0.7
v -5.5 0.6 -0.7
v -5.5 0.6 -0.8
v -5.5 0.7 -0.7
v -5.5 0.7 -0.8
v -5.4 0.6 0.7
v -5.4 0.6 0.6
v -5.4 0.6 -0.6
v -5.4 0.6 -0.7
v -5.4 0.7 0.7
v -5.4 0.7 0.6
v -5.4 0.7 -0.6
v -5.4 0.7 -0.7
v -5.2 0.6 0.6
v -5.2 0.6 0.5
v -5.2 0.7 0.6
v -5.2 0.7 0.5
v -5.1 0.6 0.5
v -5.1 0.6 0.4
v -5.1 0.6 -0.3
v -5.1 0.6 -0.4
v -5.1 0.6 -0.5
v -5.1 0.7 0.5
v -5.1 0.7 0.4
v -5.1 0.7 -0.3
v -5.1 0.7 -0.4
v -5.1 0.7 -0.5
v -5 0.6 0.3
v -5 0.6 0.2
v -5 0.6 0.1
v -5 0.6 0
v -5 0.6 -0.1
v -5 0.6 -0.3
v -5 0.7 0.3
v -5 0.7 0.2
v -5 0.7 0.1
v -5 0.7 0
v -5 0.7 -0.1
v -5 0.7 -0.3
v -6.4 0.7 0.3
v -6.4 0.7 0
v -6.4 0.8 0.3
v -6.4 0.8 0
v -6.3 0.7 0.5
v -6.3 0.7 0.4
v -6.3 0.7 -0.3
v -6.3 0.7 -0.4
v -6.3 0.8 0.5
v -6.3 0.8 0.4
v -6.3 0.8 -0.3
v -6.3 0.8 -0.4
v -6.2 0.7 0.6
v -6.2 0.7 0.5
v -6.2 0.7 -0.5
v -6.2 0.7 -0.6
v -6.2 0.8 0.6
v -6.2 0.8 0.5
v -6.2 0.8 -0.5
v -6.2 0.8 -0.6
v -6.1 0.7 0.7
v -6.1 0.7 0.6
v -6.1 0.8 0.7
v -6.1 0.8 0.6
v -6 0.7 -0.6
v -6 0.7 -0.7
v -6 0.8 -0.6
v -6 0.8 -0.7
v -5.8 0.7 0.8
v -5.8 0.7 0.7
v -5.8 0.8 0.8
v -5.8 0.8 0.7
v -5.5 0.6 0.8
v -5.5 0.6 0.7
v -5.5 0.7 0.8
v -5.5 0.7 0.7
v -5.4 0.6 -0.7
v -5.4 0.6 -0.8
v -5.4 0.7 -0.7
v -5.4 0.7 -0.8
v -5.3 0.6 0.7
v -5.3 0.6 0.6
v -5.3 0.7 0.7
v -5.3 0.7 0.6
v -5.2 0.6 -0.6
v -5.2 0.6 -0.7
v -5.2 0.7 -0.6
v -5.2 0.7 -0.7
v -5.1 0.6 0.6
v -5.1 0.6 0.5
v -5.1 0.7 0.6
v -5.1 0.7 0.5
v -5 0.6 0.5
v -5 0.6 0.4
v -5 0.6 -0.3
v -5 0.6 -0.4
v -5 0.6 -0.5
v -5 0.7 0.5
v -5 0.7 0.4
v -5 0.7 -0.3
v -5 0.7 -0.4
v -5 0.7 -0.5
v -4.9 0.6 0.3
v -4.9 0.6 0.2
v -4.9 0.6 0.1
v -4.9 0.6 0
v -4.9 0.6 -0.1
v -4.9 0.6 -0.3
v -4.9 0.7 0.3
v -4.9 0.7 0.2
v -4.9 0.7 0.1
v -4.9 0.7 0
v -4.9 0.7 -0.1
v -4.9 0.7 -0.3
v -6 0.7 0.8
v -6 0.8 0.8
v -5.9 0.7 0.8
v -5.9 0.8 0.8
v -5.8 0.7 0.8
v -5.8 0.8 0.8
v -5.7 0.6 0.8
v -5.7 0.7 0.8
v -5.6 0.6 0.8
v -5.6 0.7 0.8
v -5.5 0.6 0.8
v -5.5 0.7 0.8
v -6.2 0.7 0.7
v -6.2 0.8 0.7
v -6.1 0.7 0.7
v -6.1 0.8 0.7
v -5.4 0.6 0.7
v -5.4 0.7 0.7
v -5.3 0.6 0.7
v -5.3 0.7 0.7
v -6.3 0.7 0.6
v -6.3 0.8 0.6
v -6.2 0.7 0.6
v -6.2 0.8 0.6
v -5.2 0.6 0.6
v -5.2 0.7 0.6
v -5.1 0.6 0.6
v -5.1 0.7 0.6
v -6.4 0.7 0.5
v -6.4 0.8 0.5
v -6.3 0.7 0.5
v -6.3 0.8 0.5
v -5.1 0.6 0.5
v -5.1 0.7 0.5
v -5 0.6 0.5
v -5 0.7 0.5
v -6.5 0.7 0.3
v -6.5 0.8 0.3
v -6.4 0.7 0.3
v -6.4 0.8 0.3
v -5 0.6 0.3
v -5 0.7 0.3
v -4.9 0.6 0.3
v -4.9 0.7 0.3
v -6.4 0.7 -0.3
v -6.4 0.8 -0.3
v -6.3 0.7 -0.3
v -6.3 0.8 -0.3
v -5.1 0.6 -0.3
v -5.1 0.7 -0.3
v -5 0.6 -0.3
v -5 0.7 -0.3
v -6.3 0.7 -0.5
v -6.3 0.8 -0.5
v -6.2 0.7 -0.5
v -6.2 0.8 -0.5
v -6.1 0.7 -0.6
v -6.1 0.8 -0.6
v -6 0.7 -0.6
v -6 0.8 -0.6
v -5.4 0.6 -0.6
v -5.4 0.7 -0.6
v -5.2 0.6 -0.6
v -5.2 0.7 -0.6
v -5.5 0.6 -0.7
v -5.5 0.7 -0.7
v -5.4 0.6 -0.7
v -5.4 0.7 -0.7
v -6 0.7 0.7
v -6 0.8 0.7
v -5.9 0.7 0.7
v -5.9 0.8 0.7
v -5.8 0.7 0.7
v -5.8 0.8 0.7
v -5.7 0.6 0.7
v -5.7 0.7 0.7
v -5.6 0.6 0.7
v -5.6 0.7 0.7
v -5.5 0.6 0.7
v -5.5 0.7 0.7
v -6.2 0.7 0.6
v -6.2 0.8 0.6
v -6.1 0.7 0.6
v -6.1 0.8 0.6
v -5.4 0.6 0.6
v -5.4 0.7 0.6
v -5.3 0.6 0.6
v -5.3 0.7 0.6
v -6.3 0.7 0.5
v -6.3 0.8 0.5
v -6.2 0.7 0.5
v -6.2 0.8 0.5
v -5.2 0.6 0.5
v -5.2 0.7 0.5
v -5.1 0.6 0.5
v -5.1 0.7 0.5
v -6.4 0.7 0.4
v -6.4 0.8 0.4
v -6.3 0.7 0.4
v -6.3 0.8 0.4
v -5.1 0.6 0.4
v -5.1 0.7 0.4
v -5 0.6 0.4
v -5 0.7 0.4
v -6.5 0.7 0
v -6.5 0.8 0
v -6.4 0.7 0
v -6.4 0.8 0
v -5 0.6 -0.3
v -5 0.7 -0.3
v -4.9 0.6 -0.3
v -4.9 0.7 -0.3
v -6.4 0.7 -0.4
v -6.4 0.8 -0.4
v -6.3 0.7 -0.4
v -6.3 0.8 -0.4
v -5.1 0.6 -0.5
v -5.1 0.7 -0.5
v -5 0.6 -0.5
v -5 0.7 -0.5
v -6.3 0.7 -0.6
v -6.3 0.8 -0.6
v -6.2 0.7 -0.6
v -6.2 0.8 -0.6
v -6.1 0.7 -0.7
v -6.1 0.8 -0.7
v -6 0.7 -0.7
v -6 0.8 -0.7
v -5.4 0.6 -0.7
v -5.4 0.7 -0.7
v -5.2 0.6 -0.7
v -5.2 0.7 -0.7
v -5.5 0.6 -0.8
v -5.5 0.7 -0.8
v -5.4 0.6 -0.8
v -5.4 0.7 -0.8
v -5.7 0.6 0.8
v -5.6 0.6 0.8
v -5.5 0.6 0.8
v -5.7 0.6 0.7
v -5.6 0.6 0.7
v -5.5 0.6 0.7
v -5.4 0.6 0.7
v -5.3 0.6 0.7
v -5.4 0.6 0.6
v -5.3 0.6 0.6
v -5.2 0.6 0.6
v -5.1 0.6 0.6
v -5.2 0.6 0.5
v -5.1 0.6 0.5
v -5 0.6 0.5
v -5.1 0.6 0.4
v -5 0.6 0.4
v -5 0.6 0.3
v -4.9 0.6 0.3
v -5 0.6 0.2
v -4.9 0.6 0.2
v -5 0.6 0.1
v -4.9 0.6 0.1
v -5 0.6 0
v -4.9 0.6 0
v -5 0.6 -0.1
v -4.9 0.6 -0.1
v -5.1 0.6 -0.3
v -5 0.6 -0.3
v -4.9 0.6 -0.3
v -5.1 0.6 -0.4
v -5 0.6 -0.4
v -5.1 0.6 -0.5
v -5 0.6 -0.5
v -5.4 0.6 -0.6
v -5.2 0.6 -0.6
v -5.5 0.6 -0.7
v -5.4 0.6 -0.7
v -5.2 0.6 -0.7
v -5.5 0.6 -0.8
v -5.4 0.6 -0.8
v -6 0.7 0.8
v -5.9 0.7 0.8
v -5.8 0.7 0.8
v -6.2 0.7 0.7
v -6.1 0.7 0.7
v -6 0.7 0.7
v -5.9 0.7 0.7
v -5.8 0.7 0.7
v -6.3 0.7 0.6
v -6.2 0.7 0.6
v -6.1 0.7 0.6
v -6.4 0.7 0.5
v -6.3 0.7 0.5
v -6.2 0.7 0.5
v -6.4 0.7 0.4
v -6.3 0.7 0.4
v -6.5 0.7 0.3
v -6.4 0.7 0.3
v -6.5 0.7 0
v -6.4 0.7 0
v -6.4 0.7 -0.3
v -6.3 0.7 -0.3
v -6.4 0.7 -0.4
v -6.3 0.7 -0.4
v -6.3 0.7 -0.5
v -6.2 0.7 -0.5
v -6.3 0.7 -0.6
v -6.2 0.7 -0.6
v -6.1 0.7 -0.6
v -6 0.7 -0.6
v -6.1 0.7 -0.7
v -6 0.7 -0.7
v -5.7 0.7 0.8
v -5.6 0.7 0.8
v -5.5 0.7 0.8
v -5.7 0.7 0.7
v -5.6 0.7 0.7
v -5.5 0.7 0.7
v -5.4 0.7 0.7
v -5.3 0.7 0.7
v -5.4 0.7 0.6
v -5.3 0.7 0.6
v -5.2 0.7 0.6
v -5.1 0.7 0.6
v -5.2 0.7 0.5
v -5.1 0.7 0.5
v -5 0.7 0.5
v -5.1 0.7 0.4
v -5 0.7 0.4
v -5 0.7 0.3
v -4.9 0.7 0.3
v -5 0.7 0.2
v -4.9 0.7 0.2
v -5 0.7 0.1
v -4.9 0.7 0.1
v -5 0.7 0
v -4.9 0.7 0
v -5 0.7 -0.1
v -4.9 0.7 -0.1
v -5.1 0.7 -0.3
v -5 0.7 -0.3
v -4.9 0.7 -0.3
v -5.1 0.7 -0.4
v -5 0.7 -0.4
v -5.1 0.7 -0.5
v -5 0.7 -0.5
v -5.4 0.7 -0.6
v -5.2 0.7 -0.6
v -5.5 0.7 -0.7
v -5.4 0.7 -0.7
v -5.2 0.7 -0.7
v -5.5 0.7 -0.8
v -5.4 0.7 -0.8
v -6 0.8 0.8
v -5.9 0.8 0.8
v -5.8 0.8 0.8
v -6.2 0.8 0.7
v -6.1 0.8 0.7
v -6 0.8 0.7
v -5.9 0.8 0.7
v -5.8 0.8 0.7
v -6.3 0.8 0.6
v -6.2 0.8 0.6
v -6.1 0.8 0.6
v -6.4 0.8 0.5
v -6.3 0.8 0.5
v -6.2 0.8 0.5
v -6.4 0.8 0.4
v -6.3 0.8 0.4
v -6.5 0.8 0.3
v -6.4 0.8 0.3
v -6.5 0.8 0
v -6.4 0.8 0
v -6.4 0.8 -0.3
v -6.3 0.8 -0.3
v -6.4 0.8 -0.4
v -6.3 0.8 -0.4
v -6.3 0.8 -0.5
v -6.2 0.8 -0.5
v -6.3 0.8 -0.6
v -6.2 0.8 -0.6
v -6.1 0.8 -0.6
v -6 0.8 -0.6
v -6.1 0.8 -0.7
v -6 0.8 -0.7

# faces
f 3/1/1 2/1/1 1/1/1
f 4/1/1 2/1/1 3/1/1
f 9/1/1 6/1/1 5/1/1
f 10/1/1 6/1/1 9/1/1
f 11/2/1 8/2/1 7/2/1
f 12/2/1 8/2/1 11/2/1
f 17/1/1 14/1/1 13/1/1
f 18/1/1 14/1/1 17/1/1
f 19/1/1 16/1/1 15/1/1
f 20/1/1 16/1/1 19/1/1
f 23/1/1 22/1/1 21/1/1
f 24/1/1 22/1/1 23/1/1
f 27/2/1 26/2/1 25/2/1
f 28/2/1 26/2/1 27/2/1
f 31/1/1 30/1/1 29/1/1
f 32/1/1 30/1/1 31/1/1
f 35/1/1 34/1/1 33/1/1
f 36/1/1 34/1/1 35/1/1
f 39/2/1 38/2/1 37/2/1
f 40/2/1 38/2/1 39/2/1
f 45/1/1 42/1/1 41/1/1
f 46/1/1 42/1/1 45/1/1
f 47/1/1 44/1/1 43/1/1
f 48/1/1 44/1/1 47/1/1
f 51/1/1 50/1/1 49/1/1
f 52/1/1 50/1/1 51/1/1
f 58/1/1 54/1/1 53/1/1
f 59/1/1 54/1/1 58/1/1
f 60/2/1 56/2/1 55/2/1
f 61/1/1 57/1/1 56/1/1
f 61/2/1 56/2/1 60/2/1
f 62/1/1 57/1/1 61/1/1
f 69/1/1 64/1/1 63/1/1
f 70/2/1 65/2/1 64/2/1
f 70/1/1 64/1/1 69/1/1
f 71/1/1 66/1/1 65/1/1
f 71/2/1 65/2/1 70/2/1
f 72/2/1 67/2/1 66/2/1
f 72/1/1 66/1/1 71/1/1
f 73/1/1 68/1/1 67/1/1
f 73/2/1 67/2/1 72/2/1
f 74/1/1 68/1/1 73/1/1
f 75/1/2 76/1/2 77/1/2
f 77/1/2 76/1/2 78/1/2
f 79/1/2 80/1/2 83/1/2
f 83/1/2 80/1/2 84/1/2
f 81/2/2 82/2/2 85/2/2
f 85/2/2 82/2/2 86/2/2
f 87/1/2 88/1/2 91/1/2
f 91/1/2 88/1/2 92/1/2
f 89/1/2 90/1/2 93/1/2
f 93/1/2 90/1/2 94/1/2
f 95/1/2 96/1/2 97/1/2
f 97/1/2 96/1/2 98/1/2
f 99/2/2 100/2/2 101/2/2
f 101/2/2 100/2/2 102/2/2
f 103/2/2 104/2/2 105/2/2
f 105/2/2 104/2/2 106/2/2
f 107/2/2 108/2/2 109/2/2
f 109/2/2 108/2/2 110/2/2
f 111/2/2 112/2/2 113/2/2
f 113/2/2 112/2/2 114/2/2
f 115/1/2 116/1/2 117/1/2
f 117/1/2 116/1/2 118/1/2
f 119/1/2 120/1/2 121/1/2
f 121/1/2 120/1/2 122/1/2
f 123/1/2 124/1/2 125/1/2
f 125/1/2 124/1/2 126/1/2
f 127/1/2 128/1/2 132/1/2
f 132/1/2 128/1/2 133/1/2
f 129/2/2 130/2/2 134/2/2
f 130/1/2 131/1/2 135/1/2
f 134/2/2 130/2/2 135/2/2
f 135/1/2 131/1/2 136/1/2
f 137/1/2 138/1/2 143/1/2
f 138/2/2 139/2/2 144/2/2
f 143/1/2 138/1/2 144/1/2
f 139/1/2 140/1/2 145/1/2
f 144/2/2 139/2/2 145/2/2
f 140/2/2 141/2/2 146/2/2
f 145/1/2 140/1/2 146/1/2
f 141/1/2 142/1/2 147/1/2
f 146/2/2 141/2/2 147/2/2
f 147/1/2 142/1/2 148/1/2
f 151/1/3 150/1/3 149/1/3
f 152/1/3 150/1/3 151/1/3
f 153/2/3 152/2/3 151/2/3
f 154/2/3 152/2/3 153/2/3
f 157/1/3 156/1/3 155/1/3
f 158/1/3 156/1/3 157/1/3
f 159/2/3 158/2/3 157/2/3
f 160/2/3 158/2/3 159/2/3
f 163/1/3 162/1/3 161/1/3
f 164/1/3 162/1/3 163/1/3
f 167/1/3 166/1/3 165/1/3
f 168/1/3 166/1/3 167/1/3
f 171/1/3 170/1/3 169/1/3
f 172/1/3 170/1/3 171/1/3
f 175/1/3 174/1/3 173/1/3
f 176/1/3 174/1/3 175/1/3
f 179/1/3 178/1/3 177/1/3
f 180/1/3 178/1/3 179/1/3
f 183/1/3 182/1/3 181/1/3
f 184/1/3 182/1/3 183/1/3
f 187/1/3 186/1/3 185/1/3
f 188/1/3 186/1/3 187/1/3
f 191/1/3 190/1/3 189/1/3
f 192/1/3 190/1/3 191/1/3
f 195/2/3 194/2/3 193/2/3
f 196/2/3 194/2/3 195/2/3
f 199/2/3 198/2/3 197/2/3
f 200/2/3 198/2/3 199/2/3
f 203/1/3 202/1/3 201/1/3
f 204/1/3 202/1/3 203/1/3
f 207/2/3 206/2/3 205/2/3
f 208/2/3 206/2/3 207/2/3
f 211/1/3 210/1/3 209/1/3
f 212/1/3 210/1/3 211/1/3
f 215/2/3 214/2/3 213/2/3
f 216/2/3 214/2/3 215/2/3
f 217/1/4 218/1/4 219/1/4
f 219/1/4 218/1/4 220/1/4
f 219/2/4 220/2/4 221/2/4
f 221/2/4 220/2/4 222/2/4
f 223/1/4 224/1/4 225/1/4
f 225/1/4 224/1/4 226/1/4
f 225/2/4 226/2/4 227/2/4
f 227/2/4 226/2/4 228/2/4
f 229/1/4 230/1/4 231/1/4
f 231/1/4 230/1/4 232/1/4
f 233/1/4 234/1/4 235/1/4
f 235/1/4 234/1/4 236/1/4
f 237/1/4 238/1/4 239/1/4
f 239/1/4 238/1/4 240/1/4
f 241/1/4 242/1/4 243/1/4
f 243/1/4 242/1/4 244/1/4
f 245/1/4 246/1/4 247/1/4
f 247/1/4 246/1/4 248/1/4
f 249/1/4 250/1/4 251/1/4
f 251/1/4 250/1/4 252/1/4
f 253/1/4 254/1/4 255/1/4
f 255/1/4 254/1/4 256/1/4
f 257/1/4 258/1/4 259/1/4
f 259/1/4 258/1/4 260/1/4
f 261/2/4 262/2/4 263/2/4
f 263/2/4 262/2/4 264/2/4
f 265/1/4 266/1/4 267/1/4
f 267/1/4 266/1/4 268/1/4
f 269/1/4 270/1/4 271/1/4
f 271/1/4 270/1/4 272/1/4
f 273/2/4 274/2/4 275/2/4
f 275/2/4 274/2/4 276/2/4
f 277/1/4 278/1/4 279/1/4
f 279/1/4 278/1/4 280/1/4
f 281/2/4 282/2/4 283/2/4
f 283/2/4 282/2/4 284/2/4
f 288/1/5 286/1/5 285/1/5
f 289/2/5 287/2/5 286/2/5
f 289/1/5 286/1/5 288/1/5
f 290/2/5 287/2/5 289/2/5
f 293/1/5 292/1/5 291/1/5
f 294/1/5 292/1/5 293/1/5
f 297/1/5 296/1/5 295/1/5
f 298/1/5 296/1/5 297/1/5
f 300/1/5 299/1/5 298/1/5
f 301/1/5 299/1/5 300/1/5
f 304/1/5 303/1/5 302/1/5
f 305/1/5 303/1/5 304/1/5
f 306/2/5 305/2/5 304/2/5
f 307/2/5 305/2/5 306/2/5
f 308/1/5 307/1/5 306/1/5
f 309/1/5 307/1/5 308/1/5
f 310/2/5 309/2/5 308/2/5
f 311/2/5 309/2/5 310/2/5
f 313/1/5 311/1/5 310/1/5
f 314/1/5 311/1/5 313/1/5
f 315/2/5 313/2/5 312/2/5
f 316/2/5 313/2/5 315/2/5
f 317/1/5 316/1/5 315/1/5
f 318/1/5 316/1/5 317/1/5
f 322/1/5 320/1/5 319/1/5
f 323/1/5 320/1/5 322/1/5
f 324/2/5 322/2/5 321/2/5
f 325/2/5 322/2/5 324/2/5
f 331/1/5 327/1/5 326/1/5
f 332/2/5 328/2/5 327/2/5
f 332/1/5 327/1/5 331/1/5
f 333/2/5 328/2/5 332/2/5
f 335/1/5 330/1/5 329/1/5
f 336/1/5 330/1/5 335/1/5
f 338/1/5 335/1/5 334/1/5
f 339/1/5 335/1/5 338/1/5
f 340/1/5 338/1/5 337/1/5
f 341/1/5 338/1/5 340/1/5
f 344/1/5 343/1/5 342/1/5
f 345/1/5 343/1/5 344/1/5
f 348/2/5 347/2/5 346/2/5
f 349/2/5 347/2/5 348/2/5
f 352/1/5 351/1/5 350/1/5
f 353/1/5 351/1/5 352/1/5
f 356/2/5 355/2/5 354/2/5
f 357/2/5 355/2/5 356/2/5
f 358/1/6 359/1/6 361/1/6
f 359/2/6 360/2/6 362/2/6
f 361/1/6 359/1/6 362/1/6
f 362/2/6 360/2/6 363/2/6
f 364/1/6 365/1/6 366/1/6
f 366/1/6 365/1/6 367/1/6
f 368/1/6 369/1/6 370/1/6
f 370/1/6 369/1/6 371/1/6
f 371/1/6 372/1/6 373/1/6
f 373/1/6 372/1/6 374/1/6
f 375/1/6 376/1/6 377/1/6
f 377/1/6 376/1/6 378/1/6
f 377/2/6 378/2/6 379/2/6
f 379/2/6 378/2/6 380/2/6
f 379/1/6 380/1/6 381/1/6
f 381/1/6 380/1/6 382/1/6
f 381/2/6 382/2/6 383/2/6
f 383/2/6 382/2/6 384/2/6
f 383/1/6 384/1/6 386/1/6
f 386/1/6 384/1/6 387/1/6
f 385/2/6 386/2/6 388/2/6
f 388/2/6 386/2/6 389/2/6
f 388/1/6 389/1/6 390/1/6
f 390/1/6 389/1/6 391/1/6
f 392/1/6 393/1/6 395/1/6
f 395/1/6 393/1/6 396/1/6
f 394/2/6 395/2/6 397/2/6
f 397/2/6 395/2/6 398/2/6
f 399/1/6 400/1/6 404/1/6
f 400/2/6 401/2/6 405/2/6
f 404/1/6 400/1/6 405/1/6
f 405/2/6 401/2/6 406/2/6
f 402/1/6 403/1/6 408/1/6
f 408/1/6 403/1/6 409/1/6
f 407/1/6 408/1/6 411/1/6
f 411/1/6 408/1/6 412/1/6
f 410/1/6 411/1/6 413/1/6
f 413/1/6 411/1/6 414/1/6
f 415/1/6 416/1/6 417/1/6
f 417/1/6 416/1/6 418/1/6
f 419/2/6 420/2/6 421/2/6
f 421/2/6 420/2/6 422/2/6
f 423/1/6 424/1/6 425/1/6
f 425/1/6 424/1/6 426/1/6
f 427/2/6 428/2/6 429/2/6
f 429/2/6 428/2/6 430/2/6
