# MagicaVoxel @ Ephtracy

# group
o 

# material
mtllib saturno-11.mtl
usemtl palette

# normals
vn -1 0 0
vn 1 0 0
vn 0 0 1
vn 0 0 -1
vn 0 -1 0
vn 0 1 0

# texcoords
vt 0.0449219 0.5
vt 0.0488281 0.5

# verts
v 3.8 0.9 0.2
v 3.8 0.9 0.1
v 3.8 0.9 -0.1
v 3.8 0.9 -0.3
v 3.8 1 0.2
v 3.8 1 0.1
v 3.8 1 -0.1
v 3.8 1 -0.3
v 3.9 0.9 0.4
v 3.9 0.9 0.3
v 3.9 0.9 -0.3
v 3.9 0.9 -0.4
v 3.9 1 0.4
v 3.9 1 0.3
v 3.9 1 -0.3
v 3.9 1 -0.4
v 4 0.9 0.5
v 4 0.9 0.4
v 4 0.9 -0.4
v 4 0.9 -0.5
v 4 1 0.5
v 4 1 0.4
v 4 1 -0.4
v 4 1 -0.5
v 4.1 0.9 0.6
v 4.1 0.9 0.5
v 4.1 0.9 -0.5
v 4.1 0.9 -0.6
v 4.1 1 0.6
v 4.1 1 0.5
v 4.1 1 -0.5
v 4.1 1 -0.6
v 4.3 0.9 -0.6
v 4.3 0.9 -0.7
v 4.3 1 -0.6
v 4.3 1 -0.7
v 4.4 0.9 0.7
v 4.4 0.9 0.6
v 4.4 1 0.7
v 4.4 1 0.6
v 4.5 0.8 0.7
v 4.5 0.8 0.6
v 4.5 0.9 0.7
v 4.5 0.9 0.6
v 4.5 0.9 -0.6
v 4.5 0.9 -0.7
v 4.5 1 -0.6
v 4.5 1 -0.7
v 4.6 0.8 -0.6
v 4.6 0.8 -0.7
v 4.6 0.9 -0.6
v 4.6 0.9 -0.7
v 4.8 0.8 0.6
v 4.8 0.8 0.5
v 4.8 0.8 -0.5
v 4.8 0.8 -0.6
v 4.8 0.9 0.6
v 4.8 0.9 0.5
v 4.8 0.9 -0.5
v 4.8 0.9 -0.6
v 5 0.8 0.4
v 5 0.8 0.3
v 5 0.9 0.4
v 5 0.9 0.3
v 5.1 0.8 0.1
v 5.1 0.8 0
v 5.1 0.8 -0.1
v 5.1 0.8 -0.2
v 5.1 0.8 -0.3
v 5.1 0.9 0.1
v 5.1 0.9 0
v 5.1 0.9 -0.1
v 5.1 0.9 -0.2
v 5.1 0.9 -0.3
v 3.9 0.9 0.2
v 3.9 0.9 0.1
v 3.9 0.9 -0.1
v 3.9 0.9 -0.3
v 3.9 1 0.2
v 3.9 1 0.1
v 3.9 1 -0.1
v 3.9 1 -0.3
v 4 0.9 0.4
v 4 0.9 0.3
v 4 0.9 -0.3
v 4 0.9 -0.4
v 4 1 0.4
v 4 1 0.3
v 4 1 -0.3
v 4 1 -0.4
v 4.1 0.9 0.5
v 4.1 0.9 0.4
v 4.1 0.9 -0.4
v 4.1 0.9 -0.5
v 4.1 1 0.5
v 4.1 1 0.4
v 4.1 1 -0.4
v 4.1 1 -0.5
v 4.2 0.9 0.6
v 4.2 0.9 0.5
v 4.2 0.9 -0.5
v 4.2 0.9 -0.6
v 4.2 1 0.6
v 4.2 1 0.5
v 4.2 1 -0.5
v 4.2 1 -0.6
v 4.4 0.9 -0.6
v 4.4 0.9 -0.7
v 4.4 1 -0.6
v 4.4 1 -0.7
v 4.5 0.9 0.7
v 4.5 0.9 0.6
v 4.5 1 0.7
v 4.5 1 0.6
v 4.6 0.9 -0.6
v 4.6 0.9 -0.7
v 4.6 1 -0.6
v 4.6 1 -0.7
v 4.8 0.8 0.7
v 4.8 0.8 0.6
v 4.8 0.8 -0.6
v 4.8 0.8 -0.7
v 4.8 0.9 0.7
v 4.8 0.9 0.6
v 4.8 0.9 -0.6
v 4.8 0.9 -0.7
v 4.9 0.8 0.6
v 4.9 0.8 0.5
v 4.9 0.8 -0.5
v 4.9 0.8 -0.6
v 4.9 0.9 0.6
v 4.9 0.9 0.5
v 4.9 0.9 -0.5
v 4.9 0.9 -0.6
v 5.1 0.8 0.4
v 5.1 0.8 0.3
v 5.1 0.9 0.4
v 5.1 0.9 0.3
v 5.2 0.8 0.1
v 5.2 0.8 0
v 5.2 0.8 -0.1
v 5.2 0.8 -0.2
v 5.2 0.8 -0.3
v 5.2 0.9 0.1
v 5.2 0.9 0
v 5.2 0.9 -0.1
v 5.2 0.9 -0.2
v 5.2 0.9 -0.3
v 4.4 0.9 0.7
v 4.4 1 0.7
v 4.5 0.8 0.7
v 4.5 0.9 0.7
v 4.5 1 0.7
v 4.6 0.8 0.7
v 4.6 0.9 0.7
v 4.7 0.8 0.7
v 4.7 0.9 0.7
v 4.8 0.8 0.7
v 4.8 0.9 0.7
v 4.1 0.9 0.6
v 4.1 1 0.6
v 4.2 0.9 0.6
v 4.2 1 0.6
v 4.8 0.8 0.6
v 4.8 0.9 0.6
v 4.9 0.8 0.6
v 4.9 0.9 0.6
v 4 0.9 0.5
v 4 1 0.5
v 4.1 0.9 0.5
v 4.1 1 0.5
v 3.9 0.9 0.4
v 3.9 1 0.4
v 4 0.9 0.4
v 4 1 0.4
v 5 0.8 0.4
v 5 0.9 0.4
v 5.1 0.8 0.4
v 5.1 0.9 0.4
v 3.8 0.9 0.2
v 3.8 1 0.2
v 3.9 0.9 0.2
v 3.9 1 0.2
v 5.1 0.8 0.1
v 5.1 0.9 0.1
v 5.2 0.8 0.1
v 5.2 0.9 0.1
v 3.8 0.9 -0.1
v 3.8 1 -0.1
v 3.9 0.9 -0.1
v 3.9 1 -0.1
v 5.1 0.8 -0.1
v 5.1 0.9 -0.1
v 5.2 0.8 -0.1
v 5.2 0.9 -0.1
v 3.9 0.9 -0.3
v 3.9 1 -0.3
v 4 0.9 -0.3
v 4 1 -0.3
v 4 0.9 -0.4
v 4 1 -0.4
v 4.1 0.9 -0.4
v 4.1 1 -0.4
v 4.1 0.9 -0.5
v 4.1 1 -0.5
v 4.2 0.9 -0.5
v 4.2 1 -0.5
v 4.8 0.8 -0.5
v 4.8 0.9 -0.5
v 4.9 0.8 -0.5
v 4.9 0.9 -0.5
v 4.3 0.9 -0.6
v 4.3 1 -0.6
v 4.4 0.9 -0.6
v 4.4 1 -0.6
v 4.5 0.9 -0.6
v 4.5 1 -0.6
v 4.6 0.8 -0.6
v 4.6 0.9 -0.6
v 4.6 1 -0.6
v 4.8 0.8 -0.6
v 4.8 0.9 -0.6
v 4.4 0.9 0.6
v 4.4 1 0.6
v 4.5 0.8 0.6
v 4.5 0.9 0.6
v 4.5 1 0.6
v 4.6 0.8 0.6
v 4.6 0.9 0.6
v 4.7 0.8 0.6
v 4.7 0.9 0.6
v 4.8 0.8 0.6
v 4.8 0.9 0.6
v 4.1 0.9 0.5
v 4.1 1 0.5
v 4.2 0.9 0.5
v 4.2 1 0.5
v 4.8 0.8 0.5
v 4.8 0.9 0.5
v 4.9 0.8 0.5
v 4.9 0.9 0.5
v 4 0.9 0.4
v 4 1 0.4
v 4.1 0.9 0.4
v 4.1 1 0.4
v 3.9 0.9 0.3
v 3.9 1 0.3
v 4 0.9 0.3
v 4 1 0.3
v 5 0.8 0.3
v 5 0.9 0.3
v 5.1 0.8 0.3
v 5.1 0.9 0.3
v 3.8 0.9 0.1
v 3.8 1 0.1
v 3.9 0.9 0.1
v 3.9 1 0.1
v 5.1 0.8 0
v 5.1 0.9 0
v 5.2 0.8 0
v 5.2 0.9 0
v 3.8 0.9 -0.3
v 3.8 1 -0.3
v 3.9 0.9 -0.3
v 3.9 1 -0.3
v 5.1 0.8 -0.3
v 5.1 0.9 -0.3
v 5.2 0.8 -0.3
v 5.2 0.9 -0.3
v 3.9 0.9 -0.4
v 3.9 1 -0.4
v 4 0.9 -0.4
v 4 1 -0.4
v 4 0.9 -0.5
v 4 1 -0.5
v 4.1 0.9 -0.5
v 4.1 1 -0.5
v 4.1 0.9 -0.6
v 4.1 1 -0.6
v 4.2 0.9 -0.6
v 4.2 1 -0.6
v 4.8 0.8 -0.6
v 4.8 0.9 -0.6
v 4.9 0.8 -0.6
v 4.9 0.9 -0.6
v 4.3 0.9 -0.7
v 4.3 1 -0.7
v 4.4 0.9 -0.7
v 4.4 1 -0.7
v 4.5 0.9 -0.7
v 4.5 1 -0.7
v 4.6 0.8 -0.7
v 4.6 0.9 -0.7
v 4.6 1 -0.7
v 4.8 0.8 -0.7
v 4.8 0.9 -0.7
v 4.5 0.8 0.7
v 4.6 0.8 0.7
v 4.7 0.8 0.7
v 4.8 0.8 0.7
v 4.5 0.8 0.6
v 4.6 0.8 0.6
v 4.7 0.8 0.6
v 4.8 0.8 0.6
v 4.9 0.8 0.6
v 4.8 0.8 0.5
v 4.9 0.8 0.5
v 5 0.8 0.4
v 5.1 0.8 0.4
v 5 0.8 0.3
v 5.1 0.8 0.3
v 5.1 0.8 0.1
v 5.2 0.8 0.1
v 5.1 0.8 0
v 5.2 0.8 0
v 5.1 0.8 -0.1
v 5.2 0.8 -0.1
v 5.1 0.8 -0.2
v 5.2 0.8 -0.2
v 5.1 0.8 -0.3
v 5.2 0.8 -0.3
v 4.8 0.8 -0.5
v 4.9 0.8 -0.5
v 4.6 0.8 -0.6
v 4.8 0.8 -0.6
v 4.9 0.8 -0.6
v 4.6 0.8 -0.7
v 4.8 0.8 -0.7
v 4.4 0.9 0.7
v 4.5 0.9 0.7
v 4.1 0.9 0.6
v 4.2 0.9 0.6
v 4.4 0.9 0.6
v 4.5 0.9 0.6
v 4 0.9 0.5
v 4.1 0.9 0.5
v 4.2 0.9 0.5
v 3.9 0.9 0.4
v 4 0.9 0.4
v 4.1 0.9 0.4
v 3.9 0.9 0.3
v 4 0.9 0.3
v 3.8 0.9 0.2
v 3.9 0.9 0.2
v 3.8 0.9 0.1
v 3.9 0.9 0.1
v 3.8 0.9 -0.1
v 3.9 0.9 -0.1
v 3.8 0.9 -0.3
v 3.9 0.9 -0.3
v 4 0.9 -0.3
v 3.9 0.9 -0.4
v 4 0.9 -0.4
v 4.1 0.9 -0.4
v 4 0.9 -0.5
v 4.1 0.9 -0.5
v 4.2 0.9 -0.5
v 4.1 0.9 -0.6
v 4.2 0.9 -0.6
v 4.3 0.9 -0.6
v 4.4 0.9 -0.6
v 4.5 0.9 -0.6
v 4.6 0.9 -0.6
v 4.3 0.9 -0.7
v 4.4 0.9 -0.7
v 4.5 0.9 -0.7
v 4.6 0.9 -0.7
v 4.5 0.9 0.7
v 4.6 0.9 0.7
v 4.7 0.9 0.7
v 4.8 0.9 0.7
v 4.5 0.9 0.6
v 4.6 0.9 0.6
v 4.7 0.9 0.6
v 4.8 0.9 0.6
v 4.9 0.9 0.6
v 4.8 0.9 0.5
v 4.9 0.9 0.5
v 5 0.9 0.4
v 5.1 0.9 0.4
v 5 0.9 0.3
v 5.1 0.9 0.3
v 5.1 0.9 0.1
v 5.2 0.9 0.1
v 5.1 0.9 0
v 5.2 0.9 0
v 5.1 0.9 -0.1
v 5.2 0.9 -0.1
v 5.1 0.9 -0.2
v 5.2 0.9 -0.2
v 5.1 0.9 -0.3
v 5.2 0.9 -0.3
v 4.8 0.9 -0.5
v 4.9 0.9 -0.5
v 4.6 0.9 -0.6
v 4.8 0.9 -0.6
v 4.9 0.9 -0.6
v 4.6 0.9 -0.7
v 4.8 0.9 -0.7
v 4.4 1 0.7
v 4.5 1 0.7
v 4.1 1 0.6
v 4.2 1 0.6
v 4.4 1 0.6
v 4.5 1 0.6
v 4 1 0.5
v 4.1 1 0.5
v 4.2 1 0.5
v 3.9 1 0.4
v 4 1 0.4
v 4.1 1 0.4
v 3.9 1 0.3
v 4 1 0.3
v 3.8 1 0.2
v 3.9 1 0.2
v 3.8 1 0.1
v 3.9 1 0.1
v 3.8 1 -0.1
v 3.9 1 -0.1
v 3.8 1 -0.3
v 3.9 1 -0.3
v 4 1 -0.3
v 3.9 1 -0.4
v 4 1 -0.4
v 4.1 1 -0.4
v 4 1 -0.5
v 4.1 1 -0.5
v 4.2 1 -0.5
v 4.1 1 -0.6
v 4.2 1 -0.6
v 4.3 1 -0.6
v 4.4 1 -0.6
v 4.5 1 -0.6
v 4.6 1 -0.6
v 4.3 1 -0.7
v 4.4 1 -0.7
v 4.5 1 -0.7
v 4.6 1 -0.7

# faces
f 5/1/1 2/1/1 1/1/1
f 6/1/1 2/1/1 5/1/1
f 7/2/1 4/2/1 3/2/1
f 8/2/1 4/2/1 7/2/1
f 13/2/1 10/2/1 9/2/1
f 14/2/1 10/2/1 13/2/1
f 15/1/1 12/1/1 11/1/1
f 16/1/1 12/1/1 15/1/1
f 21/1/1 18/1/1 17/1/1
f 22/1/1 18/1/1 21/1/1
f 23/2/1 20/2/1 19/2/1
f 24/2/1 20/2/1 23/2/1
f 29/1/1 26/1/1 25/1/1
f 30/1/1 26/1/1 29/1/1
f 31/2/1 28/2/1 27/2/1
f 32/2/1 28/2/1 31/2/1
f 35/2/1 34/2/1 33/2/1
f 36/2/1 34/2/1 35/2/1
f 39/1/1 38/1/1 37/1/1
f 40/1/1 38/1/1 39/1/1
f 43/1/1 42/1/1 41/1/1
f 44/1/1 42/1/1 43/1/1
f 47/1/1 46/1/1 45/1/1
f 48/1/1 46/1/1 47/1/1
f 51/1/1 50/1/1 49/1/1
f 52/1/1 50/1/1 51/1/1
f 57/1/1 54/1/1 53/1/1
f 58/1/1 54/1/1 57/1/1
f 59/1/1 56/1/1 55/1/1
f 60/1/1 56/1/1 59/1/1
f 63/2/1 62/2/1 61/2/1
f 64/2/1 62/2/1 63/2/1
f 70/1/1 66/1/1 65/1/1
f 71/1/1 66/1/1 70/1/1
f 72/2/1 68/2/1 67/2/1
f 73/1/1 69/1/1 68/1/1
f 73/2/1 68/2/1 72/2/1
f 74/1/1 69/1/1 73/1/1
f 75/1/2 76/1/2 79/1/2
f 79/1/2 76/1/2 80/1/2
f 77/2/2 78/2/2 81/2/2
f 81/2/2 78/2/2 82/2/2
f 83/2/2 84/2/2 87/2/2
f 87/2/2 84/2/2 88/2/2
f 85/1/2 86/1/2 89/1/2
f 89/1/2 86/1/2 90/1/2
f 91/1/2 92/1/2 95/1/2
f 95/1/2 92/1/2 96/1/2
f 93/2/2 94/2/2 97/2/2
f 97/2/2 94/2/2 98/2/2
f 99/1/2 100/1/2 103/1/2
f 103/1/2 100/1/2 104/1/2
f 101/2/2 102/2/2 105/2/2
f 105/2/2 102/2/2 106/2/2
f 107/2/2 108/2/2 109/2/2
f 109/2/2 108/2/2 110/2/2
f 111/1/2 112/1/2 113/1/2
f 113/1/2 112/1/2 114/1/2
f 115/1/2 116/1/2 117/1/2
f 117/1/2 116/1/2 118/1/2
f 119/1/2 120/1/2 123/1/2
f 123/1/2 120/1/2 124/1/2
f 121/1/2 122/1/2 125/1/2
f 125/1/2 122/1/2 126/1/2
f 127/1/2 128/1/2 131/1/2
f 131/1/2 128/1/2 132/1/2
f 129/1/2 130/1/2 133/1/2
f 133/1/2 130/1/2 134/1/2
f 135/2/2 136/2/2 137/2/2
f 137/2/2 136/2/2 138/2/2
f 139/1/2 140/1/2 144/1/2
f 144/1/2 140/1/2 145/1/2
f 141/2/2 142/2/2 146/2/2
f 142/1/2 143/1/2 147/1/2
f 146/2/2 142/2/2 147/2/2
f 147/1/2 143/1/2 148/1/2
f 152/1/3 150/1/3 149/1/3
f 153/1/3 150/1/3 152/1/3
f 154/1/3 152/1/3 151/1/3
f 155/1/3 152/1/3 154/1/3
f 156/2/3 155/2/3 154/2/3
f 157/2/3 155/2/3 156/2/3
f 158/1/3 157/1/3 156/1/3
f 159/1/3 157/1/3 158/1/3
f 162/1/3 161/1/3 160/1/3
f 163/1/3 161/1/3 162/1/3
f 166/1/3 165/1/3 164/1/3
f 167/1/3 165/1/3 166/1/3
f 170/1/3 169/1/3 168/1/3
f 171/1/3 169/1/3 170/1/3
f 174/2/3 173/2/3 172/2/3
f 175/2/3 173/2/3 174/2/3
f 178/2/3 177/2/3 176/2/3
f 179/2/3 177/2/3 178/2/3
f 182/1/3 181/1/3 180/1/3
f 183/1/3 181/1/3 182/1/3
f 186/1/3 185/1/3 184/1/3
f 187/1/3 185/1/3 186/1/3
f 190/2/3 189/2/3 188/2/3
f 191/2/3 189/2/3 190/2/3
f 194/2/3 193/2/3 192/2/3
f 195/2/3 193/2/3 194/2/3
f 198/1/3 197/1/3 196/1/3
f 199/1/3 197/1/3 198/1/3
f 202/2/3 201/2/3 200/2/3
f 203/2/3 201/2/3 202/2/3
f 206/2/3 205/2/3 204/2/3
f 207/2/3 205/2/3 206/2/3
f 210/1/3 209/1/3 208/1/3
f 211/1/3 209/1/3 210/1/3
f 214/2/3 213/2/3 212/2/3
f 215/2/3 213/2/3 214/2/3
f 219/1/3 217/1/3 216/1/3
f 220/1/3 217/1/3 219/1/3
f 221/1/3 219/1/3 218/1/3
f 222/1/3 219/1/3 221/1/3
f 223/1/4 224/1/4 226/1/4
f 226/1/4 224/1/4 227/1/4
f 225/1/4 226/1/4 228/1/4
f 228/1/4 226/1/4 229/1/4
f 228/2/4 229/2/4 230/2/4
f 230/2/4 229/2/4 231/2/4
f 230/1/4 231/1/4 232/1/4
f 232/1/4 231/1/4 233/1/4
f 234/1/4 235/1/4 236/1/4
f 236/1/4 235/1/4 237/1/4
f 238/1/4 239/1/4 240/1/4
f 240/1/4 239/1/4 241/1/4
f 242/1/4 243/1/4 244/1/4
f 244/1/4 243/1/4 245/1/4
f 246/2/4 247/2/4 248/2/4
f 248/2/4 247/2/4 249/2/4
f 250/2/4 251/2/4 252/2/4
f 252/2/4 251/2/4 253/2/4
f 254/1/4 255/1/4 256/1/4
f 256/1/4 255/1/4 257/1/4
f 258/1/4 259/1/4 260/1/4
f 260/1/4 259/1/4 261/1/4
f 262/2/4 263/2/4 264/2/4
f 264/2/4 263/2/4 265/2/4
f 266/1/4 267/1/4 268/1/4
f 268/1/4 267/1/4 269/1/4
f 270/1/4 271/1/4 272/1/4
f 272/1/4 271/1/4 273/1/4
f 274/2/4 275/2/4 276/2/4
f 276/2/4 275/2/4 277/2/4
f 278/2/4 279/2/4 280/2/4
f 280/2/4 279/2/4 281/2/4
f 282/1/4 283/1/4 284/1/4
f 284/1/4 283/1/4 285/1/4
f 286/2/4 287/2/4 288/2/4
f 288/2/4 287/2/4 289/2/4
f 290/1/4 291/1/4 293/1/4
f 293/1/4 291/1/4 294/1/4
f 292/1/4 293/1/4 295/1/4
f 295/1/4 293/1/4 296/1/4
f 301/1/5 298/1/5 297/1/5
f 302/2/5 299/2/5 298/2/5
f 302/1/5 298/1/5 301/1/5
f 303/1/5 300/1/5 299/1/5
f 303/2/5 299/2/5 302/2/5
f 304/1/5 300/1/5 303/1/5
f 306/1/5 305/1/5 304/1/5
f 307/1/5 305/1/5 306/1/5
f 310/2/5 309/2/5 308/2/5
f 311/2/5 309/2/5 310/2/5
f 314/1/5 313/1/5 312/1/5
f 315/1/5 313/1/5 314/1/5
f 318/2/5 317/2/5 316/2/5
f 319/2/5 317/2/5 318/2/5
f 320/1/5 319/1/5 318/1/5
f 321/1/5 319/1/5 320/1/5
f 325/1/5 323/1/5 322/1/5
f 326/1/5 323/1/5 325/1/5
f 327/1/5 325/1/5 324/1/5
f 328/1/5 325/1/5 327/1/5
f 333/1/5 330/1/5 329/1/5
f 334/1/5 330/1/5 333/1/5
f 336/1/5 332/1/5 331/1/5
f 337/1/5 332/1/5 336/1/5
f 339/1/5 336/1/5 335/1/5
f 340/1/5 336/1/5 339/1/5
f 341/2/5 339/2/5 338/2/5
f 342/2/5 339/2/5 341/2/5
f 345/1/5 344/1/5 343/1/5
f 346/1/5 344/1/5 345/1/5
f 349/2/5 348/2/5 347/2/5
f 350/2/5 348/2/5 349/2/5
f 352/1/5 351/1/5 350/1/5
f 353/1/5 351/1/5 352/1/5
f 355/2/5 354/2/5 353/2/5
f 356/2/5 354/2/5 355/2/5
f 358/2/5 357/2/5 356/2/5
f 359/2/5 357/2/5 358/2/5
f 364/2/5 361/2/5 360/2/5
f 365/2/5 361/2/5 364/2/5
f 366/1/5 363/1/5 362/1/5
f 367/1/5 363/1/5 366/1/5
f 368/1/6 369/1/6 372/1/6
f 369/2/6 370/2/6 373/2/6
f 372/1/6 369/1/6 373/1/6
f 370/1/6 371/1/6 374/1/6
f 373/2/6 370/2/6 374/2/6
f 374/1/6 371/1/6 375/1/6
f 375/1/6 376/1/6 377/1/6
f 377/1/6 376/1/6 378/1/6
f 379/2/6 380/2/6 381/2/6
f 381/2/6 380/2/6 382/2/6
f 383/1/6 384/1/6 385/1/6
f 385/1/6 384/1/6 386/1/6
f 387/2/6 388/2/6 389/2/6
f 389/2/6 388/2/6 390/2/6
f 389/1/6 390/1/6 391/1/6
f 391/1/6 390/1/6 392/1/6
f 393/1/6 394/1/6 396/1/6
f 396/1/6 394/1/6 397/1/6
f 395/1/6 396/1/6 398/1/6
f 398/1/6 396/1/6 399/1/6
f 400/1/6 401/1/6 404/1/6
f 404/1/6 401/1/6 405/1/6
f 402/1/6 403/1/6 407/1/6
f 407/1/6 403/1/6 408/1/6
f 406/1/6 407/1/6 410/1/6
f 410/1/6 407/1/6 411/1/6
f 409/2/6 410/2/6 412/2/6
f 412/2/6 410/2/6 413/2/6
f 414/1/6 415/1/6 416/1/6
f 416/1/6 415/1/6 417/1/6
f 418/2/6 419/2/6 420/2/6
f 420/2/6 419/2/6 421/2/6
f 421/1/6 422/1/6 423/1/6
f 423/1/6 422/1/6 424/1/6
f 424/2/6 425/2/6 426/2/6
f 426/2/6 425/2/6 427/2/6
f 427/2/6 428/2/6 429/2/6
f 429/2/6 428/2/6 430/2/6
f 431/2/6 432/2/6 435/2/6
f 435/2/6 432/2/6 436/2/6
f 433/1/6 434/1/6 437/1/6
f 437/1/6 434/1/6 438/1/6
